<?xml version="1.0" encoding="utf-8"?>
<!-- Generator: Adobe Illustrator 21.1.0, SVG Export Plug-In . SVG Version: 6.00 Build 0)  -->
<svg version="1.1" id="Laag_1" xmlns="http://www.w3.org/2000/svg" xmlns:xlink="http://www.w3.org/1999/xlink" x="0px" y="0px"
	 viewBox="0 0 842 531" style="enable-background:new 0 0 842 531;" xml:space="preserve">
<style type="text/css">
	.st0{opacity:0.98;fill:#1E1E1E;enable-background:new    ;}
</style>
<g id="_x23_1e1e1efa">
	<path class="st0" d="M409.4,17.4c21.2-2.3,43.4,0.1,62.6,9.6c7,3.8,13.7,8.3,20.6,12.4C555.7,78.3,619,117,682.1,155.9
		c41.6,25.4,83,51.1,124.6,76.4c8.1,5.8,11.9,15.8,13.7,25.2c1.7,7.5,1.3,15.3,1,23c-0.1,10.6-6.4,20.1-13.9,27.1
		c-6.6,6.1-14.8,10.1-22.6,14.3c-103.9,55.5-207.7,110.9-311.6,166.4c-15.5,8-33.1,10.9-50.4,10.9c-14.3-0.3-28.7-2.7-41.9-8.4
		c-5.5-2.3-10.6-5.4-15.8-8.3C261.1,424.9,156.9,367.1,52.6,309.4c-9.4-5.2-18.7-12.1-22.6-22.5c-2.3-5.3-1.8-11.3-1.8-16.9
		c0.1-5-0.1-10,0.1-15c0.2-5.9,3.2-11.3,6.7-16c4.7-6.1,11.3-10.3,17.8-14.2C159.4,159.4,266,94,372.7,28.7
		C383.9,22.3,396.6,18.9,409.4,17.4 M390.5,24.6c-12,3.4-22.2,10.7-32.8,17.1C255.4,104.4,153.1,167.1,50.8,229.9
		c-7.3,4.4-14.2,10.4-17.5,18.4c-2.5,5.2-1.6,11.1-1.9,16.6c4.7-8.3,12.2-14.5,20.4-19.1C158.4,180.4,265,115.1,371.7,49.7
		c15.5-9,33.6-12.6,51.3-12.8c18.4,0,37.2,3.5,53.2,12.9c106.7,65,213.3,130,320,195c4.7,2.9,9.6,5.5,13.9,9c3.1,2.5,5.3,6,7.8,9.1
		c-1.2-10-4.2-20.9-12.4-27.5C699.1,170.3,592.8,104.9,486.4,39.6c-8-4.8-15.7-10.3-24.6-13.3C439,18.2,413.6,17.8,390.5,24.6
		 M407.4,40.6c-10.1,1.4-20.1,4.1-29.2,8.6c-4.8,2.4-9.3,5.4-13.9,8.1C259.5,121.6,154.8,185.8,50,250c-8.4,5-15.9,12.5-18.4,22.2
		c-0.8,6.5,0.8,13.3,4.4,18.8c5.1,8,13.6,12.9,21.8,17.3c106.4,58.9,212.8,117.9,319.2,176.8c11.3,5.9,23.9,9,36.5,10.3
		c15.8,1.3,31.9-0.1,46.9-5.1c8.7-2.7,16.4-7.6,24.4-11.8c102.8-54.9,205.5-109.8,308.3-164.7c11.1-6,21.5-15.5,24.7-28.2
		c0.4-6.6,2-13.7-1.5-19.7c-3.9-8.9-12.6-13.7-20.6-18.4C689.9,183.1,584.2,118.8,478.6,54.4C457.8,40.7,431.7,37.7,407.4,40.6z"/>
	<path class="st0" d="M412.4,58.4c9.7-1.3,20.1-0.4,28.8,4.4c103.3,62,206.6,124.1,309.9,186.1c4.2,2.6,9,4.8,12.1,8.9
		c2.6,3.5,2.2,8,2.1,12.1c-0.7,9.6,0.4,19.3-0.5,28.9c-1.8,7.6-9.2,11.8-15.7,15.1C650.2,367.5,551.4,421,452.6,474.6
		c-5.3,3-10.8,6.1-17,6.9c-10.6,1.4-21.9,0.4-31.6-4.5C300.5,420.4,197,364,93.4,307.5c-4.8-2.2-5.6-7.9-5.2-12.5
		c0.5-10.7,1.4-21.4,1.9-32c0.1-5.4,4-9.7,8.3-12.4c98.9-61.8,197.8-123.6,296.7-185.4C400.2,61.5,406.2,59.3,412.4,58.4
		 M408.8,60.7c-8,1.6-14.3,6.9-21.1,10.9c-96,60-192,120-288,180c-3.2,2.1-6.4,4.7-7.4,8.6c-0.7,3.5-0.8,7.2-1,10.8
		c12.4-7,24.3-14.9,36.5-22.2c86.5-53.2,173-106.3,259.6-159.4c8.2-4.5,15.6-11.1,25.1-12.8c11.2-2.7,23.4-0.3,32.9,6
		c106.1,64.1,212.1,128.3,318.2,192.2c0.1-4.2,0.5-8.4-0.2-12.5c-0.8-3.9-4.1-6.6-7.2-8.6C651,190.7,545.9,127.5,440.7,64.3
		C431,59,419.4,58.5,408.8,60.7 M408.8,78.6c-6.1,1.6-11,5.7-16.3,8.8c-97.6,60.1-195.1,120.3-292.7,180.4c-2.4,1.5-5.1,2.9-7.3,4.7
		c-1.4,3.3-1,7-1.2,10.5c-0.2,5.6-1.3,11.2-0.8,16.9c0.3,3,2.4,5.4,4.9,6.7C196.7,361.6,298,416.7,399.3,471.8
		c13.6,8.4,31.7,10.6,46.4,3.8c102-54.9,203.9-110.1,305.8-165.1c4.9-2.9,10.8-7,10.5-13.4c0-6.9,0.4-13.8-0.3-20.7
		C656.1,212.2,550.6,148.1,445,83.9C434.6,76.8,420.8,74.4,408.8,78.6z"/>
</g>
<g id="_x23_ffffffff">
</g>
</svg>
