<?xml version="1.0" encoding="utf-8"?>
<!-- Generator: Adobe Illustrator 21.1.0, SVG Export Plug-In . SVG Version: 6.00 Build 0)  -->
<svg version="1.1" id="Laag_1" xmlns="http://www.w3.org/2000/svg" xmlns:xlink="http://www.w3.org/1999/xlink" x="0px" y="0px"
	 viewBox="0 0 1351 1050" style="enable-background:new 0 0 1351 1050;" xml:space="preserve">
<style type="text/css">
	.st0{fill:#0060FF;}
	.st1{fill:#FFFFFF;}
	.st2{opacity:0.52;fill:#2E2E2E;enable-background:new    ;}
	.st3{opacity:0.31;fill:#2C2C2C;enable-background:new    ;}
	.st4{opacity:0.41;fill:#303030;enable-background:new    ;}
	.st5{opacity:0.58;fill:#2C2C2C;enable-background:new    ;}
	.st6{opacity:0.4;fill:#303030;enable-background:new    ;}
	.st7{opacity:0.45;fill:#1E1E1E;enable-background:new    ;}
	.st8{opacity:0.45;fill:#313131;enable-background:new    ;}
	.st9{opacity:0.54;fill:#2E2E2E;enable-background:new    ;}
	.st10{opacity:0.33;fill:#41311C;enable-background:new    ;}
	.st11{opacity:0.59;fill:#2A2A2A;enable-background:new    ;}
	.st12{opacity:0.4;fill:#212121;enable-background:new    ;}
	.st13{opacity:0.45;fill:#303030;enable-background:new    ;}
	.st14{opacity:0.23;fill:#202020;enable-background:new    ;}
	.st15{opacity:0.53;fill:#1C1C1C;enable-background:new    ;}
	.st16{opacity:0.43;fill:#303030;enable-background:new    ;}
	.st17{opacity:0.48;fill:#303030;enable-background:new    ;}
	.st18{fill:#050505;}
	.st19{fill:#F1F1F1;}
	.st20{fill:#DEDEDE;}
	.st21{fill:#D8D8D8;}
	.st22{fill:#D4D4D4;}
	.st23{fill:#D1D1D1;}
	.st24{fill:#CCCCCC;}
	.st25{opacity:0.93;fill:#EEEEEE;enable-background:new    ;}
	.st26{fill:#020202;}
	.st27{fill:#5F5F5F;}
	.st28{fill:#AFAFAF;}
	.st29{opacity:0.64;fill:#262626;enable-background:new    ;}
	.st30{opacity:0.45;fill:#3A3A3A;enable-background:new    ;}
	.st31{opacity:0.57;fill:#3C3C3C;enable-background:new    ;}
	.st32{opacity:0.39;fill:#343434;enable-background:new    ;}
	.st33{opacity:0.34;fill:#2A2A2A;enable-background:new    ;}
	.st34{fill:#FEFEFE;}
	.st35{fill:#C9C9C9;}
	.st36{fill:#CACACA;}
	.st37{fill:#A4A4A4;}
	.st38{fill:#B5B5B5;}
	.st39{fill:#9F9F9F;}
	.st40{fill:#26426D;}
</style>
<path d="M725.5,631.9c1.4-0.7,3.2-0.7,4.6,0.1c0.8,0.5,1.1,1.4,1.3,2.3c-0.4,0-0.8,0.1-1.2,0.1c-0.2-0.7-0.6-1.5-1.4-1.7
	c-0.9-0.2-1.9-0.2-2.7,0.2c-0.7,0.4-0.8,1.6,0,2c1.5,0.8,3.4,0.6,4.8,1.8c1.2,1,1,3-0.2,3.9c-1.3,1-3.1,1-4.6,0.5
	c-1.3-0.4-2.1-1.7-2.1-3c0.4,0,0.8-0.1,1.2-0.1c0.1,0.8,0.5,1.6,1.3,1.9c1,0.4,2.3,0.5,3.3-0.1c0.8-0.4,1-1.7,0.2-2.2
	c-1.5-0.9-3.5-0.7-4.9-1.9C723.8,634.7,724.1,632.6,725.5,631.9z"/>
<path d="M741,632.4c0.4-0.2,0.8-0.5,1.2-0.7c0,0.8,0,1.6,0,2.5c0.4,0,0.8,0,1.2,0c0,0.2,0,0.7,0,0.9c-0.4,0-0.8,0-1.2,0
	c0,1.5,0,3,0,4.6c0,0.6,0.7,0.5,1.2,0.5c0.1,0.3,0.1,0.7,0.2,1c-0.9,0.1-2.2,0.2-2.5-0.9c-0.2-1.7,0-3.5-0.1-5.3c-0.2,0-0.6,0-0.9,0
	c0-0.2,0-0.7,0-0.9c0.2,0,0.7,0,0.9,0C740.9,633.6,741,633,741,632.4z"/>
<path d="M733.9,634.9c0.9-0.9,2.4-1,3.6-0.6c1.4,0.6,2,2.3,1.9,3.7c-1.8,0-3.5,0-5.3,0c0,1.1,0.8,2.4,2,2.4c0.9,0.1,1.7-0.6,2-1.4
	c0.4,0.1,0.8,0.1,1.2,0.2c-0.3,1-1,1.8-2,2.1c-1.2,0.3-2.6,0.2-3.5-0.7C732.4,639,732.4,636.4,733.9,634.9 M734.9,635.4
	c-0.5,0.4-0.7,1-0.8,1.6c1.3,0.1,2.7,0,4,0c-0.1-0.5-0.2-1-0.6-1.4C736.8,634.9,735.6,634.9,734.9,635.4z"/>
<path d="M730.5,644.7c3.6-0.5,7.4,0,10.7,1.7c3.4,1.6,6.3,4.4,8.2,7.7c2.5,4.5,3.1,9.9,1.5,14.8c-1,3.3-3,6.2-5.6,8.5
	c-3.5,3.1-8.2,4.7-12.9,4.5c-3.9-0.1-7.8-1.5-10.9-3.9c-3.4-2.7-5.9-6.6-6.8-10.9c-1-4.8-0.1-10,2.6-14.1
	C720.4,648.6,725.3,645.4,730.5,644.7 M729.8,645.7c-4.2,0.8-8.1,3.1-10.7,6.5c-2.4,3-3.7,6.8-3.8,10.7c-0.1,4.2,1.3,8.4,4,11.6
	c2.8,3.5,7,5.9,11.4,6.5c4.1,0.6,8.3-0.3,11.8-2.5c3.6-2.3,6.5-5.8,7.7-9.9c1-3.3,1.1-6.8,0.1-10.2c-1.4-5-5.1-9.3-9.9-11.5
	C737.2,645.4,733.4,645,729.8,645.7z"/>
<path d="M730.3,647.6c3.6-0.6,7.4-0.1,10.6,1.8c4,2.1,6.8,6.1,7.8,10.4c1.2,5-0.3,10.5-3.8,14.3c-1.5,1.9-3.7,3.1-5.9,4.1
	c-3.8,1.5-8.1,1.5-11.9,0c-2.2-1-4.3-2.2-5.8-4c-2.6-2.8-4.1-6.5-4.2-10.3c-0.2-5.1,2.2-10.1,6.2-13.2
	C725.4,649.1,727.8,647.9,730.3,647.6 M730.3,648.3c-2.4,0.4-4.6,1.5-6.6,2.9c-3.7,2.9-6,7.4-5.9,12.1c0,4.7,2.2,9.2,5.9,12.1
	c2.2,1.6,4.8,2.8,7.6,3c2.5,0.3,5.2,0,7.5-1c2.1-0.9,4.1-2.1,5.5-3.9c3.4-3.6,4.7-9,3.5-13.7c-1-4.2-3.8-8-7.7-10
	C737.3,648.1,733.7,647.7,730.3,648.3z"/>
<path class="st0" d="M730.7,654.5c2.3-0.6,4.8-0.3,6.9,0.9c1.6,0.8,2.9,2.3,3.7,3.8c1.6,3.1,1.2,7.1-0.9,9.8
	c-2.5,3.5-7.7,4.6-11.4,2.6c-2.3-1.1-4.1-3.3-4.7-5.8c-0.7-2.7-0.2-5.8,1.6-8.1C727,656.2,728.8,655,730.7,654.5z"/>
<path class="st1" d="M15,262.6c76.2,0,152.4,0,228.6,0c0,78.9,0.1,157.9,0,236.8c-76.2,0-152.4,0-228.6,0
	C15,420.4,15,341.5,15,262.6 M96,279.9c-5.9,2.9-7.3,12-2.2,16.3c5.9,5,14.4,3.9,20.8,8c3.3,2.3,2.6,7.7-0.8,9.6
	c-4.2,2.4-9.6,2.2-14,0.5c-3.4-1.4-5-4.8-5.7-8.2c-1.7,0.1-3.4,0.3-5,0.4c0.1,5.6,3.7,11,9.1,12.7c6.4,2,14.2,2.1,19.7-2.3
	c5-3.9,5.7-12.4,0.7-16.6c-5.8-4.8-14-4.1-20.4-7.5c-3.2-1.8-2.8-6.7,0.2-8.6c3.4-2,7.8-2,11.6-1.1c3.4,0.8,5.1,4.2,5.8,7.3
	c1.7-0.2,3.5-0.3,5.2-0.5c-0.6-3.7-1.9-7.7-5.4-9.6C109.8,276.9,102,276.8,96,279.9 M162,282.3c-0.1,2.5-0.1,5-0.1,7.5
	c-0.9,0-2.8,0-3.7,0c0,1,0,3,0,4c0.9,0,2.8-0.1,3.7-0.1c0.4,7.5-0.4,15,0.5,22.4c1,4.7,6.8,4.4,10.5,3.8c-0.2-1.5-0.5-3-0.8-4.5
	c-1.8-0.1-5,0.4-5-2.3c-0.2-6.5-0.1-12.9,0-19.4c1.7,0,3.3,0,5,0.1c0-1,0-3,0-4c-1.7,0-3.4,0-5.1,0c0-3.5,0-7,0-10.5
	C165.4,280.3,163.7,281.3,162,282.3 M131.7,292.7c-6.1,6.4-6.3,17.4-0.4,24c3.8,3.9,9.8,4.4,14.8,3.2c4.3-1.1,7.3-4.9,8.7-9
	c-1.8-0.2-3.5-0.5-5.3-0.7c-1.4,3.4-4.5,6.6-8.5,6.1c-5.3,0.1-8.6-5.3-8.7-10.2c7.5,0,15,0,22.5,0c0.5-6.1-2.1-13.2-8-15.8
	C141.9,288.5,135.6,288.9,131.7,292.7 M117.6,334.7C95,337.6,74.3,351,61.9,370c-11.6,17.4-15.7,39.6-11.3,60.1
	c3.7,18.2,14.3,34.8,28.9,46.3c13.2,10.4,29.7,16.5,46.5,16.8c19.9,0.9,39.9-6.2,54.8-19.4c10.9-9.6,19.5-22,23.8-36
	c6.8-20.8,4.3-44.2-6.4-63.2c-8.2-14-20.3-25.8-35-32.8C149.2,334.9,133,332.6,117.6,334.7z"/>
<path class="st1" d="M681.1,627.4c-0.1-2.3,1.5-4.5,3.7-5.2c-1.1,2-1.9,4.3-1.4,6.5c0.2,1.3,0.8,2.6,1.4,3.8
	C682.7,631.7,681,629.7,681.1,627.4z"/>
<path class="st1" d="M699,624.8c1.7-0.7,3.6,0.6,3.7,2.4c0.2,2-2.3,3.5-4,2.5C696.7,628.7,696.9,625.5,699,624.8z"/>
<path class="st1" d="M689.4,648.5c2.1-0.6,4.2-0.4,6.3-0.3c2.5,0.5,4.8,1.6,6.9,3.1c2.6,2.1,4.5,5,5.3,8.3c1.1,4.5,0,9.5-2.9,13
	c-2.3,3-5.8,4.9-9.4,5.5c-3.3,0.4-6.8,0-9.7-1.7c-2.8-1.5-5-4-6.4-6.8c-1.8-3.8-1.9-8.2-0.4-12.1c0.9-2.3,2.4-4.3,4.2-5.9
	C685,650.2,687.1,649,689.4,648.5 M691.6,653.7c-1.4,1.3-2.8,2.7-4.1,4c-0.6,0.5-0.9,1.4-1,2.2c0.2,0.4,0.4,0.9,0.6,1.3
	c0.6,0.4,1.2,1,2,0.9c0,2.3,0,4.7,0,7c0.4,1.4,1.6,2.6,3.1,2.6c1.2,0,2.5,0.2,3.6-0.3c1.1-0.6,1.9-1.8,1.8-3.1c0-2.1,0-4.1,0-6.2
	c1.3-0.1,2.4-1.2,2.6-2.4c-0.3-0.7-0.5-1.5-1-2c-1.4-1.3-2.7-2.7-4.1-4.1C694.1,652.9,692.6,652.8,691.6,653.7z"/>
<path class="st1" d="M691.9,654.6c0.5-0.5,1.2-0.8,1.8-0.6c0.7,0.1,1.2,0.7,1.7,1.2c1.1,1.1,2.2,2.2,3.3,3.3
	c0.3,0.5,0.8,1.2,0.4,1.8c-0.2,0.5-0.7,0.7-1.1,1c-0.4,0-0.8,0-1.3,0c0,2.4,0,4.9,0,7.3c0,1.1-0.9,2.2-2.1,2.3
	c-0.9,0.1-1.9,0.1-2.8,0c-1.4-0.2-2.2-1.6-2.2-2.8c0-2.3-0.1-4.6,0.1-6.8c-0.4,0-0.8,0-1.2,0c-0.5-0.4-1.1-0.7-1.2-1.3
	c0-0.6,0.2-1.2,0.7-1.6C689.3,657.1,690.6,655.8,691.9,654.6 M690.6,657c-1.1,1.3-0.3,3.1-0.7,4.7c-0.1,2.3-0.1,4.7,0,7.1
	c0.4,0.6,0.7,1.3,1.3,1.7c0.8,0.5,1.9,0.4,2.8,0.4c1.3,0,2.5-1.2,2.4-2.5c0-3.2,0-6.4,0-9.6c0.1-1.3-1.1-2.5-2.4-2.5
	C692.8,656.1,691.4,656,690.6,657z"/>
<path class="st1" d="M690.8,658.6c0-0.7,0.5-1.3,1.1-1.6c0.9-0.1,1.8,0,2.6,0c0.5,0.4,1.1,0.9,1.1,1.7c0,3.2,0,6.4,0,9.6
	c0,0.9-0.8,1.7-1.6,1.6c-0.9,0-2,0.2-2.7-0.5c-0.4-0.4-0.5-0.9-0.5-1.4C690.8,664.9,690.8,661.8,690.8,658.6z"/>
<path d="M680.1,624.7c1-2.4,3.4-4.1,6-4.2c0.6-0.2,1,0.3,1.2,0.8l-0.3,0.4c0,0,0,0,0,0c-0.9,1.1-1.7,2.3-2,3.7
	c-0.4,1.4-0.2,3,0.1,4.4c0,0.4,0.2,0.7,0.5,1c0.5,0.5,0.8,1.1,1.2,1.8c0.2,0.3,0.3,0.6,0.6,0.9c-0.3,0.2-0.5,0.6-0.9,0.6
	c-1,0-2-0.3-2.9-0.7c0,0,0,0,0,0c-1.1-0.5-2.1-1.4-2.7-2.5c-0.2-0.4-0.4-0.8-0.6-1.2l-0.2-0.4c0,0,0,0,0,0
	C679.4,627.8,679.5,626.1,680.1,624.7C680.1,624.7,680.1,624.7,680.1,624.7 M681.1,627.4c-0.1,2.3,1.6,4.4,3.7,5
	c-0.6-1.2-1.2-2.4-1.4-3.8c-0.5-2.3,0.3-4.6,1.4-6.5C682.6,622.9,680.9,625,681.1,627.4z"/>
<path d="M699.4,620.6c0.4,0,0.7,0,1.1,0c0.3,0.7,0.4,1.8-0.4,2.1C699,622.7,699.1,621.3,699.4,620.6z"/>
<path d="M694.8,623.1c0.2-0.4,0.6-0.7,0.9-0.9c0.4,0.3,1.1,0.6,1,1.2c0,0.1,0,0.3,0,0.4c0,0.3-0.4,0.5-0.7,0.5
	C695.5,624,695.2,623.5,694.8,623.1z"/>
<path d="M703.1,623.3c0.1-0.7,0.8-0.9,1.3-1.2l0.3,0.3c0,0,0,0,0,0l0.2,0.4c0,0.1,0,0.3,0,0.4c-0.1,0.5-0.6,0.7-0.9,1c0,0,0,0-0.1,0
	c-0.3-0.1-0.8-0.1-0.8-0.5C703.1,623.7,703.1,623.5,703.1,623.3z"/>
<path d="M696.4,625.5c0.9-1.9,3.3-2.6,5.2-1.8c1.6,0.7,2.7,2.5,2.4,4.3c-0.2,1.1-0.9,2.1-1.8,2.8c-1.2,0.7-2.7,0.8-4,0.2
	c0,0,0,0,0,0c-0.5-0.3-1-0.7-1.4-1.1c-0.2-0.3-0.3-0.6-0.5-0.9c-0.3-1-0.3-2.1,0-3.1L696.4,625.5
	C696.4,625.5,696.4,625.5,696.4,625.5 M699,624.8c-2,0.7-2.2,3.9-0.3,4.8c1.7,1.1,4.2-0.5,4-2.5C702.6,625.4,700.6,624.1,699,624.8z
	"/>
<path d="M693.3,626.7c0.1,0,0.4,0,0.5,0c0.3,0,0.6,0,0.9,0c0.1,0,0.4,0,0.5,0c0,0.2,0.1,0.6,0.2,0.8c-0.2,0.7-1.1,0.7-1.6,0.6
	C693.1,627.9,693.3,627.1,693.3,626.7z"/>
<path d="M704.9,626.7l0.3,0c0.3,0,0.6,0,0.9-0.1l0.4-0.1c0,0.4,0.4,1-0.1,1.3c-0.4,0.1-0.9,0.1-1.3,0.1l-0.3-0.2c0,0,0,0,0,0
	l-0.2-0.3C704.8,627.2,704.9,626.9,704.9,626.7z"/>
<path d="M695,631.2c0.4-0.3,0.8-0.8,1.3-0.8c0.4,0.2,0.9,0.5,0.6,1c0,0,0,0,0,0c-0.2,0.4-0.5,0.8-0.9,0.9c-0.1,0-0.3,0-0.4,0
	c-0.2,0-0.5-0.1-0.6-0.1C694.9,631.8,695,631.5,695,631.2z"/>
<path d="M703.1,631.5c0-0.4-0.1-0.9,0.3-1.1c0.7-0.3,1.4,0.5,1.6,1.1c0.1,0.7-0.6,0.9-1.1,0.8C703.6,632,703.3,631.7,703.1,631.5z"
	/>
<path d="M699.4,632c0.4-0.1,0.8,0,1.2,0.1c0,0.7,0.3,1.9-0.7,2C698.9,633.9,699.2,632.7,699.4,632z"/>
<path d="M684.9,638.9c2.7-0.9,5.6-1.6,8.5-1.5c2.6-0.1,5.2,0.6,7.7,1.3c0,0,0,0,0.1,0c0.4,0.1,0.8,0.2,1.3,0.3
	c0.1-0.3,0.2-0.6,0.3-0.9c0.3-0.1,0.4,0.3,0.6,0.5c0.9,1.2,1.8,2.3,2.7,3.5c-1.5,0-2.9-0.3-4.4-0.4c0.1-0.4,0.2-0.8,0.3-1.2
	c-3.7-1.2-7.6-2-11.5-1.4c-1.8,0.2-3.5,0.8-5.2,1.2c-0.4,0-0.8,0.4-0.5,0.8c0.3,0.3,0.1,0.8-0.4,0.7c-1.3,0-2.6,0-3.9,0.1
	c0.9-1.3,1.9-2.4,3-3.5c0.1-0.1,0.3-0.2,0.4-0.2c0,0.2,0.1,0.7,0.2,0.9C684.2,639,684.6,639,684.9,638.9z"/>
<path d="M691.6,653.7c1-0.9,2.5-0.8,3.5,0c1.4,1.3,2.7,2.7,4.1,4.1c0.6,0.5,0.8,1.3,1,2c-0.2,1.2-1.3,2.3-2.6,2.4c0,2.1,0,4.1,0,6.2
	c0.1,1.3-0.7,2.5-1.8,3.1c-1.1,0.5-2.4,0.3-3.6,0.3c-1.5,0-2.7-1.3-3.1-2.6c0-2.3,0-4.7,0-7c-0.8,0.1-1.3-0.5-2-0.9
	c-0.2-0.4-0.4-0.9-0.6-1.3c0.2-0.8,0.4-1.6,1-2.2C688.9,656.4,690.2,655.1,691.6,653.7 M691.9,654.6c-1.3,1.3-2.6,2.5-3.9,3.8
	c-0.4,0.4-0.7,1-0.7,1.6c0.1,0.7,0.7,1,1.2,1.3c0.4,0,0.8,0,1.2,0c-0.1,2.3,0,4.5-0.1,6.8c0,1.3,0.8,2.7,2.2,2.8
	c0.9,0.1,1.9,0.1,2.8,0c1.1-0.1,2.1-1.2,2.1-2.3c0-2.4,0-4.9,0-7.3c0.4,0,0.8,0,1.3,0c0.4-0.3,0.9-0.5,1.1-1
	c0.4-0.6-0.1-1.3-0.4-1.8c-1.1-1.1-2.2-2.2-3.3-3.3c-0.5-0.5-1-1.1-1.7-1.2C693.1,653.7,692.4,654.1,691.9,654.6z"/>
<path d="M690.6,657c0.8-1,2.3-0.9,3.4-0.9c1.3,0,2.4,1.2,2.4,2.5c0,3.2,0,6.4,0,9.6c0.1,1.3-1.1,2.5-2.4,2.5c-0.9,0-1.9,0.2-2.8-0.4
	c-0.6-0.4-0.9-1.1-1.3-1.7c-0.1-2.4-0.1-4.7,0-7.1C690.3,660.2,689.5,658.4,690.6,657 M690.8,658.6c0,3.2,0,6.3,0,9.5
	c0,0.5,0.1,1,0.5,1.4c0.7,0.7,1.8,0.5,2.7,0.5c0.9,0,1.6-0.8,1.6-1.6c0-3.2,0-6.4,0-9.6c0-0.7-0.5-1.3-1.1-1.7c-0.9,0-1.8-0.1-2.6,0
	C691.3,657.3,690.8,657.9,690.8,658.6z"/>
<path class="st2" d="M687,621.7C687,621.7,687,621.7,687,621.7C687,621.7,687,621.7,687,621.7z"/>
<path class="st3" d="M704.7,622.5C704.7,622.5,704.7,622.5,704.7,622.5C704.7,622.5,704.7,622.5,704.7,622.5z"/>
<path class="st4" d="M704,624.3C704,624.3,704,624.3,704,624.3C704,624.3,704,624.3,704,624.3z"/>
<path class="st4" d="M679.9,629.3C679.9,629.3,679.9,629.3,679.9,629.3C679.9,629.3,679.9,629.3,679.9,629.3z"/>
<path class="st5" d="M680.1,624.7C680.1,624.7,680.1,624.7,680.1,624.7C680.1,624.7,680.1,624.7,680.1,624.7z"/>
<path class="st6" d="M696.4,625.5C696.4,625.5,696.4,625.5,696.4,625.5C696.4,625.5,696.4,625.5,696.4,625.5z"/>
<path class="st7" d="M696.3,628.8c-0.6-0.9-0.6-2.2,0-3.1C696,626.7,696,627.8,696.3,628.8z"/>
<path class="st8" d="M704.8,627.7C704.8,627.7,704.8,627.8,704.8,627.7C704.8,627.8,704.8,627.7,704.8,627.7z"/>
<path class="st9" d="M698.1,630.8C698.1,630.8,698.2,630.8,698.1,630.8C698.2,630.8,698.1,630.8,698.1,630.8z"/>
<path class="st10" d="M678.8,632.8C678.9,632.9,678.9,632.9,678.8,632.8z"/>
<path class="st11" d="M683.4,633.4C683.4,633.4,683.4,633.4,683.4,633.4C683.4,633.4,683.4,633.4,683.4,633.4z"/>
<path class="st12" d="M683.3,638c0.5,0,0.7,0.4,0.8,0.9c0.2,0,0.6,0,0.8,0c-0.3,0.1-0.7,0.2-1,0.3c0-0.2-0.1-0.7-0.2-0.9
	c-0.1,0.1-0.3,0.2-0.4,0.2L683.3,638z"/>
<path class="st13" d="M701.2,638.7C701.2,638.7,701.2,638.7,701.2,638.7C701.2,638.7,701.2,638.7,701.2,638.7z"/>
<path class="st14" d="M684.7,641.1c-0.3-0.4,0.1-0.8,0.5-0.8C685.4,640.6,685,641,684.7,641.1z"/>
<path class="st15" d="M685.6,646.2C685.7,646.2,685.7,646.1,685.6,646.2C685.7,646.1,685.7,646.2,685.6,646.2z"/>
<path class="st15" d="M684.2,646.8C684.2,646.8,684.2,646.8,684.2,646.8C684.2,646.8,684.2,646.8,684.2,646.8z"/>
<path class="st16" d="M703,647.4C703,647.4,703,647.4,703,647.4C703,647.4,703,647.4,703,647.4z"/>
<path class="st17" d="M710.1,655.4C710.1,655.4,710.1,655.5,710.1,655.4C710.1,655.5,710.1,655.4,710.1,655.4z"/>
<path class="st18" d="M346.5,43.5C369,19.7,401.4,6.1,434,5c262.6,0,525.3,0,788,0c24,1,47.8,8.6,67.6,22.3
	c7,4.5,13.1,10.2,19.3,15.7c0.9,1.3,3.9,2.9,1.7,4.4c-16.8-17.9-38.8-31.2-62.7-36.9c-11.7-3.1-23.8-3.8-35.9-3.7
	c-257.7,0-515.3,0-773,0c-6.7-0.1-13.4,0.9-20,1c-0.1,0.5-0.4,1.4-0.6,1.8C432.5,8,446.8,8.2,461,8.2c245,0,490.1,0,735.1,0
	c9.6-0.1,19.2,0.2,28.9,0.6c34.6,2.2,67.7,19.9,89.1,47.2c13.6,16.4,22.3,36.6,25.9,57.5c-0.1,0.5-0.3,1.5-0.4,2
	c-3.3-20-10.9-39.5-23.4-55.6c-17.4-23.6-43.3-40.9-71.9-47.4c-11.8-3.1-24.1-2.9-36.2-3.8c-251.3,0-502.6,0-753.9,0
	c-11.4-0.2-22.8,0.6-34.2,1.5c-3.9,0-7.9,2.6-11.6,1c1,0,3,0.1,4,0.1c0-0.9,0.1-1.8,0.2-2.8c-2.4,1.9-5.6,1.9-8.4,2.7
	c1.6,0.5,3.2,0.9,4.9,1.2c-5.1,0.6-9.9,2.6-15,3.6c0.8-0.4,2.3-1.3,3-1.7c0-0.2-0.1-0.7-0.2-0.9c-1.8,0.6-3.7,1.1-5.6,1.6
	c0.8,0.4,1.5,0.8,2.3,1.2l0.3,0.2c-1,0.3-2,0.7-3,1l-0.1-0.5c-0.5-1.3-1-1.4-1.7-0.2c-1.4-0.1-2.5,0.4-3.3,1.4
	c0.6,0,1.7-0.1,2.2-0.1l-0.1,0.7c-4.1,1.6-8.1,3.6-12,5.7l0.4-0.8l0.2-0.6c-1.5-0.4-3.3,0.5-3.6,2c-1.6-0.4-1.9,0.1-1,1.4
	c-0.4,0.3-1.2,0.9-1.6,1.1c-0.5-0.1-1.4-0.3-1.9-0.4l-0.6,0.7l-0.5,0.3c-9.1,5.9-17.6,12.8-24.8,20.9c0.1,0.5,0.1,1.4,0.2,1.9
	c-9.2,10.4-17.1,22.1-22.3,35c0-1.5-0.2-3.1-0.2-4.6c0.8-4.4,3.6-8,5.7-11.8C331.7,60.3,338.4,51.2,346.5,43.5 M413,9
	c0.1,1.9,3.5,1.7,4.7,0.7c-0.1-0.3-0.4-0.9-0.6-1.2C415.8,8.5,414.4,8.7,413,9 M399.6,12.3c-0.4,0.3-1.2,0.9-1.6,1.1l0.2,0.7
	C399.2,15.1,401.1,12.7,399.6,12.3 M401.8,13.3c1.7,0.1,2.1-0.4,1.3-1.6C401.5,11.6,401,12.2,401.8,13.3 M383.3,19.2
	C384,19.8,384,19.8,383.3,19.2 M381.4,20.2C382.1,20.8,382.1,20.8,381.4,20.2 M379.2,21.2C379.8,21.9,379.8,21.9,379.2,21.2
	 M377.4,22.2C378.1,22.8,378.1,22.8,377.4,22.2z"/>
<path class="st1" d="M419,7.8c6.7-0.1,13.3-1.1,20-1c257.7,0,515.3,0,773,0c12-0.1,24.2,0.6,35.9,3.7c24,5.7,45.9,19,62.7,36.9
	c0.1,0.1,0.4,0.4,0.5,0.5c0.1,0.2,0.4,0.5,0.6,0.7c9.3,10.7,17.7,22.3,23,35.5c5.8,13.7,9.5,28.4,10.2,43.3
	c0.3,7.2,0.1,14.4,0.1,21.6c0,250.7,0,501.3,0,752c-0.1,10.4,0.4,20.8-1.2,31.2c-3.2,21-11.2,41.5-24.4,58.4l-0.1,0.1
	c-20.4,27.4-52.1,45.9-86,50.1c-0.8-0.6-1.5-1.1-2.3-1.6c33-3.5,64-21.6,84.1-47.9c12.4-15.2,20.3-33.6,24.2-52.8
	c2.4-10.3,2.8-20.9,2.7-31.5c0-258,0-516,0-774c-0.2-6.5-0.7-13.1-2.1-19.5c-3.7-20.9-12.3-41.1-25.9-57.5
	c-21.4-27.2-54.5-44.9-89.1-47.2c-9.6-0.4-19.2-0.8-28.9-0.6c-245,0-490.1,0-735.1,0c-14.2,0-28.5-0.2-42.6,1.4
	C418.5,9.2,418.8,8.3,419,7.8z"/>
<path class="st1" d="M413,9c1.3-0.3,2.7-0.5,4.1-0.5c0.1,0.3,0.4,0.9,0.6,1.2C416.5,10.7,413.1,10.9,413,9z"/>
<path class="st1" d="M412.4,8.6c-0.1,0.9-0.1,1.8-0.2,2.8c-1,0-3-0.1-4-0.1c3.7,1.6,7.7-0.9,11.6-1c11.4-0.9,22.8-1.8,34.2-1.5
	c251.3,0,502.6,0,753.9,0c12.1,0.9,24.4,0.6,36.2,3.8c28.6,6.5,54.5,23.8,71.9,47.4c12.5,16.1,20.2,35.6,23.4,55.6
	c0.7,8.2,1.6,16.3,1.3,24.5c0,258.3,0,516.6,0,774.9c0,7.3-1.1,14.5-1.9,21.7c-3.7,18.6-10.9,36.7-22.6,51.8
	c-19.4,26.5-49.6,45.1-82.3,49.6c-10.3,1.8-20.7,1-31.1,1.2c-257.7,0-515.3,0.1-773,0c-9.2,0-18.3-2.1-27.3-4.1
	c-4.6-1.1-9-4.1-13.8-3.4l0.8-1.4c-0.4-0.1-1.2-0.3-1.6-0.4c-1.5-0.5-3-0.5-4.6-0.1l1.6-2c-0.8,0.3-2.5,1-3.3,1.3l1.1-1.6
	c-3.1-1.3-6.1-2.9-9.1-4.4c-11.7-7.2-22.8-15.6-31.7-26.2c-19-20.9-30-48.7-31.3-76.9c-0.1-65.4,0-130.9,0-196.3c1.5,0,3.1,0,4.6,0
	c0,63.8,0,127.6,0,191.4c-0.1,18.9,4.9,37.6,13.4,54.5c12.8,23.8,33.2,43.8,58,54.7c16,7.4,33.8,10.6,51.3,10.5
	c259.3,0,518.6,0,778,0c35,0.2,69.5-16,91.7-43c19-21.8,29-50.8,28.5-79.6c0-259.7,0-519.3,0-779c0-18.2-4.8-36.2-12.7-52.6
	c-15.5-30.1-43.5-53.8-76.4-62.3c-10.8-3.1-21.9-4.2-33.1-4.2c-254,0-508,0-762,0c-11.7,0-23.6-0.4-35.2,1.5
	c-29,4.5-56,20.2-74.3,43.1c-18.3,21.7-27.8,50.2-27.2,78.5c0,20.7,0,41.3,0,61.9c-1.5,0-3.1,0-4.6,0c0-23.3,0-46.6,0-69.9
	c0.4-14.7,4.1-29.2,9.5-42.8c5.2-12.9,13.1-24.6,22.3-35c9.3-10.9,20.9-19.6,33.3-26.5c3.9-2.1,7.8-4.1,12-5.7
	c1.2,0.1,2.2-0.4,2.9-1.4c1-0.3,2-0.7,3-1l0.3-0.1l-0.3-0.3c5-1,9.9-3,15-3.6c-1.7-0.3-3.3-0.7-4.9-1.2
	C406.8,10.5,410,10.6,412.4,8.6z"/>
<path class="st1" d="M396.8,13.6c0,0.2,0.1,0.7,0.2,0.9c-0.8,0.4-2.3,1.3-3,1.7l-0.4,0.2c-0.8-0.4-1.6-0.8-2.3-1.2
	C393,14.7,394.9,14.2,396.8,13.6z"/>
<path class="st1" d="M389,16.9c0.7-1.2,1.2-1.1,1.7,0.2C390.3,17,389.4,16.9,389,16.9z"/>
<path class="st1" d="M421.9,17.1c11.3-1.2,22.7-0.8,34-0.8c246.7,0,493.4,0,740.1,0c11,0.1,22-0.3,33,0.8
	c19.7,2.2,38.8,9.5,54.9,21.1c14.8,10.5,26.9,24.6,35.9,40.3c8.9,17,14.1,36.2,14,55.5c0,260.7,0,521.4,0,782.1
	c-0.1,17.5-4.7,34.8-12.2,50.6c-15,29.5-42.4,52.9-74.6,61.4c-10.7,3.1-21.9,4.4-33,4.3c-253.3,0-506.6,0-760,0
	c-12.9-0.1-26,0.6-38.8-1.8c-27.7-4.8-53.4-20.1-70.9-42c-18-21.4-27.3-49.7-26.6-77.5c0-62.5,0-125,0-187.5
	c0.6,0.1,1.7,0.2,2.3,0.3c0.1,63.4,0.1,126.8,0,190.2c-0.3,18,4.3,35.8,12.1,52c14.1,27.5,39.1,49.5,68.8,58.7
	c9.1,2.8,18.5,4.7,28.1,5.2c264,0,528,0,792,0c22.3-0.8,44.3-8.5,62.3-21.7c12.8-9.1,23.4-21.1,31.7-34.3
	c7.9-12.9,12.9-27.5,15.3-42.5c1.9-12.4,1.4-25,1.5-37.4c0-252.3,0-504.6,0-757c0-22.4-5.7-44.9-17.8-63.8
	c-7.8-11.9-17.3-22.8-28.8-31.3c-17.6-13.4-39.1-21.5-61.2-23c-9-0.5-17.9-0.3-26.9-0.3c-252.7,0-505.3,0-758,0
	c-18.8-0.3-37.7,3.5-54.5,12.1c-21.7,10.6-39.5,28.5-51.1,49.5c-7.8,15.1-12.6,31.8-13.3,48.8c0,120,0,240,0,360c-0.6,0-1.8,0-2.3,0
	c0-118.7,0-237.3,0-356c0.1-18.7,5.1-37.2,13.7-53.8c11.5-20.8,28.9-38.6,50.1-49.5C394.1,23,407.9,18.8,421.9,17.1z"/>
<path class="st1" d="M385.7,18.3c0.8-1,1.9-1.5,3.3-1.4c-0.3,0.3-0.8,1-1.1,1.3C387.4,18.2,386.3,18.3,385.7,18.3z"/>
<path class="st1" d="M409.6,22.4c12.9-3.3,26.2-3.1,39.4-3.1c252,0,504,0,755.9,0c13.1-0.1,26.4,0.1,39.1,3.6
	c32.5,7.9,60.3,31.3,75.2,61c5.3,11.3,9.1,23.5,10.7,35.9c1,9.7,1.6,19.4,1.3,29.1c0,253.3,0,506.7,0,760.1
	c0,22.7-5.2,45.7-17.3,65.1c-7.9,12.3-17.7,23.6-29.6,32.3c-15.5,11.8-34.2,19.3-53.5,21.9c-8.3,1.4-16.6,0.6-25,0.8
	c-256,0-512,0-768,0c-34.4,1.2-68.8-14.9-90.5-41.6c-18.1-21-27.5-49-26.7-76.6c0-62.5,0-124.9,0-187.4c16.8,0,33.6,0,50.4,0
	c0,69.8,0,139.5,0,209.3c-0.1,7.4,0.2,15,2.9,22c3.6,10,12.1,18.1,22.2,21.4c9.2,3.3,19.1,2.3,28.6,2.5c35,0,70,0,105,0
	c3.5,0,7,0.2,10.4-0.2c-0.3,3.3-0.2,6.6-0.5,9.9c-1.3,2.3-1.1,5.1-1.8,7.6c-1,0.5-2,1-3.1,1.2l0,0.7c16.6-0.4,33.3-0.1,49.9-0.2
	c-1.2-0.7-2.5-1.1-3.6-1.9c-0.6-2.6-0.3-5.5-1.9-7.7c0-3.7,0-7.4-0.1-11c1,0.2,2.9,0.7,3.9,0.9c2.8,1.2,5.9,0.6,8.8,0.8
	c139.7,0,279.3,0,419,0c20.5-0.2,41,0.4,61.5-0.3c-0.6,3.6,0.3,7.4-0.9,11c-0.7,2.2-0.9,4.4-1.1,6.6c-1.3,0.5-2.6,1.1-3.8,1.8
	c16.9-0.2,33.7,0,50.6-0.1c-1.2-0.5-2.5-1-3.7-1.5c-0.6-2.7-0.3-5.8-2-8.1c0-3.4,0-6.8-0.1-10.1c1.8,0.6,3.7,0.9,5.6,0.8
	c41-0.1,82,0,123-0.1c11.7,0,23.8-4.2,31.4-13.4c6.6-7.8,9-18.3,8.9-28.4c0-274,0-548,0-822c0.2-8.2-0.5-16.6-4.1-24.1
	c-4-8.9-12-15.8-21.3-18.7c-6.7-2.3-13.9-2.5-20.9-2.4c-269,0-538,0-807.1,0c-10.7,0.2-21.9-1.1-32.1,3
	c-9.1,3.4-16.5,10.6-20.1,19.6c-2.7,6.1-3.5,12.9-3.4,19.5c0,125.6,0,251.3,0,377c-16.8,0-33.6,0-50.4,0c0-120,0-240,0-360
	c1.2-23.9,9.8-47.6,25.1-66.1C361.8,42.7,384.6,28.1,409.6,22.4 M910.1,33c-0.2,12-0.1,24-0.1,36c0.7,0,2.2,0,3,0
	c0-12,0.1-24-0.1-36C912.2,33.1,910.8,33,910.1,33z"/>
<path class="st1" d="M372.9,25.2c0.4-1.5,2.1-2.5,3.6-2l-0.2,0.6C375.3,24.6,374.1,25.1,372.9,25.2z"/>
<path class="st1" d="M371.9,26.6c-0.9-1.3-0.6-1.7,1-1.4C372.6,25.6,372.1,26.2,371.9,26.6z"/>
<path class="st1" d="M368.3,27.4c0.5,0.1,1.4,0.3,1.9,0.4c-0.6,0.1-1.8,0.2-2.5,0.3L368.3,27.4z"/>
<path class="st1" d="M367.2,28.4l0.5-0.3l0.2,0.6C367.8,28.5,367.4,28.4,367.2,28.4z"/>
<path class="st1" d="M384.9,81.9c7.5-7.1,18-9.8,28.1-9.6c272.7,0,545.4,0,818.1,0c8.8-0.1,18-0.3,26.2,3.5
	c9.4,3.9,16.4,12.5,18.9,22.2c2.6,9.2,1.5,18.8,1.7,28.1c0,267,0,534,0,801c0,9.4,0.6,19.1-3.2,27.9c-3.5,9.2-11.5,16.3-20.8,19.2
	c-7,2.4-14.6,2.2-21.9,2.2c-38.7,0-77.4,0-116,0c-1.6,0-3.1,0.2-4.6,0.7c0-6.5,0.1-13.1-0.1-19.6c2.1-0.1,3.5-2,5.7-1.8
	c40.3,0,80.7,0,121,0c5.8,0.7,13.1,2.9,17.7-2c4.5-5,2-11.8,1.5-17.7c0-274.4,0-548.7,0-823.1c0-4.3,1.9-8.5,1-12.9
	c-0.5-3.7-3.3-7-7-7.9c-4.7-1.5-9.4,0.8-14.2,0.7c-274.3,0-548.6,0-822.9,0c-4.4-0.1-8.7-2-13.1-0.8c-3.8,0.7-6.8,3.9-7.4,7.7
	c-1.1,4.4,1,8.8,0.9,13.2c0,125.3,0,250.7,0,376c-6.9,0-13.8,0-20.7,0c0-126,0-251.9,0-377.9C373.6,100.4,376.9,89.2,384.9,81.9
	 M910.1,73c-0.3,6.4-0.2,12.7-0.1,19.1c0.7,0,2.2,0,3,0c0.1-6.4,0-12.7-0.1-19.1C912.2,73,910.8,73,910.1,73z"/>
<path class="st1" d="M399.1,95.4c4.4-2.4,9.6-0.7,14.1,0.2c22.8,23.4,46.2,46.3,69.2,69.5c-7.7,2-14.1,8.1-15.7,16
	c-23-22.9-45.8-45.8-68.8-68.7c-1.6-1.7-1.5-4.3-2-6.4C395.2,102.3,395.5,97.5,399.1,95.4z"/>
<path class="st1" d="M1241,95c4.3-1,9.9-1.9,13.2,1.8c3.2,4.5,1.4,10.3,0.2,15.2c-23.4,22.8-46.2,46.2-69.4,69.1
	c-1.7-7.9-8.1-14.3-16-15.9c21.8-21.9,43.8-43.8,65.6-65.7C1236.4,97.7,1238.2,95.4,1241,95z"/>
<path class="st1" d="M413.6,95.3c165.5,0,331,0,496.4,0c-0.1,20.2-0.1,40.3,0,60.5c0.7,0,2.1,0.1,2.8,0.1
	c0.2-20.2,0.1-40.4,0.1-60.6c107.9-0.1,215.9,0.1,323.8-0.1c-0.2,0.6-0.6,1.9-0.8,2.5c-15.4,14.9-30.4,30.4-45.7,45.5
	c-7.4,7.2-14.4,14.9-22.1,21.8c-63,0.3-126.1,0-189.1,0.1c-161.7,0-323.4,0-485.1,0c-3.6-0.1-7.3,0.2-10.9-0.2
	c-14.4-14-28.4-28.3-42.6-42.4C431.6,113.4,422.4,104.6,413.6,95.3z"/>
<path class="st1" d="M396.9,112.1c23.3,22.8,46.1,46.4,69.5,69.1c0.6,13.6,0.1,27.2,0.3,40.8c0,89,0,178,0,267
	c-23.3,0-46.5,0-69.8,0C396.8,363.3,396.8,237.7,396.9,112.1z"/>
<path class="st1" d="M1185.8,180.9c23-22.9,45.9-46,69-68.9c-0.1,274.9,0,549.8,0,824.7c-23.2-23.3-46.6-46.4-69.7-69.8
	c-0.5-23.9-0.1-47.9-0.2-71.9c0-203,0-406,0-609C1185.1,184.3,1184.3,182.2,1185.8,180.9z"/>
<path class="st1" d="M470.3,174.4c2.7-4.6,7.6-7,12.4-8.7c228.5,0.2,456.9,0,685.4,0.1c8,1.2,15,7.9,16.1,16.1
	c-0.1,228.4,0,456.8,0,685.2c-1.2,6.9-6.5,12.9-13.2,14.9c-3.5,1.2-7.3,0.6-10.9,0.7c-225,0-450.1,0-675.1,0
	c-9.6,0-18.3-9.2-17.6-18.8c0-46.8,0-93.5,0-140.3c2.4,0,4.8,0,7.2-0.1c1,4.4,0.6,9,0.6,13.5c0.1,43.6-0.1,87.3,0.1,130.9
	c-0.3,5.1,5.2,7.6,9.6,7.4c227.4,0,454.7,0,682.1,0c2.7,0,5.8-0.5,7.7-2.7c2-2.1,2.1-5,2.2-7.7c0-227,0-454,0-681
	c0-3.4-0.5-8-4.2-9.3c0.9,1.9,3,3.2,3.1,5.5c0.7,6,0.1,12,0.3,17.9c0,218.7,0,437.4,0,656.1c-0.1,4.7,0.3,9.4-0.2,14
	c-0.2,2.8-2.2,5.3-4.9,6c-3.3,0.8-6.7,0.4-10,0.5c-224,0-448.1,0-672.1,0c-3.6-0.1-7.7,0.8-10.8-1.6c-2.3-1.6-2.4-4.5-2.4-7
	c0-27,0-54,0-81c-0.2-20.4,0.4-40.9-0.3-61.3c22.5,0,45.1,0,67.6,0c13.8,13.7,27.4,27.4,41.1,41.1c17.3,17.9,37.2,33,57.9,46.8
	c13,8.5,26.9,15.7,41,22.2c85.2,39.9,187.2,41.5,273.9,5.1c17-7.4,33.7-15.4,49.4-25.3c24.1-15.7,47-33.5,66.6-54.6
	c24.1-25.1,44.1-54.1,59.4-85.4c15.4-31.9,25.7-66.1,30.9-101.1c6.6-46.4,3.6-94.3-9.2-139.4c-14.8-54.1-43.4-104.3-82.4-144.6
	c-17-18.3-36.6-33.9-57.3-47.9c-12.9-8.9-26.7-16.3-40.9-23c-86.9-42-191.8-44.3-280.7-6.7c-17.3,7.5-34.3,15.7-50.1,25.9
	c-14.3,9.4-28.2,19.5-41.2,30.8c-11.5,9.8-21.8,21-32.6,31.5c-28.3,28.3-56.6,56.6-85,85c-2.9,3.1-5.5,6.7-5.9,11
	c0.1,31.2,0,62.5,0,93.7c-0.6,0.1-1.9,0.2-2.5,0.3c0.2-100.7,0.1-201.3,0.1-302c0.1-4.1-1-9.6,3.4-11.9c4.7-1.9,9.9-1.1,14.8-1.2
	c222,0,444.1,0,666.1,0c4-0.2,8,0.2,11.9,0.7c-1.7-1.8-4.7-1.1-7-1.4c-223.7,0-447.4,0-671,0c-4.3,0-8.6-0.2-12.9,0.4
	c-3,0.6-5.9,3.2-5.8,6.4c0,102.9,0.1,205.9,0,308.8c-2.6,0.2-5.2,0.2-7.8,0.2c-0.1-100.7,0-201.3,0-302
	C467.1,182.6,467.8,178.1,470.3,174.4 M1089.2,229c-4.2,6.2-4.2,14.6-0.3,21c2.2,4.7,6.6,7.6,10.8,10.3c6.9,3.1,15.5,2.6,21.8-1.7
	c3.5-2.1,5.7-5.8,7.9-9.1c3.8-7.1,2.6-15.8-1.5-22.5c-4-3.1-7.1-7.5-12.4-8.7C1105.8,214.9,1093.7,219.6,1089.2,229 M533.5,219.4
	c0,0-0.1,0.1-0.2,0.1c-0.7,0.3-2,0.9-2.7,1.2c-4.8,2-7.9,6.3-10.3,10.7c-2.8,5.2-3,11.6-0.9,17.1c0,0.1,0.1,0.1,0.1,0.2l0.9,1.8
	c0,0,0.1,0.1,0.1,0.2c0.3,0.4,0.9,1.3,1.2,1.8c1.7,3.5,4.4,6.3,7.9,7.9c5.2,3.4,11.6,2.9,17.5,2.4l0.8,0.5l1-0.5l0.1-0.9l1.3,0
	c0.1-0.1,0.2-0.2,0.3-0.3c0.4-0.3,1.2-1,1.7-1.3c4-2.1,6.7-6,9-9.9c0.8-1.5,1.5-3.1,2.1-4.6l0.6,0.3c0-3.3,0-6.7,0-10.1l-0.6,0
	c-0.4-1.9-1.2-3.7-2-5.4c-2.9-4-6.4-7.9-10.8-10.3c-0.4-0.2-1.3-0.6-1.8-0.8c-0.1,0-0.3-0.1-0.4-0.2c-0.6-0.1-1.8-0.3-2.4-0.5
	c-0.4-1.7-1.4-2-2.9-0.7C539.8,217.6,536.5,218.2,533.5,219.4 M537.5,785.6c-4.8,1.6-10.1,3.5-13.1,7.9c-1.8,2.7-3.6,5.6-4.9,8.6
	c-0.5,4.8-1.3,10.4,1.6,14.6c2.2,3.7,4.2,8,8.4,9.9c7.2,4.6,17.2,5,24.4,0.3c3.8-2.1,6.1-5.9,8.4-9.5c3.8-7,2.6-15.8-1.5-22.4
	c-3.7-2.6-6.3-6.9-10.8-8.3C546.1,785.5,541.7,784.2,537.5,785.6 M1104.6,786.7c-4.8,1.2-9.7,3.2-12.7,7.2c-3,4.5-6.5,9.3-5.7,15
	c-0.7,6,3.3,10.9,6.5,15.6c8.2,8,22.6,9.2,31.3,1.2c3.5-3.8,7-8.3,7.6-13.6c1-5.6-0.7-11.4-3.6-16.2c-3.7-2.6-6.2-6.8-10.7-8.2
	C1113.2,786.4,1108.7,785.3,1104.6,786.7z"/>
<path class="st1" d="M748,193.8c49.1-11.4,100.7-11.9,149.9-1.3c33.5,6.9,65.7,19.5,95.6,36c13.6,7.4,26.3,16.4,38.7,25.6
	c22,16.3,41.4,35.9,58.7,57.1c49.8,61.4,76.7,140.9,74.9,219.9c-0.6,42.9-10.1,85.4-26.4,125.1c-24.8,59.1-66.6,110.9-119.3,147.3
	c-14.4,10.4-29.9,19.3-45.9,26.9C904,864.7,821.8,873.1,746,854.9c-27-6.3-53.1-16.4-77.7-29.1c-21-10.5-40.2-24.1-58.4-38.7
	c-10.5-8.4-20.2-17.7-29.6-27.3c-12-12-24.1-24-36.1-36.1c7,0.1,13.9,0,20.9,0c1.5-0.2,2.5,0.9,3.5,1.8c10.3,10.4,20.7,20.7,31,31
	c12.8,12.6,26.9,23.8,41.5,34.2c18.5,13.5,39.1,23.9,60.1,32.9c84.6,35.5,184.5,32.8,266.8-7.9c18.4-8.6,35.7-19.5,51.9-31.7
	c23.1-16.9,43.5-37.4,61.3-59.8c47.4-60.2,72-137.7,68.5-214.2c-1.8-42.4-12.4-84.2-30-122.8c-9.5-20.2-21.1-39.6-34.5-57.5
	c-17.4-22.6-37.2-43.5-59.9-60.9c-12.1-9.2-24.5-18.1-37.8-25.5c-25.8-14.3-53.3-25.8-82-32.8C859,199,810,197.8,763,206.8
	c-37.5,7.2-73.6,21.4-106.4,40.9c-14.9,9.3-29.2,19.7-42.6,31.1c-10,8.4-18.9,17.9-28.2,27c-28.7,28.7-57.3,57.4-86,86
	c-1.8,1.8-3.8,3.5-5.2,5.6c-0.6,1.9-0.4,4-0.6,6c-5,0-10.1,0-15.1,0c0-4.1-0.7-8.6,1.2-12.4c1.9-4.2,5.4-7.3,8.6-10.5
	c28.5-28.5,57-57,85.5-85.5c9.5-9.4,18.8-19.3,29.1-27.9c15-12.7,31-24.4,47.8-34.6C681.2,215.1,713.8,201.5,748,193.8z"/>
<path class="st1" d="M310.8,199.1c1.5,0,3.1,0,4.6,0c0,96.6,0,193.3,0,289.9c-1.5,0-3.1,0-4.6,0
	C310.8,392.3,310.8,295.7,310.8,199.1z"/>
<path class="st1" d="M763.2,207.6c47-9,95.9-7.8,142.3,3.8c31.4,7.8,61.4,20.6,89.1,37c23.9,15.1,46.5,32.5,65.7,53.3
	c26.6,27.8,48,60.5,63.1,95.9c16.6,39.9,26.1,83.1,25.7,126.4c0.5,41.4-8.1,82.6-23.2,121c-18.5,46.5-48.2,88.2-85.5,121.4
	c-11.5,10.1-23.7,19.3-36.4,27.9c-13.1,9-27.2,16.4-41.6,23.1c-40.7,19.2-85.5,29.3-130.4,30.1c-52.5,1.1-105.2-10.7-152-34.5
	c-12.5-6.1-24.5-13-35.9-21.1c-15-10.4-29.5-21.7-42.6-34.5c-11.2-11.3-22.6-22.4-33.7-33.8c7.1-0.1,14.2,0,21.3,0
	c-0.2,7.5,1.3,15.3,5.6,21.6c5.9,9.2,16.6,15.2,27.5,15.4c13.2,0.1,26.5,0,39.7,0c3.8-0.2,7.3,1.9,11.1,1.8c21.7,0,43.3,0,65,0
	c3.4,0.1,6.6-1.7,10-1.7c50.7,0,101.4,0,152,0c4.5-0.6,8.6,1.2,13,1.7c22,0,44,0,66,0c3.4,0.1,6.6-1.8,10-1.7
	c13.9-0.1,27.8,0.2,41.7-0.1c16.5-0.7,30.9-15.1,31.6-31.6c0.3-14,0-28,0.1-42c0.1-3.4,1.8-6.6,1.7-10c0-20,0-40,0-60
	c0.8-5.5-1.4-10.6-1.8-16c0.1-52-0.1-104,0.1-156c2.4-7.5,1.5-15.3,1.7-23c0-17,0-33.9,0-50.9c0.1-3.4-1.7-6.6-1.7-10
	c-0.1-13.7,0.1-27.3-0.1-41c-0.3-12.3-8-24-19.1-29.2c-5.1-2.5-10.7-3.5-16.3-3.4c-12.7,0-25.3,0-38,0c-3.4,0-6.5-1.8-9.9-1.7
	c-21.7,0-43.3,0-65,0c-3.8-0.2-7.2,1.9-11,1.8c-51.7,0-103.4,0-155.1,0c-3.4,0-6.5-1.8-9.9-1.7c-21.7,0-43.4,0-65.1,0
	c-3.7-0.1-7.2,1.9-10.9,1.8c-13.3,0-26.7-0.1-40,0.1c-12.1,0.2-23.7,7.6-29.1,18.4c-2.6,5-3.8,10.6-3.8,16.2c0,13,0,26,0,39
	c0,3.4-1.8,6.5-1.7,10c0,21.7,0,43.3,0,65c-0.2,3.8,2,7.2,1.8,11c0,14,0,28,0,42c-31.4,0-62.9,0-94.3,0c0-28,0.1-56,0-83.9
	c0.1-3.1-0.8-7,2-9.2c28.9-28.8,57.7-57.6,86.5-86.5c10.1-9.9,19.7-20.3,30.5-29.4c13.7-11.6,28.2-22.2,43.4-31.7
	C689.9,228.9,725.8,214.7,763.2,207.6z"/>
<path class="st1" d="M1108.1,219.1c10.8-0.9,20.8,8.2,21.6,18.8c0.9,9-5,18.2-13.5,21.2c-7.3,2.7-16.2,0.9-21.7-4.6
	c-3.6-3.9-6.4-9-6.2-14.5C1087.9,229.3,1097.2,219.2,1108.1,219.1 M1105.2,224c0,4,0,8,0,12c-4,0-8,0-12,0c0,2.5,0,5,0.1,7.6
	c4,0,8,0,12,0c0,4,0,8,0,12c2.5,0,5.1,0,7.6,0c0-4,0-8,0-12c4,0,8,0,12,0c0-2.5,0-5,0-7.6c-4,0-8,0-12,0c-0.1-4-0.1-8,0-12
	C1110.3,224,1107.7,224,1105.2,224z"/>
<path class="st1" d="M536.5,220.6c6.6-1.4,13.9,0.4,18.8,5.2c3.9,4.1,6.8,9.5,6.5,15.3c0.1,5.5-2.6,10.6-6.3,14.5
	c-5.9,5.9-15.6,7.5-23.2,4c-6.2-2.7-10.6-8.8-11.8-15.4C518.5,233.7,526.1,222.7,536.5,220.6 M537.2,225c0,4,0,8,0,12c-4,0-8,0-12,0
	c0,2.5,0,5,0,7.6c4,0,8,0,11.9,0c0.1,4,0,8,0,12c2.5,0,5.1,0,7.6,0c0-4,0-8,0-12c4,0,8,0,12,0c0-2.5,0-5,0-7.5c-4-0.1-8,0-12,0
	c-0.1-4,0-8,0-12C542.3,225,539.7,225,537.2,225z"/>
<path class="st1" d="M1107,225.8c1.3,0,2.7,0,4.1,0c0,0.8,0,2.5,0,3.3c-1.4,0-2.7,0-4.1,0C1107,228.2,1107,226.6,1107,225.8z"/>
<path class="st1" d="M539,226.7c1.3,0,2.6,0,3.9,0.1c0.1,0.8,0.2,2.4,0.2,3.2c-1.4,0-2.8,0-4.1,0C539,229.2,539,227.5,539,226.7z"/>
<path class="st1" d="M1107,230c1.3,0,2.7,0,4.1,0c0,2.6,0,5.2,0,7.8c2.7,0,5.4,0,8.1,0c0,1-0.1,3-0.1,4.1c-2.7,0-5.3,0-8,0
	c0,2.8,0,5.5,0,8.2c-1.4,0-2.7,0-4.1,0c0-2.8,0-5.5,0-8.3c-2.7,0-5.4,0-8.1,0c0-1.4,0-2.7,0-4c2.7,0,5.4,0,8,0
	C1107,235.2,1107,232.6,1107,230z"/>
<path class="st1" d="M539,231c1.3,0,2.7,0,4,0c0,2.6,0,5.2,0,7.8c2.7,0,5.3,0,8,0c0,1,0,3,0,4.1c-2.7,0-5.4,0-8.1,0
	c0,2.7,0,5.5,0,8.2c-1.4,0-2.7,0-4,0c0-2.8,0-5.5,0-8.3c-2.7,0-5.4,0-8.1,0c0-1.3,0-2.7,0-4c2.7,0,5.4,0,8,0
	C539,236.2,539,233.6,539,231z"/>
<path class="st1" d="M1094.9,237.7c1,0,2,0,3.1,0c0,1.3,0,2.7,0,4c-0.8,0-2.2,0-3,0.1C1095,240.5,1095,239.1,1094.9,237.7z"/>
<path class="st1" d="M527,238.7c1,0,2,0,3.1,0c0,1.3,0,2.7,0,4c-0.7,0-2.2,0-3,0C527,241.4,527,240.1,527,238.7z"/>
<path class="st1" d="M1120,237.7c0.8,0,2.3,0,3.1,0c0,1,0,3,0,4c-0.8,0-2.3,0-3.1,0C1119.9,240.8,1120,238.7,1120,237.7z"/>
<path class="st1" d="M552,238.7c0.8,0,2.3,0,3.1,0c0,1,0,3,0,4c-0.8,0-2.3,0-3.1,0C552,241.8,552,239.8,552,238.7z"/>
<path class="st1" d="M1107,250.9c1.4,0,2.7,0,4.1,0c0,0.7-0.1,2.2-0.1,2.9c-1.3,0-2.6,0-3.9,0.1C1107,253.1,1107,251.6,1107,250.9z"
	/>
<path class="st1" d="M539,251.9c1.4,0,2.7,0,4.1,0c0,0.7-0.1,2.2-0.1,2.9c-1.3,0-2.6,0-4,0C539,254.1,539,252.6,539,251.9z"/>
<path class="st1" d="M136,295c3.2-2.4,8.4-2.2,11.2,0.9c1.4,1.6,1.9,3.8,2.4,5.9c-5.8,0.2-11.5,0.2-17.3,0
	C133.1,299.3,133.9,296.7,136,295z"/>
<path class="st1" d="M114.5,338.6c15.3-2.7,31.4-1.1,45.5,5.5c20.2,9.2,36.2,27.5,42.1,49c4.1,14.1,3.8,29.3-0.6,43.3
	c-5.3,17.5-17.4,32.7-32.9,42.3c-14.9,9.1-33.1,13.2-50.5,10.5c-19-2.5-36.8-12.7-48.8-27.6c-11.5-13.7-17.4-31.7-17-49.5
	c0.4-16.4,6-32.8,16.4-45.5C79.9,352,96.5,342,114.5,338.6 M116.6,346.8c-10.9,1.6-20.9,6.7-29.8,13c-17,13.2-27.4,34.6-26.6,56.2
	c0.5,16.2,6.8,32.1,17.9,43.9c6.5,7.9,15.6,13.1,24.7,17.3c16.1,6.4,34.6,6.4,50.7,0.1c9.4-4.2,18.6-9.5,25.2-17.6
	c15-16,21.1-39.6,16.2-60.9c-4.1-18.6-16.4-35.5-33.3-44.5C148.2,346.5,131.9,344.2,116.6,346.8z"/>
<path class="st1" d="M116.5,349.9c14.3-2.4,29.6-0.6,42.4,6.6c16.5,8.3,28.7,24.5,32.9,42.5c5,20.4-0.8,43.2-15.1,58.6
	c-6.2,7.6-14.8,12.6-23.6,16.7c-10.1,4.2-21.3,5.5-32.1,4.3c-11.9-0.8-23-6.1-32.5-13c-15.6-12.2-25.3-31.6-25.2-51.5
	c-0.2-19.9,9.6-39.5,25.2-51.7C96.8,356.4,106.3,351.5,116.5,349.9 M120.2,374.3c-9.1,2-17.7,6.9-23.5,14.2
	c-9,10.6-11.7,26-7.1,39.1c5,15.5,20.2,27,36.5,27.6c13.1,0.9,26.6-5.2,34.5-15.7c7.9-9.8,10.6-23.5,7.3-35.6
	c-2.9-11-10.6-20.9-20.9-25.9C138.8,373.6,129.2,372.7,120.2,374.3z"/>
<path class="st1" d="M478.9,403.5c5.1,0,10.1,0,15.2,0c0.2,28.5,0,57,0.1,85.4c-5.1,0-10.2,0-15.4,0
	C478.9,460.5,478.7,432,478.9,403.5z"/>
<path class="st1" d="M310.8,493.1c1.5,0,3.1,0,4.6,0c0,47.6,0,95.3,0,142.9c-1.5,0-3.1,0-4.6,0C310.8,588.3,310.8,540.7,310.8,493.1
	z"/>
<path class="st1" d="M320.9,493.1c16.8,0,33.6,0,50.4,0c0,75.5,0,151,0,226.4c-16.8,0.1-33.6,0.1-50.4,0
	C320.9,644,320.9,568.5,320.9,493.1z"/>
<path class="st1" d="M373.7,493.1c6.9,0,13.8,0,20.7,0c0,75.5,0,151,0,226.5c-6.9,0-13.8,0-20.7,0
	C373.7,644,373.7,568.5,373.7,493.1z"/>
<path class="st1" d="M396.8,493.1c23.3,0,46.5,0,69.8,0c0.1,75.5,0,151,0,226.5c-23.3,0-46.6,0-69.8,0
	C396.8,644,396.8,568.5,396.8,493.1z"/>
<path class="st1" d="M467.4,493c2.5,0,5.1-0.1,7.6,0.3c0.6,11.8,0.1,23.8,0.2,35.6c0.1,56.7-0.1,113.4,0,170.1
	c-0.2,6.9,0.5,13.8-0.7,20.5c-2.4-0.1-4.8-0.1-7.2-0.1C467.4,644,467.4,568.5,467.4,493z"/>
<path class="st1" d="M475.6,492.8c0.6,0.1,1.8,0.4,2.4,0.6c0.5,7.2,0.1,14.4,0.2,21.6c0.1,43,0,86,0,129.1c0.1,3.7-0.3,7.4,0.2,11.1
	c1,3.9,3.5,7.3,6.3,10.1c16,16,32,32,48.1,48c2,2,4.1,3.8,5.6,6.2c-21,0-42,0-63,0c0.6-8.2,0.2-16.3,0.3-24.5
	c-0.1-57,0-114.1,0-171.1C475.7,513.5,475.9,503.2,475.6,492.8z"/>
<path class="st1" d="M478.7,493c5.1,0,10.3,0,15.4,0c0.1,51.7,0,103.3,0,155c-0.1,1.9,0.3,3.8,1.9,5c14.5,14.5,29,29,43.5,43.5
	c7.5,7.7,15.5,15.1,22.8,23.1c-6.4,0-12.8,0-19.2,0c-1.2-0.2-2.8,0.3-3.7-0.8c-18-18-36-36-54-54c-3.2-3.2-6.1-7.1-6.4-11.8
	C478.6,599.7,479,546.4,478.7,493z"/>
<path class="st1" d="M494.9,493.1c31.4,0,62.9,0,94.3,0c0,36,0,72,0,108c0.2,3.8-1.9,7.2-1.7,11c0,21.7,0,43.4,0,65.1
	c-0.1,3.4,1.7,6.6,1.7,10c0,10.8,0,21.6,0,32.4c-8.5,0-17,0.2-25.5-0.1c-7.5-6.8-14.4-14.3-21.7-21.4
	c-15.2-15.2-30.4-30.3-45.5-45.5c-1.4-1.1-1.7-2.8-1.6-4.4C494.9,596.4,494.9,544.7,494.9,493.1z"/>
<path class="st1" d="M15,519.2c76.2,0,152.4,0,228.6,0c0,78.9,0,157.8,0,236.7c-76.2,0.1-152.4,0-228.6,0C15,677,15,598.1,15,519.2
	 M71.4,535.1c0.1,13.8,0,27.6,0.1,41.4c8.6,0,17.2,0,25.8,0c0-1.6,0-3.2,0-4.9c-6.8,0-13.5,0-20.2,0c-0.3-12.2,0-24.4-0.1-36.7
	C75.1,535,73.2,535,71.4,535.1 M104,535c0,13.8,0,27.6,0,41.5c10.3,0,20.6,0,30.9,0c0-1.6,0-3.2,0-4.9c-8.5,0-17,0-25.4,0
	c0-4.7,0-9.4,0-14.1c7.6,0,15.2,0,22.9,0c0-1.6,0-3.2,0-4.9c-7.6,0-15.3,0-22.9,0c0-4.2,0-8.5,0-12.7c8.1,0,16.3,0,24.4,0
	c0-1.6,0-3.3,0-4.9C124,535,114,535,104,535 M142.5,535c0,13.8,0,27.7,0,41.5c6.5-0.1,13,0.3,19.4-0.3c4.6-0.4,9-2.9,11.3-6.8
	c3.9-6.3,4.3-14.2,2.6-21.3c-1.3-5.9-5.8-11.3-11.9-12.3C156.9,534.6,149.7,535.1,142.5,535 M231,601.1c0,0.7,0,2.2,0,2.9
	c3.9,0.1,7.9,0.1,11.9,0c0-0.7,0.1-2.2,0.1-2.9C239,600.9,235,600.9,231,601.1 M117.6,627.9c-17.3,2.2-31.9,16.7-34.4,34
	c-1.8,11.3,1.3,23.4,8.8,32.2c8.2,10.4,21.9,16,35,14.6c11.2-0.7,21.9-6.6,28.6-15.6c5.8-7.3,8.8-16.8,8.5-26.1
	c-0.3-13.5-7.9-26.8-19.6-33.6C136.6,628.3,126.9,626.6,117.6,627.9z"/>
<path class="st1" d="M846,522c10.3,0.1,20.6-0.2,30.8,0.1c-0.2,10.2,0,20.4-0.1,30.6c-10.1,0.4-20.3-0.4-30.5,0.4
	c-0.3-2-0.3-4.1-0.4-6.2c10.2,0,20.4,0.1,30.7-0.1c-1.2-1.2-3-0.7-4.5-0.8c-8.7,0-17.4,0-26.1,0C846,538,846,530,846,522z"/>
<path class="st1" d="M877.9,522c1.4,0,2.7,0,4.1,0c0.1,11.3-0.1,22.7,0,34c-1.4,0-2.7,0-4.1,0C877.9,544.7,877.9,533.3,877.9,522z"
	/>
<path class="st1" d="M882.9,522c22.7,0,45.4,0,68.2,0c0,11.3,0,22.7,0,34c-5.4,0-10.7,0-16.1,0c0-3.9,0-7.9,0-11.8c4,0,8,0,12-0.1
	c0-6.8,0-13.5,0-20.3c-4.3-0.1-8.6-0.1-12.9,0c0,10.7,0,21.4,0,32.1c-5.5,0-11,0-16.6,0c0-3.9-0.1-7.7,0.2-11.5
	c3.8,0.5,7.8,1.2,11.5-0.1l0.9-0.5c0-6.7-0.1-13.3-0.1-20c-4.3,0.1-8.6-0.4-12.8,0.2l-0.5,0.1c-0.7,6.7-0.3,13.4,0,20.1
	c0.3,3.9,0.1,7.8,0.2,11.7c-5.5,0-11.1,0-16.6,0c0-3.9,0-7.9,0-11.8c4.3,0,8.6,0.1,12.9-0.1c-0.1-6.7,0-13.4,0-20.2
	c-4.5-0.1-9-0.2-13.4,0.1c-0.4,10.7-0.1,21.4-0.1,32c-5.5,0-10.9,0-16.4,0c0-3.7,0-7.4,0-11.1c3.9,0,7.8,0.5,11.7-0.1
	c0.3-0.2,0.8-0.7,1.1-0.9c0.4-6.7,0-13.4,0.2-20.1c-4.3-0.6-8.7-0.6-13-0.5L882.9,522z"/>
<path class="st1" d="M952.3,522.1c12.6-0.2,25.1,0,37.7-0.1c-0.1,8,0,16,0,24c-12,0-24.1,0-36.1,0c-0.2,0.2-0.7,0.5-1,0.7
	c12.3,0.5,24.8,0.1,37.1,0.2c0,2.1-0.1,4.1-0.3,6.2c-12.4-0.8-24.9-0.2-37.3-0.3C952.3,542.6,952.5,532.3,952.3,522.1z"/>
<path class="st1" d="M883.1,525c3.8,0.2,7.9-0.8,11.3,1c-3.8,0.5-7.7,0.2-11.5,0.2L883.1,525z"/>
<path class="st1" d="M917.8,524.9c3.5-1.4,7.5-0.3,11.2-0.7l0,2c-3.5,0-7,0-10.4,0.2C918.4,526.1,918,525.3,917.8,524.9z"/>
<path class="st1" d="M935,524.2c3.6,0,7.3,0,10.9,0l0.1,2c-3.7,0.1-7.4,0.1-11.1,0L935,524.2z"/>
<path class="st1" d="M883,526.7c3.8,0.1,7.7,0,11.5,0.1c-0.3,2.3-0.6,4.8,0.1,7.1c-3.9,0.3-7.7,0.2-11.6,0.2
	C883,531.6,883,529.1,883,526.7z"/>
<path class="st1" d="M899.8,526.7c4.1,0,8.2,0,12.2,0c0,2.4,0,4.9,0,7.3c-4.1,0-8.2,0-12.2,0C899.7,531.5,899.7,529.1,899.8,526.7z"
	/>
<path class="st1" d="M917.7,526.8c3.8-0.1,7.5-0.1,11.3-0.1c0,2.5,0,4.9,0,7.4c-3.7,0-7.4-0.1-11.1-0.1
	C918.1,531.6,918,529.2,917.7,526.8z"/>
<path class="st1" d="M935,526.7c3.7,0,7.3,0,11,0c0,2.5,0,4.9,0,7.4c-3.7,0-7.4,0-11,0C935,531.6,935,529.1,935,526.7z"/>
<path class="st1" d="M883,535c3.9,0,7.8-0.1,11.7,0l-0.7,0.8c-3.7,0.6-7.4,0.1-11,0.3L883,535z"/>
<path class="st1" d="M918.4,535c3.5-0.2,7.1,0,10.6,0l0,1c-3.9,0-7.8-0.1-11.7-0.1L918.4,535z"/>
<path class="st1" d="M935,534.9c3.7,0,7.4,0,11,0l0,1.1c-3.7,0-7.3,0-11,0L935,534.9z"/>
<path class="st1" d="M883,537c3.9,0,7.8-0.1,11.7,0.1c-0.4,1.9-0.7,3.9-1,5.8c-3.6,0.1-7.2,0.1-10.8,0.2C883,541.1,883,539,883,537z
	"/>
<path class="st1" d="M899.8,537c4.1-0.1,8.1,0,12.2-0.1c0,2.3,0,4.5,0,6.8c-4.1,0-8.2,0-12.3,0C899.7,541.5,899.7,539.3,899.8,537z"
	/>
<path class="st1" d="M917.9,536.9c3.7,0.1,7.4,0,11.2,0.1c0,2,0.1,4.1,0.1,6.1c-3.7-0.1-7.3-0.1-11,0C918,541,918,539,917.9,536.9z"
	/>
<path class="st1" d="M935,537c3.7,0,7.4,0,11,0c0,2.3,0,4.5,0,6.8c-3.7,0-7.4,0-11.1,0C935,541.5,935,539.2,935,537z"/>
<path class="st1" d="M148,539.8c6.5,0.5,14.5-1.7,19.6,3.6c3.9,4.9,4,11.8,3,17.7c-0.7,4.2-3.2,8.6-7.5,9.7c-5,1-10.1,0.7-15.1,0.7
	C148,561,148,550.4,148,539.8z"/>
<path class="st1" d="M845.8,553.8c9.8,0.4,19.6,0,29.4,0.2c0,1.3,0.1,2.7,0.1,4c-9.8,0.1-19.7-0.2-29.6,0.2
	C845.9,556.7,845.9,555.2,845.8,553.8z"/>
<path class="st1" d="M953.6,554c12.2-0.2,24.5,0.2,36.7-0.2c-0.2,1.4-0.3,2.8-0.3,4.2c-3.1,0-6.2-0.3-9.2,0.5
	c-9.1-1.1-18.2-0.3-27.3-0.5C953.4,556.7,953.5,555.3,953.6,554z"/>
<path class="st1" d="M877,557c25,0,50.1,0.1,75.2,0l-0.3,1c-6.9,0.2-13.8-0.1-20.7,0.2c-13.1,0-26.1,0.6-39.2,0
	c-5-0.2-9.9,0.3-14.9,0.4L877,557z"/>
<path class="st1" d="M846.2,558.9c10.3,0.5,20.6,0.4,30.9,0c2.1-0.1,4.2-0.2,6.3-0.3c1.2,7.8-5.2,13.6-11,17.6
	c-6.1,5-13.1,9-18.1,15.2c-3.8,4.6-4.6,10.7-5.2,16.4c-0.8,0-2.4,0.1-3.2,0.2C846.1,591.7,845.7,575.3,846.2,558.9z"/>
<path class="st1" d="M896.3,558.7c7.4,0.1,14.8,0,22.3,0c-0.1,2.8-1.3,5.5-3.6,7.2c-5.8,4.5-12.5,7.9-18.6,11.9
	c0.4-1.8-0.2-3-1.6-3.7c0.9,1.7,0.9,3.5,0.3,5.2l-1.4-1.3c-0.4,1.9-2.1,2.8-3.7,3.7c-1.4,1-2.6,3.1-4.7,2.6c0,1.5-1.2,2.2-2.5,2.6
	c-3,4.6-6,9.3-7.1,14.8c-3.2,1.8-6.2,3.8-8.8,6.2c-1.5,0-3,0-4.5,0c0.3-2.6,0.3-5.5,1.9-7.8c2.3-3.7,6.2-5.9,9.5-8.5
	c3.1-2.2,5.8-5,9.3-6.6c0.5-1.5,1.4-2,2.7-1.4c0.7-1.3,1.5-2.6,2.4-3.9l1.9,1.6c-2-2.5,1-4.2,2.3-5.9l2.6,0.5l-1.6-1.7
	C896,569.6,897.1,564.1,896.3,558.7z"/>
<path class="st1" d="M932,559.1c12,0,24.1,0,36.1,0c3.9,0,7.9,0.3,11.8-0.5c0.4,16.4,0.1,32.9,0.1,49.3c-14.9,0-29.8,0-44.7,0
	c-0.6-5.6-2-11.1-3-16.6c0.5-0.1,1.6-0.3,2.2-0.5c-0.1-1.1-0.1-2.2-0.1-3.3c-2.3,0-4.6,0-6.8-0.1c0-4.3,0-8.5,0-12.8l-2.2,0.2
	c2.6-2.8,4.8-6,5.9-9.7C931.5,563.2,931.7,561.1,932,559.1 M941.1,574.7c0,5.5,0,11,0,16.4c3.5,0,7,0,10.4,0c0-1.2,0-2.3,0-3.5
	c-2.3,0-4.6,0-6.9,0c0-4.3-0.2-8.7,0.1-13C943.6,574.7,942.3,574.7,941.1,574.7z"/>
<path class="st1" d="M980.9,559c3,0,6.1,0,9.1,0c0,41.7,0,83.4,0,125.2c-3.1-2.9-6.1-6-9.2-9c-0.3-8.5,0-16.9-0.3-25.4
	c0.1-5.4,0.1-10.9,0-16.3c0.7-8.2,0.3-16.5,0.3-24.8C981,592.1,981,575.5,980.9,559z"/>
<path class="st1" d="M916.8,580.9c2.5-1.5,4.8-3.2,7.1-4.9c0.1,4.9,0.4,9.7,0,14.6c-2.3,0.2-4.6,0.3-6.9,0.5
	C916.8,587.7,916.8,584.3,916.8,580.9z"/>
<path class="st1" d="M942,575.7l1.8-0.5c0.2,4.4,0,8.8,0.2,13.2c2.5,0,4.9,0,7.4,0.2c-0.3,0.4-0.8,1.2-1.1,1.7
	c-2.8,0.2-5.6,0.1-8.4,0.1C942,585.5,941.6,580.6,942,575.7z"/>
<path class="st1" d="M914.2,587.1c-0.9-2.4-0.9-4.9,1.8-5.9c0.1,3.2,0.2,6.3,0.1,9.5c-3.3,0-4.3-3.6-6-5.8c0.5-0.4,1.5-1.2,2-1.6
	C912.4,584.7,913.1,586,914.2,587.1z"/>
<path class="st1" d="M906.6,586.8c0.6-0.5,2-1.4,2.6-1.8c1.5,2.2,2.9,4.4,4.5,6.5c-6,0.6-12.5-0.4-18,2.6c2.2-2.1,4.7-3.7,7.2-5.4
	c0,0.6,0.1,1.7,0.2,2.3c1.2-0.1,2.5-0.1,3.7-0.2C906.8,589.4,906.7,588.1,906.6,586.8z"/>
<path class="st1" d="M904.1,590.1c-1.2-1.1,0.3-3.6,1.8-2.7C907,588.5,905.7,591.3,904.1,590.1z"/>
<path class="st1" d="M899.9,595.1c10-0.7,20-1.7,30-2.2c0.8,4.3,1.8,8.5,2.3,12.8c-11.3,0.7-22.7,1.3-34,2
	C898.7,603.5,899.2,599.3,899.9,595.1z"/>
<path class="st1" d="M879.2,602.4c5.8-2.5,11.7-4.8,17.7-6.5c-0.4,3.1-0.8,6.2-1.2,9.3c-2.7,1-5.4,1.9-8,3
	C884.7,606.6,882,604.4,879.2,602.4z"/>
<path class="st1" d="M870.2,607.9c2-1.6,4.2-3,6.6-4c1.8,1.4,3.6,2.7,5.5,4C878.2,608.1,874.2,608.1,870.2,607.9z"/>
<path class="st1" d="M846,609c0.8,0,2.4,0,3.3,0c0.3,4.4,1.2,8.6,2.2,12.9c-2.3,2.7-3.9,5.7-5.4,8.9
	C845.9,623.5,845.9,616.2,846,609z"/>
<path class="st1" d="M862.3,609.1c1.2,0,2.5-0.1,3.7-0.1c-1,1.4-2,2.7-3.3,3.9C862.6,611.6,862.5,610.4,862.3,609.1z"/>
<path class="st1" d="M864.6,627c-1.3-6.2-0.2-13.2,4.2-18c5.3,0.1,10.7-0.1,16,0.2c-5.3,2.8-12.2,5.8-12.2,12.9
	C869.9,623.7,867.3,625.4,864.6,627z"/>
<path class="st1" d="M887.7,610.5c2.2-1,4.5-1.7,7-1.5c1.1,1.2,2.6,1.8,4.2,1.4c13.3-0.9,26.7-1.7,40-1.4
	c13.6,0.7,27.3-0.6,40.9,0.2c-0.8,6.8,0,13.6-0.6,20.4c-4.5-9.7-13.4-17.9-24.2-19.5c-5.9-0.6-12.1-0.8-17.7,1.5
	C925,616,916.5,629,916.7,642c-0.3,14.7,11.1,28.4,25.4,31.3c-3.9,1.2-8,0.8-12.1,0.8c-9.3,0-18.6,0-27.9,0
	c-6.3-0.1-12.5,0.4-18.8-0.6c7.7-1.8,15.1-6,19.5-12.8c6.9-8.8,8.4-21.4,3.8-31.6c-3.1-6.4-7.7-12.4-14.2-15.6
	C890.7,612.6,888.8,612,887.7,610.5z"/>
<path class="st1" d="M865.4,629.9c2.5-1.7,5-3.3,7.6-4.8c1.1,5.6,3.9,10.5,6.6,15.4c-0.3,3.4-2.4,6.4-3.5,9.7
	C871.3,644.1,867.6,637.2,865.4,629.9z"/>
<path class="st1" d="M310.8,636.1c1.5,0,3.1,0,4.6,0c0,27.8,0,55.6,0,83.5c-1.5,0-3.1,0-4.6-0.1
	C310.8,691.7,310.8,663.9,310.8,636.1z"/>
<path class="st1" d="M878.4,653.4c0-3.5,2.5-6.6,3.3-10c1.4,2.3,4.7,4.5,3.3,7.6C884.6,654,880.8,654.4,878.4,653.4z"/>
<path class="st1" d="M846.2,674.3c-0.3-7.1-0.5-14.3,0.2-21.4c3.8,10.1,12.9,18.3,23.6,20.5C862.1,675,854.1,673.4,846.2,674.3z"/>
<path class="st1" d="M979.4,653.4c0.4,6.8,0.1,13.7,0.3,20.5c-7.9-0.2-15.9,1-23.7-0.7C966.6,671.2,975.2,663.1,979.4,653.4z"/>
<path class="st1" d="M689.7,660.7c-3,1.5-1.8-5.3,0.4-3.1C690,658.4,689.8,659.9,689.7,660.7z"/>
<path class="st1" d="M772.5,668.2c0.2-4-1.1-8.2,0.1-12c0.6,0.8,1.9,2.5,2.6,3.3c-0.9,0.7-1.8,1.4-2.6,2
	C772.6,663.7,772.7,666,772.5,668.2z"/>
<path class="st1" d="M753.2,669.3c2.2-0.4,0.2,3-0.6,0.7L753.2,669.3z"/>
<path class="st1" d="M678,669.6c0.3,0.6,0.9,1.7,1.3,2.3l-0.9-0.3C678.3,671.1,678.1,670.1,678,669.6z"/>
<path class="st1" d="M679.2,671.9l0.4,0.6l-0.5,0.5C679.2,672.7,679.2,672.2,679.2,671.9z"/>
<path class="st1" d="M755,673.4c-0.2-1.2,0.2-1.5,1.2-1c0.2,0.7,0.7,2,1,2.6C756.6,674.6,755.5,673.8,755,673.4z"/>
<path class="st1" d="M757.2,675l0.7,0.1l0.1,0.7l-0.7-0.1L757.2,675z"/>
<path class="st1" d="M845.5,674.9c30.5,0.6,61,0.1,91.5,0.2c14.3-0.7,28.6,0.4,42.9,0c3.3,3.2,6.3,6.6,9.8,9.5
	c-8.5,0.9-17.1,0.2-25.7,0.4c-39.5,0-79,0-118.5,0C845.5,681.7,845.7,678.3,845.5,674.9z"/>
<path class="st1" d="M757.9,675.8c0.4,0,1.2,0,1.5,0.1l0.1,0.8l-0.7,0.4C758.6,676.7,758.2,676.1,757.9,675.8z"/>
<path class="st1" d="M684,677.3c0.6,0.2,1.7,0.6,2.3,0.7C685.7,677.8,684.6,677.5,684,677.3z"/>
<path class="st1" d="M722.3,677.4C722.6,677.6,722.6,677.6,722.3,677.4z"/>
<path class="st1" d="M759.6,676.7c4.3,2.3,9.3,3,14,1.7c-0.1,0.5-0.3,1.4-0.5,1.8c-4.7,0.2-9.4-0.2-13.6-2.5L759.6,676.7z"/>
<path class="st1" d="M686.3,678l0.9-0.4c0.1,0.5,0.3,1.4,0.3,1.8C687.2,679.1,686.6,678.4,686.3,678z"/>
<path class="st1" d="M775.6,679.1c-1.3,0.3-1.8-0.2-1.5-1.3l1.2,0.3L775.6,679.1z"/>
<path class="st1" d="M373.7,723.6c6.9,0,13.8,0,20.7,0c0,70.1,0,140.2,0,210.3c0.4,5.7-2.7,11.5-0.3,17c1.9,5.1,8.1,6.7,13,5.8
	c8.2-1.8,16.6-0.7,24.9-1c33.7,0,67.3,0,101,0c2.2,0,4.3,0.3,6.5,0.8c1.4,6.5,0.1,13.3,1,19.8c-42.1,0.2-84.3,0-126.5,0.1
	c-10,0.2-20.6-2.1-28.2-8.9c-8.5-7.2-12.1-18.7-12-29.6C373.7,866.5,373.7,795.1,373.7,723.6z"/>
<path class="st1" d="M396.8,723.6c23.3,0,46.5,0,69.8,0c0,47.1,0,94.2,0,141.3c0.3,1.6-0.9,2.7-2,3.8
	c-22.7,22.5-45.1,45.2-67.8,67.8C396.8,865.5,396.8,794.6,396.8,723.6z"/>
<path class="st1" d="M541,787.1c10.8-0.9,20.9,8.2,21.8,18.8c0.9,9-5,18.2-13.6,21.2c-7.3,2.7-16.1,0.9-21.7-4.6
	c-3.7-4-6.4-9.1-6.3-14.6C520.9,797.3,530.2,787.3,541,787.1 M538.2,792c0,4,0,8,0,12c-4,0-8,0-12,0c0,2.5,0,5,0,7.5c4,0,8,0,12,0
	c0.1,4,0,8,0,12c2.5,0,5.1,0,7.6,0c0-4,0-8,0-12c4,0,8,0,12,0c0-2.5,0-5.1,0-7.6c-4,0-8,0-12,0c-0.1-4-0.1-8,0-12
	C543.3,792,540.7,792,538.2,792z"/>
<path class="st1" d="M1108,788.1c10.8-0.9,20.9,8.2,21.7,18.8c1,9.4-5.6,19-14.7,21.6c-7.1,2.2-15.4,0.2-20.6-5.1
	c-3.4-3.7-6.1-8.4-6.2-13.5C1087.4,798.9,1096.9,788.3,1108,788.1 M1105.2,793c0,4,0,8,0,12c-4,0-8,0-12,0c0,2.5,0,5,0,7.6
	c4,0,8,0,12,0c0.1,4,0,8,0,12c2.5,0,5.1,0,7.6,0c0-4,0-8,0-12c4,0,8,0,11.9,0c0-2.5,0-5,0-7.5c-4-0.1-8,0-12,0c-0.1-4-0.1-8,0-12
	C1110.3,793,1107.7,793,1105.2,793z"/>
<path class="st1" d="M540,793.7c1.4,0,2.7,0,4.1,0c0,0.8,0,2.4,0,3.3c-1.4,0-2.7,0-4,0C540,796.2,540,794.6,540,793.7z"/>
<path class="st1" d="M1107,794.7c1.3,0,2.7,0,4.1,0c0,0.8,0,2.5,0,3.3c-1.4,0-2.7,0-4.1,0C1107,797.2,1107,795.6,1107,794.7z"/>
<path class="st1" d="M540,798c1.4,0,2.7,0,4.1,0c0,2.6,0,5.2,0,7.8c2.7,0,5.3,0,8,0c0,1,0,3,0,4.1c-2.7,0-5.3,0-8,0
	c0,2.7,0,5.5,0,8.3c-1.4,0-2.7,0-4,0c0-2.8,0-5.6,0-8.3c-2.7,0-5.4,0-8.1,0c0-1.4,0-2.7,0-4c2.7,0,5.4,0,8,0
	C540,803.2,540,800.6,540,798z"/>
<path class="st1" d="M1107,799c1.3,0,2.7,0,4.1,0c0,2.6,0,5.2,0,7.7c2.7,0,5.3,0,8,0c0,1,0,3,0,4.1c-2.7,0-5.4,0-8,0
	c0,2.7,0,5.5,0,8.2c-1.4,0-2.7,0-4.1,0c0-2.8,0-5.5,0-8.3c-2.7,0-5.3,0-8,0c0-1.4-0.1-2.7-0.1-4c2.7,0,5.4,0,8.1,0
	C1107,804.2,1107,801.6,1107,799z"/>
<path class="st1" d="M527.9,805.8c1,0,2.1,0,3.1,0c0,1.3,0,2.7,0,4c-0.7,0-2.2,0-3,0C528,808.5,528,807.1,527.9,805.8z"/>
<path class="st1" d="M553,805.7c0.8,0,2.3,0,3.1,0c0,1,0,3,0,4c-0.8,0-2.3,0-3.1,0C552.9,808.8,552.9,806.7,553,805.7z"/>
<path class="st1" d="M1095,806.7c1,0,2,0,3,0c0,1.3,0,2.7,0.1,4c-0.8,0-2.3,0-3,0C1095,809.4,1095,808.1,1095,806.7z"/>
<path class="st1" d="M1119.9,806.7c0.8,0,2.3,0,3.1,0c0,1,0,3,0,4.1c-0.8,0-2.3,0-3.1,0C1119.9,809.8,1119.9,807.8,1119.9,806.7z"/>
<path class="st1" d="M540,819c1.4,0,2.7,0,4.1,0c0,0.7,0,2.1,0,2.8c-1.3,0-2.6,0-4,0C540,821.1,540,819.7,540,819z"/>
<path class="st1" d="M1107,819.9c1.4,0,2.7,0,4.1,0c0,0.7,0,2.2-0.1,2.9c-1.3,0-2.7,0-4,0C1107,822.1,1107,820.6,1107,819.9z"/>
<path class="st1" d="M397.6,936.6c23-23.2,46.2-46.2,69.3-69.3c1.5,7.9,8,14.7,16.1,16c-23.2,23.3-46.6,46.5-69.8,69.9
	c-5,1-11.1,3-15.4-0.9C394.2,947.8,395.6,941.3,397.6,936.6z"/>
<path class="st1" d="M1184.9,867.6c22.8,22.6,45.5,45.5,68.3,68.2c2.1,1.7,2,4.6,2.6,7.1c0.6,3.7,0.2,8.3-3.3,10.4
	c-4.3,2.4-9.2,0.7-13.7-0.1c-23.3-23.3-46.6-46.5-69.8-69.9C1176.9,881.9,1183.2,875.4,1184.9,867.6z"/>
<path class="st1" d="M481.9,884.9c1-1.4,2.7-1.5,4.2-1.4c227.3,0.1,454.7-0.1,682,0.1c5,4,9.2,9.1,13.9,13.5
	c18.7,18.8,37.5,37.3,56.1,56.2c-40.4,0-80.7,0-121.1,0c-2-0.2-3.8,0.8-5.6,1.6c-0.4-7.9,1.8-16.6-2.4-23.9
	c-6.8-12.1-27.1-12.3-34-0.3c-4,6.5-2.5,14.6-2.6,21.9c-0.3,0.2-0.8,0.6-1.1,0.8c-55-0.3-110.1,0-165.2-0.1c-107,0-214,0-321,0
	c-2.1-0.2-3.9,0.8-5.7,1.6c-0.4-7.9,1.7-16.6-2.4-23.9c-3.5-6.3-10.9-9.6-17.9-9c-8.7-0.5-17,6.2-18.4,14.8
	c-0.8,6-0.1,12.1-0.5,18.2c-1.5-1.1-3.2-1.7-5-1.7c-40.5-0.1-80.9,0.1-121.4-0.1C436.2,930.3,459.2,907.8,481.9,884.9z"/>
<path class="st1" d="M541,938.9c0.4-7.9,7-15,14.9-15.9c4-0.3,8.3-0.5,12.1,1.2c6.3,2.5,10.6,9.1,10.7,15.8c0.1,16-0.1,31.9,0,47.9
	c1.1,2.9,1.6,6,2.2,9.1c-14.1,0.4-28.2,0-42.3,0.2c0.8-4.4,2.6-8.6,2.4-13.2C541,968.9,540.6,953.9,541,938.9z"/>
<path class="st1" d="M1082.1,924.9c4.3-2.4,9.3-2.4,14.1-1.9c8.1,1.1,14.5,8.8,14.6,16.9c0.1,16-0.1,32,0,47.9
	c1.2,2.9,1.6,6.1,2.2,9.2c-14.1,0.1-28.1,0-42.2,0c0.7-4.4,2.5-8.7,2.2-13.2c0-14.7-0.3-29.3,0.1-44
	C1073.1,933.8,1076.6,927.8,1082.1,924.9z"/>
<path class="st1" d="M579.2,957.5c2.1-0.2,3.6-2,5.8-1.8c160,0,320,0,479.9,0c2.2,0,4.5,0.4,6.7,0.5c0.8,6.5,0.1,13.2,0.6,19.7
	c-0.4,0.1-1.2,0.5-1.6,0.6c-25.2-0.5-50.5-0.1-75.7-0.2c-129.3,0-258.7,0-388,0c-9.2,0.1-18.5-0.4-27.7,0.7
	C579.3,970.6,579.5,964,579.2,957.5z"/>
<path class="st1" d="M386,1030.8c0.5-0.2,1.5-0.7,2.1-1C387.6,1030.1,386.6,1030.6,386,1030.8z"/>
<path class="st1" d="M390.6,1032.1C393.7,1030.5,391,1035.2,390.6,1032.1z"/>
<path class="st1" d="M393.5,1033c2.1-1.6,1.9,2.5-0.1,0.8L393.5,1033z"/>
<path class="st1" d="M396.2,1034C399.4,1032.6,396.5,1037.2,396.2,1034z"/>
<path class="st1" d="M399.3,1035c0.4,0,1.2,0.1,1.7,0.1l0,0.7c-0.4,0-1.3-0.1-1.7-0.1L399.3,1035z"/>
<path class="st1" d="M403.2,1036.1C406.4,1034.6,403.5,1039.2,403.2,1036.1z"/>
<path class="st1" d="M405.6,1036.6c7,1.5,14.2,2.9,21.4,3.2c262-0.1,524,0,786,0c5.6,0.1,11.2,0.3,16.7-0.5c0.8,0.5,1.5,1.1,2.3,1.7
	c-25,1.2-50,0.4-75,0.6c-237.4,0-474.7,0-712.1,0c-12.9,0.1-26-0.4-38.4-4L405.6,1036.6z"/>
<path class="st19" d="M399.6,12.3c1.5,0.4-0.3,2.8-1.4,1.8l-0.2-0.7C398.4,13.1,399.2,12.6,399.6,12.3z"/>
<path class="st19" d="M886,560.3c2.7,0,5.4,0,8.1,0c0.9,5.5-1,11.2-4.6,15.3c-4.7,5.4-10.7,9.3-16.2,13.7c-3.8,3.1-8.4,5.6-11,10
	c-1.7,2.6-1.8,5.8-2.1,8.7c-2.9,0-5.9,0-8.8,0c0.3-6.2,1.7-12.8,6.4-17.2c7.2-6.9,16-11.8,23.1-18.8
	C884.1,568.9,885.4,564.6,886,560.3z"/>
<path class="st19" d="M851.4,609c2.9,0,5.8,0,8.8,0c0.1,4.4,1.9,8.6,1.8,13c0.2,8,3.6,15.4,7.3,22.3c-1.7,0-3.4-0.1-5.1-0.3
	C857.6,633.4,852.3,621.6,851.4,609z"/>
<path class="st20" d="M401.8,13.3c-0.8-1.1-0.4-1.6,1.3-1.6C404,12.8,403.5,13.4,401.8,13.3z"/>
<path d="M416.8,15.4c11.6-1.9,23.5-1.5,35.2-1.5c254,0,508,0,762,0c11.2,0,22.3,1.1,33.1,4.2c32.9,8.5,61,32.3,76.4,62.3
	c7.9,16.3,12.7,34.4,12.7,52.6c0,259.7,0,519.3,0,779c0.6,28.8-9.5,57.9-28.5,79.6c-22.2,27-56.8,43.2-91.7,43
	c-259.3,0.1-518.7,0-778,0c-17.6,0.1-35.3-3.1-51.3-10.5c-24.8-11-45.3-30.9-58-54.7c-8.4-16.8-13.4-35.6-13.4-54.5
	c0-63.8,0-127.6,0-191.4c-1.5,0-3.1,0-4.6,0c0,65.5,0,130.9,0,196.3c1.3,28.2,12.3,55.9,31.3,76.9c8.9,10.6,20,19,31.7,26.2
	c3,1.5,5.9,3.1,9.1,4.4l-1.1,1.6c0.8-0.3,2.5-1,3.3-1.3l-1.6,2c1.6-0.4,3.1-0.4,4.6,0.1c-0.5,0.2-1.5,0.7-2.1,1
	c0.5-0.2,1.5-0.7,2.1-1c0.4,0.1,1.2,0.3,1.6,0.4l-0.8,1.4c4.8-0.7,9.2,2.4,13.8,3.4c9,2,18,4.1,27.3,4.1c257.7,0.1,515.3,0,773,0
	c10.4-0.2,20.8,0.7,31.1-1.2c32.7-4.6,62.8-23.1,82.3-49.6c11.7-15,18.9-33.2,22.6-51.8c0.1,0.5,0.3,1.4,0.4,1.8
	c-3.9,19.1-11.9,37.6-24.2,52.8c-20.2,26.3-51.1,44.4-84.1,47.9c0.7,0.5,1.5,1.1,2.3,1.6c33.9-4.2,65.6-22.7,86-50.1
	c1.6,1.5-0.5,3.2-1.3,4.4c-17.5,22-42.4,38.1-69.8,44.7c-12.4,3.4-25.3,3.8-38.1,3.8c-248.7,0-497.4,0-746.1,0
	c-13.7-0.1-27.5,0.3-41.2-0.8c-23.2-2.8-45.6-12.1-64-26.4c-6.2-5.2-12.7-10.2-17.5-16.8c-19.1-20.6-30.4-48-32.5-75.9
	c-1.2-10.8-0.5-21.7-0.7-32.6c0-56,0-111.9,0-167.9c-20.8-0.1-41.6,0.1-62.5-0.1c0.1,9.7-0.4,19.3,0.4,29c0.1,2,0,3.9-0.2,5.9
	c-77.6,0.4-155.2,0.1-232.8,0.2c0-80.3,0-160.7,0-241c77,0,154.1,0,231.1,0c1.8-0.4,2,1.7,1.9,2.9c0,60.3,0,120.7,0,181
	c-0.6,6.3-0.5,12.7-0.5,19c20.8,0,41.6,0,62.5,0c0.1-75.8-0.1-151.6,0-227.5c-20.7,0-41.3,0-62,0c0,2.9,0.2,5.9-0.6,8.8
	c-77.5-0.2-154.9,0-232.4-0.1c0-76.7,0-153.5,0-230.2c0-3.5,0-7,0.2-10.5c77.6,0.2,155.2,0.1,232.7,0c0.2,76.3,0,152.6,0.1,229
	c20.7,0,41.3,0,62,0c0-112.8,0-225.6,0-338.4c0.1-8.3-0.4-16.7,0.6-25c0.9-15.6,5-31,11.5-45.2l0,0.7c0.1,1.5,0.2,3.1,0.2,4.6
	c-5.5,13.6-9.1,28.1-9.5,42.8c-0.1,23.3,0,46.6,0,69.9c1.5,0,3.1,0,4.6,0c0-20.6,0-41.3,0-61.9c-0.6-28.2,8.9-56.8,27.2-78.5
	C360.8,35.6,387.9,19.9,416.8,15.4 M421.9,17.1c-14,1.7-27.8,5.8-40.3,12.5c-21.3,10.9-38.6,28.7-50.1,49.5
	c-8.6,16.6-13.6,35.1-13.7,53.8c0,118.7,0,237.3,0,356c0.6,0,1.8,0,2.3,0c0-120,0-240,0-360c0.7-17,5.5-33.7,13.3-48.8
	c11.6-21.1,29.4-39,51.1-49.5c16.8-8.6,35.7-12.4,54.5-12.1c252.7,0,505.3,0,758,0c9,0,18-0.2,26.9,0.3c22.1,1.5,43.6,9.6,61.2,23
	c11.5,8.5,21,19.4,28.8,31.3c12.1,18.9,17.8,41.5,17.8,63.8c0,252.3,0,504.6,0,757c-0.1,12.5,0.4,25-1.5,37.4
	c-2.4,14.9-7.4,29.5-15.3,42.5c-8.4,13.2-18.9,25.2-31.7,34.3c-18,13.1-40,20.9-62.3,21.7c-264,0-528,0-792,0
	c-9.5-0.4-19-2.4-28.1-5.2c-29.6-9.2-54.7-31.2-68.8-58.7c-7.8-16.1-12.4-34-12.1-52c0-63.4,0.1-126.8,0-190.2
	c-0.6-0.1-1.7-0.2-2.3-0.3c0,62.5,0,125,0,187.5c-0.7,27.9,8.6,56.1,26.6,77.5c17.5,21.9,43.2,37.2,70.9,42
	c12.8,2.4,25.9,1.7,38.8,1.8c253.3,0,506.7,0,760,0c11.1,0.1,22.3-1.2,33-4.3c32.2-8.5,59.6-31.9,74.6-61.4
	c7.5-15.8,12.1-33.1,12.2-50.6c0-260.7,0-521.4,0-782.1c0.1-19.3-5.1-38.5-14-55.5c-8.9-15.8-21-29.9-35.9-40.3
	c-16.1-11.6-35.2-18.9-54.9-21.1c-11-1-22-0.7-33-0.8c-246.7,0-493.4,0-740.1,0C444.6,16.4,433.2,16,421.9,17.1 M409.6,22.4
	c-25,5.7-47.8,20.4-63.6,40.5c-15.3,18.5-23.9,42.2-25.1,66.1c0,120,0,240,0,360c16.8,0,33.6,0,50.4,0c0-125.6,0-251.3,0-377
	c0-6.6,0.8-13.4,3.4-19.5c3.6-9,11.1-16.2,20.1-19.6c10.2-4.1,21.4-2.8,32.1-3c269,0,538,0,807.1,0c7-0.1,14.2,0.1,20.9,2.4
	c9.3,3,17.2,9.9,21.3,18.7c3.6,7.5,4.3,15.9,4.1,24.1c0,274,0,548,0,822c0.1,10-2.4,20.5-8.9,28.4c-7.6,9.2-19.7,13.5-31.4,13.4
	c-41,0.1-82,0-123,0.1c-1.9,0.1-3.8-0.2-5.6-0.8c0.1,3.4,0,6.8,0.1,10.1c1.7,2.4,1.4,5.4,2,8.1c1.2,0.4,2.5,0.9,3.7,1.5
	c-16.9,0.2-33.8-0.1-50.6,0.1c1.2-0.7,2.5-1.2,3.8-1.8c0.3-2.2,0.5-4.5,1.1-6.6c1.2-3.5,0.3-7.3,0.9-11c-20.5,0.7-41,0.1-61.5,0.3
	c-139.7,0-279.3,0-419,0c-2.9-0.1-6,0.4-8.8-0.8c-1-0.2-2.9-0.7-3.9-0.9c0.2,3.7,0.1,7.3,0.1,11c1.6,2.2,1.3,5.1,1.9,7.7
	c1.1,0.8,2.4,1.2,3.6,1.9c-16.6,0.1-33.3-0.2-49.9,0.2l0-0.7c1.1-0.3,2.1-0.7,3.1-1.2c0.6-2.5,0.4-5.3,1.8-7.6
	c0.3-3.3,0.1-6.6,0.5-9.9c-3.5,0.4-7,0.2-10.4,0.2c-35,0-70,0-105,0c-9.6-0.1-19.4,0.8-28.6-2.5c-10.1-3.3-18.6-11.4-22.2-21.4
	c-2.8-7-3-14.6-2.9-22c0-69.8,0-139.6,0-209.3c-16.8,0-33.6,0-50.4,0c0,62.5,0,124.9,0,187.4c-0.9,27.6,8.6,55.6,26.7,76.6
	c21.7,26.7,56.1,42.7,90.5,41.6c256,0,512,0,768,0c8.3-0.2,16.7,0.5,25-0.8c19.3-2.6,38-10.1,53.5-21.9c11.8-8.7,21.6-20,29.6-32.3
	c12.1-19.4,17.2-42.4,17.3-65.1c0-253.4,0-506.7,0-760.1c0.3-9.7-0.3-19.5-1.3-29.1c-1.6-12.5-5.4-24.6-10.7-35.9
	c-14.9-29.8-42.7-53.1-75.2-61c-12.7-3.5-26-3.7-39.1-3.6c-252,0-504,0-755.9,0C435.8,19.3,422.5,19.1,409.6,22.4 M384.9,81.9
	c-8,7.4-11.3,18.6-11.2,29.2c0,126,0,251.9,0,377.9c6.9,0,13.8,0,20.7,0c0-125.3,0-250.6,0-376c0-4.4-2-8.8-0.9-13.2
	c0.6-3.8,3.7-7,7.4-7.7c4.4-1.2,8.7,0.7,13.1,0.8c274.3,0,548.6,0,822.9,0c4.8,0.1,9.5-2.2,14.2-0.7c3.7,0.8,6.5,4.1,7,7.9
	c1,4.4-1,8.6-1,12.9c0,274.4,0,548.7,0,823.1c0.5,5.8,3,12.7-1.5,17.7c-4.7,5-11.9,2.7-17.7,2c-40.3,0-80.7,0-121,0
	c-2.1-0.2-3.6,1.7-5.7,1.8c0.2,6.5,0.1,13,0.1,19.6c1.5-0.5,3-0.7,4.6-0.7c38.7,0,77.4,0,116,0c7.3,0,14.9,0.2,21.9-2.2
	c9.4-2.9,17.3-10.1,20.8-19.2c3.8-8.8,3.1-18.6,3.2-27.9c0-267,0-534,0-801c-0.2-9.4,0.9-19-1.7-28.1c-2.6-9.8-9.6-18.3-18.9-22.2
	c-8.2-3.8-17.4-3.6-26.2-3.5c-272.7,0-545.4,0-818.1,0C402.9,72.1,392.3,74.8,384.9,81.9 M399.1,95.4c-3.6,2.1-3.9,6.9-3.2,10.6
	c0.5,2.1,0.5,4.7,2,6.4c23,22.9,45.8,45.8,68.8,68.7c1.6-7.9,8-14,15.7-16c-23-23.2-46.4-46.1-69.2-69.5
	C408.7,94.7,403.5,92.9,399.1,95.4 M1241,95c-2.7,0.4-4.5,2.7-6.4,4.5c-21.9,21.9-43.8,43.8-65.6,65.7c7.9,1.6,14.3,8,16,15.9
	c23.2-22.9,46.1-46.3,69.4-69.1c1.2-4.9,3-10.7-0.2-15.2C1250.9,93.1,1245.3,94,1241,95 M413.6,95.3c8.8,9.3,18,18.1,26.9,27.1
	c14.2,14.1,28.2,28.5,42.6,42.4c3.6,0.4,7.2,0.2,10.9,0.2c161.7,0,323.4,0,485.1,0c63-0.1,126.1,0.2,189.1-0.1
	c7.7-6.9,14.7-14.6,22.1-21.8c15.3-15.1,30.2-30.5,45.7-45.5c0.2-0.6,0.6-1.9,0.8-2.5c-107.9,0.2-215.9,0-323.8,0.1
	c-0.7,0-2.2,0-2.9,0C744.6,95.3,579.1,95.3,413.6,95.3 M396.9,112.1c-0.1,125.6,0,251.2,0,376.9c23.3,0,46.5,0,69.8,0
	c0-89,0-178,0-267c-0.2-13.6,0.4-27.2-0.3-40.8C442.9,158.4,420.2,134.9,396.9,112.1 M1185.8,180.9c-1.5,1.3-0.7,3.4-0.9,5.1
	c0,203,0,406,0,609c0.1,24-0.3,47.9,0.2,71.9c23.1,23.4,46.5,46.5,69.7,69.8c0-274.9,0-549.8,0-824.7
	C1231.7,134.9,1208.8,158,1185.8,180.9 M470.3,174.4c-2.5,3.7-3.2,8.2-2.9,12.5c0,100.7,0,201.4,0,302c2.6,0,5.2,0,7.8-0.2
	c0.1-102.9,0.1-205.9,0-308.8c-0.1-3.2,2.8-5.8,5.8-6.4c4.3-0.7,8.6-0.5,12.9-0.4c223.7,0,447.4,0,671,0c2.2,0.3,5.3-0.4,7,1.4
	c-3.9-0.5-7.9-0.9-11.9-0.7c-222,0-444.1,0-666.1,0c-4.9,0.1-10.2-0.7-14.8,1.2c-4.4,2.3-3.3,7.9-3.4,11.9
	c0,100.7,0.1,201.4-0.1,302c0.6-0.1,1.9-0.2,2.5-0.3c0-31.2,0.1-62.5,0-93.7c0.4-4.3,3-8,5.9-11c28.3-28.3,56.6-56.6,85-85
	c10.8-10.6,21.1-21.7,32.6-31.5c13-11.2,26.8-21.3,41.2-30.8c15.8-10.2,32.8-18.5,50.1-25.9c88.8-37.7,193.8-35.3,280.7,6.7
	c14.1,6.7,28,14.1,40.9,23c20.7,14,40.3,29.6,57.3,47.9c39,40.3,67.6,90.5,82.4,144.6c12.8,45.2,15.7,93,9.2,139.4
	c-5.2,35-15.5,69.3-30.9,101.1c-15.3,31.3-35.3,60.3-59.4,85.4c-19.5,21.2-42.5,39-66.6,54.6c-15.7,9.9-32.4,17.9-49.4,25.3
	c-86.7,36.4-188.7,34.8-273.9-5.1c-14.1-6.5-28-13.7-41-22.2c-20.7-13.8-40.6-29-57.9-46.8c-13.7-13.7-27.4-27.4-41.1-41.1
	c-22.5,0-45.1,0-67.6,0c0.7,20.4,0.1,40.9,0.3,61.3c0,27,0,54,0,81c-0.1,2.5,0.1,5.4,2.4,7c3.1,2.4,7.2,1.4,10.8,1.6
	c224,0,448.1,0,672.1,0c3.3-0.1,6.7,0.3,10-0.5c2.7-0.7,4.7-3.3,4.9-6c0.5-4.7,0.1-9.4,0.2-14c0.1-218.7,0-437.4,0-656.1
	c-0.2-6,0.4-12-0.3-17.9c-0.1-2.3-2.3-3.6-3.1-5.5c3.7,1.4,4.2,5.9,4.2,9.3c-0.1,227,0,454,0,681c-0.1,2.7-0.2,5.7-2.2,7.7
	c-1.9,2.2-4.9,2.7-7.7,2.7c-227.4,0-454.7,0-682.1,0c-4.4,0.2-10-2.2-9.6-7.4c-0.2-43.6,0-87.3-0.1-130.9c0-4.5,0.4-9.1-0.6-13.5
	c-2.4,0-4.8,0.1-7.2,0.1c0,46.8,0,93.5,0,140.3c-0.6,9.6,8,18.7,17.6,18.8c225,0,450.1,0,675.1,0c3.6-0.1,7.4,0.4,10.9-0.7
	c6.7-2,12-8,13.2-14.9c0-228.4,0-456.8,0-685.2c-1.1-8.1-8-14.8-16.1-16.1c-228.5-0.1-456.9,0.1-685.4-0.1
	C477.9,167.4,473,169.9,470.3,174.4 M748,193.8c-34.1,7.7-66.8,21.3-97,38.8c-16.8,10.2-32.8,21.9-47.8,34.6
	c-10.3,8.6-19.5,18.5-29.1,27.9c-28.5,28.5-57,57-85.5,85.5c-3.2,3.2-6.7,6.3-8.6,10.5c-1.9,3.9-1.2,8.3-1.2,12.4c5,0,10.1,0,15.1,0
	c0.2-2,0-4.1,0.6-6c1.5-2.1,3.5-3.8,5.2-5.6c28.7-28.6,57.3-57.3,86-86c9.2-9.2,18.2-18.6,28.2-27c13.4-11.4,27.7-21.7,42.6-31.1
	c32.8-19.5,68.9-33.8,106.4-40.9c47-9,96-7.8,142.5,3.7c28.7,7,56.2,18.5,82,32.8c13.3,7.4,25.7,16.3,37.8,25.5
	c22.7,17.3,42.5,38.2,59.9,60.9c13.4,17.9,24.9,37.2,34.5,57.5c17.7,38.5,28.2,80.4,30,122.8c3.5,76.5-21.1,154-68.5,214.2
	c-17.8,22.4-38.2,42.9-61.3,59.8c-16.2,12.2-33.5,23.1-51.9,31.7c-82.3,40.7-182.2,43.5-266.8,7.9c-21-9-41.6-19.4-60.1-32.9
	c-14.7-10.3-28.8-21.5-41.5-34.2c-10.3-10.4-20.7-20.6-31-31c-0.9-0.9-2-2.1-3.5-1.8c-7-0.1-13.9,0-20.9,0
	c12,12.1,24.1,24.1,36.1,36.1c9.4,9.6,19.1,18.9,29.6,27.3c18.2,14.6,37.5,28.2,58.4,38.7c24.7,12.7,50.7,22.8,77.7,29.1
	c75.8,18.3,158,9.9,228.2-24.5c16-7.6,31.5-16.4,45.9-26.9c52.7-36.5,94.6-88.2,119.3-147.3c16.2-39.6,25.8-82.2,26.4-125.1
	c1.8-79-25.2-158.5-74.9-219.9c-17.3-21.2-36.7-40.8-58.7-57.1c-12.4-9.2-25.1-18.2-38.7-25.6c-30-16.4-62.1-29-95.6-36
	C848.6,181.9,797,182.4,748,193.8 M310.8,199.1c0,96.6,0,193.3,0,289.9c1.5,0,3.1,0,4.6,0c0-96.6,0-193.3,0-289.9
	C313.8,199.1,312.3,199.1,310.8,199.1 M763.2,207.6c-37.4,7.1-73.2,21.3-105.9,40.7c-15.2,9.5-29.7,20.1-43.4,31.7
	c-10.8,9.1-20.4,19.5-30.5,29.4c-28.8,28.8-57.6,57.7-86.5,86.5c-2.8,2.2-1.9,6.1-2,9.2c0.1,28,0,56,0,83.9c31.4,0,62.9,0,94.3,0
	c0-14,0-28,0-42c0.2-3.8-1.9-7.2-1.8-11c0-21.7,0-43.3,0-65c-0.1-3.4,1.7-6.5,1.7-10c0-13,0-26,0-39c0-5.6,1.1-11.2,3.8-16.2
	c5.4-10.8,17-18.1,29.1-18.4c13.3-0.1,26.7,0,40-0.1c3.7,0.1,7.2-1.9,10.9-1.8c21.7,0,43.4,0,65.1,0c3.4-0.1,6.5,1.7,9.9,1.7
	c51.7,0,103.4,0,155.1,0c3.8,0.1,7.2-1.9,11-1.8c21.7,0,43.3,0,65,0c3.4-0.1,6.5,1.7,9.9,1.7c12.7,0,25.4,0,38,0
	c5.6-0.1,11.3,0.9,16.3,3.4c11.1,5.2,18.8,17,19.1,29.2c0.2,13.7,0,27.3,0.1,41c0.1,3.4,1.8,6.6,1.7,10c0,17,0,33.9,0,50.9
	c-0.1,7.7,0.8,15.6-1.7,23c-0.2,52,0,104-0.1,156c0.3,5.4,2.5,10.5,1.8,16c0,20,0,40,0,60c0.1,3.4-1.7,6.6-1.7,10
	c-0.1,14,0.2,28-0.1,42c-0.7,16.5-15.1,30.9-31.6,31.6c-13.9,0.3-27.8,0-41.7,0.1c-3.4,0-6.6,1.8-10,1.7c-22,0-44,0-66,0
	c-4.4-0.5-8.5-2.3-13-1.7c-50.7,0-101.4,0-152,0c-3.4,0-6.5,1.8-10,1.7c-21.7,0-43.3,0-65,0c-3.8,0.1-7.3-1.9-11.1-1.8
	c-13.2,0-26.5,0.1-39.7,0c-11-0.2-21.6-6.1-27.5-15.4c-4.3-6.3-5.8-14.1-5.6-21.6c-7.1,0-14.2,0-21.3,0
	c11.1,11.4,22.5,22.5,33.7,33.8c13.1,12.8,27.6,24.1,42.6,34.5c11.3,8,23.4,15,35.9,21.1c46.8,23.8,99.5,35.6,152,34.5
	c44.9-0.8,89.8-10.9,130.4-30.1c14.4-6.7,28.5-14.1,41.6-23.1c12.6-8.6,24.9-17.8,36.4-27.9c37.3-33.2,67-75,85.5-121.4
	c15.1-38.4,23.7-79.6,23.2-121c0.4-43.3-9.1-86.5-25.7-126.4c-15.1-35.4-36.5-68.1-63.1-95.9c-19.2-20.8-41.8-38.2-65.7-53.3
	c-27.8-16.5-57.8-29.3-89.1-37C859.1,199.7,810.1,198.5,763.2,207.6 M15,262.6c0,78.9,0,157.8,0,236.8c76.2,0,152.4,0,228.6,0
	c0.1-78.9,0.1-157.9,0-236.8C167.4,262.6,91.2,262.6,15,262.6 M663,289.8c-13.3,0-26.7-0.1-40,0c-7,0-13.9,2.4-19.4,6.8
	c-7.4,5.8-11.9,15-12,24.4c-0.1,13.3,0,26.7,0,40c0.1,3.4-1.8,6.6-1.7,10c0,21.7,0,43.3,0,65c-0.1,3.4,1.7,6.5,1.7,9.9
	c0,14.4,0,28.7,0,43c46.5,0,92.9,0,139.3,0c0,0.5,0,1.5,0,2c0.5,0,1.5,0,2,0c0,39.7,0,79.3,0,119c-1.4,0-2.7,0-4.1,0
	c0-39,0-78,0-116.9c-45.8,0-91.5,0-137.3,0c0,36.3,0,72.6,0,108.9c0,3.4-1.8,6.6-1.7,10c0,21.7,0,43.4,0,65.1c0,3.4,1.8,6.5,1.7,9.9
	c0,10.8,0,21.7,0,32.6c71.8,0.1,143.5-0.1,215.3,0.1c0.2-11.3,0-22.7,0.1-34c1.4,0,2.7,0,4.1,0c-0.1,12.7,0.1,25.4-0.1,38.1
	c-73.2,0-146.3,0-219.4,0c-0.1,6.1,0.7,12.5,3.8,17.9c5.2,10.1,16.3,16.7,27.7,16.7c13.3,0.1,26.6,0,39.9,0c3.4,0,6.6,1.8,10,1.7
	c21.7,0,43.4,0,65.1,0c3.4,0,6.5-1.8,9.9-1.7c49.7,0,99.4,0,149.1,0c4,0.1,8.1-0.5,12,0.9c3.2,1.1,6.6,0.8,9.9,0.8c20,0,40,0,60,0
	c3.4,0,6.6-1.9,10-1.7c11.6,0,23.3,0,34.9,0c5.9,0.1,12-0.3,17.4-2.8c11.4-4.9,18.9-17.1,18.6-29.4c0-11,0-22,0-33
	c0-3.7-0.3-7.5,0.9-11c1.1-3.2,0.8-6.7,0.8-10c0-16,0-32,0-48c-0.1-6.7,0.7-13.5-1.6-20c-0.3-52.3,0-104.7-0.2-157
	c-0.3-3.8,1.8-7.2,1.7-10.9c0-21.7,0-43.4,0-65.1c0-3.4-1.8-6.5-1.7-9.9c0-12.7,0-25.4,0-38.1c0.1-5.7-1-11.5-3.8-16.5
	c-5.2-9.9-16.1-16.5-27.3-16.6c-13.4-0.1-26.7,0-40.1,0c-3.4,0.1-6.5-1.7-9.8-1.7c-21.7,0-43.4,0-65.2,0c-3.4-0.1-6.5,1.7-9.9,1.7
	c-52,0-104,0-156,0c-3.4,0.1-6.5-1.7-10-1.7c-21.7,0-43.4,0-65.1,0C669.5,288,666.4,289.9,663,289.8 M478.9,403.5
	c-0.1,28.5,0,56.9-0.1,85.4c5.1,0,10.2,0,15.4,0c0-28.5,0.1-57-0.1-85.4C489,403.5,483.9,403.5,478.9,403.5 M310.8,493.1
	c0,47.6,0,95.2,0,142.9c1.5,0,3.1,0,4.6,0c0-47.6,0-95.3,0-142.9C313.8,493.1,312.3,493.1,310.8,493.1 M317.8,493.1
	c0,75.5,0,150.9,0,226.4c0.8,0,1.6,0,2.4,0c0-75.5,0-151,0-226.4C319.5,493.1,318.4,493.1,317.8,493.1 M320.9,493.1
	c0,75.5,0,151,0,226.4c16.8,0.1,33.6,0.1,50.4,0c-0.1-75.5,0-151,0-226.4C354.5,493.1,337.7,493.1,320.9,493.1 M373.7,493.1
	c0,75.5,0,151,0,226.4c6.9,0.1,13.8,0,20.7,0c0-75.5,0-151,0-226.5C387.5,493.1,380.6,493.1,373.7,493.1 M396.8,493.1
	c0,75.5,0,151,0,226.4c23.3,0.1,46.5,0,69.8,0c0-75.5,0-151,0-226.5C443.4,493.1,420.1,493,396.8,493.1 M467.4,493
	c0,75.5,0,151,0,226.5c2.4,0,4.8,0,7.2,0.1c1.2-6.8,0.5-13.7,0.7-20.5c-0.1-56.7,0-113.4,0-170.1c-0.1-11.9,0.4-23.8-0.2-35.6
	C472.5,492.9,469.9,493.1,467.4,493 M475.6,492.8c0.3,10.4,0.1,20.8,0.1,31.1c0.1,57,0,114,0,171.1c-0.1,8.2,0.3,16.3-0.3,24.5
	c21,0.1,42,0,63,0c-1.5-2.4-3.7-4.2-5.6-6.2c-16-16-32-32-48.1-48c-2.8-2.8-5.3-6.2-6.3-10.1c-0.5-3.7-0.1-7.4-0.2-11.1
	c0-43,0-86,0-129.1c-0.1-7.2,0.3-14.4-0.2-21.6C477.4,493.2,476.2,492.9,475.6,492.8 M478.7,493c0.4,53.3,0,106.7,0.2,160
	c0.3,4.6,3.2,8.6,6.4,11.8c18,18,36,36,54,54c0.9,1,2.5,0.6,3.7,0.8c6.4,0,12.8,0,19.2,0c-7.2-8-15.2-15.3-22.8-23.1
	c-14.5-14.5-29-29-43.5-43.5c-1.6-1.2-2-3.1-1.9-5c0-51.7,0-103.3,0-155C489,493.1,483.8,493.1,478.7,493 M494.9,493.1
	c0,51.7,0,103.3,0,155c-0.1,1.7,0.3,3.4,1.6,4.4c15.2,15.2,30.4,30.3,45.5,45.5c7.3,7.1,14.2,14.6,21.7,21.4
	c8.5,0.4,17,0.1,25.5,0.1c-0.1-10.8,0-21.6,0-32.4c0-3.4-1.8-6.6-1.7-10c0-21.7,0-43.4,0-65.1c-0.1-3.8,1.9-7.2,1.7-11
	c0-36,0-72,0-108C557.7,493.1,526.3,493.1,494.9,493.1 M15,519.2C15,598.1,15,677,15,756c76.2,0,152.4,0.1,228.6,0
	c-0.1-78.9,0-157.8,0-236.7C167.4,519.2,91.2,519.2,15,519.2 M310.8,636.1c0,27.8,0,55.6,0,83.4c1.5,0,3.1,0,4.6,0.1
	c0-27.8,0-55.6,0-83.5C313.8,636.1,312.3,636.1,310.8,636.1 M373.7,723.6c0,71.4,0,142.9,0,214.3c-0.1,10.9,3.5,22.3,12,29.6
	c7.6,6.8,18.2,9.1,28.2,8.9c42.1,0,84.3,0.1,126.5-0.1c-0.8-6.6,0.4-13.3-1-19.8c-2.1-0.4-4.3-0.8-6.5-0.8c-33.7,0-67.3,0-101,0
	c-8.3,0.3-16.7-0.8-24.9,1c-4.9,0.9-11.1-0.7-13-5.8c-2.4-5.5,0.7-11.3,0.3-17c-0.1-70.1,0-140.2,0-210.3
	C387.5,723.6,380.6,723.6,373.7,723.6 M396.8,723.6c0,71,0,141.9,0,212.9c22.7-22.5,45.2-45.2,67.8-67.8c1-1,2.3-2.2,2-3.8
	c0-47.1,0-94.2,0-141.3C443.4,723.6,420.1,723.6,396.8,723.6 M397.6,936.6c-2,4.7-3.4,11.3,0.2,15.7c4.2,3.9,10.4,1.9,15.4,0.9
	c23.2-23.4,46.6-46.5,69.8-69.9c-8-1.3-14.6-8-16.1-16C443.8,890.3,420.6,913.4,397.6,936.6 M1184.9,867.6
	c-1.7,7.8-8.1,14.3-16,15.8c23.2,23.3,46.6,46.6,69.8,69.9c4.5,0.8,9.4,2.4,13.7,0.1c3.6-2.1,3.9-6.8,3.3-10.4
	c-0.5-2.4-0.5-5.4-2.6-7.1C1230.4,913.1,1207.7,890.2,1184.9,867.6 M481.9,884.9c-22.7,22.8-45.6,45.4-68.2,68.4
	c40.5,0.1,80.9,0,121.4,0.1c1.8,0,3.5,0.6,5,1.7c0.3-6-0.3-12.1,0.5-18.2c1.4-8.6,9.7-15.3,18.4-14.8c7-0.7,14.4,2.7,17.9,9
	c4.2,7.3,2,16,2.4,23.9c1.8-0.8,3.6-1.8,5.7-1.6c107,0,214,0,321,0c55.1,0.1,110.1-0.2,165.2,0.1c0.3-0.2,0.8-0.6,1.1-0.8
	c0.1-7.3-1.4-15.3,2.6-21.9c6.9-12,27.3-11.9,34,0.3c4.2,7.2,2,15.9,2.4,23.9c1.8-0.8,3.6-1.8,5.6-1.6c40.4,0,80.7,0,121.1,0
	c-18.6-18.9-37.4-37.5-56.1-56.2c-4.7-4.4-8.9-9.5-13.9-13.5c-227.3-0.2-454.7,0-682-0.1C484.5,883.4,482.8,883.5,481.9,884.9
	 M541,938.9c-0.4,15,0,30.1-0.1,45.1c0.2,4.5-1.6,8.8-2.4,13.2c14.1-0.2,28.2,0.2,42.3-0.2c-0.6-3.1-1.1-6.2-2.2-9.1
	c-0.1-16,0-31.9,0-47.9c0-6.8-4.4-13.3-10.7-15.8c-3.8-1.7-8-1.5-12.1-1.2C548,923.9,541.4,931,541,938.9 M1082.1,924.9
	c-5.5,2.9-9,8.9-9.1,15.1c-0.3,14.7,0,29.3-0.1,44c0.3,4.5-1.5,8.8-2.2,13.2c14.1,0,28.1,0,42.2,0c-0.6-3.1-1-6.3-2.2-9.2
	c-0.1-16,0-32,0-47.9c0-8.2-6.4-15.8-14.6-16.9C1091.4,922.5,1086.3,922.5,1082.1,924.9 M579.2,957.5c0.2,6.5,0,13,0.1,19.6
	c9.2-1.1,18.4-0.6,27.7-0.7c129.3,0,258.7,0,388,0c25.2,0.1,50.5-0.3,75.7,0.2c0.4-0.2,1.2-0.5,1.6-0.6c-0.5-6.6,0.2-13.2-0.6-19.7
	c-2.2-0.1-4.5-0.5-6.7-0.5c-160,0-320,0-479.9,0C582.9,955.5,581.3,957.4,579.2,957.5 M390.6,1032.1
	C391,1035.2,393.7,1030.5,390.6,1032.1 M393.5,1033l-0.1,0.8C395.3,1035.5,395.5,1031.4,393.5,1033 M396.2,1034
	C396.5,1037.2,399.4,1032.6,396.2,1034 M399.3,1035l0,0.7c0.4,0,1.3,0.1,1.7,0.1l0-0.7C400.6,1035.1,399.8,1035,399.3,1035
	 M403.2,1036.1C403.5,1039.2,406.4,1034.6,403.2,1036.1 M405.6,1036.6l0.9,1.1c12.5,3.5,25.6,4,38.4,4c237.4,0,474.8,0,712.1,0
	c25-0.2,50,0.6,75-0.6c-0.8-0.6-1.6-1.1-2.3-1.7c-5.6,0.8-11.2,0.5-16.7,0.5c-262,0-524,0-786,0
	C419.8,1039.4,412.7,1038.1,405.6,1036.6z"/>
<path d="M393.5,16.4l0.4-0.2l0.3,0.3l-0.3,0.1L393.5,16.4z"/>
<path d="M389,16.9c0.4,0,1.2,0.1,1.7,0.2l0.1,0.5c-0.7,1-1.7,1.4-2.9,1.4l0.1-0.7C388.2,17.9,388.8,17.2,389,16.9z"/>
<path d="M372.9,25.2c1.3-0.1,2.4-0.6,3.4-1.4l-0.4,0.8c-12.5,6.9-24,15.7-33.3,26.5c-0.1-0.5-0.1-1.4-0.2-1.9
	c7.3-8.1,15.7-15,24.8-20.9c0.2,0.1,0.5,0.2,0.7,0.2l-0.2-0.6c0.6-0.1,1.8-0.2,2.5-0.3c0.4-0.3,1.2-0.8,1.6-1.1
	C372.1,26.2,372.6,25.6,372.9,25.2z"/>
<path d="M1089.2,229c4.5-9.3,16.7-14.1,26.4-10.7c5.2,1.2,8.4,5.6,12.4,8.7c4.1,6.7,5.2,15.4,1.5,22.5c-2.2,3.3-4.4,7-7.9,9.1
	c-6.3,4.3-14.9,4.8-21.8,1.7c-4.2-2.7-8.7-5.6-10.8-10.3C1085,243.6,1085,235.1,1089.2,229 M1108.1,219.1
	c-10.8,0.1-20.2,10.2-19.8,20.9c-0.2,5.5,2.6,10.6,6.2,14.5c5.5,5.6,14.4,7.4,21.7,4.6c8.5-3,14.5-12.2,13.5-21.2
	C1128.9,227.3,1118.8,218.3,1108.1,219.1z"/>
<path d="M533.5,219.4c3.1-1.2,6.4-1.8,9.6-1.3c0.9,0.5,1.8,0.7,2.9,0.7c0.6,0.1,1.8,0.4,2.4,0.5c0.1,0.1,0.3,0.2,0.4,0.2
	c0.4,0.2,1.3,0.6,1.8,0.8c4.4,2.4,7.9,6.4,10.8,10.3c0.8,1.8,1.6,3.5,2,5.4c0.6,3.2,0.6,6.5,0.1,9.8c-0.6,1.6-1.4,3.1-2.1,4.6
	c-2.3,3.8-4.9,7.7-9,9.9c-0.4,0.3-1.2,1-1.7,1.3c-0.1,0.1-0.2,0.2-0.3,0.3l-1.3,0c-0.5,0.2-1.4,0.7-1.9,0.9
	c-5.9,0.5-12.3,1-17.5-2.4c-3.5-1.7-6.2-4.5-7.9-7.9c-0.3-0.4-0.9-1.3-1.2-1.8c0,0-0.1-0.1-0.1-0.2l-0.9-1.8c0,0-0.1-0.1-0.1-0.2
	c-2-5.4-1.9-11.9,0.9-17.1c2.4-4.4,5.5-8.7,10.3-10.7c0.7-0.3,2-0.9,2.7-1.2C533.3,219.4,533.4,219.4,533.5,219.4 M536.5,220.6
	c-10.4,2.1-17.9,13.2-16,23.6c1.3,6.6,5.7,12.6,11.8,15.4c7.6,3.6,17.3,2,23.2-4c3.6-3.9,6.4-9,6.3-14.5c0.3-5.8-2.6-11.2-6.5-15.3
	C550.4,221,543.1,219.1,536.5,220.6z"/>
<path d="M1105.2,224c2.5,0,5.1,0,7.7,0c0,4,0,8,0,12c4,0,8,0,12,0c0,2.5,0,5,0,7.6c-4,0-8,0-12,0c-0.1,4,0,8,0,12
	c-2.5,0-5.1,0-7.6,0c0-4,0-8,0-12c-4,0-8,0-12,0c0-2.5,0-5-0.1-7.6c4-0.1,8,0,12,0C1105.2,232,1105.2,228,1105.2,224 M1107,225.8
	c0,0.8,0,2.4,0,3.3c1.3,0,2.7,0,4.1,0c0-0.8,0-2.5,0-3.3C1109.7,225.7,1108.3,225.7,1107,225.8 M1107,230c0,2.6,0,5.2,0,7.8
	c-2.7,0-5.4,0-8,0c0,1.3,0,2.7,0,4c2.7,0,5.4,0,8.1,0c0,2.8,0,5.5,0,8.3c1.3,0,2.7,0,4.1,0c0-2.8,0-5.5,0-8.2c2.7,0,5.3,0,8,0
	c0-1,0.1-3,0.1-4.1c-2.7,0-5.4,0-8.1,0c-0.1-2.6-0.1-5.2,0-7.8C1109.7,230,1108.3,230,1107,230 M1094.9,237.7c0,1.4,0.1,2.7,0.1,4.1
	c0.7,0,2.2-0.1,3-0.1c0-1.3,0-2.7,0-4C1097,237.8,1096,237.7,1094.9,237.7 M1120,237.7c0,1-0.1,3-0.1,4.1c0.8,0,2.3,0,3.1,0
	c0-1,0-3,0-4C1122.3,237.7,1120.8,237.7,1120,237.7 M1107,250.9c0,0.7,0.1,2.2,0.1,2.9c1.3,0,2.6,0,3.9-0.1c0-0.7,0.1-2.1,0.1-2.9
	C1109.7,250.9,1108.3,250.9,1107,250.9z"/>
<path d="M537.2,225c2.5,0,5.1,0,7.6,0c0,4,0,8,0,12c4,0,8,0,12,0c0,2.5,0,5,0,7.5c-4,0-8,0-12,0c-0.1,4,0,8,0,12c-2.5,0-5.1,0-7.6,0
	c0-4,0-8,0-12c-4,0-8,0-11.9,0c0-2.5,0-5,0-7.6c4,0,8,0,12,0C537.2,233,537.2,229,537.2,225 M539,226.7c0,0.8,0,2.5,0,3.3
	c1.4,0,2.8,0,4.1,0c0-0.8-0.2-2.4-0.2-3.2C541.6,226.7,540.3,226.7,539,226.7 M539,231c0,2.6,0,5.2,0,7.8c-2.7,0-5.4,0-8,0
	c0,1.3,0,2.7,0,4c2.7,0,5.4,0,8.1,0c0,2.8,0,5.5,0,8.3c1.3,0,2.7,0,4,0c0-2.8,0-5.5,0-8.2c2.7,0,5.4,0,8.1,0c0-1,0-3,0-4.1
	c-2.7,0-5.4,0-8,0c0-2.6,0-5.2,0-7.8C541.7,231,540.3,231,539,231 M527,238.7c0,1.3,0,2.7,0.1,4.1c0.7,0,2.2,0,3,0c0-1.3,0-2.7,0-4
	C529,238.7,528,238.7,527,238.7 M552,238.7c0,1,0,3.1,0,4.1c0.8,0,2.3,0,3.1,0c0-1,0-3,0-4C554.3,238.7,552.7,238.7,552,238.7
	 M539,251.9c0,0.7,0,2.2,0.1,2.9c1.3,0,2.6,0,4,0c0-0.7,0.1-2.2,0.1-2.9C541.7,251.9,540.3,251.9,539,251.9z"/>
<path d="M120.2,374.3c9-1.6,18.6-0.6,26.8,3.8c10.3,5,18,14.8,20.9,25.9c3.3,12.1,0.6,25.8-7.3,35.6c-7.9,10.5-21.4,16.6-34.5,15.7
	c-16.3-0.6-31.4-12.1-36.5-27.6c-4.6-13.1-1.9-28.5,7.1-39.1C102.4,381.1,111.1,376.3,120.2,374.3 M118.3,376.4
	c-8.2,2.2-15.9,7.1-21,13.9c-7.6,9.5-10.1,22.7-6.9,34.5c2.8,10.6,10.3,20,20.2,24.8c16.2,8.6,38,3.7,48.8-11.1
	c9.3-11.6,10.8-28.6,4-41.8c-3.6-6.8-8.9-12.9-15.8-16.4C138.9,375,128.1,374,118.3,376.4z"/>
<path d="M844.6,520.5c0.8,0.1,2.5,0.4,3.4,0.5c67.6,0.1,135.2-0.1,202.8,0.2c-0.4,0.2-1.3,0.6-1.7,0.8c-19.4,0.1-38.7-0.1-58.1,0.1
	c0,54.6,0,109.3,0,163.9c-48.5,0-97,0-145.5,0c0.6,21-0.1,42,0.4,63l-0.5-0.1c0.1-17.3,0-34.6,0-51.9c0.2-7.7-1-15.3-0.3-23
	c0.1-49.7,0-99.4,0-149C845,523.5,844.8,522,844.6,520.5 M846,522c0,8,0.1,16,0,24c8.7,0,17.4,0,26.1,0c1.5,0.1,3.3-0.4,4.5,0.8
	c-10.2,0.2-20.4,0.1-30.7,0.1c0,2,0.1,4.1,0.4,6.2l-0.5,0.7c0.1,1.4,0.1,2.9,0,4.4l0.4,0.7c-0.6,16.4-0.1,32.8-0.2,49.2
	c0.8-0.1,2.4-0.1,3.2-0.2c0.6-5.7,1.4-11.8,5.2-16.4c5-6.2,12.1-10.2,18.1-15.2c5.8-4,12.2-9.8,11-17.6c-2.1,0.1-4.2,0.1-6.3,0.3
	l0-0.4c4.9,0,9.9-0.5,14.9-0.4c13,0.6,26.1,0,39.2,0c0.1,2.3,0.2,4.7,0,7c-1.1,3.7-3.3,6.9-5.9,9.7l2.2-0.2c0,4.3,0,8.5,0,12.8
	c2.3,0,4.6,0,6.8,0.1c0,1.1,0,2.2,0.1,3.3c-0.5,0.1-1.6,0.3-2.2,0.5c1,5.5,2.4,11,3,16.6c14.9,0,29.8,0,44.7,0
	c0-16.4,0.2-32.9-0.1-49.3l0.8-0.2c3-0.8,6.1-0.5,9.2-0.5c0.1-1.4,0.2-2.8,0.3-4.2l-0.5-0.6c0.2-2,0.3-4.1,0.3-6.2
	c-12.4-0.2-24.8,0.2-37.1-0.2c0.2-0.2,0.7-0.5,1-0.7c12,0,24.1,0,36.1,0c0-8-0.1-16,0-24c-12.6,0-25.1-0.1-37.7,0.1
	c0.1,10.2-0.1,20.5,0.1,30.8c0,1.4-0.1,2.7-0.3,4.1c-25,0.1-50.1,0-75.2,0c-0.1-1.4-0.2-2.8-0.2-4.3c0.1-10.2-0.1-20.4,0.1-30.6
	C866.5,521.8,856.2,522.1,846,522 M877.9,522c0,11.3,0,22.7,0,34c1.4,0,2.7,0,4.1,0c0-11.4,0.2-22.7,0-34
	C880.7,522,879.3,522,877.9,522 M882.9,522l0.1,1.2c0,0.4,0,1.3,0.1,1.8l-0.1,1.2c3.8,0,7.7,0.3,11.5-0.2c0,0.2,0.1,0.5,0.1,0.7
	c-3.8,0-7.7,0-11.5-0.1c0,2.5,0,4.9,0,7.4c3.9,0,7.7,0.1,11.6-0.2l0.4,0.9c-0.1,0.1-0.2,0.2-0.2,0.3c-3.9-0.1-7.8,0-11.7,0l0,1.1
	c3.7-0.2,7.4,0.3,11-0.3l0.8,0.3c0,0.3-0.1,0.8-0.2,1c-3.9-0.2-7.8-0.1-11.7-0.1c0,2,0,4.1,0,6.2c0,0.4,0,1.3,0,1.8
	c0,3.7,0,7.4,0,11.1c5.5,0,10.9,0,16.4,0c0.1-10.7-0.2-21.4,0.1-32c4.5-0.3,8.9-0.2,13.4-0.1c0,6.7,0,13.4,0,20.2
	c-4.3,0.2-8.6,0.1-12.9,0.1c0,3.9,0,7.9,0,11.8c5.5,0,11.1,0,16.6,0c0-3.9,0.1-7.8-0.2-11.7c0.3,0,0.8,0.1,1.1,0.2
	c-0.3,3.8-0.2,7.7-0.2,11.5c5.5,0,11,0,16.6,0c0-10.7,0-21.4,0-32.1c4.3-0.1,8.6-0.1,12.9,0c0,6.8,0.1,13.5,0,20.3
	c-4,0.1-8,0-12,0.1c0,3.9,0,7.9,0,11.8c5.4,0,10.7,0,16.1,0c0-11.3,0-22.7,0-34C928.4,522,905.6,522,882.9,522 M900.2,524.4
	l-0.6,1.9c4.2,0.1,8.3,0.1,12.5,0l0-2C908,524.3,904.1,524.1,900.2,524.4 M935,524.2l-0.1,2c3.7,0,7.4,0,11.1,0l-0.1-2
	C942.3,524.2,938.7,524.2,935,524.2 M899.8,526.7c0,2.4,0,4.8,0,7.3c4.1,0.1,8.2,0.1,12.2,0c0-2.5,0-4.9,0-7.3
	C907.9,526.7,903.8,526.7,899.8,526.7 M935,526.7c0,2.5,0,4.9,0,7.4c3.7,0,7.4,0,11,0c0-2.5,0-5,0-7.4
	C942.3,526.7,938.7,526.7,935,526.7 M900,535.2c0.2,0.2,0.6,0.6,0.8,0.8c3.7,0.1,7.5,0,11.2,0v-1.1C908,535.1,903.9,534.6,900,535.2
	 M935,534.9l0,1.1c3.7,0,7.3,0,11,0l0-1.1C942.4,535,938.7,535,935,534.9 M899.8,537c0,2.2-0.1,4.5-0.1,6.7c4.1,0,8.2,0,12.3,0
	c0-2.3,0-4.5,0-6.8C907.9,537,903.8,537,899.8,537 M935,537c0,2.3,0,4.5,0,6.8c3.7,0,7.4,0,11.1,0c0-2.3,0-4.5,0-6.8
	C942.4,537,938.7,537,935,537 M896.3,558.7c0.8,5.4-0.4,10.9-2.9,15.7l1.6,1.7l-2.6-0.5c-1.3,1.7-4.3,3.4-2.3,5.9l-1.9-1.6
	c-0.9,1.2-1.7,2.5-2.4,3.9c-1.3-0.6-2.2-0.1-2.7,1.4c-3.5,1.6-6.2,4.4-9.3,6.6c-3.3,2.7-7.2,4.8-9.5,8.5c-1.6,2.3-1.6,5.1-1.9,7.8
	c1.5,0,3,0,4.5,0c2.7-2.4,5.7-4.5,8.8-6.2c1-5.5,4-10.2,7.1-14.8c1.3-0.4,2.5-1.1,2.5-2.6c2,0.6,3.2-1.5,4.7-2.6
	c1.6-0.8,3.3-1.7,3.7-3.7l1.4,1.3c0.7-1.7,0.6-3.6-0.3-5.2c1.5,0.7,2,2,1.6,3.7c6.1-4.1,12.7-7.4,18.6-11.9c2.3-1.7,3.5-4.4,3.6-7.2
	C911.2,558.7,903.7,558.8,896.3,558.7 M980.9,559c0,16.5,0.1,33.1,0,49.6l-1,0.6c-13.6-0.8-27.3,0.5-40.9-0.2
	c-13.4-0.3-26.7,0.5-40,1.4c-1.6,0.4-3.1-0.2-4.2-1.4c-2.5-0.2-4.8,0.5-7,1.5c1.1,1.6,3,2.1,4.6,3c6.5,3.2,11.1,9.2,14.2,15.6
	c4.7,10.2,3.1,22.8-3.8,31.6c-4.4,6.8-11.8,10.9-19.5,12.8c-4.5,0.2-8.9,0.7-13.4-0.1c-10.7-2.2-19.8-10.3-23.6-20.5
	c-0.7,7.1-0.5,14.3-0.2,21.4l-0.7,0.6c0.2,3.4,0,6.8,0,10.1c39.5,0,79,0,118.5,0c8.5-0.2,17.2,0.5,25.7-0.4
	c-3.6-2.8-6.6-6.3-9.8-9.5l1,0c3.1,3,6,6.1,9.2,9c0.1-41.7,0-83.4,0-125.2C987,559,983.9,559,980.9,559 M886,560.3
	c-0.6,4.2-2,8.5-5.2,11.6c-7,7-15.9,11.9-23.1,18.8c-4.6,4.5-6.1,11-6.4,17.2c2.9,0,5.9,0,8.8,0c0.3-3,0.4-6.2,2.1-8.7
	c2.6-4.3,7.2-6.9,11-10c5.5-4.4,11.6-8.3,16.2-13.7c3.6-4.1,5.4-9.8,4.6-15.3C891.4,560.3,888.7,560.3,886,560.3 M916.8,580.9
	c0,3.4,0.1,6.8,0.2,10.2c2.3-0.2,4.6-0.4,6.9-0.5c0.4-4.8,0.2-9.7,0-14.6C921.6,577.8,919.2,579.4,916.8,580.9 M924.8,575.7
	c-0.3,4.8,0.2,9.7-0.1,14.5c2.9-0.1,5.7,0,8.6,0.1l0.6-1.6c-2.4-0.1-4.8-0.1-7.2-0.2c0-4.4,0.1-8.8,0-13.2L924.8,575.7 M914.2,587.1
	c-1.1-1.1-1.8-2.4-2.1-3.9c-0.5,0.4-1.5,1.2-2,1.6c1.7,2.2,2.6,5.9,6,5.8c0-3.2,0-6.3-0.1-9.5C913.3,582.2,913.3,584.7,914.2,587.1
	 M906.6,586.8c0.1,1.3,0.1,2.7,0.2,4c-1.2,0-2.5,0.1-3.7,0.2c0-0.6-0.1-1.7-0.2-2.3c-2.5,1.6-5.1,3.2-7.2,5.4c5.5-3,12-2,18-2.6
	c-1.6-2.1-3-4.3-4.5-6.5C908.6,585.4,907.3,586.3,906.6,586.8 M904.1,590.1c1.6,1.2,2.9-1.6,1.8-2.7
	C904.4,586.5,902.9,589,904.1,590.1 M899.9,595.1c-0.7,4.2-1.2,8.4-1.7,12.6c11.3-0.6,22.7-1.3,34-2c-0.5-4.3-1.5-8.6-2.3-12.8
	C919.9,593.4,909.9,594.4,899.9,595.1 M879.2,602.4c2.8,2,5.4,4.3,8.5,5.9c2.6-1.1,5.3-2,8-3c0.4-3.1,0.8-6.2,1.2-9.3
	C890.9,597.6,885,599.8,879.2,602.4 M870.2,607.9c4,0.2,8,0.2,12-0.1c-1.8-1.3-3.7-2.6-5.5-4C874.4,604.9,872.2,606.3,870.2,607.9
	 M846,609c-0.1,7.2-0.1,14.5,0,21.7c1.5-3.1,3.1-6.2,5.4-8.9c-0.9-4.2-1.8-8.5-2.2-12.9C848.4,609,846.8,609,846,609 M851.4,609
	c0.9,12.6,6.2,24.4,12.8,35c1.7,0.2,3.4,0.3,5.1,0.3c-3.7-6.9-7.1-14.3-7.3-22.3c0.1-4.4-1.7-8.6-1.8-13
	C857.3,609,854.4,609,851.4,609 M862.3,609.1c0.1,1.3,0.3,2.5,0.4,3.8c1.2-1.2,2.3-2.5,3.3-3.9C864.8,609,863.6,609,862.3,609.1
	 M864.6,627c2.7-1.6,5.4-3.3,8-5c0-7,6.9-10,12.2-12.9c-5.3-0.3-10.7-0.1-16-0.2C864.4,613.8,863.3,620.7,864.6,627 M874.9,621.5
	c0.2,8,4.8,14.9,9,21.4c-2.7-6.8-5.7-13.6-7.3-20.8C876.2,622,875.3,621.7,874.9,621.5 M865.4,629.9c2.2,7.4,5.9,14.3,10.8,20.3
	c1-3.2,3.2-6.3,3.5-9.7c-2.8-4.9-5.6-9.8-6.6-15.4C870.4,626.6,867.9,628.2,865.4,629.9 M892.1,628.8c1.4,5.3,6.9,10.3,3.6,16
	c-1.5,3.4-5.7,2.6-8.4,1.4c0.5,3,0.2,6.8-2.4,8.8c-2.2,1.2-5,1.4-7.3,0.4c-2.7-2.8-4.8-6-6.9-9.2c-2.5,0.3-5.1,0.5-7.5-0.4
	c-2.5-2.9-4.1-6.5-5.8-9.9c-2.9,8.6,1,18.5,8.5,23.3c5.3,3.5,12.3,4,18.2,2c6-2.1,10.4-7.3,12.5-13.1
	C898.4,641.4,897.1,633.7,892.1,628.8 M878.4,653.4c2.3,1,6.2,0.6,6.6-2.5c1.4-3.1-1.9-5.2-3.3-7.6
	C880.9,646.7,878.4,649.8,878.4,653.4z"/>
<path d="M917.1,524.1c4.2-0.7,8.5-0.2,12.8-0.2c0,6.7,0.1,13.3,0.1,20l-0.9,0.5l0-1.3c0-2,0-4.1-0.1-6.1c-3.7,0-7.5,0.1-11.2-0.1
	l-1.3-0.1c0.2-0.2,0.6-0.6,0.8-0.8c3.9,0,7.8,0.1,11.7,0.1l0-1c-3.6,0-7.1-0.2-10.6,0l-1.7,0.1c0.3-0.3,0.9-0.8,1.2-1.1
	c3.7,0,7.4,0.1,11.1,0.1c0-2.5,0-4.9,0-7.4c-3.8,0-7.6,0.1-11.3,0.1C917.5,525.9,917.3,525,917.1,524.1 M917.8,524.9
	c0.2,0.4,0.6,1.2,0.8,1.5c3.5-0.1,7-0.2,10.4-0.2l0-2C925.3,524.6,921.3,523.5,917.8,524.9z"/>
<path d="M71.4,535.1c1.9-0.1,3.7-0.1,5.5-0.1c0.1,12.2-0.2,24.4,0.1,36.7c6.8-0.1,13.5,0,20.2,0c0,1.6,0,3.2,0,4.9
	c-8.6,0-17.2,0-25.8,0C71.3,562.7,71.5,548.9,71.4,535.1z"/>
<path d="M104,535c10,0,20,0,29.9,0c0,1.6,0,3.2,0,4.9c-8.1,0-16.3,0-24.4,0c0,4.2,0,8.5,0,12.7c7.6,0.1,15.2,0,22.9,0
	c0,1.6,0,3.2,0,4.9c-7.6,0-15.2,0-22.9,0c0,4.7,0,9.4,0,14.1c8.5,0.1,17,0,25.4,0c0,1.6,0,3.2,0,4.9c-10.3,0-20.6,0-30.9,0
	C104,562.6,104,548.8,104,535z"/>
<path d="M142.5,535c7.2,0.1,14.4-0.4,21.5,0.7c6.1,1,10.6,6.5,11.9,12.3c1.7,7,1.3,15-2.6,21.3c-2.4,4-6.8,6.4-11.3,6.8
	c-6.4,0.6-12.9,0.2-19.4,0.3C142.5,562.6,142.5,548.8,142.5,535 M148,539.8c0,10.6,0,21.1,0,31.7c5,0,10.1,0.3,15.1-0.7
	c4.3-1.1,6.8-5.5,7.5-9.7c1-5.9,1-12.8-3-17.7C162.5,538.1,154.5,540.3,148,539.8z"/>
<path d="M941.1,574.7c1.2,0,2.5,0,3.7,0c-0.3,4.3-0.2,8.7-0.1,13c2.3,0,4.6,0,6.9,0c0,1.2,0,2.3,0,3.5c-3.5,0-7,0-10.4,0
	C941.1,585.6,941.1,580.2,941.1,574.7 M942,575.7c-0.4,4.9,0,9.8-0.2,14.7c2.8,0,5.6,0.1,8.4-0.1c0.3-0.4,0.8-1.2,1.1-1.7
	c-2.5-0.2-4.9-0.3-7.4-0.2c-0.2-4.4,0-8.8-0.2-13.2L942,575.7z"/>
<path d="M937.4,611.6c5.6-2.3,11.8-2.1,17.7-1.5c10.8,1.6,19.7,9.8,24.2,19.5c0.4,1.2,0.9,2.5,1.3,3.7c0.1,5.5,0.1,10.9,0,16.3
	c-0.4,1.2-0.8,2.5-1.2,3.7c-4.2,9.7-12.8,17.8-23.4,19.9c-4.6,1-9.4,1-13.9,0c-14.3-2.9-25.7-16.6-25.4-31.3
	C916.5,629,925,616,937.4,611.6 M945.6,617.8c-11.1,1.2-20.2,11.3-20.8,22.3c-1.3,13.5,10.7,26.4,24.2,26
	c13.2,0.5,25.1-11.8,24.4-24.9c0.1-6.2-3-11.9-7-16.4C961.1,619.2,953.1,616.7,945.6,617.8z"/>
<path d="M943,619.2c7.9-2,16.9,0.2,22.6,6.1c3.8,4.3,6.9,9.8,6.8,15.7c0.8,12.7-10.7,24.5-23.4,24.1c-12.3,0.3-23.5-10.9-23.3-23.1
	C925.3,631.7,933,621.7,943,619.2 M944.5,626.7c-5.8,1.5-9.9,6.7-11.1,12.4c-1.7,8.7,5.5,18,14.5,18.3c7,0.7,13.8-3.8,16.1-10.3
	c2.5-5.8,0.2-12.7-4.1-16.9C955.8,626.4,949.7,625.3,944.5,626.7z"/>
<path d="M117.6,627.9c9.3-1.2,19,0.4,27,5.5c11.8,6.8,19.3,20.1,19.6,33.6c0.3,9.3-2.7,18.8-8.5,26.1c-6.7,8.9-17.5,14.8-28.6,15.6
	c-13.1,1.4-26.8-4.2-35-14.6c-7.4-8.8-10.6-20.9-8.8-32.2C85.7,644.6,100.3,630.1,117.6,627.9 M120,629.1c-7.5,0.5-14.7,3.6-20.7,8
	c-9.3,7.3-15.2,19-15.2,30.9c-0.2,12.1,5.8,24,15.3,31.4c6.3,4.5,13.7,7.7,21.5,7.9c12.6,0.9,25.6-4.9,33.3-15
	c7.5-9.3,10.1-22.2,7.2-33.8c-2.5-10-9.1-19.1-18.1-24.2C136.5,630.1,128.1,628.4,120,629.1z"/>
<path d="M946.9,627.2c6.3-0.9,13,2.5,15.6,8.4c3.8,6.9,0.1,15.9-6.6,19.4c-6.9,3.5-16.3,0.9-19.8-6.1
	C930.6,640.4,937.1,628.1,946.9,627.2z"/>
<path d="M806.6,653.8c7.2-1,13.2,8,9.1,14.1c-3,6.2-12.8,6.6-16.4,0.7C795,663,799.5,654,806.6,653.8 M804.1,655.1
	c-5.6,1.9-7.7,9.8-3.4,14.1c4,5,12.9,3.3,14.9-2.7C818.7,659.8,810.8,652.1,804.1,655.1z"/>
<path d="M537.5,785.6c4.2-1.4,8.6-0.1,12.7,1.2c4.5,1.4,7.1,5.7,10.8,8.3c4.1,6.6,5.2,15.4,1.5,22.4c-2.3,3.5-4.6,7.3-8.4,9.5
	c-7.3,4.7-17.2,4.3-24.4-0.3c-4.2-1.9-6.3-6.1-8.4-9.9c-3-4.2-2.1-9.8-1.6-14.6c1.3-3,3-5.9,4.9-8.6
	C527.4,789,532.7,787.1,537.5,785.6 M541,787.1c-10.8,0.2-20,10.2-19.7,20.8c-0.2,5.5,2.6,10.6,6.3,14.6c5.5,5.5,14.3,7.3,21.7,4.6
	c8.5-3,14.5-12.2,13.6-21.2C561.9,795.3,551.8,786.2,541,787.1z"/>
<path d="M1104.6,786.7c4.2-1.4,8.6-0.3,12.6,1.1c4.5,1.4,7,5.6,10.7,8.2c2.9,4.8,4.6,10.6,3.6,16.2c-0.6,5.3-4.1,9.8-7.6,13.6
	c-8.7,8-23.1,6.8-31.3-1.2c-3.2-4.7-7.2-9.6-6.5-15.6c-0.8-5.8,2.7-10.6,5.7-15C1094.8,789.9,1099.8,787.9,1104.6,786.7 M1108,788.1
	c-11.1,0.1-20.6,10.8-19.8,21.8c0.1,5.1,2.8,9.8,6.2,13.5c5.2,5.3,13.5,7.2,20.6,5.1c9.1-2.6,15.7-12.2,14.7-21.6
	C1128.9,796.3,1118.8,787.2,1108,788.1z"/>
<path d="M538.2,792c2.5,0,5.1,0,7.6,0c0,4,0,8,0,12c4,0,8,0,12,0c0,2.5,0,5,0,7.6c-4,0-8,0-12,0c-0.1,4,0,8,0,12c-2.5,0-5.1,0-7.6,0
	c0-4,0-8,0-12c-4,0-8,0-12,0c0-2.5,0-5,0-7.5c4,0,8,0,12,0C538.2,800,538.2,796,538.2,792 M540,793.7c0,0.8,0,2.5,0,3.3
	c1.3,0,2.7,0,4,0c0-0.8,0-2.5,0-3.3C542.7,793.7,541.3,793.7,540,793.7 M540,798c0,2.6,0,5.2,0,7.8c-2.7,0-5.4,0-8,0
	c0,1.3,0,2.7,0,4c2.7,0,5.4,0,8.1,0c0,2.8,0,5.6,0,8.3c1.3,0,2.7,0,4,0c0-2.8,0-5.5,0-8.3c2.7,0,5.3,0,8,0c0-1,0-3,0-4.1
	c-2.7,0-5.4,0-8,0c0-2.6,0-5.2,0-7.8C542.7,798,541.3,798,540,798 M527.9,805.8c0,1.3,0.1,2.7,0.1,4c0.7,0,2.2,0,3,0
	c0-1.4,0-2.7,0-4C530,805.7,529,805.7,527.9,805.8 M553,805.7c0,1,0,3.1,0,4.1c0.8,0,2.3,0,3.1,0c0-1,0-3,0-4
	C555.3,805.7,553.7,805.7,553,805.7 M540,819c0,0.7,0.1,2.1,0.1,2.8c1.3,0,2.6,0,4,0c0-0.7,0-2.1,0-2.8C542.7,819,541.3,819,540,819
	z"/>
<path d="M1105.2,793c2.5,0,5.1,0,7.7,0c0,4,0,8,0,12c4,0,8,0,12,0c0,2.5,0,5,0,7.5c-4,0-8,0-11.9,0c-0.1,4,0,8,0,12
	c-2.6,0-5.1,0-7.6,0c0-4,0-8,0-12c-4,0-8,0-12,0c0-2.5,0-5,0-7.6c4,0,8,0,12,0C1105.2,801,1105.2,797,1105.2,793 M1107,794.7
	c0,0.8,0,2.4,0,3.3c1.3,0,2.7,0,4.1,0c0-0.8,0-2.5,0-3.3C1109.7,794.7,1108.3,794.7,1107,794.7 M1107,799c0,2.6,0,5.2,0,7.8
	c-2.7,0-5.4,0-8.1,0c0,1.3,0,2.7,0.1,4c2.7,0,5.3,0,8,0c0,2.7,0,5.5,0,8.3c1.3,0,2.7,0,4.1,0c0-2.8,0-5.5,0-8.2c2.7,0,5.3,0,8,0
	c0-1,0-3,0-4.1c-2.7,0-5.4,0-8,0c0-2.6,0-5.2,0-7.7C1109.7,799,1108.3,799,1107,799 M1095,806.7c0,1.4,0,2.7,0.1,4.1
	c0.8,0,2.3,0,3,0c0-1.4-0.1-2.7-0.1-4C1097,806.7,1096,806.7,1095,806.7 M1119.9,806.7c0,1,0,3,0,4.1c0.8,0,2.3,0,3.1,0
	c0-1,0-3,0-4.1C1122.3,806.7,1120.7,806.7,1119.9,806.7 M1107,819.9c0,0.7,0.1,2.2,0.1,2.9c1.3,0,2.6,0,4,0c0-0.7,0-2.2,0.1-2.9
	C1109.7,819.9,1108.3,819.9,1107,819.9z"/>
<path class="st21" d="M383.3,19.2C384,19.8,384,19.8,383.3,19.2z"/>
<path class="st22" d="M381.4,20.2C382.1,20.8,382.1,20.8,381.4,20.2z"/>
<path class="st23" d="M379.2,21.2C379.8,21.9,379.8,21.9,379.2,21.2z"/>
<path class="st24" d="M377.4,22.2C378.1,22.8,378.1,22.8,377.4,22.2z"/>
<path class="st25" d="M910.1,33c0.7,0,2.1,0.1,2.8,0.1c0.2,12,0,24,0.1,36c-0.8,0-2.2,0-3,0C910,57,909.9,45,910.1,33z"/>
<path class="st25" d="M910.1,73c0.7,0,2.1,0,2.8,0c0.1,6.4,0.2,12.7,0.1,19.1c-0.7,0-2.2,0-3,0C909.9,85.7,909.9,79.4,910.1,73z"/>
<path class="st25" d="M910.1,95.3c0.7,0,2.2,0,2.9,0c0,20.2,0.1,40.4-0.1,60.6c-0.7,0-2.1-0.1-2.8-0.1
	C909.9,135.7,910,115.5,910.1,95.3z"/>
<path class="st25" d="M231,601.1c4-0.2,8-0.2,12,0c0,0.7-0.1,2.2-0.1,2.9c-3.9,0.1-7.9,0.1-11.9,0C231.1,603.3,231,601.8,231,601.1z
	"/>
<path class="st26" d="M1311.6,46.9c5.3,4.3,9,10.2,13.1,15.5c13.7,19.7,21,43.6,22.3,67.5c0,258.7,0,517.4,0,776.1
	c1.3,30.5-7.7,61.5-26.4,85.7l-1.3-1.2c13.2-16.8,21.2-37.3,24.4-58.4c1.6-10.3,1.2-20.8,1.2-31.2c0-250.7,0-501.3,0-752
	c-0.1-7.2,0.1-14.4-0.1-21.6c-0.7-14.9-4.4-29.6-10.2-43.3c-5.3-13.2-13.7-24.8-23-35.5L1311.6,46.9z"/>
<path class="st27" d="M1339.9,113.5c1.4,6.4,1.8,12.9,2.1,19.5c0,258,0,516,0,774c0.2,10.5-0.2,21.2-2.7,31.5
	c-0.1-0.5-0.3-1.4-0.4-1.8c0.8-7.2,1.8-14.4,1.9-21.7c0-258.3,0-516.6,0-774.9c0.3-8.2-0.6-16.3-1.3-24.5
	C1339.6,115,1339.8,114,1339.9,113.5z"/>
<path class="st28" d="M543.1,218.1c1.5-1.3,2.4-1,2.9,0.7C544.9,218.8,544,218.6,543.1,218.1z"/>
<path class="st28" d="M563.4,236l0.6,0c0,3.4,0,6.7,0,10.1l-0.6-0.3C563.9,242.5,564,239.2,563.4,236z"/>
<path class="st28" d="M120,629.1c8.1-0.7,16.5,1,23.5,5.3c9,5.1,15.6,14.2,18.1,24.2c2.9,11.5,0.3,24.5-7.2,33.8
	c-7.7,10.1-20.6,15.9-33.3,15c-7.8-0.3-15.3-3.4-21.5-7.9C90,692,84,680.1,84.2,668c0-11.9,5.8-23.5,15.2-30.9
	C105.4,632.7,112.5,629.6,120,629.1z"/>
<path class="st28" d="M804.1,655.1c6.7-3,14.6,4.7,11.5,11.4c-2,6-10.9,7.8-14.9,2.7C796.5,664.9,798.5,657,804.1,655.1z"/>
<path class="st29" d="M533.3,219.5c0.1,0,0.2-0.1,0.2-0.1C533.4,219.4,533.3,219.4,533.3,219.5z"/>
<path class="st29" d="M548.4,219.3c0.1,0.1,0.3,0.2,0.4,0.2C548.7,219.4,548.5,219.3,548.4,219.3z"/>
<path class="st30" d="M519.3,248.5c0,0.1,0.1,0.1,0.1,0.2C519.4,248.6,519.4,248.5,519.3,248.5z"/>
<path class="st31" d="M520.4,250.4c0,0,0.1,0.1,0.1,0.2C520.4,250.6,520.4,250.5,520.4,250.4z"/>
<path class="st32" d="M550.4,261.8c0.1-0.1,0.2-0.2,0.3-0.3C550.6,261.6,550.5,261.8,550.4,261.8z"/>
<path class="st33" d="M547.1,262.8c0.5-0.2,1.4-0.7,1.9-0.9l-0.1,0.9l-1,0.5L547.1,262.8z"/>
<g>
	<path d="M96,279.9c6-3.1,13.8-3.1,19.6,0.5c3.5,1.9,4.8,5.9,5.4,9.6c-1.7,0.2-3.4,0.3-5.2,0.5c-0.7-3.1-2.4-6.5-5.8-7.3
		c-3.8-0.9-8.2-1-11.6,1.1c-3,1.9-3.4,6.8-0.2,8.6c6.5,3.4,14.6,2.7,20.4,7.5c5,4.2,4.3,12.7-0.7,16.6c-5.5,4.4-13.3,4.3-19.7,2.3
		c-5.4-1.7-9-7.1-9.1-12.7c1.7-0.1,3.4-0.3,5-0.4c0.6,3.4,2.3,6.8,5.7,8.2c4.4,1.7,9.8,2,14-0.5c3.4-1.8,4.2-7.3,0.8-9.6
		c-6.4-4-14.9-3-20.8-8C88.6,292,90.1,282.9,96,279.9z"/>
	<path d="M162,282.3c1.7-1,3.4-2,5-3c0,3.5,0,7,0,10.5c1.7,0,3.4,0,5.1,0c0,1,0,3,0,4c-1.7,0-3.4,0-5-0.1c-0.1,6.5-0.2,13,0,19.4
		c-0.1,2.7,3.1,2.3,5,2.3c0.3,1.5,0.5,3,0.8,4.5c-3.7,0.5-9.5,0.9-10.5-3.8c-0.9-7.4-0.1-14.9-0.5-22.4c-0.9,0-2.8,0.1-3.7,0.1
		c0-1,0-3,0-4c0.9,0,2.8,0,3.7,0C161.9,287.3,161.9,284.8,162,282.3z"/>
	<path d="M131.7,292.7c4-3.8,10.2-4.1,15.1-2.4c5.9,2.6,8.5,9.7,8,15.8c-7.5,0-15,0-22.5,0c0.1,4.8,3.4,10.3,8.7,10.2
		c4,0.5,7.1-2.7,8.5-6.1c1.8,0.2,3.5,0.4,5.3,0.7c-1.3,4.1-4.4,7.9-8.7,9c-5,1.2-11,0.7-14.8-3.2C125.3,310.1,125.6,299,131.7,292.7
		 M136,295c-2.1,1.6-2.9,4.3-3.6,6.7c5.8,0.2,11.5,0.2,17.3,0c-0.6-2-1-4.2-2.4-5.9C144.4,292.9,139.2,292.6,136,295z"/>
	<path d="M117.6,334.7c15.5-2.1,31.6,0.2,45.7,7.2c14.7,7,26.8,18.8,35,32.8c10.7,19,13.2,42.4,6.4,63.2c-4.2,14-12.9,26.4-23.8,36
		c-15,13.1-35,20.2-54.8,19.4c-16.8-0.3-33.3-6.4-46.5-16.8c-14.6-11.5-25.2-28-28.9-46.3c-4.4-20.4-0.3-42.6,11.3-60.1
		C74.3,351,95,337.6,117.6,334.7 M114.5,338.6c-18,3.3-34.6,13.4-45.8,27.9c-10.4,12.7-15.9,29.1-16.4,45.5
		c-0.3,17.8,5.6,35.8,17,49.5c11.9,15,29.8,25.2,48.8,27.6c17.3,2.7,35.5-1.4,50.5-10.5c15.5-9.6,27.6-24.8,32.9-42.3
		c4.5-14,4.8-29.2,0.6-43.3c-5.9-21.5-21.9-39.8-42.1-49C145.9,337.5,129.7,335.9,114.5,338.6z"/>
	<path d="M116.6,346.8c15.3-2.5,31.6-0.2,45,7.7c16.9,8.9,29.2,25.9,33.3,44.5c4.9,21.3-1.2,44.9-16.2,60.9
		c-6.6,8-15.8,13.4-25.2,17.6c-16.1,6.3-34.7,6.3-50.7-0.1c-9.2-4.2-18.2-9.4-24.7-17.3C67,448.1,60.7,432.2,60.2,416
		c-0.9-21.6,9.5-43.1,26.6-56.2C95.7,353.4,105.7,348.4,116.6,346.8 M116.5,349.9c-10.3,1.7-19.7,6.5-28.1,12.5
		C72.8,374.6,63,394.1,63.2,414c-0.2,19.9,9.6,39.3,25.2,51.5c9.6,6.8,20.7,12.1,32.5,13c10.8,1.2,22-0.1,32.1-4.3
		c8.8-4,17.4-9.1,23.6-16.7c14.3-15.4,20.1-38.2,15.1-58.6c-4.2-18-16.3-34.1-32.9-42.5C146.2,349.3,130.8,347.4,116.5,349.9z"/>
	<path class="st0" d="M118.3,376.4c9.8-2.4,20.6-1.3,29.4,3.9c6.9,3.6,12.2,9.6,15.8,16.4c6.8,13.2,5.3,30.2-4,41.8
		c-10.8,14.8-32.7,19.7-48.8,11.1c-9.9-4.8-17.4-14.1-20.2-24.8c-3.2-11.7-0.7-24.9,6.9-34.5C102.4,383.4,110,378.6,118.3,376.4z"/>
</g>
<path class="st34" d="M317.8,493.1c0.6,0,1.8,0,2.4,0c0,75.5,0,151,0,226.4c-0.8,0-1.6,0-2.4,0C317.8,644,317.8,568.5,317.8,493.1z"
	/>
<path class="st34" d="M900.2,524.4c3.9-0.3,7.9,0,11.8-0.1l0,2c-4.2,0-8.3,0-12.5,0L900.2,524.4z"/>
<path class="st34" d="M900,535.2c4-0.6,8-0.1,12-0.3v1.1c-3.7,0-7.5,0.1-11.2,0C900.6,535.8,900.2,535.4,900,535.2z"/>
<path class="st34" d="M924.8,575.7l1.8-0.3c0.1,4.4,0.1,8.8,0,13.2c2.4,0.1,4.8,0.1,7.2,0.2l-0.6,1.6c-2.9-0.1-5.7-0.2-8.6-0.1
	C925,585.3,924.5,580.5,924.8,575.7z"/>
<path class="st35" d="M883,523.2c4.3-0.1,8.7-0.2,13,0.5c-0.2,6.7,0.3,13.4-0.2,20.1c-0.3,0.2-0.8,0.7-1.1,0.9
	c-3.9,0.6-7.8,0.2-11.7,0.1c0-0.4,0-1.3,0-1.8c3.6,0,7.2-0.1,10.8-0.2c0.3-2,0.6-3.9,1-5.8c0-0.3,0.1-0.8,0.2-1l-0.8-0.3l0.7-0.8
	c0.1-0.1,0.2-0.2,0.2-0.3l-0.4-0.9c-0.6-2.3-0.3-4.8-0.1-7.1c0-0.2-0.1-0.5-0.1-0.7c-3.5-1.8-7.6-0.8-11.3-1
	C883,524.5,883,523.7,883,523.2z"/>
<path class="st36" d="M916.5,524.2l0.5-0.1c0.2,0.9,0.4,1.8,0.6,2.7c0.3,2.4,0.4,4.8,0.2,7.2c-0.3,0.3-0.9,0.8-1.2,1.1l1.7-0.1l-1,1
	c-0.2,0.2-0.6,0.6-0.8,0.8l1.3,0.1c0.1,2,0.2,4.1,0.3,6.1c3.7,0,7.3,0,11,0l0,1.3c-3.7,1.3-7.7,0.6-11.5,0.1c-0.3,0-0.8-0.1-1.1-0.2
	C916.2,537.6,915.9,530.9,916.5,524.2z"/>
<path class="st36" d="M945.6,617.8c7.5-1.1,15.5,1.4,20.8,6.9c4,4.5,7.2,10.2,7,16.4c0.7,13.2-11.2,25.4-24.4,24.9
	c-13.5,0.4-25.5-12.5-24.2-26C925.4,629,934.5,619,945.6,617.8 M943,619.2c-10,2.5-17.7,12.4-17.4,22.8c-0.2,12.3,11,23.4,23.3,23.1
	c12.7,0.4,24.2-11.4,23.4-24.1c0.1-5.9-3-11.4-6.8-15.7C959.9,619.4,950.9,617.2,943,619.2z"/>
<path class="st36" d="M874.9,621.5c0.4,0.2,1.3,0.5,1.7,0.6c1.6,7.2,4.6,14,7.3,20.8C879.7,636.5,875.1,629.6,874.9,621.5z"/>
<path class="st36" d="M944.5,626.7c5.2-1.4,11.3-0.3,15.3,3.5c4.4,4.2,6.7,11.1,4.1,16.9c-2.3,6.5-9.2,11.1-16.1,10.3
	c-8.9-0.3-16.2-9.6-14.5-18.3C934.6,633.4,938.8,628.2,944.5,626.7 M946.9,627.2c-9.8,0.9-16.3,13.2-10.9,21.7
	c3.6,7,12.9,9.7,19.8,6.1c6.7-3.5,10.5-12.5,6.6-19.4C960,629.6,953.2,626.2,946.9,627.2z"/>
<path class="st36" d="M892.1,628.8c5,4.9,6.3,12.6,4.4,19.2c-2.1,5.8-6.5,11-12.5,13.1c-5.9,2.1-12.9,1.6-18.2-2
	c-7.5-4.8-11.4-14.7-8.5-23.3c1.7,3.4,3.3,7,5.8,9.9c2.4,0.9,5,0.7,7.5,0.4c2.1,3.2,4.2,6.5,6.9,9.2c2.2,1,5.1,0.8,7.3-0.4
	c2.7-2,2.9-5.7,2.4-8.8c2.7,1.2,6.9,2,8.4-1.4C899,639.1,893.5,634.1,892.1,628.8z"/>
<path class="st37" d="M846.3,553.1c10.1-0.8,20.3,0,30.5-0.4c0.1,1.4,0.1,2.8,0.2,4.3l0.1,1.5l0,0.4c-10.3,0.4-20.6,0.5-30.9,0
	l-0.4-0.7c9.9-0.4,19.7-0.1,29.6-0.2c0-1.3-0.1-2.7-0.1-4c-9.8-0.2-19.6,0.2-29.4-0.2L846.3,553.1z"/>
<path class="st37" d="M952.4,552.8c12.4,0.1,24.9-0.5,37.3,0.3l0.5,0.6c-12.2,0.4-24.5,0-36.7,0.2c-0.1,1.3-0.1,2.7-0.2,4
	c9.1,0.2,18.3-0.6,27.3,0.5l-0.8,0.2c-3.9,0.8-7.9,0.5-11.8,0.5c-12,0-24.1,0-36.1,0c-0.2,2-0.4,4-0.8,6c0.2-2.3,0.1-4.7,0-7
	c6.9-0.3,13.8,0,20.7-0.2l0.3-1C952.3,555.6,952.4,554.2,952.4,552.8z"/>
<path class="st38" d="M979.9,609.2l1-0.6c0,8.3,0.4,16.5-0.3,24.8c-0.4-1.3-0.9-2.5-1.3-3.7C979.9,622.8,979.1,616,979.9,609.2z"/>
<path class="st39" d="M979.4,653.4c0.4-1.2,0.8-2.5,1.2-3.7c0.3,8.5,0,16.9,0.3,25.4l-1,0c-14.3,0.4-28.6-0.7-42.9,0
	c-30.5-0.2-61,0.3-91.5-0.2l0.7-0.6c7.9-0.9,15.9,0.7,23.8-1c4.4,0.8,8.9,0.4,13.4,0.1c6.2,1,12.5,0.5,18.8,0.6c9.3,0,18.6,0,27.9,0
	c4,0,8.1,0.4,12.1-0.8c4.6,1,9.3,1,13.9,0c7.8,1.6,15.8,0.5,23.7,0.7C979.6,667.1,979.8,660.3,979.4,653.4z"/>
<path class="st40" d="M734.1,671.8c0.1-0.1,0.3-0.3,0.4-0.4l0,0.5L734.1,671.8z"/>
<g>
	<path class="st1" d="M772,645.2c1.9-0.1,3.9-0.2,5.8,0.3c4,0.8,7.7,3.1,10.3,6.3c3.5,4.2,4.8,10.2,3.4,15.6
		c-0.9,3.8-3.3,7.2-6.4,9.7c-3.3,2.5-7.4,3.8-11.6,3.7c-4-0.1-7.9-1.7-10.9-4.3c-3.5-3.1-5.8-7.5-6.1-12.2
		c-0.3-4.5,1.2-9.2,4.1-12.7C763.4,648,767.6,645.8,772,645.2 M770.8,647.3c-3.5,0.8-6.9,2.7-9.1,5.6c-3.4,4.1-4.5,10-2.8,15.1
		c0.8,2.8,2.6,5.2,4.8,7.2c2.5,2,5.5,3.5,8.7,3.7c4.4,0.6,8.8-1,12.2-3.8c2.5-2.3,4.4-5.3,5.1-8.6c1.6-6.7-1.8-14.3-7.9-17.4
		C778.5,647.1,774.5,646.7,770.8,647.3z"/>
	<path class="st1" d="M773.4,647.9c1.1-0.2,2.1,0.2,3.2,0.1c2.6,0.4,4.9,1.5,7,3c3.4,2.7,5.5,6.8,5.8,11.1c0.2,3.7-0.9,7.4-3.3,10.3
		c-3.2,4.2-8.7,6.3-13.8,5.6c-2.7-0.3-5.3-1.5-7.4-3.1c-3.2-2.6-5.5-6.6-5.7-10.8c-0.5-5,1.8-10,5.7-13.1
		C767.3,649.2,770.2,647.9,773.4,647.9 M772.5,653.7c-1.3,1.3-2.7,2.6-4,3.9c-0.6,0.5-0.8,1.3-1,2c0.1,0.5,0.4,0.9,0.6,1.3
		c0.6,0.5,1.3,0.9,2,1c0,2.2,0,4.3,0,6.5c0.1,1.5,1.3,2.9,2.9,3c1.2,0.1,2.4,0.2,3.6-0.2c1.3-0.5,2.2-1.9,2.1-3.3c0-2,0-4,0-6
		c1.3-0.2,2.3-1.1,2.7-2.4c-0.3-0.7-0.5-1.5-1-2c-1.1-1.1-2.3-2.3-3.4-3.4C775.9,652.8,773.6,652.3,772.5,653.7z"/>
	<path class="st1" d="M773.5,653.8c0.8-0.4,1.8-0.1,2.4,0.5c1.2,1.2,2.4,2.5,3.7,3.7c0.5,0.4,0.6,1,0.9,1.5
		c-0.4,1.1-1.5,1.7-2.6,1.5c0,2.4,0,4.8,0,7.1c0.1,1.3-1.1,2.5-2.4,2.5c-1,0.2-2.1,0-3.1-0.2c-0.8-0.5-1.5-1.3-1.5-2.3
		c0-2.4,0-4.8,0-7.2c-1.1,0.2-2.2-0.4-2.6-1.5c0.3-1.3,1.5-2.1,2.4-3C771.6,655.6,772.5,654.7,773.5,653.8 M771.6,656.9
		c-0.7,0.8-0.5,1.9-0.5,2.9c-0.1,2.8,0,5.6,0,8.4c0,0.9,0.7,1.6,1.4,2.1c1,0.3,2.1,0.5,3.1,0.2c1-0.3,1.9-1.2,1.9-2.3
		c0-3.3,0-6.6,0-9.9c0-1.3-1.1-2.3-2.4-2.4C773.8,655.9,772.3,655.8,771.6,656.9z"/>
	<path class="st1" d="M771.8,658.6c-0.1-0.8,0.5-1.7,1.4-1.8c1.2-0.2,2.9-0.2,3.4,1.2c0,3.3,0,6.6,0,9.9c0.1,1-0.8,1.9-1.8,1.8
		c-0.8,0-1.8,0.2-2.5-0.4c-0.4-0.3-0.6-0.9-0.5-1.4C771.8,664.8,771.8,661.7,771.8,658.6z"/>
	<path d="M777.2,629.5c1,0.6,2.1,1.3,3.2,1.8c-1.1,0.6-2.1,1.2-3.2,1.8c0-0.4,0-0.8,0-1.2c-4,0-8.1,0-12.1,0c0-0.5,0-0.9,0-1.4
		c4-0.1,8.1,0,12.1-0.1C777.2,630.2,777.2,629.9,777.2,629.5z"/>
	<path d="M762.1,640.5c7.5-3.9,16.7-4.4,24.6-1.2c-0.5,1.1-1,2.1-1.5,3.2c-7.1-3.4-15.6-3.3-22.7,0
		C762.3,641.8,761.8,641.2,762.1,640.5z"/>
	<path d="M773,644.4c1.2-0.2,2.3,0,3.5,0.1c4.5,0.6,8.7,2.8,11.6,6.2c2.8,3.1,4.4,7.2,4.6,11.3c0.2,4.4-1.2,8.9-4,12.3
		c-2.9,3.7-7.3,6.3-12,6.9c-4.9,0.7-10-0.7-13.9-3.7c-3-2.4-5.4-5.6-6.4-9.3c-1.5-4.7-0.8-9.9,1.5-14.2c1.9-3.3,4.7-6,8.1-7.7
		C768.2,645.2,770.6,644.6,773,644.4 M772,645.2c-4.4,0.6-8.6,2.8-11.5,6.3c-3,3.5-4.5,8.1-4.1,12.7c0.3,4.7,2.6,9.2,6.1,12.2
		c3,2.6,6.9,4.2,10.9,4.3c4.1,0.2,8.3-1.1,11.6-3.7c3.1-2.4,5.5-5.8,6.4-9.7c1.5-5.3,0.2-11.3-3.4-15.6c-2.5-3.2-6.2-5.5-10.3-6.3
		C775.9,645,774,645.1,772,645.2z"/>
	<path d="M770.8,647.3c3.7-0.7,7.7-0.3,11,1.6c6.1,3.2,9.6,10.7,7.9,17.4c-0.7,3.3-2.6,6.3-5.1,8.6c-3.3,2.8-7.8,4.4-12.2,3.8
		c-3.2-0.2-6.2-1.7-8.7-3.7c-2.1-2-3.9-4.4-4.8-7.2c-1.7-5-0.7-11,2.8-15.1C764,650.1,767.3,648.1,770.8,647.3 M773.4,647.9
		c-3.1,0-6.1,1.3-8.6,3.2c-3.9,3.1-6.2,8.1-5.7,13.1c0.2,4.2,2.5,8.1,5.7,10.8c2.2,1.6,4.7,2.8,7.4,3.1c5.2,0.7,10.7-1.5,13.8-5.6
		c2.3-2.8,3.5-6.6,3.3-10.3c-0.2-4.3-2.4-8.4-5.8-11.1c-2.1-1.5-4.4-2.7-7-3C775.5,648,774.4,647.7,773.4,647.9z"/>
	<path d="M772.5,653.7c1.2-1.4,3.4-0.9,4.4,0.4c1.1,1.2,2.3,2.3,3.4,3.4c0.6,0.5,0.7,1.3,1,2c-0.4,1.2-1.4,2.2-2.7,2.4c0,2,0,4,0,6
		c0.1,1.4-0.8,2.9-2.1,3.3c-1.2,0.4-2.4,0.3-3.6,0.2c-1.5-0.1-2.8-1.5-2.9-3c0-2.2,0-4.3,0-6.5c-0.8-0.1-1.4-0.5-2-1
		c-0.2-0.4-0.5-0.9-0.6-1.3c0.2-0.7,0.4-1.5,1-2C769.8,656.3,771.1,655,772.5,653.7 M773.5,653.8c-1,0.8-1.9,1.8-2.8,2.7
		c-0.9,0.9-2.1,1.7-2.4,3c0.3,1.1,1.5,1.7,2.6,1.5c0,2.4,0,4.8,0,7.2c0,1,0.7,1.9,1.5,2.3c1,0.2,2.1,0.3,3.1,0.2
		c1.3,0,2.5-1.2,2.4-2.5c0-2.4,0-4.8,0-7.1c1.1,0.2,2.3-0.4,2.6-1.5c-0.2-0.5-0.4-1.1-0.9-1.5c-1.2-1.2-2.5-2.5-3.7-3.7
		C775.3,653.7,774.3,653.4,773.5,653.8z"/>
	<path d="M771.6,656.9c0.8-1.1,2.3-1,3.4-1c1.2,0,2.4,1.1,2.4,2.4c0,3.3,0,6.6,0,9.9c0,1.1-0.9,2-1.9,2.3c-1,0.4-2.1,0.1-3.1-0.2
		c-0.7-0.5-1.4-1.2-1.4-2.1c0-2.8,0-5.6,0-8.4C771.1,658.8,770.8,657.7,771.6,656.9 M771.8,658.6c0,3.1,0,6.3,0,9.4
		c0,0.5,0.1,1,0.5,1.4c0.7,0.6,1.7,0.4,2.5,0.4c1,0.1,1.9-0.9,1.8-1.8c0-3.3,0-6.6,0-9.9c-0.5-1.4-2.2-1.4-3.4-1.2
		C772.4,656.9,771.8,657.7,771.8,658.6z"/>
</g>
<g>
	<path d="M690.5,644.9c3.6-0.5,7.4,0,10.7,1.7c3.4,1.6,6.3,4.4,8.2,7.7c2.5,4.5,3.1,9.9,1.5,14.8c-1,3.3-3,6.2-5.6,8.5
		c-3.5,3.1-8.2,4.7-12.9,4.5c-3.9-0.1-7.8-1.5-10.9-3.9c-3.4-2.7-5.9-6.6-6.8-10.9c-1-4.8-0.1-10,2.6-14.1
		C680.3,648.8,685.2,645.6,690.5,644.9 M689.8,645.9c-4.2,0.8-8.1,3.1-10.7,6.5c-2.4,3-3.7,6.8-3.8,10.7c-0.1,4.2,1.3,8.4,4,11.6
		c2.8,3.5,7,5.9,11.4,6.5c4.1,0.6,8.3-0.3,11.8-2.5c3.6-2.3,6.5-5.8,7.7-9.9c1-3.3,1.1-6.8,0.1-10.2c-1.4-5-5.1-9.3-9.9-11.5
		C697.1,645.6,693.3,645.2,689.8,645.9z"/>
	<path d="M690.3,647.8c3.6-0.6,7.4-0.1,10.6,1.8c4,2.1,6.8,6.1,7.8,10.4c1.2,5-0.3,10.5-3.8,14.3c-1.5,1.9-3.7,3.1-5.9,4.1
		c-3.8,1.5-8.1,1.5-11.9,0c-2.2-1-4.3-2.2-5.8-4c-2.6-2.8-4.1-6.5-4.2-10.3c-0.2-5.1,2.2-10.1,6.2-13.2
		C685.4,649.3,687.7,648.1,690.3,647.8 M690.2,648.5c-2.4,0.4-4.6,1.5-6.6,2.9c-3.7,2.9-6,7.4-5.9,12.1c0,4.7,2.2,9.2,5.9,12.1
		c2.2,1.6,4.8,2.8,7.6,3c2.5,0.3,5.2,0,7.5-1c2.1-0.9,4.1-2.1,5.5-3.9c3.4-3.6,4.7-9,3.5-13.7c-1-4.2-3.8-8-7.7-10
		C697.2,648.3,693.6,647.9,690.2,648.5z"/>
</g>
</svg>
