<?xml version="1.0" encoding="utf-8"?>
<!-- Generator: Adobe Illustrator 21.1.0, SVG Export Plug-In . SVG Version: 6.00 Build 0)  -->
<svg version="1.1" id="Laag_1" xmlns="http://www.w3.org/2000/svg" xmlns:xlink="http://www.w3.org/1999/xlink" x="0px" y="0px"
	 viewBox="0 0 1008 478" style="enable-background:new 0 0 1008 478;" xml:space="preserve">
<g id="_x23_000000ff">
	<path d="M594,46.4c54-3.3,108-7,162-10.5c7-0.4,13.9,0.7,20.8,1.3c54.4,5,108.9,9.8,163.3,14.9c0.5,4.4,1,8.9,1.1,13.4
		c3.6-0.8,7.8-2.2,11,0.3c3,1.9,3.5,5.8,3.5,9.1c-0.1,47.7,0,95.4-0.1,143.1c-0.2,14.6,0.3,29.2-0.2,43.8c-1,8-10.4,9-16.7,10.7
		c-0.7,1.8-1,3.9-2.1,5.5c-4.9,2.4-10.4,3-15.8,3.9c-85.2,9.3-170.3,18.6-255.5,27.8c-17.6,2.1-35.2,3.6-52.8,5.9
		c-1.3,8.8-2.3,17.7-6.2,25.8c-5.5,12.1-16.3,22.7-29.6,25.4C409.3,386,241.7,405.2,74.1,424.4c-6.7,0.8-13.4-0.5-20.1-1.2
		c-11.2-1.3-22.4-2.1-33.6-3.7c-0.1-111.5,0-223.1-0.1-334.6c-0.1-4.9,0-9.7,0.1-14.6c102.5-6.1,205.1-11.8,307.7-17.7
		c64.7-3.7,129.3-7.5,193.9-11C546,42.7,570,45.4,594,46.4 M738.2,42.6c-46.8,3.1-93.6,6.1-140.4,9.2c-6.6,0.5-13.2-0.4-19.8,0.2
		c-154.4,9.2-308.8,18.1-463.2,27.5c49,4.8,98,9.3,147.1,14c24,2.8,48.1,1.8,72.2,0.9c37.4-1.8,74.6-4.9,112-7.4
		c108.8-7.6,217.6-15.2,326.4-22.8c45-3.3,90-6.1,134.9-9.6c-48-4.4-96.1-8.7-144.1-13.1C754.8,41,746.5,42.3,738.2,42.6
		 M499.2,48.6C355.4,56.8,211.7,65,67.9,73.2c-4.6,0.3-9.3,0.3-13.8,1.3C60,75.4,66,75.6,72,76.3c6,0.5,11.9,1.5,18,1
		c132.8-7.8,265.7-15.7,398.5-23.5c21.9-1.4,43.8-2.3,65.7-4.1c-9.4-0.8-18.8-1.6-28.2-2.2C517,47.2,508.1,48.2,499.2,48.6
		 M914.1,58.1C746.3,69.8,578.6,81.5,410.9,93.2c-41.2,2.8-82.5,6.4-123.9,5.8c-12-0.1-24-1.7-35.9-2.8
		c-53.4-5-106.9-10.2-160.3-15.1c-0.1,3.2-0.2,6.4-0.2,9.6c49.6,4.5,99.3,9.1,148.9,13.6c30.4,3.1,61,3.8,91.5,3.4
		c36-0.1,72-3,107.9-5.4c160.6-10.7,321.2-21.3,481.8-32c5-0.3,10.1-0.6,15.1-1.5c-0.1-3.9-0.3-7.9-0.7-11.8
		C928,56.8,921,57.6,914.1,58.1 M937.1,72.1c-6.2,1.9-12.8,1.6-19.2,2.2C740.2,86,562.6,97.9,384.9,109.6
		c-49.2,2.5-98.7,3.2-147.8-1.8c-69.4-6.3-138.8-12.8-208.3-19c-0.2,16.7,0,33.4-0.1,50.2c0.1,53.6-0.2,107.3,0.1,161
		c20.6,2.5,41.3,5,62,7.1c60.5,7.1,120.9,14.1,181.4,21.4c49.2,5,98.5-2.2,147.4-7c172.2-17.7,344.3-35.3,516.5-53.1
		c4.9,0,10.4-0.4,14.2-3.9c1.5-1.3,1.5-3.5,1.6-5.4c-0.1-61.7,0-123.4,0-185.1c0.3-3-1.5-6.5-4.9-6.2
		C943.5,68.7,940.6,71.1,937.1,72.1 M26,75.5c-0.2,3.1-0.2,6.2-0.2,9.3c20.4,1.9,40.7,3.9,61.1,5.5C87,87,87,83.6,87,80.2
		c-15.9-1.6-31.7-2.9-47.6-4.4C35,75.3,30.5,75.4,26,75.5 M362,331.1c-34.5,3.1-69.3,4.4-103.7-0.6c-31.4-3.7-62.9-7.4-94.3-11.1
		c-24.9-2.8-49.8-6.1-74.8-8.6c0.1,2,0.1,3.9,0.1,5.9c54.5,7.1,108.9,13.9,163.4,20.9c6.1,0.8,12.2,1.7,18.3,2
		c35.2,2.3,70.6,1.1,105.7-2.1c174.4-18.9,348.8-38,523.1-56.9c11.3-1.4,22.8-1.7,33.8-5.1c0.2-1,0.5-2.1,0.8-3.1
		C743.6,291.9,552.8,311.4,362,331.1 M25.8,303.2c0,37.2-0.2,74.4,0.1,111.6c12.7,1.5,25.5,2.7,38.2,4.1c6.6,0.9,13.3-0.3,19.9-1.1
		c3.5-0.3,6.2-3,8.3-5.6c6-7.5,9-17,10.8-26.4c1.6-10.5,3-21,4.6-31.4c1.6-10.4,2.2-21.4,7.6-30.7c-9.8-1.6-19.8-2.5-29.6-3.9
		c0-3.2-0.2-6.4-0.2-9.6C65.6,307.8,45.7,305.4,25.8,303.2 M377,341c-23.6,2.2-47.3,3.4-71,3.3c-16.2-0.3-32.5-0.3-48.6-2.5
		c-44.5-5.7-89-11.3-133.5-17.1c-2.1-0.1-4.6-0.8-6.1,1c-3.6,3.5-4.3,8.8-5.4,13.6c-2.3,14.5-4.3,29.1-6.4,43.7
		c-1.7,12.3-6.1,24.4-14.2,33.9c161.2-18.3,322.4-36.9,483.6-55.3c6.5-0.9,12.2-4.8,17-9.2c9.9-9.3,13.6-23.1,14.6-36.2
		C530.3,324.3,453.6,332.8,377,341z"/>
</g>
<g id="_x23_ffffffff">
</g>
</svg>
