<?xml version="1.0" encoding="utf-8"?>
<!-- Generator: Adobe Illustrator 21.1.0, SVG Export Plug-In . SVG Version: 6.00 Build 0)  -->
<svg version="1.1" id="Laag_1" xmlns="http://www.w3.org/2000/svg" xmlns:xlink="http://www.w3.org/1999/xlink" x="0px" y="0px"
	 viewBox="0 0 2318 488" style="enable-background:new 0 0 2318 488;" xml:space="preserve">
<style type="text/css">
	.st0{fill:#FFFFFF;}
	.st1{fill:#1069C9;}
</style>
<g id="_x23_ffffffff">
	<path class="st0" d="M527.2,29.2c11-3.3,21.7-7.9,32.8-10.8c61.7,2,123.4,4.3,185,6.4c3.2,0.1,6.4,0.2,9.5,1.1
		c-11.2,0.3-22.4,1.9-33.6,2.8C642,36.2,563,43.6,484,51.3c-4.1,0.1-8.2,0.5-12.3,1c-5.6,0.7-11.2,1.4-16.9,1.5
		C479.1,46,503,37.2,527.2,29.2z"/>
	<path class="st0" d="M1125.6,20.8c392.8,0,785.7,0,1178.5,0c0,150.7,0,301.5,0,452.2c-392.8,0-785.7,0-1178.5,0
		C1125.6,322.3,1125.6,171.5,1125.6,20.8 M1870.4,101.6c-15.9,3.8-26.7,21.6-22.3,37.5c2.5,8.3,8,16.1,15.9,19.9
		c9,4.8,20.5,4.6,29.4-0.5c6.9-3.6,11.7-10.4,14.4-17.6c4.9-14.2-2.9-31.1-16.4-37.2C1885,100.4,1877.4,99.9,1870.4,101.6
		 M2110.2,103.2c-6.5,2.7-8.2,10.5-8.3,16.8c-0.1,7.2-0.8,15.2,3.4,21.5c3.2,5.3,10.3,5.8,15.8,4.6c4.6-0.8,7.6-5.1,8.9-9.3
		c1.5-6.8,1.5-13.9,0.7-20.8c-0.5-4.7-2.5-9.6-6.5-12.2C2119.8,101.8,2114.6,101.8,2110.2,103.2 M1923.3,117.9
		c-4.2,4.3-8.6,8.6-12.8,12.9c4.4,4.4,8.8,8.8,13.2,13.2c4.3-4.3,8.6-8.6,12.9-12.9C1932.2,126.7,1927.8,122.2,1923.3,117.9
		 M2070.2,131.2c4.3,4.3,8.6,8.6,12.9,12.9c4.4-4.4,8.8-8.8,13.2-13.2c-4.3-4.3-8.6-8.7-13-12.9
		C2079,122.5,2074.6,126.8,2070.2,131.2 M1229,132.1c-20.3,2.1-39.7,12.4-52.4,28.3c-16.7,19.6-22.2,47.9-14.7,72.4
		c5.8,20.2,20.4,37.6,39.1,47.3c21.8,11.5,49,11.9,71.1,0.9c14.2-6.8,26-18.3,33.9-31.9c10.1-17.9,12.9-39.9,7.3-59.7
		c-4.4-16.8-14.9-31.7-28.7-42.1C1268.9,135.5,1248.6,130.1,1229,132.1 M1484,132.2c-30.1,2.9-57.2,25-66.2,53.9
		c-6.9,20.6-4.4,44,6.1,62.9c8.3,14.3,20.9,26.3,36.1,33.1c21.4,9.9,47.4,9.3,68.4-1.6c14.2-7.1,25.8-18.9,33.6-32.7
		c9.7-18.1,12.1-40.1,6.1-59.8c-5.1-18.1-17.4-33.9-33.2-44C1520,134.4,1501.7,130.4,1484,132.2 M1737.5,132.7
		c-29,3.9-54.6,25.9-63.1,53.8c-6.7,20.4-4.3,43.4,6,62.1c7.8,13.6,19.4,25.2,33.6,32.2c17.8,9.1,39,10.7,58.1,5
		c20.3-5.9,37.6-20.7,47.3-39.4c8.8-17.6,11.2-38.4,5.6-57.3c-4.9-18.2-17-34.1-32.6-44.5C1776.4,134,1756.4,129.8,1737.5,132.7
		 M1994.6,132.7c-30.4,2.5-57.9,24.7-67.1,53.7c-6.8,20.2-4.7,43.1,5.2,62c7.8,14,19.5,25.9,33.8,33.1c16.6,8.5,36.3,10.8,54.4,6.4
		c17.5-4.1,33.4-14.5,44.2-28.8c15.4-19.4,20.1-46.5,13.1-70.1c-4-14.7-13-27.7-24.4-37.7C2037.8,137.3,2015.7,130.3,1994.6,132.7
		 M1565.4,289.8c-0.1,0.1-0.2,0.4-0.2,0.6c2.2,1.8,4.6,3.3,6.9,5c-12.6,17.4-31.6,29.5-52.1,35.3c-38.4,11.4-83.6-2.8-107.5-35.3
		c2.4-1.8,4.9-3.5,7.3-5.3c-9.1-4.5-18.2-9.1-27.3-13.6c0.8,10.2,1.5,20.5,2.4,30.7c2.6-1.8,5.2-3.6,7.9-5.3
		c6.8,9.5,14.8,18.2,24.4,24.8c17.5,12.7,39.4,18.4,60.8,18.7c17.3,0.6,34.8-1.7,50.9-8.4c17.4-7.2,31.6-20.4,42.9-35.2
		c2.6,1.8,5.2,3.6,7.9,5.4c0.7-10.2,1.7-20.5,2.3-30.7C1583.2,281,1574.2,285.2,1565.4,289.8 M1648,276.5
		c0.7,10.2,1.6,20.5,2.3,30.7c2.7-1.8,5.3-3.5,7.9-5.4c7.3,9.9,15.8,19.2,26.1,26c14.2,10,31.4,15.1,48.6,17.1
		c16.2,1.1,32.8,0.9,48.6-3.5c5.7-1.7,11.4-3.6,16.8-6.1c15.6-7.6,28.5-19.7,38.9-33.5c2.6,1.8,5.2,3.6,7.9,5.3
		c0.8-10.2,1.6-20.4,2.4-30.7c-9.1,4.5-18.2,9-27.3,13.5c2.4,1.8,4.8,3.5,7.3,5.3c-12.5,17.7-32,29.8-52.7,35.5
		c-38.3,11-83.2-3.1-106.9-35.5c2.4-1.7,4.9-3.5,7.2-5.4C1666.1,285.5,1657.1,281,1648,276.5 M2070.3,290.3
		c4.3,4.4,8.8,8.7,13.1,13.2c4.5-4.2,8.7-8.6,13-12.9c-4.4-4.4-8.8-8.8-13.2-13.2C2078.9,281.7,2074.6,286,2070.3,290.3
		 M1909.6,291.6c4.4,4.2,8.6,8.6,12.9,12.8c4.3-4.4,8.8-8.8,13.1-13.2c-4.3-4.3-8.6-8.6-12.9-12.9
		C1918.4,282.8,1913.9,287.1,1909.6,291.6 M1186.8,315.9c-5.5,4-6.6,13.1-1.4,17.8c5.9,5,14.3,4.4,20.9,8.1c2.6,1.4,3,5.3,0.7,7.2
		c-5.7,4.4-16.9,2.3-17.2-6.1c-3.1,0-6.2,0-9.3,0c0.2,4.7,2.1,9.8,6.4,12.3c6.7,4.2,15.6,4.3,22.9,1.5c7.7-2.9,11.1-13.7,5.4-20
		c-5.8-6-15-5.2-22-8.8c-2.2-1.2-2.2-4.6-0.4-6.2c4.6-3.9,13.9-2.1,14.5,4.8c3.1,0,6.2,0,9.3,0c-0.3-4.5-2.2-9.4-6.5-11.5
		C1203,311.1,1193.5,311.1,1186.8,315.9 M1223.8,313.2c0,14.8,0,29.6,0,44.3c11.2,0.1,22.5,0,33.7,0c0-2.7,0-5.5,0-8.2
		c-8,0-16,0-23.9,0c0-3.6,0-7.3,0-10.9c7.2,0,14.3,0,21.4,0c0-2.5,0.1-5.1,0.1-7.6c-7.2,0-14.3,0-21.5,0c0-3.2,0-6.3,0-9.5
		c7.8,0,15.6,0,23.4,0c0-2.7,0-5.5,0-8.2C1245.9,313.3,1234.8,313.2,1223.8,313.2 M1260.6,313.2c0,2.7,0,5.5,0,8.2
		c4.4,0,8.8,0,13.3,0c0.1,12.1-0.1,24.1,0.1,36.2c3.2,0,6.4,0,9.7,0c0-12,0-24.1,0-36.1c4.4,0,8.9,0,13.3,0c0-2.7,0-5.5,0-8.2
		C1284.8,313.2,1272.7,313.2,1260.6,313.2 M1876.4,325.5c-4.9,2.2-7,7.9-7.3,12.9c1.7,0,3.5,0,5.2,0c0.2-4.4,2.6-9.4,7.7-9.5
		c5.1-1.1,10.3,4,8.4,9.1c-1.4,4.4-6.4,5.3-10.5,5.1c0,1.4,0,2.8,0,4.2c4.6-0.4,10.5,0.5,12.1,5.5c2.5,6.2-3.9,12.5-10.1,11.3
		c-5.2,0.1-8.4-4.9-8.6-9.6c-1.8,0-3.5,0-5.2,0c-0.1,5.3,2.7,11,7.8,13c5.7,2,12.6,1.9,17.6-2c7.1-5.2,6-18.9-3.4-20.9
		c1.9-1.2,4-2.5,5-4.7c3-5.3-0.1-12.7-5.7-14.7C1885.3,323.9,1880.6,323.8,1876.4,325.5 M2010.3,323.8c0,2.1,0,4.3,0,6.4
		c1.7,0,3.5,0,5.3,0c0-2.1,0-4.3,0-6.4C2013.8,323.8,2012,323.8,2010.3,323.8 M2093.2,324.1c-0.8,2.1-1.5,4.4-3.4,5.8
		c-2.7,2.1-6.2,2.2-9.5,2.6c0,1.4,0,2.8,0,4.1c3.8,0,7.6,0,11.4,0c0,10.5,0,21.1,0,31.6c1.7,0,3.5,0,5.3,0c0-14.7,0-29.4,0-44.1
		C2095.8,324.1,2094.5,324.1,2093.2,324.1 M2122.6,324.8c-5.4,0.8-8.7,6.3-9.5,11.2c-1.1,7.2-1.2,14.7,0.2,21.9
		c1.1,4.4,3.9,9.2,8.6,10.2c4.7,1.1,10.2,1,14.2-2c5.2-4.8,5.4-12.4,5.6-19c-0.2-6.1,0.1-12.8-3.7-18
		C2134.6,324.1,2127.8,323.7,2122.6,324.8 M2218.8,323.8c0,2.1,0,4.3,0,6.4c1.7,0,3.5,0,5.3,0c0-2.1,0-4.3,0-6.4
		C2222.3,323.8,2220.5,323.8,2218.8,323.8 M1912.1,325.3c-6.4,2.7-8.1,10.4-8.3,16.7c-0.1,7.3-0.8,15.4,3.4,21.7
		c3.2,5.3,10.4,5.8,15.8,4.5c4.6-0.8,7.5-5.1,8.8-9.3c1.3-5.5,1.3-11.3,1.1-17c-0.2-5.5-1.3-11.5-5.8-15.2
		C1922.8,323.7,1917,323.8,1912.1,325.3 M1409.3,333.3c0,5.6,0,11.1,0,16.7c-6,0-12,0-18.1,0c0,4,0,7.9,0,11.9c6,0,12,0,18.1,0
		c0,6,0,12,0,18c4,0.1,8,0,12,0c0-6,0-12,0-18c5.6-0.1,11.1,0,16.7-0.1c0-4,0-8,0-11.9c-5.6,0-11.1,0-16.7,0c0.1-5.5,0-11,0.1-16.6
		C1417.3,333.2,1413.3,333.3,1409.3,333.3 M1957,336c0,10.7,0,21.4,0,32.1c1.7,0,3.5,0,5.3,0c0.1-6.7-0.1-13.5,0.1-20.2
		c0.2-5.1,5.6-9.2,10.6-7.6c3,0.5,4,4,3.9,6.7c0,7.1,0,14.1,0,21.2c1.7,0,3.5,0,5.3,0c0.1-7.3-0.2-14.6,0.2-21.9
		c0.8-5.3,7.3-7.6,11.8-5.5c2.2,1.2,2.6,4,2.6,6.3c0,7,0,14.1,0,21.1c1.7,0,3.5,0,5.3,0c-0.1-8.7,0.2-17.4-0.2-26.1
		c-2.4-8.9-15.9-8.5-20.5-1.6c-3.6-7.4-15.3-6.4-19.2,0.3c-0.1-1.6-0.2-3.1-0.3-4.7C1960.2,336,1958.6,336,1957,336 M2010.3,336
		c0,10.7,0,21.4,0,32c1.7,0.1,3.4,0.1,5.2,0.2c0.3-10.7,0-21.4,0.2-32.2C2013.8,336.1,2012.1,336,2010.3,336 M2023.8,336
		c0,10.7,0,21.4,0,32.1c1.7,0,3.5,0,5.3,0c0-5.7,0-11.4,0-17.1c-0.2-3.4,0.8-7.1,3.5-9.3c3.9-2.8,11.5-2.6,12.4,3.2
		c0.3,7.7,0,15.5,0.1,23.2c1.7,0,3.5,0,5.3,0c0-7.4,0-14.8,0-22.2c-0.1-3.5-1.5-7.7-4.8-9.4c-5.8-2.6-13.3-1.2-16.9,4.3
		c0-1.6,0-3.2,0.1-4.9C2027.1,336,2025.4,336,2023.8,336 M2165.4,336.1c0.1,10.7,0,21.4,0,32.1c1.7,0,3.5,0,5.2,0
		c0.1-6.7-0.1-13.4,0.1-20.2c0.1-5,5.4-9.2,10.4-7.8c2.8,0.3,4.1,3.3,4.2,5.8c0.1,7.4,0,14.7,0,22c1.7,0.1,3.4,0.1,5.2,0.2
		c0.3-7.1-0.1-14.2,0.2-21.2c0.3-5.1,5.9-8.1,10.6-6.7c2.7,0.4,3.9,3.3,3.9,5.7c0.1,7.4,0,14.8,0,22.2c1.7,0,3.4,0,5.2,0
		c0.1-8.1,0-16.1,0.1-24.2c0.1-4.2-3.4-8.1-7.6-8.3c-4.9-1.2-10.1,0.8-13.1,4.8c-3.6-7.6-15.2-6.1-19.4,0.3c0-1.6,0-3.1,0.1-4.7
		C2168.7,336,2167.1,336,2165.4,336.1 M2218.8,336c0,10.7,0,21.4,0,32.1c1.7,0,3.5,0,5.3,0c0-10.7,0-21.4,0-32.1
		C2222.3,336,2220.5,336,2218.8,336 M2232.2,336c0,10.7,0,21.4,0,32.1c1.7,0,3.5,0,5.3,0c0-6.4-0.1-12.9,0-19.3
		c0.1-4.1,3-8.3,7.3-8.6c3.7-1.2,8.3,0.9,8.6,5.1c0.2,7.6,0,15.2,0.1,22.8c1.7,0,3.5,0,5.3,0c0-7.4,0-14.8,0-22.2
		c-0.1-3.5-1.4-7.5-4.6-9.2c-5.8-2.8-13.6-1.5-17.1,4.3c0-1.7,0.1-3.4,0.1-5C2235.5,336,2233.9,336,2232.2,336 M1546.6,348.2
		c0,4,0,8,0,11.9c15.6,0,31.1,0,46.7,0c0-4,0-8-0.1-12C1577.7,348.2,1562.1,348.2,1546.6,348.2 M1705.3,375.1c0,1.7-0.1,3.3,0.1,5
		c1.5,2,3.4,3.6,5.2,5.4c1.8-1.7,3.6-3.5,5.4-5.3c0-1.7-0.1-3.4,0-5.1c-1.8-1.7-3.5-3.4-5.2-5.2
		C1708.8,371.6,1707.1,373.3,1705.3,375.1 M1782.1,374.7c11,14.9,18.3,33.8,14.6,52.5c-2.1,11.1-7.8,21.3-14.6,30.1
		c1.9,1.2,3.7,2.5,5.7,3.7c8.8-1.4,17.6-4,25-9.1c6.8-4.1,12-10.5,15.4-17.6c7.2-15.9,4.1-35.9-7.7-48.8
		c-7.5-8.7-18.9-13.7-30.4-14.2C1786.8,370.4,1784.6,373.3,1782.1,374.7 M1732.1,386.4c-0.1,2.5-0.1,5.1-0.1,7.6
		c2.5-0.1,5.1,0.3,7.6-0.2c1.2-1.1,2.7-2.2,3.3-3.8c0.2-2.3,0.1-4.7,0.1-7c-2.4,0-4.7-0.1-7.1,0.1
		C1734.4,383.7,1733.4,385.3,1732.1,386.4 M1678.3,391c1.2,1.2,2.4,2.4,3.6,3.6c2.5,0,5,0,7.5,0c0-2.5,0-5,0-7.5
		c-1.2-1.1-2.3-2.3-3.5-3.5c-2.5-0.1-5.1-0.1-7.6-0.1C1678.3,386,1678.3,388.5,1678.3,391 M1420.7,416
		c10.1,10.1,20.2,20.2,30.3,30.3c0-5.7,0-11.4,0-17.1c11,0,22,0,33,0c0-8.4,0-16.7,0-25.1c-11,0-22,0-33,0c0-6.6,0-13.1,0-19.7
		C1440.8,394.8,1430.8,405.4,1420.7,416 M1704.5,389.7c-12.4,2.9-21.6,15.7-20.2,28.4c1.1,13.2,13.2,24.6,26.6,24.2
		c13.8,0.4,26.2-11.6,26.8-25.2c0.8-11-6.4-22.1-16.6-26.1C1715.9,388.7,1710,388.4,1704.5,389.7 M1493.3,404.1
		c0.1,8.4-0.1,16.8,0.1,25.1c9.6-0.1,19.3,0,28.9,0c0-8.4,0-16.7,0-25.1C1512.7,404.1,1503,404,1493.3,404.1 M1532.9,404.1
		c0,8.4,0,16.7,0,25.1c7,0,14.1,0,21.2,0c0-8.4,0-16.7,0-25.1C1547,404.1,1540,404.1,1532.9,404.1 M1564.6,404.1
		c0,8.4,0,16.7,0,25.1c4.8,0,9.7,0,14.5,0c0-8.4,0-16.7,0-25.1C1574.3,404.1,1569.5,404.1,1564.6,404.1 M1746.3,410
		c-1.7,1.8-3.4,3.5-5.2,5.2c1.7,1.7,3.4,3.4,5.1,5.2c1.7,0.1,3.4,0.1,5.1,0.1c1.8-1.8,3.6-3.5,5.4-5.3c-1.4-1.4-2.7-2.7-4-4
		C1751.2,409.1,1748.4,410.1,1746.3,410 M1665.2,416c1.8,1.8,3.4,3.8,5.6,5.2c1.6,0,3.4,0.4,4.9-0.3c1.8-1.5,3.4-3.3,5.1-5
		c-1.7-1.7-3.3-3.5-5.1-5c-1.6-0.5-3.3-0.3-4.9-0.2C1668.6,412,1667.1,414.2,1665.2,416 M1731.1,436.4c0,2.4,0,4.8,0,7.2
		c1.6,1.5,3.2,3.1,4.8,4.7c2.4,0,4.7,0,7.1,0c0-2.8,0-5.6,0-8.4c-1.2-1.2-2.3-2.3-3.5-3.5C1736.8,436.4,1733.9,436.4,1731.1,436.4
		 M1682.3,437.2c-1.2,1.2-2.3,2.4-3.5,3.7c0,2.4,0,4.9,0,7.3c2.4,0,4.9,0,7.3,0c1.2-1.2,2.5-2.4,3.7-3.5c0-2.5,0-5.1,0-7.6
		C1687.4,437.1,1684.9,437.1,1682.3,437.2 M1711.3,445.7c-1.8,1.8-3.5,3.5-5.2,5.3c0,1.7,0,3.3,0,5c1.7,1.8,3.5,3.5,5.2,5.3
		c1.8-1.7,3.6-3.5,5.4-5.3c0-1.7,0-3.4,0-5C1714.9,449.2,1713.1,447.5,1711.3,445.7z"/>
	<path class="st0" d="M744.1,27.5c9.9-0.8,19.9-2.3,29.9-1.7c19.5,0.8,39,1.3,58.2,4.7c2.2,0.6,5.1,0.5,6.4,2.7
		c-2.2,0.5-4.4,0.9-6.7,1c-112.2,6.1-224.4,11.9-336.6,18.1c0.2,0.4,0.6,1,0.7,1.4c1.6-0.6,3.4-0.6,5-0.7
		c108-5.7,216.1-11.6,324.1-17.3l-0.8,1c-85.8,21-171.6,42.1-257.5,63.1c-4.9,1.1-9.9-0.1-14.9-0.3c-66.2-5.7-132.4-11.4-198.6-17.1
		c0.2,0.3,0.6,1.1,0.8,1.4c2.2-0.2,4.4,0.1,6.7,0.3c63.4,5.4,126.7,10.9,190.1,16.3c2.8,0.3,5.7,0.3,8.4,1.1
		c-30.9,4.5-62.3,4.6-93.4,4.5c-10-0.2-20.2,0.1-30-2.1c-1,0.2-1.9,0.7-2.6,1.3c-64.7-2.2-129.4-4.7-194.1-6.6
		c5.2-1.4,10.5-1.7,15.8-2.6c28.7-4.3,57.4-8.1,86-12.8c3.6,0.5,7.1,1.7,10.7,2.4c-0.4-2.7-3.1-1.7-5.1-1.9c1.4-0.8,4.3-0.1,5-1.4
		c-1-0.1-3.1-0.3-4.1-0.5c0.5-0.2,1.6-0.7,2.1-0.9c30.8-7.6,61.6-15.1,92.5-22.7c9-3.6,18.8-2.8,28.3-3.4c6.3-0.2,12.6-0.7,19-1
		c1.7-0.5,4,0.3,5.3-1c-0.2-1-1.6-1.1-2.2-1.8c3.4,0.4,6.8-0.3,10.2-0.5C583.2,42.8,663.6,35.2,744.1,27.5 M351.4,86
		c4.1,0.1,8.1,1.5,12.1,2.3c23,5.3,46.1,10.5,69,15.9c0.4-0.1,1-0.2,1.4-0.3c-0.1-0.2-0.3-0.5-0.4-0.7
		c-26.8-6.1-53.5-12.1-80.2-18.5C352.6,85.1,352,85.5,351.4,86z"/>
	<path class="st0" d="M438.1,37.9c14.7-3.5,29.2-7.3,43.9-10.6c11,0.1,22,0.7,33.1,1c-19.5,6.3-38.8,13.2-58.2,19.8
		c-6.6,2.2-13.1,4.9-20,6.4c-31.1,7.6-62.3,15.3-93.4,22.9c-3.1,0.7-6.2,1.6-9.4,2.1c-35.9,5.2-71.8,10.5-107.8,15.7
		c-2.3,0.5-5.1,0.3-7,2c-0.5,4.5-0.3,9.1-0.3,13.7c-4.9-0.5-9.8-0.8-14.7-0.7c-3.5,0-6.9-0.2-10.4-0.3c-6.3-0.3-12.6-0.8-18.9-0.8
		c-8.1,0-16.3-0.6-24.4-0.7c9.8-2.7,19.7-4.8,29.5-7.4c1.6-0.3,3.5-2,2.2-3.7c-1.8-2.1-5-1.2-7.5-1.5c-45.6-1.5-91.3-3.2-136.9-4.7
		c-1.3-0.1-2.7-0.2-4-0.4C112.7,71.7,191.3,52.3,270,33c1.3-0.3,2.6-0.5,3.9-0.4c52,1.8,104,3.6,156.1,5.4
		C432.7,38,435.5,38.5,438.1,37.9z"/>
	<path class="st0" d="M826.9,37.2c3.9-1.2,8.1-1.3,11.8-3.1c0.2,2.8-1,6.3,1.9,8.1c0,1.2,0,2.5-0.1,3.7
		C799.7,56.2,758.8,66,718,76.1c-49.4,12.1-98.8,24.2-148.1,36.3c-5.3,1.4-10.7,2.4-16.2,3.1c2.3,0.7,4.8,0.2,7.1,0.7
		c-1,2.5-4.6-0.2-6.5,0.2c0,0.5,0,1.5,0,2.1c8.3-0.9,16.7-1.8,24.9-3.8c90.1-22.1,180.2-44.2,270.3-66.3c1.2-0.4,2.4-0.7,3.5-1.1
		c-0.1,70.6-0.1,141.1-0.2,211.6c-4,1.8-8.3,2.4-12.5,3.6c-1.4,0.2-2,1.6-2.7,2.5c-85.9,21.2-171.9,42.2-257.8,63.3
		c-9.5,2.4-19.2,3.4-28.9,4.3c-50.6,4.2-101.4,2.7-152,0.7c-58.2-2.1-116.4-4-174.5-6.1c-1-0.9-1.9-2.1-3.3-1.9
		c-26.7-1-53.4-1.9-80.2-2.8c-1.2-0.1-2.4-0.2-3.5-0.4c0.2-69.7,0.1-139.4,0.2-209.2c-0.2-1.9,2.2-1.8,3.4-2.1
		c6.3-0.7,12.6,0.2,18.9,0.2c6.2,0.2,12.5,0.8,18.7,0.7c3.4,0,6.8,0.2,10.3,0.2c6.3,0.3,12.6,0.8,18.9,0.8c4.1-0.1,8.2,0.1,12.3,0.4
		l0,0.9c5.1-0.9,10.4-0.3,15.5-0.3c3.7,0,7.5,0.2,11.2,0.3c5.6,0.3,11.2,0.8,16.8,0.7c4.1,0,8.2,0.2,12.3,0.3
		c5.9,0.3,11.8,0.8,17.7,0.7c3.8,0,7.5,0.2,11.3,0.3c5.9,0.3,11.8,0.8,17.7,0.7c3.4,0,6.9,0.2,10.3,0.2c5.9,0.3,11.8,0.8,17.6,0.7
		c3.8,0,7.5,0.2,11.3,0.3c5.9,0.3,11.8,0.8,17.7,0.7c3.8,0,7.5,0.2,11.3,0.3c5.9,0.3,11.8,0.8,17.7,0.7c3.4,0,6.9,0.2,10.3,0.2
		c5.9,0.3,11.8,0.8,17.7,0.7c26.9,0.8,53.8,0.8,80.7,0c4.2,0.1,8.3-0.3,12.5-0.6c3.1-0.2,6.3-0.4,9.4-0.6c4.7-0.3,9.5-0.3,14.2-1.2
		c-2.6-0.9-6.6,0.7-8.2-2.2c-6.3,1-12.7,0.9-19.1,1.6c-3.2,0.2-6.3,0.4-9.5,0.5c-5.9-0.1-11.8,0.5-17.7,0.7c-14.3,0.3-28.7,0.3-43,0
		c-6.9-0.2-13.8-0.7-20.6-0.7c-4.1,0-8.1-0.2-12.2-0.3c-5.6-0.3-11.2-0.8-16.8-0.7c-3.8,0-7.5-0.2-11.3-0.3
		c-5.6-0.2-11.1-0.8-16.7-0.7c-4.1,0-8.2-0.2-12.3-0.3c-5.9-0.3-11.8-0.8-17.7-0.7c-3.4,0-6.8-0.2-10.3-0.2
		c-6.2-0.3-12.5-0.8-18.7-0.8c-3.4,0-6.9-0.2-10.3-0.2c-5.9-0.3-11.8-0.8-17.7-0.7c-3.8,0-7.5-0.2-11.3-0.3
		c-5.9-0.3-11.8-0.8-17.7-0.7c-3.8,0-7.5-0.2-11.3-0.3c-6.3-0.3-12.6-0.8-18.9-0.8c-2.7,0.1-5.5-0.1-8.2-0.2c0-3.5,0.1-7.1,0.3-10.6
		c4.2-0.5,8.5-1.2,12.7-1c70,2.5,140.1,4.8,210.1,7.4c31.7,0.6,63.4,0.6,95-2.1c9.4-0.9,18.8-1.9,27.8-4.5
		C655.5,79.3,741.2,58.3,826.9,37.2 M546.1,116.3l0.1,0.9c2.2,0,4.4,0.1,6.5,0.3c0-0.5,0-1.5-0.1-2
		C550.5,115.9,548.3,116.2,546.1,116.3 M576.9,128c0,60.4-0.1,120.8-0.1,181.2l1-0.1c0-60.3,0.1-120.7,0.1-181L576.9,128 M438.1,144
		c0,58.3-0.1,116.7-0.1,175l1-0.1c0.1-59.7,0.1-119.3,0.1-179c0-1.4-0.1-2.8-0.4-4.2C437.6,138.4,438.2,141.3,438.1,144z"/>
	<path class="st0" d="M841.7,42.1c4,0.9,8.1,1.5,11.8,3.3c-2.1,1.8-5,1.9-7.5,2.7C756.8,70,667.7,91.8,578.5,113.7
		c-5.6,1.4-11.4,2.1-17.1,3c0.1-0.5,0.3-1.5,0.5-2c2.5,0.6,4.9-0.6,7.2-1c84.6-20.8,169.2-41.5,253.8-62.2c6.3-1.6,12.7-3,18.9-4.9
		C843.2,45.2,842.9,43.6,841.7,42.1z"/>
	<path class="st0" d="M482.4,52.7c0.3-0.2,0.8-0.5,1.1-0.7c2.6,0.2,5.3,0.3,8,0.5c-0.5,0.1-1.6,0.4-2.1,0.5
		C487,53,484.7,52.9,482.4,52.7z"/>
	<path class="st0" d="M18,95.4c48.1,1.7,96.2,3.2,144.3,5.1c-8.8,2.2-17.6,4.3-26.4,6.5c-1.5,0.3-3.5,1.2-3.2,3
		c0,30.6,0,61.1-0.1,91.7c-34.9-1.2-69.7-2.4-104.6-3.6c-3.4-0.1-6.8-0.1-10.1-0.6C17.9,163.5,18,129.4,18,95.4z"/>
	<path class="st0" d="M1872.5,105.6c8.5-1.9,17.9,0.6,24.2,6.7c5,5.3,8.7,12.2,8.2,19.6c0.2,7.1-3.5,13.7-8.2,18.7
		c-7.1,6.8-18,9.1-27.3,5.8c-11.4-3.9-19.3-16.4-17.5-28.4C1853.4,117.4,1861.8,107.8,1872.5,105.6 M1877.5,109.6
		c-8,1.8-15.4,7.3-17.9,15.4c-4.2,12.9,6,27.7,19.3,29c2.3,0.9,5.9,0.2,5.7-2.9c-1.4-3.5-4.4-6.2-5.7-9.9c-3.7-7.9-2.1-17.4,3-24.3
		c1.3-2,3.9-4.3,2.3-6.8C1882.6,107.7,1879.6,109.2,1877.5,109.6z"/>
	<path class="st0" d="M2112.5,107.7c3.4-1.7,8.3-1.1,10.4,2.4c2.6,4.1,2.5,9.2,2.6,13.9c-0.1,4.8,0.1,9.9-2.2,14.3
		c-2.4,5.1-10.9,5.3-13.6,0.3c-2.9-5.3-2.3-11.7-2.3-17.5C2107.6,116.3,2108,110.4,2112.5,107.7z"/>
	<path class="st0" d="M1866.8,124c1.5-3.3,4.2-5.8,7.4-7.5c-1.8,4.6-3.7,9.4-3.6,14.5c-0.2,5.4,1.6,10.6,3.6,15.5
		C1865.9,142.8,1862.6,131.9,1866.8,124z"/>
	<path class="st0" d="M1226.5,135.8c18-2.6,36.9,1.4,52.1,11.5c14.6,9.7,26,24.4,30.9,41.3c6,19.4,3.5,41-6.3,58.7
		c-7.8,13.5-19.5,24.8-33.7,31.3c-21.4,10.3-47.7,9.5-68.5-2c-17.1-9.4-30.6-25.7-36-44.5c-4.7-15.5-4.2-32.4,1.4-47.6
		C1175.6,158.9,1199.6,139.4,1226.5,135.8 M1228.5,158.8c-6.2,0.8-12.1,3.2-17.5,6.3c-19.6,10.7-30.1,35.2-24.9,56.9
		c2.5,11.6,9.3,21.9,18.3,29.4c7.8,5.7,16.8,10.2,26.6,10.9c11.2,1.4,22.9-0.7,32.6-6.6c7.7-4,13.7-10.6,18.4-17.7
		c11.6-18.2,10.2-43.8-3.8-60.4C1266.9,162.8,1246.9,155.6,1228.5,158.8z"/>
	<path class="st0" d="M1483.4,135.7c18.2-2.3,37.1,2.1,52.2,12.7c14.4,10.1,25.4,25.1,29.8,42.1c6.4,23,1.2,49.1-14.3,67.5
		c-10.7,13.4-26.2,22.8-43,26.3c-16.7,3.2-34.6,1.3-49.8-6.7c-18.8-9.5-33.3-27.3-38.6-47.7c-4.8-17.3-2.8-36.1,4.8-52.3
		C1435.6,155.1,1458.3,138.2,1483.4,135.7 M1483.6,142.6c-2.8-0.5-4.9-2.9-7.7-3.5c-2.3,1.8-3.6,4.4-5.2,6.8c-2.6-0.7-5-2.1-7.7-2
		c-2.9,1.4-2.9,5.1-4.5,7.6c-2.8-0.5-5.6-1.3-8.4-0.6c-1.2,2.6-1.6,5.4-2.1,8.1c-2.6,0.3-5.6-0.5-7.9,1c-1.9,2.4-0.7,5.7-1.2,8.5
		c-2.7,0.6-5.5,1.1-7.9,2.5c-0.3,2.9,0.6,5.8,0.9,8.7c-2.5,0.9-4.8,2-7.1,3.4c-0.2,3.1,1.4,5.8,2.4,8.6c-2.2,1.6-5.1,2.7-6.3,5.3
		c0.2,2.8,2.4,4.7,3.7,7c-0.8,2.7-4.4,3.9-4.9,6.9c0.8,2.8,3.4,4.4,5.2,6.4c-1.5,2.5-3.3,4.7-4.1,7.6c1.7,2.5,5.2,3.3,6.5,5.9
		c-1.1,2.5-2.5,5-2.2,7.8c2.3,1.4,4.8,2.6,7.3,3.5c-0.3,2.9-1.4,5.8-0.7,8.7c2.5,1.2,5.3,1.7,8,2.3c-0.1,2.8-0.3,5.7,0.7,8.5
		c2.6,0.8,5.3,0.7,8,0.9c1.6,2.3,0.9,5.6,2.6,8c2.9,0.4,5.8-0.2,8.7-0.6c1.2,2.5,1.4,5.9,4,7.4c2.8,0.2,5.3-2.1,8-1.8
		c1.6,2.2,2.7,4.8,5,6.4c2.7-1,5.2-2.5,7.6-3.9c2,1.8,3.5,4.7,6.4,5.3c2.8-0.8,4.4-3.5,6.8-5c2.1,1.8,4.4,3.4,7.1,4.3
		c2.1-1.7,3.5-4,5.2-6.1c2.7-0.1,5,2.4,7.9,2.3c2.7-1.4,3.1-5,4.8-7.3c2.6,0.7,5.3,1.3,8.1,1.4c1.7-2.4,2.2-5.3,3-8.1
		c2.3,1.1,5.1,2.6,7.3,0.4c-0.2-2.1-1-4.4-0.1-6.4c2.5-1.2,5.7-0.2,8-2c1.5-2.6-0.1-5.6,0.5-8.4c2.4-0.9,4.9-1.7,7.4-2.6
		c0.5-3.1-0.6-6-1.4-8.9c2.3-1.5,5.5-2.2,6.9-4.6c0-2.9-1.9-5.2-3-7.7c2-1.9,4.7-3.2,5.9-5.8c-0.3-3.1-3-5-4.4-7.5
		c1.8-2,4-3.8,4.8-6.5c-1-2.8-3.7-4.3-5.8-6.2c1.1-2.6,3.4-4.8,3.2-7.7c-1.4-2.5-4.5-3.3-6.7-4.9c0.6-2.8,3-5.9,1.3-8.7
		c-2.2-1.4-4.8-2-7.2-3.1c0.4-2.7,1-5.5,0.5-8.2c-2.6-1.5-5.9-1.1-8.4-2.5c-0.4-2.6,0.5-6-1.9-8c-2.5-1-5.2,0.1-7.8-0.5
		c-1.3-2.5-0.8-6.3-3.8-7.8c-2.7-0.3-5.4,1.7-7.9,0.8c-1.2-2.4-2.1-4.9-4.1-6.8c-2.8,0.7-5.4,1.8-8.1,3c-1.7-2.3-3.1-4.9-5.6-6.3
		c-2.6,1.1-4.9,2.8-7.2,4.4c-2.2-1.7-4-4.8-7.1-4.8C1486.8,138.7,1485.5,141,1483.6,142.6z"/>
	<path class="st0" d="M1738.6,135.9c18-2.5,36.8,1.3,52,11.4c15,9.9,26.7,25.2,31.3,42.7c5.4,18.5,3,39-5.9,56
		c-9.2,16.9-24.7,30.3-43.1,36.2c-18.8,6-40,4.7-57.6-4.4c-13.4-6.6-24.3-17.6-31.8-30.4c-9.9-17.9-12.4-39.8-6.2-59.3
		C1685.4,160.9,1710.3,139.4,1738.6,135.9 M1740,143c-2.4-1.3-4.6-3-7.2-3.6c-2.8,1.1-3.7,4.5-5.6,6.7c-2.3-0.8-4.6-1.9-7.1-2.2
		c-3.2,1.1-3.4,5.1-4.8,7.7c-2.7-0.5-5.4-1.1-8.2-0.7c-1.6,2.4-1.9,5.3-2.3,8.1c-2.9,0.3-5.8,0.2-8.5,1.1c-0.8,2.8-0.6,5.7-0.6,8.5
		c-2.6,0.9-5.6,0.8-7.7,2.6c-1.2,2.9,0.6,5.7,0.5,8.6c-2.4,0.9-4.8,2-7,3.3c-0.2,3.1,1.3,5.8,2.4,8.6c-2.3,1.6-4.7,3.1-6.5,5.3
		c0.7,2.8,2.5,5.1,4.2,7.3c-1.8,2.2-4.1,4.1-5.5,6.7c1.1,2.8,4.2,4.3,5.3,7c-1.2,2.3-3.5,4.2-3.5,7c1.4,2.5,4.1,3.6,6.3,5.2
		c-0.8,2.8-3.1,5.5-2.1,8.6c2,1.9,5.3,2,7,4.1c-0.5,2.6-1.3,5.2-0.9,7.9c2.5,1.3,5.3,1.8,8,2.3c0.2,2.9-0.3,6,1,8.8
		c2.6,0.5,5.3,0.5,8,0.8c1.3,2.4,0.8,5.7,2.8,8c2.8,0.2,5.5-0.2,8.2-0.8c1,2,1.7,4.1,2.7,6.1c2.3,3.3,6.4-0.2,9.3-0.8
		c1.6,2.3,2.9,4.9,5.1,6.7c2.7-0.8,5.1-2.4,7.6-3.7c2.3,1.5,3.5,4.3,6.2,5.2c2.9-0.5,4.7-3.3,6.9-5c2.2,1.7,4.6,3.3,7.2,4.3
		c2.6-1.5,3.6-4.6,6-6.3c2.5,0.7,4.8,2.7,7.6,2.4c2.5-1.7,2.8-5,4.7-7.2c2.6,0.8,5.3,1.6,8.1,1.2c1.4-2.4,2-5.1,2.5-7.8
		c2.2,0.6,4.6,2.4,6.9,0.9c0.9-2.2-0.2-4.9,0.4-7.2c2.8-0.4,5.7-0.5,8.4-1.7c0.6-2.9,0.1-5.8,0.2-8.6c2.6-0.7,5.1-1.5,7.5-2.7
		c0.3-3-0.7-5.8-1.6-8.5c2.4-1.3,4.8-2.7,7-4.3c0-3.1-2-5.6-3-8.5c2.2-1.6,4.4-3.3,6.1-5.5c-1-2.7-2.8-4.9-4.7-7.1
		c1.5-2.3,4.1-4,4.7-6.9c-0.6-3.1-4.5-4-5.4-6.8c1.3-2.4,2.8-4.6,3.3-7.3c-2.1-2-4.6-3.4-7.1-4.9c0.8-2.6,2.3-5.2,1.9-8
		c-2.1-2.1-5.2-2.4-7.7-3.8c0.5-2.7,1-5.3,0.6-8c-2.6-1.5-5.6-1.7-8.5-2.3c-0.3-2.7,0.4-6.1-1.8-8.2c-2.5-1-5.2-0.2-7.8-0.2
		c-0.9-2.7-1.3-5.6-2.9-8c-3-0.4-5.8,1.1-8.7,0.9c-1.6-2.3-1.9-6-4.9-6.8c-2.6,0.5-4.9,1.8-7.2,2.8c-1.7-2.2-3.3-4.5-5.3-6.3
		c-2.9,0.8-5.3,2.6-7.6,4.4c-2.2-1.7-3.9-4.5-6.8-4.9C1743.5,138.6,1742,141.2,1740,143z"/>
	<path class="st0" d="M1990,137c16.1-2.7,33.1-0.1,47.6,7.6c11.3,5.9,20.9,14.8,27.9,25.5l0.9-0.5c-0.4,0.7-0.7,1.4-1,2.2
		c-2.3-1.5-5-2-7.6-2.8c1.1-2.2,2.9-5.3,0.2-7.1c-2.2-0.1-4.5,0.8-6.5-0.2c-0.5-2.7-0.3-5.4-1.6-7.9c-2.8-0.7-5.7-0.4-8.5-0.1
		c-1.2-2.7-1-6.9-4.3-7.9c-2.5,0.2-4.7,1.2-7.2,1.5c-1.7-2.3-2.4-5.2-4.7-7.1c-2.8,0.9-5.3,2.1-8,3.2c-1.7-2.1-3-4.6-5.5-5.9
		c-2.9,0.4-4.7,2.9-7.1,4.3c-2.6-1.2-4.3-3.7-7.1-4.7c-2.5,1.5-4.2,3.9-6.3,5.9c-2.3-1.5-4.8-2.8-7.4-3.6c-2.2,1.9-3.5,4.6-5,7.1
		c-2.7-0.9-5.3-1.8-8.1-2c-2,2.2-2.8,5.1-3.7,7.9c-2.8-0.4-5.5-0.9-8.3-0.5c-1.5,2.5-1.7,5.4-1.9,8.2c-2.8,0.4-5.6,0.6-8.3,1.2
		c-1,2.8-0.6,5.9-0.5,8.8c-2.6,0.8-5.4,0.9-7.6,2.6c-1.1,2.8,0.5,5.8,1,8.5c-2.5,1.2-5,2.4-7.2,4c0.1,3.1,1.8,5.7,2.8,8.6
		c-2.2,1.6-5,2.8-6.1,5.4c0.1,3.1,3.6,4.8,3.9,7.7c-1.7,2-3.8,3.8-4.9,6.3c1.5,2.4,3.6,4.4,5.8,6.2c-1.4,2.6-3.1,4.9-3.8,7.8
		c2,2.1,4.6,3.5,6.9,5.2c-0.9,2.5-2.6,5-2.1,7.8c1.6,2.3,4.8,2.4,7,3.9c1,2.7-2,6.3,0.5,8.7c2.3,1.3,5,1.3,7.5,2.1
		c0.1,2.7-0.5,5.8,1.2,8.1c2.5,1.2,5.5,0.5,8.2,0.7c0.7,2.7,0.6,6.1,3,8c2.6,0.5,5.3-0.6,7.9-1c1.4,2.4,1.9,5.5,4.1,7.3
		c2.8,0.1,5.4-1.5,7.9-2.5c1.9,2.2,3.2,4.9,5.6,6.6c2.6-1.1,5-2.5,7.4-4.2c2.1,1.7,3.7,4.3,6.5,5.1c2.8-0.7,4.4-3.4,6.5-5.2
		c2.4,1.4,4.6,3.4,7.5,3.8c2.4-1.5,3.6-4.3,5.4-6.4c2.6,1.1,5.2,2.2,8,2.6c1.9-2.2,2.9-4.9,4-7.6c2.8,0.2,5.8,1.8,8.5,0.6
		c1.7-2.2,1.8-5.1,2.4-7.8c2.7-0.3,5.6,0.4,8.2-0.8c1.7-2.4,0.9-5.6,1.3-8.4c2.7-0.5,5.5-0.9,8-2.2c0.5-2.9-0.2-5.7-0.6-8.5
		c2.3-1,4.7-1.8,6.8-3.2c1.5-2.9-0.9-6-1.7-8.8c2.3-1.5,4.8-3,6.8-5.1c-0.7-2.9-2.5-5.3-3.9-7.8c1.9-1.9,4.5-3.5,5.4-6.2
		c-0.7-2.9-3.4-4.6-5-6.9c1.5-2.2,3.8-4.2,4.1-7.1c-1.3-2.6-4.2-3.8-6.2-5.7c1.3-2.6,2.6-5.2,2.9-8.1c-2.3-1.6-4.9-2.8-7.4-4
		c0.9-3,0.9-6.1,2.2-9c7.3,13.4,11.9,28.6,11,43.9c-1.1,16-6.8,31.9-17.4,44.1c-14,17.2-36.1,27.7-58.3,27
		c-17.6,0.4-35.1-6.4-48.4-17.9c-13.7-11.7-23-28.4-25.5-46.2c-3.1-20.6,2.9-42.6,16.3-58.6C1955.7,149.5,1972.2,139.8,1990,137z"/>
	<path class="st0" d="M1489.6,140.9c1.6,1.2,3.1,2.6,4.6,3.9c3.4,1.8,6.3-1.5,8.9-3.3c1.6,2.2,3,4.9,5.8,5.8
		c2.6-0.2,4.8-1.6,7.2-2.6c1.2,2.5,2,5.9,4.9,6.8c2.4,0.2,4.8-0.7,7.2-1.1c0.5,2.7,1.1,5.5,2.9,7.6c2.5,0.4,5.1,0.4,7.7,0.2
		c0.4,2.9-0.4,6.7,2.6,8.5c2.1,0.9,4.4,0.9,6.7,1.3c-0.3,2.8-1.7,6.1,0.4,8.5c1.9,1.5,4.3,1.9,6.6,2.7c-0.7,2.8-2.8,5.8-1.1,8.6
		c1.6,1.8,3.9,2.7,5.9,4c-1.2,2.3-3.3,4.4-3,7.2c0.6,2.7,3.5,3.9,5.2,5.9c-1.3,2.4-4.5,4-4.1,7.1c0.5,2.5,2.6,4.2,4.1,6.2
		c-1.8,1.6-4,2.8-5.2,4.8c-1.1,3.1,1.4,5.7,2.4,8.5c-2.1,1.1-4.5,1.8-6.1,3.6c-1.5,2.8,0.2,5.8,0.9,8.5c-2.3,0.8-4.7,1.2-6.8,2.5
		c-1.8,2.4-0.9,5.6-0.6,8.3c-1.3,0.3-2.5,0.5-3.7,0.8c3.9-16.5,8.5-32.8,12.5-49.2c-0.7-4.8-6.8-7.2-10.8-4.7
		c-2.9,2.1-5.2,5-7.8,7.4c-16.9-16.9-33.8-33.8-50.7-50.7c-2.7-3.2-8.1-3.3-10.9-0.1c-11.5,11.5-23,23-34.5,34.5
		c-2.8,2.7-3,7.4-0.2,10.1c16.9,17.2,34.2,34.1,51,51.4c-2.5,2.9-5.8,5.1-7.7,8.5c-2.1,4.1,1.1,9,5.3,10
		c16.1-4.5,32.3-8.6,48.4-13.1c0,1.2,0.1,2.3,0.2,3.5c-1.7-0.5-3.6-1.8-5.3-0.7c-2.3,1.9-2.4,5-3.2,7.7c-2.3-0.5-4.6-1.5-7-1.1
		c-2.9,1-3.7,4.4-4.8,6.9c-2.3-1-4.7-2-7.1-2.6c-2.5,1.3-4.3,3.4-5.5,6c-2.7-0.8-4.5-3.5-7.4-3.5c-2.7,0.6-4.3,3-6.3,4.6
		c-1.9-1.7-3.4-4.3-6.1-5c-2.9,0.1-5,2.2-7.5,3.2c-1.2-2.5-2.5-5.3-5.3-6.1c-2.5,0.2-4.8,1.3-7.1,2.1c-1-2.7-1.7-6.4-4.8-7.3
		c-2.4-0.1-4.7,0.5-7,0.7c-0.4-2.7-0.2-6.2-2.9-7.8c-2.3-0.8-4.8-0.5-7.1-0.7c0-2.7,0.7-5.7-1-8c-2.1-1.5-4.9-1.6-7.3-2.3
		c0.4-2.8,2-6,0.1-8.6c-1.8-1.6-4.2-2.2-6.3-3.2c0.8-2.5,2.7-5,2-7.8c-1.3-2.4-3.9-3.4-5.9-5c1.3-2.3,3.8-4.3,3.5-7.2
		c-0.7-2.6-3.2-4.1-4.9-6c1.7-1.9,4.2-3.4,4.8-6c0.2-2.8-2.2-4.9-3.6-7.1c1.9-1.6,4.4-2.6,5.7-4.8c0.9-2.9-1.1-5.5-2-8.1
		c2.1-1.1,4.7-1.7,6.4-3.5c1.6-2.6,0.1-5.7-0.4-8.4c2.3-0.6,4.6-1,6.8-2c2.3-2.2,1.3-5.7,1.5-8.5c2.2-0.1,4.4,0,6.6-0.5
		c3.1-1.6,2.8-5.5,3.6-8.4c2.7,0.3,5.8,1.8,8.2,0c1.9-1.7,2.3-4.3,3.3-6.5c2.9,0.7,6.4,3.4,9,0.8c1.6-1.3,2.3-3.3,3.3-5.1
		c2.3,1,4.3,2.7,6.8,3.2C1486.1,145.7,1487.7,142.9,1489.6,140.9z"/>
	<path class="st0" d="M1991.9,145.9c2.7-0.8,4.2-3.5,6.1-5.3c1.9,1.6,3.6,3.8,6.2,4.3c2.9-0.1,4.8-2.7,7.3-3.9
		c1.5,2,2.7,4.8,5.4,5.5c2.7,0,5-1.7,7.3-2.8c1.4,2.6,2.3,6.2,5.6,6.8c2.3-0.1,4.5-1,6.8-1.4c0.6,2.3,0.8,4.9,2.6,6.7
		c2.5,1.7,5.6,0.7,8.4,0.7c0.1,1.2,0.2,2.4,0.3,3.7c-16.3-4.1-32.6-8.5-49-12.5c-4.6,0.7-7.5,6.4-4.9,10.4c2.1,3.1,5.1,5.4,7.6,8.2
		c-16.9,17.2-34.2,34.1-51.2,51.3c-2.8,2.7-2.6,7.3,0.2,10c11.2,11.4,22.7,22.7,34,34c1.6,1.8,3.9,3.1,6.4,2.8
		c3.2,0,5.3-2.8,7.4-4.8c16.1-16.1,32.2-32.2,48.4-48.2c2.8,2.5,5,5.7,8.3,7.6c4.4,2.4,11.4-1.8,9.7-7c-4.2-15.5-8.3-31.1-12.6-46.6
		c1.1,0,2.3-0.1,3.6-0.1c-1,1.9-2,4.5,0,6.2c2.1,1.2,4.6,1.6,6.9,2.4c-0.6,2.6-2,5.4-0.7,8.1c1.8,1.9,4.4,2.6,6.6,3.9
		c-1.1,2.5-3.3,5.1-2.2,7.9c1.2,2.2,3.7,3.3,5.6,4.8c-1.3,2.1-3.4,3.9-3.7,6.5c0.1,3,3,4.7,4.7,6.9c-1.8,1.9-4.5,3.3-5,6.1
		c0,2.8,2.1,4.8,3.4,7.1c-2,1.4-4.4,2.3-5.8,4.3c-1.3,2.9,0.8,5.7,1.7,8.4c-2.3,1.1-5.1,1.5-6.8,3.5c-1.2,2.6-0.1,5.4,0.3,8
		c-2.2,0.6-4.5,0.8-6.5,1.7c-2.8,2-1.9,5.8-2.2,8.8c-2.3,0-4.6-0.4-6.8,0.3c-2.8,1.7-2.8,5.2-3.3,8c-2.3-0.3-4.6-1-6.9-0.9
		c-3.2,0.9-3.8,4.6-4.9,7.2c-2.8-0.8-6.2-3.6-8.9-1.3c-1.8,1.3-2.7,3.4-4,5.2c-2.2-1.4-4.3-3.4-7-3.5c-2.7,0.6-4.2,3.1-6.2,4.9
		c-1.9-1.6-3.4-3.9-5.8-4.7c-3-0.1-5.2,2.2-7.7,3.5c-1.3-2.3-2.6-4.9-5.2-5.9c-2.7-0.1-5,1.4-7.3,2.3c-1.1-2.3-1.6-5.1-3.9-6.6
		c-2.6-1.2-5.4,0.3-8.1,0.5c-0.7-2.7-0.6-6.4-3.5-7.8c-2.3-0.7-4.7-0.3-7.1-0.4c-0.1-2.7,0.6-5.9-1.4-8c-2.1-1.5-4.8-1.4-7.2-2.1
		c0.4-2.6,1.5-5.4,0.3-7.9c-1.8-2-4.6-2.5-6.9-3.5c0.8-2.7,3-5.5,1.5-8.4c-1.5-2-3.9-2.9-5.8-4.3c1.2-2.3,3.5-4.3,3.3-7.1
		c-0.6-2.7-3.3-4-4.9-5.9c1.3-2.4,4.5-3.9,4.4-7c-0.4-2.5-2.4-4.3-3.8-6.3c1.8-1.6,4.1-2.7,5.4-4.8c1.1-2.9-1.1-5.6-2.2-8.2
		c2.1-1.2,4.6-1.9,6.4-3.7c1.4-2.7-0.1-5.7-0.7-8.4c2.3-0.8,4.8-1.1,6.9-2.4c2-2.4,1-5.7,0.9-8.4c2.2-0.2,4.6-0.1,6.8-0.8
		c2.8-1.7,2.5-5.5,3-8.3c2.5,0.2,5.3,1.2,7.8,0.2c2.3-1.8,2.5-4.8,3.8-7.3c2.6,0.7,5.6,3,8.2,1.1c2-1.2,2.8-3.6,3.8-5.7
		C1987,143.8,1989.1,145.9,1991.9,145.9z"/>
	<path class="st0" d="M1740,146.3c2.5-1,4.2-3.1,6.1-5c2.6,0.5,3.8,4.3,6.8,4.2c2.7-0.3,4.6-2.3,6.7-3.8c1.8,2.2,3.2,5.3,6.3,5.8
		c2.4-0.4,4.6-1.6,6.9-2.6c1.1,2.6,2,6.2,5.3,6.9c2.3-0.2,4.6-0.8,6.9-1.2c0.5,2.6,0.7,5.7,3,7.4c2.4,0.9,5,0.4,7.6,0.4
		c0.2,2.9-0.4,6.8,2.6,8.5c2.1,0.7,4.3,0.9,6.5,1.4c-0.4,2.8-1.7,6.2,0.6,8.6c2,1.2,4.3,1.8,6.5,2.8c-0.9,2.5-2.7,5.3-1.4,8
		c1.5,2,4,2.9,6.1,4.3c-1.2,2.5-3.8,5-2.8,8c1.2,2.2,3.3,3.5,5.1,5.1c-1.6,2.2-4.4,4-4.3,6.9c0.4,2.5,2.6,4.3,4.1,6.2
		c-1.8,1.9-4.6,3.1-5.5,5.7c-0.4,2.8,1.6,5,2.7,7.3c-2,1.3-4.3,2.1-6,3.7c-1.8,2.8,0.2,6,0.6,8.9c-2.3,0.7-4.9,1-6.8,2.6
		c-1.6,2.5-0.7,5.5-0.5,8.2c-0.9,0.1-2.7,0.4-3.6,0.5c4-16.5,8.4-32.9,12.6-49.3c-1.1-3.1-3.7-5.7-7.1-5.6c-5.3,0.1-8,5.5-11.7,8.5
		c-17-17-34-34-51-51c-2.7-2.9-7.6-2.8-10.3,0c-10.2,10.1-20.4,20.4-30.6,30.5c-2.2,2.4-5.2,4.4-6.2,7.7c-0.8,2.7,0.6,5.4,2.5,7.3
		c16.8,16.9,33.6,33.7,50.4,50.6c-2.5,2.8-5.7,5.1-7.7,8.4c-2.7,4.6,2.4,11.8,7.6,9.5c15.3-4.2,30.6-8.2,45.9-12.4
		c0,1.1,0.1,2.3,0.1,3.4c-1.6-0.4-3.4-1.7-5-0.8c-2.5,1.6-2.7,4.9-3.1,7.5c-2.4-0.2-4.6-1.1-7-1c-3.3,0.9-3.9,4.6-5.4,7.1
		c-2.1-1-4.2-2.2-6.5-2.5c-3.1,0.6-4.6,3.6-6.2,6c-2.2-1.4-4.1-3.5-6.8-3.7c-2.8,0.4-4.5,3-6.6,4.6c-1.8-2.1-3.6-4.3-6.3-5.2
		c-2.5,0.9-4.8,2.2-7,3.6c-1.3-2.3-2.5-5.1-5.2-6.1c-2.6-0.2-5,1.2-7.3,2c-1.1-2.4-1.5-5.4-3.9-6.9c-2.6-1.1-5.3,0.2-7.9,0.4
		c-0.5-2.7-0.3-6.1-2.8-7.8c-2.3-1-4.9-0.5-7.3-0.8c0-2.7,0.7-5.6-0.9-8c-2.1-1.5-4.8-1.7-7.3-2.2c0.1-2.8,1.9-6,0.1-8.6
		c-1.9-1.6-4.3-2.3-6.5-3.5c1-2.5,2.9-5,2-7.8c-1.4-2.2-3.9-3.3-5.9-4.9c1.3-2.2,3.7-4.2,3.5-7.1c-0.7-2.6-3.2-4.2-4.9-6.1
		c1.7-1.9,4.2-3.4,4.8-6c0.1-2.9-2.4-5-3.5-7.4c1.9-1.4,4.4-2.3,5.6-4.5c1-2.9-1-5.5-2-8.1c2.1-1,4.3-1.7,6.2-3.2
		c2-2.6,0.3-5.9-0.1-8.7c2.4-0.6,4.8-1.2,7.2-2c1.3-2.7,1.1-5.7,1.2-8.6c2.2-0.1,4.5,0.3,6.7-0.5c2.8-1.7,2.6-5.3,3.1-8.2
		c2.6,0.2,5.4,1.5,7.9,0.3c2.2-1.6,2.7-4.6,3.8-6.9c2,0.8,4.1,1.6,6.3,2c3.3-0.4,4.7-3.9,6.2-6.4
		C1735.3,144.1,1737.6,145.4,1740,146.3z"/>
	<path class="st0" d="M1997.1,156.8c-2-2.1-0.2-6.8,3-5.8c15.3,3.7,30.6,7.9,45.9,11.8c2.1,0.2,3.1,2.3,3.5,4.1
		c4.2,15.7,8.4,31.4,12.6,47.1c-1.4,1.7-3.8,3.2-5.9,1.8c-3.5-2.7-6.1-6.3-9.5-9c-15.5,15.7-31.3,31.2-46.9,46.9
		c-2.9,2.5-5.1,6.2-8.8,7.5c-3.2-0.2-5-3.1-7.1-5c-9.5-9.5-19-19-28.5-28.5c-1.7-1.8-4.5-3.8-3.4-6.6c1.3-2.6,3.8-4.3,5.8-6.4
		c16.2-16.2,32.4-32.3,48.5-48.6C2003.2,163,1999.9,160.1,1997.1,156.8 M1968.3,224c7,7,14.1,14,21,21.1
		c15.8-15.6,31.4-31.4,47.1-47c-7.1-7-14-14.1-21.2-21C1999.7,192.7,1984,208.3,1968.3,224z"/>
	<path class="st0" d="M1473.7,163.8c2.1-1.9,4-5,7.2-4.9c3.2,1.2,5.2,4.3,7.7,6.5c16,16,31.9,32,48,47.9c2.9-2.9,5.7-5.9,8.7-8.7
		c2-2,5.4-1,6.7,1.4c-4.2,15.9-8.3,31.9-12.4,47.9c-0.5,1.9-2.7,2.3-4.3,2.8c-15.1,4-30.2,8.1-45.3,12.1c-3,0.9-5-3.6-3.1-5.7
		c2.8-3.2,6-6.1,9-9.1c-16.1-16.2-32.2-32.3-48.4-48.5c-2-2.1-4.4-3.9-5.8-6.4c-1-2.3,1-4.3,2.5-5.7
		C1454.1,183.4,1463.9,173.6,1473.7,163.8 M1458.8,197.2c15.6,15.8,31.3,31.4,47,47.1c7-7.1,14-14,21-21.1
		c-15.7-15.6-31.3-31.3-47-47C1472.8,183.2,1465.9,190.3,1458.8,197.2z"/>
	<path class="st0" d="M1729.1,165.1c2.4-2.4,4.6-5.2,7.9-6.5c1.6,0.8,3.2,1.6,4.4,2.9c17.2,17.3,34.5,34.5,51.7,51.8
		c3.1-2.9,6-6.2,9.2-9c2-1.7,6.5-0.6,6,2.6c-3.8,15.6-8,31.2-11.9,46.8c-0.5,2.1-2.8,2.6-4.6,3.1c-14.9,3.9-29.8,8-44.7,12
		c-3,1.3-5.4-3.1-3.7-5.3c2.7-3.4,6.2-6.2,9.1-9.4c-17.6-17.6-35.1-35.2-52.7-52.9c-2-1.6-2.4-4.8-0.3-6.5
		C1709.4,184.7,1719.3,174.9,1729.1,165.1 M1715.5,197.3c15.5,15.8,31.3,31.3,46.9,47.1c7.1-7,14.1-14,21.1-21.1
		c-15.7-15.6-31.3-31.2-46.9-46.9C1729.4,183.2,1722.6,190.4,1715.5,197.3z"/>
	<path class="st0" d="M1463.4,197.3c5.5-5.5,11-11.1,16.5-16.5c13.6,13.6,27.1,27.1,40.7,40.7c0.7,0.7,2.2,1.9,0.7,2.8
		c-5.1,5.2-10.3,10.3-15.5,15.5C1491.7,225.6,1477.4,211.6,1463.4,197.3z"/>
	<path class="st0" d="M1720,197.4c5.6-5.5,11-11.1,16.6-16.5c14.1,14.2,28.2,28.3,42.4,42.4c-5.5,5.6-11,11.1-16.6,16.6
		C1748.3,225.6,1734.1,211.5,1720,197.4z"/>
	<path class="st0" d="M1972.9,224c14-14.1,28.2-28.2,42.2-42.3c6,5,11.2,11,16.8,16.4c-14.1,14.1-28.2,28.2-42.3,42.3
		C1983.7,235.3,1978.5,229.4,1972.9,224z"/>
	<path class="st0" d="M18.5,198.8c38,1.4,76.1,2.6,114.1,4c0,0.8,0,2.3,0,3.1c-38.1-1.2-76.1-2.6-114.1-3.9
		C18.5,201.3,18.5,199.6,18.5,198.8z"/>
	<path class="st0" d="M585,328.1c84.4-20.6,168.7-41.4,253-62c-0.1,1.6-0.2,3.2-0.4,4.9c-1.1,1.5-3.2,1.7-4.8,2.3
		c-89.8,22-179.6,44-269.4,66c-8.3,2-16.9,2.8-25.4,3.5c-46.6,3.7-93.4,1.7-140,0c-57.7-2-115.5-4.1-173.2-6
		c-0.4-2.8-0.6-5.7-0.8-8.5c69.3,2.4,138.5,4.8,207.8,7.2c31,1.2,62.1,1.2,93.1-0.2C545.1,334.2,565.5,333.5,585,328.1z"/>
	<path class="st0" d="M1916.1,329.1c3.1-0.9,7.1,0,8.8,2.9c2.6,4.1,2.5,9.2,2.6,13.9c-0.1,4.8,0.1,9.9-2.3,14.3
		c-2.4,5.1-10.9,5.2-13.6,0.2c-2.2-3.8-2.3-8.3-2.4-12.5c0-4-0.1-8,0.9-11.9C1911,333.1,1912.7,329.8,1916.1,329.1z"/>
	<path class="st0" d="M2123.4,329.5c3.3-1.4,7.8-0.8,9.9,2.4c2.8,4.1,2.6,9.3,2.8,14.1c-0.1,4.9,0.1,10.2-2.4,14.6
		c-2.5,4.7-10.4,4.9-13.2,0.3c-2.9-4.8-2.5-10.6-2.6-15.9C2118,339.6,2117.9,332.4,2123.4,329.5z"/>
	<path class="st0" d="M1800.2,384.1c7.9,3.7,15.2,9.7,18.9,17.8c4.2,8.4,3.8,18.6-0.4,26.9c-3.7,8-10.4,14.3-18.2,18.3
		c7.1-15.6,9-33.6,4.3-50.1C1803.7,392.6,1802,388.3,1800.2,384.1z"/>
	<path class="st0" d="M1706.1,399.2c5.8-1.6,12.4-0.2,16.8,4c3.3,3.4,5.6,8,5.3,12.8c-0.1,9.2-8.7,17.5-18.1,16.6
		c-9.4-0.1-17.2-9.3-16.2-18.6C1694.5,407.3,1699.5,401.1,1706.1,399.2z"/>
</g>
<g id="_x23_000000ff">
	<path d="M526.9,23.8c10.5-3.2,20.7-7.2,31.1-10.4c75.7,2.8,151.3,5.2,227,8c15,0.7,30,1.5,44.8,3.8c4,0.8,8.1,1.3,11.7,3.3
		c3.3,1.9,1.4,6.2,2.4,9.3c4.2,0.8,8.8,1.4,12.4,4c1.7,1.2,1.5,3.5,1.5,5.3c-0.1,70.7-0.1,141.3-0.2,212c0.1,2.1-1.5,3.8-3.3,4.5
		c-3.7,1.6-7.7,2.3-11.5,3.3c-0.3,2.4,0.1,4.9-0.8,7.1c-1.5,2.5-4.7,3-7.3,3.8c-87.8,21.5-175.5,43-263.2,64.5
		c-20,5.5-40.9,5.9-61.5,6.9c-20,0.8-39.9,0.6-59.9,0.3c-5.8,22.2-19.9,42.5-40,53.9c-4.8,3.4-10.8,1-16.1,2.1
		c15-5.4,28.4-15.1,37.7-28c6.3-8.4,10.5-18.2,13.6-28.3c-73.8-2.5-147.5-5.2-221.3-7.6c-5.7,3.2-9.8,8.8-13.4,14.2
		c-5.8,8.8-8,19.2-10.9,29.2c-3.1,10.8-5.9,21.7-9.3,32.4c-6,19-18.8,36-36,46.3c-0.6,0.1-1.8,0.4-2.4,0.6
		c8.6-5.6,16.8-12,23.1-20.2c7.1-8.9,12.1-19.2,15.3-30c3.8-13.2,7.5-26.4,11.2-39.6c3.2-12.6,9.9-24.8,20.2-32.9
		c-3.4-2.6-1.5-7.7-2.3-11.4c-27.8-1.2-55.6-2-83.4-3c-1.8,0.2-3.9-1-3.5-3.1c0-39,0-77.9,0.1-116.9c-38.2-1.4-76.4-2.8-114.7-3.9
		c-0.1,88.6-0.2,177.1-0.1,265.7c24.7,0.9,49.4,1.7,74.2,2.6c13.3,0.3,26.9,1.8,40-1.5c6.2-1.6,12.6-2.7,18.5-5.1
		c0.8,0.8,1.4,0.8,1.2-0.5c1.5,0.1,2.9,0,4.4-0.3c58.2-14.3,116.5-28.6,174.8-42.9c4.4-1,8.7-2.5,13.2-2.6
		c6.4-0.2,12.8,0.2,19.1-0.2c-70.4,17.1-140.8,34.5-211.1,51.7c-13.2,3.1-26.3,7.4-40,6.9c-31.7-1-63.4-2.2-95.1-3.2
		c-1.6,0.1-4.2-0.5-3.9-2.7c0-87.7,0.1-175.4,0.1-263.1c0-2.6-0.1-5.2,0.4-7.7c-0.6-3.4-0.2-6.8-0.3-10.3
		c-0.1-32.8,0.2-65.6-0.1-98.3c0.6-0.4,1.3-0.8,2-1.2C100,69.8,185,48.8,270,28c1.3-0.3,2.6-0.4,4-0.3c52,1.9,104,3.6,156,5.4
		c2.7,0,5.4,0.5,8.1-0.2c14.4-3.5,28.7-7.1,43-10.5C496.4,22.5,511.6,23.6,526.9,23.8 M527.2,29.2c-24.1,8-48,16.8-72.3,24.5
		c5.6-0.1,11.3-0.8,16.9-1.5c-0.8,0.7-1.2,1.5-1.3,2.6c-9.5,0.6-19.3-0.2-28.3,3.4c-30.8,7.6-61.7,15.1-92.5,22.7
		c-0.5,0.2-1.6,0.7-2.1,0.9c1,0.1,3.1,0.3,4.1,0.5c-0.8,1.3-3.6,0.6-5,1.4c2,0.1,4.6-0.8,5.1,1.9c-3.6-0.6-7.1-1.8-10.7-2.4
		c-28.6,4.7-57.4,8.5-86,12.8c-5.2,0.9-10.6,1.2-15.8,2.6c64.7,2,129.4,4.4,194.1,6.6c0.8-0.6,1.7-1.1,2.6-1.3c9.8,2.3,20,2,30,2.1
		c31.2,0.1,62.5,0,93.4-4.5c-2.7-0.8-5.6-0.8-8.4-1.1c-63.4-5.4-126.7-10.9-190.1-16.3c-2.2-0.2-4.4-0.5-6.7-0.3
		c-0.2-0.4-0.6-1.1-0.8-1.4c66.2,5.7,132.4,11.4,198.6,17.1c4.9,0.3,10,1.4,14.9,0.3c85.8-21.1,171.6-42.1,257.5-63.1l0.8-1
		c-108,5.7-216.1,11.6-324.1,17.3c-1.7,0.1-3.5,0.1-5,0.7c-0.2-0.3-0.5-1-0.7-1.4c112.2-6.2,224.4-12,336.6-18.1
		c2.2-0.2,4.5-0.5,6.7-1c-1.2-2.2-4.2-2.1-6.4-2.7c-19.2-3.4-38.8-3.9-58.2-4.7c-10-0.6-19.9,0.9-29.9,1.7
		c-80.5,7.6-160.9,15.3-241.4,22.9c-3.4,0.2-6.8,0.9-10.2,0.5c0.7,0.7,2,0.8,2.2,1.8c-1.4,1.4-3.6,0.5-5.3,1l-0.1-0.8
		c0.5-0.1,1.6-0.4,2.1-0.5c-2.7-0.2-5.3-0.3-8-0.5l0.6-0.7c78.9-7.6,157.9-15,236.9-22.6c11.2-0.9,22.3-2.5,33.6-2.8
		c-3.1-0.9-6.3-1-9.5-1.1c-61.7-2.1-123.4-4.3-185-6.4C548.9,21.3,538.2,25.9,527.2,29.2 M438.1,37.9c-2.7,0.6-5.4,0.2-8.1,0.1
		c-52-1.8-104-3.6-156.1-5.4c-1.3,0-2.7,0.1-3.9,0.4C191.3,52.3,112.7,71.7,34,90.8c1.3,0.2,2.7,0.3,4,0.4
		c45.6,1.5,91.3,3.2,136.9,4.7c2.4,0.3,5.7-0.7,7.5,1.5c1.3,1.7-0.6,3.4-2.2,3.7c-9.8,2.6-19.7,4.7-29.5,7.4
		c8.1,0.1,16.3,0.7,24.4,0.7l-0.7,1.3c-4.8,0.1-9.6,0.1-14.4,0.6c-6.3-0.1-12.6-0.9-18.9-0.2c-1.2,0.3-3.7,0.2-3.4,2.1
		c-0.1,69.7,0,139.4-0.2,209.2c1.2,0.2,2.3,0.3,3.5,0.4c26.7,0.9,53.4,1.8,80.2,2.8c1.5-0.1,2.4,1.1,3.3,1.9
		c58.2,2.1,116.3,4,174.5,6.1c50.6,2,101.4,3.5,152-0.7c9.7-0.9,19.4-1.9,28.9-4.3c85.9-21.1,171.9-42.1,257.8-63.3
		c0.7-1,1.3-2.3,2.7-2.5c4.2-1.2,8.5-1.8,12.5-3.6c0.1-70.5,0.1-141.1,0.2-211.6c-1.2,0.4-2.4,0.7-3.5,1.1
		c-90.1,22.1-180.2,44.2-270.3,66.3c-8.2,2-16.5,2.9-24.9,3.8c0-0.5,0-1.5,0-2.1c1.9-0.3,5.5,2.3,6.5-0.2c-2.3-0.5-4.8,0-7.1-0.7
		c5.4-0.8,10.8-1.8,16.2-3.1c49.4-12.1,98.8-24.2,148.1-36.3c40.8-10.1,81.7-19.9,122.5-30.2c0.1-1.2,0.1-2.5,0.1-3.7
		c-2.9-1.8-1.6-5.4-1.9-8.1c-3.7,1.8-7.9,2-11.8,3.1c-85.7,21-171.4,42-257.1,63c-9.1,2.6-18.5,3.6-27.8,4.5
		c-31.6,2.7-63.3,2.7-95,2.1c-70-2.6-140.1-4.9-210.1-7.4c-4.3-0.2-8.5,0.4-12.7,1c-0.2,3.5-0.2,7-0.3,10.6c2.7,0.1,5.5,0.2,8.2,0.2
		l-0.7,1.3c-3.8,0-7.5,0.3-11.3,0.8c-4.1-0.2-8.2-0.5-12.3-0.4l0.7-1.3c3.5-0.2,7.1,0.2,10.5-0.6c0-4.6-0.1-9.1,0.3-13.7
		c1.9-1.8,4.6-1.5,7-2c35.9-5.2,71.9-10.5,107.8-15.7c3.2-0.5,6.2-1.3,9.4-2.1c31.1-7.6,62.3-15.3,93.4-22.9
		c6.8-1.5,13.3-4.2,20-6.4c19.4-6.5,38.7-13.5,58.2-19.8c-11-0.3-22.1-0.9-33.1-1C467.4,30.5,452.8,34.4,438.1,37.9 M841.7,42.1
		c1.3,1.5,1.6,3.1,0.2,4.5c-6.2,1.9-12.6,3.3-18.9,4.9c-84.6,20.7-169.2,41.5-253.8,62.2c-2.4,0.5-4.8,1.6-7.2,1
		c-0.1,0.5-0.3,1.5-0.5,2c5.7-0.9,11.5-1.6,17.1-3C667.7,91.8,756.8,70,845.9,48.1c2.5-0.8,5.4-0.9,7.5-2.7
		C849.7,43.6,845.6,43,841.7,42.1 M18,95.4c0,34-0.1,68.1,0,102.1c3.4,0.5,6.7,0.5,10.1,0.6c34.9,1.2,69.7,2.4,104.6,3.6
		c0-30.6,0-61.2,0.1-91.7c-0.3-1.9,1.7-2.8,3.2-3c8.8-2.2,17.6-4.3,26.4-6.5C114.2,98.6,66.1,97.1,18,95.4 M18.5,198.8
		c0,0.8,0,2.5,0,3.3c38,1.2,76.1,2.7,114.1,3.9c0-0.8,0-2.3,0-3.1C94.7,201.4,56.6,200.2,18.5,198.8 M585,328.1
		c-19.5,5.3-39.9,6.1-60,7.2c-31,1.4-62.1,1.3-93.1,0.2c-69.3-2.4-138.5-4.8-207.8-7.2c0.1,2.9,0.3,5.7,0.8,8.5
		c57.7,1.9,115.5,4,173.2,6c46.6,1.7,93.4,3.7,140,0c8.5-0.8,17-1.5,25.4-3.5c89.8-22,179.6-44,269.4-66c1.6-0.6,3.7-0.7,4.8-2.3
		c0.2-1.6,0.3-3.2,0.4-4.9C753.7,286.7,669.4,307.5,585,328.1z"/>
	<path d="M1121.2,16.4c395.8,0,791.5,0,1187.3,0c0,153.7,0,307.3,0,461c-395.8,0-791.5,0-1187.3,0
		C1121.2,323.7,1121.2,170.1,1121.2,16.4 M1125.6,20.8c0,150.7,0,301.5,0,452.2c392.8,0,785.7,0,1178.5,0c0-150.7,0-301.5,0-452.2
		C1911.3,20.8,1518.4,20.8,1125.6,20.8z"/>
	<path d="M351.4,86c0.6-0.4,1.2-0.9,1.9-1.3c26.7,6.4,53.5,12.4,80.2,18.5c0.1,0.2,0.3,0.5,0.4,0.7c-0.4,0.1-1,0.2-1.4,0.3
		c-23-5.4-46-10.6-69-15.9C359.5,87.4,355.5,86.1,351.4,86z"/>
	<path d="M1870.4,101.6c6.9-1.7,14.6-1.2,21,2c13.6,6.2,21.4,23,16.4,37.2c-2.8,7.2-7.5,14-14.4,17.6c-8.8,5.1-20.4,5.3-29.4,0.5
		c-7.9-3.8-13.4-11.6-15.9-19.9C1843.8,123.2,1854.6,105.4,1870.4,101.6 M1872.5,105.6c-10.7,2.2-19.1,11.7-20.6,22.4
		c-1.8,12,6.1,24.5,17.5,28.4c9.2,3.3,20.2,1.1,27.3-5.8c4.7-5,8.4-11.6,8.2-18.7c0.5-7.4-3.2-14.4-8.2-19.6
		C1890.4,106.2,1881,103.8,1872.5,105.6z"/>
	<path d="M2110.2,103.2c4.5-1.4,9.6-1.5,13.9,0.7c4.1,2.6,6.1,7.5,6.5,12.2c0.7,6.9,0.8,14-0.7,20.8c-1.3,4.2-4.2,8.6-8.9,9.3
		c-5.5,1.2-12.6,0.7-15.8-4.6c-4.2-6.3-3.4-14.3-3.4-21.5C2102,113.8,2103.7,105.9,2110.2,103.2 M2112.5,107.7
		c-4.4,2.7-4.9,8.6-5.1,13.3c0,5.9-0.6,12.2,2.3,17.5c2.6,5,11.1,4.9,13.6-0.3c2.4-4.3,2.1-9.5,2.2-14.3c-0.1-4.7,0-9.8-2.6-13.9
		C2120.8,106.6,2115.9,106,2112.5,107.7z"/>
	<path d="M1877.5,109.6c2.1-0.4,5.1-1.9,6.6,0.5c1.7,2.5-1,4.8-2.3,6.8c-5.1,6.9-6.7,16.4-3,24.3c1.3,3.6,4.3,6.4,5.7,9.9
		c0.2,3.1-3.4,3.7-5.7,2.9c-13.3-1.4-23.5-16.2-19.3-29C1862.1,116.9,1869.4,111.3,1877.5,109.6 M1866.8,124
		c-4.1,7.9-0.8,18.8,7.4,22.5c-2-4.9-3.8-10.1-3.6-15.5c-0.1-5.1,1.8-9.9,3.6-14.5C1871,118.1,1868.2,120.7,1866.8,124z"/>
	<path d="M179.8,110.7c4.7-0.4,9.4-0.4,14.2-0.8c3.5,0.1,6.9,0.3,10.4,0.3l-1.2,1c-4.7,0.4-9.5,0.3-14.2,0.8
		c-3.4-0.1-6.8-0.3-10.3-0.2L179.8,110.7z"/>
	<path d="M236.8,112.7c4.7-0.4,9.5-0.3,14.2-0.8c3.8,0.1,7.5,0.3,11.3,0.3l-1.2,1c-4.7,0.4-9.5,0.3-14.2,0.8
		c-3.8-0.1-7.5-0.3-11.2-0.3L236.8,112.7z"/>
	<path d="M264.9,113.7c5.1-0.4,10.1-0.3,15.2-0.8c3.8,0.1,7.5,0.3,11.3,0.3l-1.2,1c-4.7,0.4-9.5,0.3-14.1,0.8
		c-4.1-0.1-8.2-0.3-12.3-0.3L264.9,113.7z"/>
	<path d="M294.8,114.7c4.7-0.4,9.5-0.3,14.2-0.8c3.4,0.1,6.8,0.2,10.3,0.2l-1.1,1.1c-4.4,0.4-8.8,0.3-13.2,0.8
		c-3.8-0.1-7.5-0.3-11.3-0.3L294.8,114.7z"/>
	<path d="M323.8,115.7c4.7-0.4,9.5-0.4,14.2-0.8c3.4,0.1,6.8,0.3,10.3,0.2l-1.1,1.1c-4.7,0.4-9.5,0.3-14.2,0.8
		c-3.4-0.1-6.9-0.3-10.3-0.2L323.8,115.7z"/>
	<path d="M546.1,116.3c2.2-0.2,4.4-0.4,6.6-0.8c0,0.5,0,1.5,0.1,2c-2.2-0.2-4.4-0.3-6.5-0.3L546.1,116.3z"/>
	<path d="M351.9,116.7c4.7-0.4,9.5-0.3,14.2-0.8c4.1,0.1,8.2,0.3,12.3,0.3l-1.2,1c-5.1,0.4-10.1,0.3-15.2,0.8
		c-3.8-0.1-7.5-0.3-11.3-0.3L351.9,116.7z"/>
	<path d="M380.8,117.7c4.7-0.4,9.5-0.3,14.2-0.8c3.8,0.1,7.5,0.3,11.3,0.3l-1.1,1c-4.8,0.4-9.5,0.3-14.3,0.8
		c-3.8-0.1-7.5-0.3-11.3-0.3L380.8,117.7z"/>
	<path d="M409.8,118.7c4.4-0.4,8.9-0.3,13.3-0.8c4.1,0.1,8.1,0.3,12.2,0.3l-1.2,1c-5.1,0.4-10.1,0.3-15.2,0.8
		c-3.4-0.1-6.9-0.3-10.3-0.2L409.8,118.7z"/>
	<path d="M516.7,118.3c3.2-0.1,6.3-0.2,9.5-0.5l1.1,0.3l1.1,1.4c-3.5-0.1-7,0-10.4-0.4L516.7,118.3z"/>
	<path d="M1923.3,117.9c4.5,4.3,8.8,8.8,13.2,13.2c-4.3,4.3-8.6,8.6-12.9,12.9c-4.4-4.4-8.8-8.8-13.2-13.2
		C1914.8,126.4,1919.1,122.2,1923.3,117.9z"/>
	<path d="M437.8,119.7c6-0.4,12.1-0.3,18.2-0.8c14.3,0.3,28.7,0.3,43,0c5.7,0.5,11.4,0.3,17.1,0.8l1.2,1c-26.9,0.8-53.8,0.8-80.7,0
		L437.8,119.7z"/>
	<path d="M527.6,118.4c3.9,0.1,7.9,0.1,11.7,1.2c-3.2,0.2-6.3,0.4-9.4,0.6C529.3,119.7,528.2,118.9,527.6,118.4z"/>
	<path d="M2070.2,131.2c4.4-4.4,8.8-8.7,13.1-13.2c4.4,4.2,8.6,8.6,13,12.9c-4.4,4.4-8.8,8.8-13.2,13.2
		C2078.8,139.8,2074.5,135.5,2070.2,131.2z"/>
	<path d="M576.9,128l1,0.1c0,60.3-0.1,120.7-0.1,181l-1,0.1C576.8,248.8,576.9,188.4,576.9,128z"/>
	<path d="M1229,132.1c19.5-2.1,39.8,3.3,55.5,15.3c13.8,10.4,24.3,25.3,28.7,42.1c5.6,19.8,2.8,41.8-7.3,59.7
		c-8,13.6-19.7,25.1-33.9,31.9c-22,11-49.3,10.7-71.1-0.9c-18.6-9.7-33.2-27.1-39.1-47.3c-7.5-24.6-2-52.8,14.7-72.4
		C1189.4,144.6,1208.7,134.2,1229,132.1 M1226.5,135.8c-26.9,3.6-50.9,23.1-60,48.7c-5.6,15.2-6.2,32.2-1.4,47.6
		c5.4,18.8,18.9,35.1,36,44.5c20.8,11.5,47.1,12.3,68.5,2c14.2-6.5,25.9-17.9,33.7-31.3c9.8-17.7,12.3-39.4,6.3-58.7
		c-4.9-16.9-16.3-31.6-30.9-41.3C1263.4,137.2,1244.5,133.2,1226.5,135.8z"/>
	<path d="M1484,132.2c17.7-1.8,36,2.2,50.9,11.8c15.7,10.2,28,25.9,33.2,44c6,19.7,3.6,41.7-6.1,59.8c-7.8,13.8-19.3,25.6-33.6,32.7
		c-21,10.9-46.9,11.4-68.4,1.6c-15.2-6.7-27.8-18.8-36.1-33.1c-10.6-18.9-13-42.3-6.1-62.9C1426.8,157.2,1453.9,135.1,1484,132.2
		 M1483.4,135.7c-25.1,2.6-47.8,19.4-58.8,42c-7.6,16.2-9.7,35-4.8,52.3c5.2,20.4,19.8,38.2,38.6,47.7c15.2,8,33.1,9.9,49.8,6.7
		c16.8-3.5,32.3-12.9,43-26.3c15.4-18.4,20.7-44.5,14.3-67.5c-4.4-17-15.5-32.1-29.8-42.1C1520.6,137.8,1501.6,133.4,1483.4,135.7z"
		/>
	<path d="M1737.5,132.7c18.9-2.9,39,1.3,55,11.9c15.6,10.4,27.7,26.3,32.6,44.5c5.6,18.9,3.2,39.8-5.6,57.3
		c-9.8,18.6-27,33.5-47.3,39.4c-19.1,5.7-40.3,4.1-58.1-5c-14.2-6.9-25.8-18.5-33.6-32.2c-10.3-18.8-12.7-41.8-6-62.1
		C1682.9,158.6,1708.5,136.7,1737.5,132.7 M1738.6,135.9c-28.2,3.6-53.2,25-61.3,52.2c-6.2,19.5-3.8,41.5,6.2,59.3
		c7.5,12.8,18.5,23.8,31.8,30.4c17.6,9,38.8,10.4,57.6,4.4c18.4-5.9,33.9-19.3,43.1-36.2c8.9-17,11.4-37.5,5.9-56
		c-4.7-17.5-16.3-32.8-31.3-42.7C1775.4,137.2,1756.5,133.4,1738.6,135.9z"/>
	<path d="M1994.6,132.7c21.1-2.4,43.1,4.6,59.2,18.5c11.4,10,20.4,23,24.4,37.7c7,23.7,2.3,50.7-13.1,70.1
		c-10.8,14.3-26.7,24.7-44.2,28.8c-18.1,4.4-37.8,2.1-54.4-6.4c-14.4-7.2-26.1-19.1-33.8-33.1c-10-18.9-12-41.7-5.2-62
		C1936.8,157.4,1964.2,135.2,1994.6,132.7 M1990,137c-17.8,2.8-34.3,12.5-45.6,26.4c-13.5,16-19.5,38-16.3,58.6
		c2.5,17.9,11.9,34.5,25.5,46.2c13.3,11.4,30.8,18.3,48.4,17.9c22.2,0.7,44.3-9.8,58.3-27c10.6-12.2,16.3-28.1,17.4-44.1
		c0.9-15.3-3.7-30.6-11-43.9c-1.3,2.8-1.3,6-2.2,9c2.5,1.2,5,2.4,7.4,4c-0.2,2.9-1.6,5.5-2.9,8.1c2.1,1.9,4.9,3.1,6.2,5.7
		c-0.3,2.9-2.6,4.9-4.1,7.1c1.6,2.3,4.3,4,5,6.9c-0.8,2.7-3.5,4.2-5.4,6.2c1.5,2.5,3.2,4.9,3.9,7.8c-2,2.1-4.4,3.5-6.8,5.1
		c0.8,2.8,3.2,5.9,1.7,8.8c-2.1,1.4-4.6,2.2-6.8,3.2c0.5,2.8,1.1,5.7,0.6,8.5c-2.5,1.3-5.3,1.7-8,2.2c-0.4,2.8,0.4,6-1.3,8.4
		c-2.6,1.2-5.5,0.5-8.2,0.8c-0.6,2.6-0.7,5.5-2.4,7.8c-2.7,1.2-5.7-0.4-8.5-0.6c-1.1,2.6-2.1,5.4-4,7.6c-2.8-0.4-5.4-1.5-8-2.6
		c-1.8,2.1-2.9,4.9-5.4,6.4c-2.9-0.4-5.1-2.4-7.5-3.8c-2.1,1.8-3.7,4.4-6.5,5.2c-2.8-0.7-4.4-3.3-6.5-5.1c-2.3,1.6-4.7,3.1-7.4,4.2
		c-2.5-1.7-3.8-4.4-5.6-6.6c-2.6,1-5.1,2.6-7.9,2.5c-2.2-1.8-2.7-4.9-4.1-7.3c-2.6,0.4-5.3,1.5-7.9,1c-2.5-1.9-2.3-5.2-3-8
		c-2.7-0.2-5.7,0.6-8.2-0.7c-1.7-2.4-1.1-5.4-1.2-8.1c-2.5-0.8-5.2-0.8-7.5-2.1c-2.6-2.4,0.4-6.1-0.5-8.7c-2.2-1.5-5.4-1.6-7-3.9
		c-0.5-2.8,1.2-5.3,2.1-7.8c-2.3-1.7-4.9-3.1-6.9-5.2c0.7-2.9,2.4-5.2,3.8-7.8c-2.2-1.8-4.3-3.8-5.8-6.2c1.1-2.5,3.1-4.3,4.9-6.3
		c-0.3-2.9-3.7-4.6-3.9-7.7c1.1-2.6,3.9-3.8,6.1-5.4c-1-2.8-2.7-5.5-2.8-8.6c2.3-1.5,4.8-2.8,7.2-4c-0.5-2.8-2.1-5.7-1-8.5
		c2.1-1.7,5-1.9,7.6-2.6c-0.1-2.9-0.5-6,0.5-8.8c2.7-0.7,5.5-0.9,8.3-1.2c0.2-2.8,0.4-5.7,1.9-8.2c2.8-0.4,5.5,0.1,8.3,0.5
		c0.9-2.8,1.7-5.7,3.7-7.9c2.8,0.2,5.4,1.2,8.1,2c1.4-2.5,2.7-5.1,5-7.1c2.6,0.8,5.1,2.1,7.4,3.6c2.1-2,3.8-4.4,6.3-5.9
		c2.7,1,4.5,3.5,7.1,4.7c2.4-1.4,4.2-3.9,7.1-4.3c2.5,1.2,3.8,3.8,5.5,5.9c2.6-1.1,5.2-2.4,8-3.2c2.3,1.9,3,4.8,4.7,7.1
		c2.4-0.3,4.7-1.3,7.2-1.5c3.3,1.1,3.1,5.2,4.3,7.9c2.8-0.2,5.7-0.6,8.5,0.1c1.3,2.5,1.1,5.2,1.6,7.9c2,1.1,4.3,0.1,6.5,0.2
		c2.6,1.8,0.8,5-0.2,7.1c2.6,0.8,5.3,1.3,7.6,2.8c0.3-0.7,0.7-1.5,1-2.2l-0.9,0.5c-7-10.7-16.6-19.6-27.9-25.5
		C2023.1,136.9,2006.1,134.3,1990,137 M1991.9,145.9c-2.8,0-4.9-2.1-7.5-2.8c-1,2-1.8,4.4-3.8,5.7c-2.6,1.8-5.6-0.4-8.2-1.1
		c-1.3,2.4-1.5,5.5-3.8,7.3c-2.5,1.1-5.2,0-7.8-0.2c-0.5,2.9-0.1,6.6-3,8.3c-2.2,0.7-4.6,0.5-6.8,0.8c0,2.8,1,6.1-0.9,8.4
		c-2.1,1.3-4.6,1.6-6.9,2.4c0.5,2.7,2.1,5.7,0.7,8.4c-1.8,1.8-4.3,2.5-6.4,3.7c1.1,2.5,3.3,5.2,2.2,8.2c-1.3,2.1-3.7,3.2-5.4,4.8
		c1.4,2,3.4,3.8,3.8,6.3c0.1,3.1-3.1,4.5-4.4,7c1.6,2,4.3,3.3,4.9,5.9c0.2,2.8-2,4.8-3.3,7.1c1.9,1.4,4.3,2.4,5.8,4.3
		c1.5,2.8-0.7,5.7-1.5,8.4c2.3,1,5.2,1.5,6.9,3.5c1.3,2.5,0.1,5.3-0.3,7.9c2.4,0.7,5.1,0.6,7.2,2.1c2.1,2.2,1.4,5.3,1.4,8
		c2.3,0.2,4.8-0.3,7.1,0.4c2.9,1.4,2.8,5.1,3.5,7.8c2.6-0.3,5.4-1.7,8.1-0.5c2.2,1.5,2.8,4.3,3.9,6.6c2.4-0.9,4.7-2.4,7.3-2.3
		c2.7,1,4,3.6,5.2,5.9c2.5-1.3,4.7-3.6,7.7-3.5c2.5,0.8,3.9,3.1,5.8,4.7c1.9-1.7,3.4-4.3,6.2-4.9c2.7,0.1,4.8,2.1,7,3.5
		c1.3-1.7,2.2-3.9,4-5.2c2.7-2.3,6.1,0.5,8.9,1.3c1.1-2.6,1.8-6.3,4.9-7.2c2.3-0.2,4.6,0.6,6.9,0.9c0.5-2.8,0.6-6.3,3.3-8
		c2.2-0.6,4.5-0.3,6.8-0.3c0.3-2.9-0.6-6.8,2.2-8.8c2-0.9,4.3-1.1,6.5-1.7c-0.4-2.6-1.6-5.4-0.3-8c1.7-2,4.5-2.4,6.8-3.5
		c-0.9-2.7-2.9-5.5-1.7-8.4c1.4-2,3.8-3,5.8-4.3c-1.2-2.3-3.4-4.4-3.4-7.1c0.5-2.8,3.2-4.2,5-6.1c-1.7-2.2-4.6-3.9-4.7-6.9
		c0.4-2.6,2.5-4.4,3.7-6.5c-1.9-1.5-4.4-2.6-5.6-4.8c-1.1-2.8,1.1-5.4,2.2-7.9c-2.2-1.3-4.8-2-6.6-3.9c-1.3-2.7,0.1-5.5,0.7-8.1
		c-2.3-0.8-4.8-1.2-6.9-2.4c-2-1.6-1-4.3,0-6.2c-1.2,0-2.4,0.1-3.6,0.1c4.3,15.5,8.4,31.1,12.6,46.6c1.8,5.2-5.3,9.4-9.7,7
		c-3.3-1.9-5.5-5.1-8.3-7.6c-16.2,16-32.2,32.1-48.4,48.2c-2.1,2-4.2,4.8-7.4,4.8c-2.5,0.3-4.8-1.1-6.4-2.8
		c-11.3-11.4-22.7-22.6-34-34c-2.8-2.6-2.9-7.3-0.2-10c17-17.2,34.2-34.1,51.2-51.3c-2.5-2.8-5.6-5.1-7.6-8.2
		c-2.5-4,0.4-9.7,4.9-10.4c16.4,4,32.7,8.4,49,12.5c-0.1-1.2-0.2-2.5-0.3-3.7c-2.8,0-5.9,1-8.4-0.7c-1.8-1.8-2-4.4-2.6-6.7
		c-2.3,0.4-4.5,1.3-6.8,1.4c-3.3-0.6-4.3-4.2-5.6-6.8c-2.4,1.1-4.6,2.8-7.3,2.8c-2.7-0.7-3.9-3.5-5.4-5.5c-2.5,1.2-4.4,3.8-7.3,3.9
		c-2.6-0.5-4.3-2.7-6.2-4.3C1996,142.4,1994.6,145.1,1991.9,145.9 M1997.1,156.8c2.8,3.3,6,6.1,9,9.2
		c-16.1,16.3-32.4,32.4-48.5,48.6c-1.9,2.1-4.4,3.8-5.8,6.4c-1,2.8,1.8,4.8,3.4,6.6c9.5,9.5,19,19,28.5,28.5c2.1,2,4,4.8,7.1,5
		c3.8-1.3,5.9-5,8.8-7.5c15.6-15.6,31.4-31.1,46.9-46.9c3.4,2.7,6.1,6.3,9.5,9c2.1,1.4,4.5-0.1,5.9-1.8
		c-4.2-15.7-8.4-31.4-12.6-47.1c-0.4-1.8-1.3-3.9-3.5-4.1c-15.3-3.9-30.6-8-45.9-11.8C1996.9,150.1,1995.1,154.8,1997.1,156.8z"/>
	<path d="M438.1,144c0.1-2.7-0.5-5.7,0.7-8.2c0.2,1.4,0.4,2.8,0.4,4.2c-0.1,59.7-0.1,119.3-0.1,179l-1,0.1
		C438,260.7,438,202.4,438.1,144z"/>
	<path d="M1483.6,142.6c1.9-1.6,3.2-3.9,5.5-5c3.1,0,4.9,3.1,7.1,4.8c2.3-1.6,4.6-3.2,7.2-4.4c2.5,1.4,4,4,5.6,6.3
		c2.6-1.1,5.2-2.3,8.1-3c2,1.9,2.8,4.5,4.1,6.8c2.5,0.8,5.2-1.1,7.9-0.8c3,1.4,2.4,5.2,3.8,7.8c2.5,0.6,5.3-0.5,7.8,0.5
		c2.4,1.9,1.4,5.3,1.9,8c2.6,1.4,5.8,1,8.4,2.5c0.5,2.8-0.1,5.5-0.5,8.2c2.4,1.1,5,1.7,7.2,3.1c1.7,2.8-0.7,5.9-1.3,8.7
		c2.2,1.6,5.3,2.4,6.7,4.9c0.2,3-2.1,5.2-3.2,7.7c2,1.9,4.8,3.4,5.8,6.2c-0.7,2.7-3,4.5-4.8,6.5c1.4,2.6,4.1,4.5,4.4,7.5
		c-1.2,2.6-3.9,3.8-5.9,5.8c1.2,2.5,3,4.8,3,7.7c-1.4,2.5-4.6,3.2-6.9,4.6c0.7,2.9,1.9,5.8,1.4,8.9c-2.4,1-4.9,1.7-7.4,2.6
		c-0.6,2.8,1,5.8-0.5,8.4c-2.3,1.8-5.5,0.9-8,2c-0.9,2-0.1,4.3,0.1,6.4c-2.2,2.2-5,0.6-7.3-0.4c-0.8,2.8-1.3,5.7-3,8.1
		c-2.8,0-5.4-0.7-8.1-1.4c-1.7,2.3-2,5.9-4.8,7.3c-2.8,0.1-5.2-2.4-7.9-2.3c-1.7,2.1-3.1,4.4-5.2,6.1c-2.7-0.9-5-2.5-7.1-4.3
		c-2.4,1.5-4,4.2-6.8,5c-2.9-0.6-4.3-3.5-6.4-5.3c-2.5,1.4-5,2.9-7.6,3.9c-2.3-1.6-3.4-4.2-5-6.4c-2.7-0.2-5.2,2-8,1.8
		c-2.6-1.5-2.9-4.9-4-7.4c-2.9,0.3-5.8,0.9-8.7,0.6c-1.8-2.4-1.1-5.6-2.6-8c-2.7-0.3-5.4-0.2-8-0.9c-1-2.7-0.8-5.6-0.7-8.5
		c-2.7-0.6-5.5-1.1-8-2.3c-0.7-2.9,0.4-5.8,0.7-8.7c-2.5-1-5-2.1-7.3-3.5c-0.2-2.9,1.2-5.3,2.2-7.8c-1.3-2.6-4.8-3.4-6.5-5.9
		c0.7-2.8,2.6-5.1,4.1-7.6c-1.9-2-4.5-3.7-5.2-6.4c0.4-3,4.1-4.2,4.9-6.9c-1.2-2.3-3.5-4.2-3.7-7c1.2-2.6,4.1-3.7,6.3-5.3
		c-1-2.8-2.7-5.5-2.4-8.6c2.2-1.4,4.6-2.5,7.1-3.4c-0.2-2.9-1.2-5.7-0.9-8.7c2.4-1.4,5.2-1.9,7.9-2.5c0.5-2.8-0.7-6.1,1.2-8.5
		c2.3-1.5,5.3-0.7,7.9-1c0.5-2.8,0.9-5.6,2.1-8.1c2.8-0.7,5.6,0.1,8.4,0.6c1.6-2.5,1.6-6.2,4.5-7.6c2.7,0,5.1,1.4,7.7,2
		c1.5-2.4,2.8-5.1,5.2-6.8C1478.7,139.8,1480.8,142.2,1483.6,142.6 M1489.6,140.9c-1.8,2-3.5,4.8-6.4,5.1c-2.5-0.4-4.6-2.1-6.8-3.2
		c-1,1.8-1.7,3.8-3.3,5.1c-2.7,2.6-6.2-0.1-9-0.8c-1,2.2-1.4,4.9-3.3,6.5c-2.4,1.9-5.5,0.3-8.2,0c-0.8,2.9-0.5,6.8-3.6,8.4
		c-2.2,0.4-4.4,0.3-6.6,0.5c-0.1,2.8,0.8,6.3-1.5,8.5c-2.2,1-4.5,1.4-6.8,2c0.5,2.7,1.9,5.8,0.4,8.4c-1.7,1.8-4.3,2.4-6.4,3.5
		c1,2.6,3,5.2,2,8.1c-1.3,2.2-3.8,3.2-5.7,4.8c1.4,2.2,3.7,4.3,3.6,7.1c-0.6,2.6-3.1,4.1-4.8,6c1.7,1.9,4.2,3.4,4.9,6
		c0.3,2.9-2.2,4.9-3.5,7.2c2,1.6,4.7,2.7,5.9,5c0.7,2.8-1.2,5.3-2,7.8c2.1,1,4.5,1.7,6.3,3.2c1.9,2.6,0.3,5.8-0.1,8.6
		c2.4,0.7,5.1,0.8,7.3,2.3c1.7,2.3,1,5.4,1,8c2.3,0.2,4.8-0.1,7.1,0.7c2.7,1.6,2.6,5.1,2.9,7.8c2.3-0.2,4.6-0.8,7-0.7
		c3.2,0.9,3.8,4.6,4.8,7.3c2.3-0.8,4.6-1.9,7.1-2.1c2.9,0.8,4.2,3.7,5.3,6.1c2.6-1,4.7-3.1,7.5-3.2c2.7,0.6,4.1,3.2,6.1,5
		c2-1.7,3.6-4.1,6.3-4.6c2.9,0,4.7,2.7,7.4,3.5c1.2-2.5,3-4.7,5.5-6c2.4,0.7,4.8,1.6,7.1,2.6c1.1-2.5,1.9-5.9,4.8-6.9
		c2.4-0.4,4.7,0.7,7,1.1c0.8-2.6,0.9-5.8,3.2-7.7c1.7-1,3.6,0.2,5.3,0.7c-0.1-1.2-0.1-2.3-0.2-3.5c-16.1,4.4-32.3,8.6-48.4,13.1
		c-4.2-1.1-7.4-5.9-5.3-10c1.9-3.3,5.2-5.6,7.7-8.5c-16.8-17.3-34.1-34.2-51-51.4c-2.8-2.7-2.6-7.4,0.2-10.1
		c11.4-11.5,23-23,34.5-34.5c2.8-3.1,8.2-3.1,10.9,0.1c16.9,16.9,33.8,33.8,50.7,50.7c2.6-2.4,4.9-5.3,7.8-7.4
		c4-2.6,10.1-0.2,10.8,4.7c-3.9,16.4-8.6,32.7-12.5,49.2c1.2-0.2,2.5-0.5,3.7-0.8c-0.3-2.7-1.2-5.9,0.6-8.3c2.1-1.3,4.5-1.8,6.8-2.5
		c-0.7-2.7-2.4-5.8-0.9-8.5c1.6-1.8,4-2.5,6.1-3.6c-0.9-2.8-3.5-5.4-2.4-8.5c1.3-2,3.5-3.2,5.2-4.8c-1.4-2-3.5-3.7-4.1-6.2
		c-0.3-3.1,2.9-4.7,4.1-7.1c-1.7-2-4.5-3.2-5.2-5.9c-0.2-2.7,1.8-4.9,3-7.2c-2-1.3-4.3-2.2-5.9-4c-1.7-2.8,0.4-5.8,1.1-8.6
		c-2.2-0.8-4.7-1.3-6.6-2.7c-2.1-2.4-0.7-5.7-0.4-8.5c-2.2-0.4-4.6-0.4-6.7-1.3c-2.9-1.8-2.2-5.6-2.6-8.5c-2.6,0.2-5.2,0.3-7.7-0.2
		c-1.8-2.2-2.4-4.9-2.9-7.6c-2.4,0.4-4.8,1.4-7.2,1.1c-3-0.9-3.8-4.3-4.9-6.8c-2.3,1-4.6,2.4-7.2,2.6c-2.8-0.9-4.2-3.6-5.8-5.8
		c-2.6,1.7-5.5,5.1-8.9,3.3C1492.6,143.6,1491.2,142.1,1489.6,140.9 M1473.7,163.8c-9.8,9.8-19.6,19.7-29.5,29.5
		c-1.5,1.5-3.5,3.4-2.5,5.7c1.4,2.6,3.9,4.3,5.8,6.4c16.1,16.2,32.2,32.3,48.4,48.5c-2.9,3.1-6.2,5.9-9,9.1c-2,2.1,0.1,6.6,3.1,5.7
		c15.1-4,30.2-8.1,45.3-12.1c1.6-0.5,3.8-0.9,4.3-2.8c4.1-16,8.2-32,12.4-47.9c-1.3-2.4-4.6-3.3-6.7-1.4c-3,2.8-5.8,5.8-8.7,8.7
		c-16.1-15.9-32-32-48-47.9c-2.5-2.2-4.4-5.3-7.7-6.5C1477.8,158.8,1475.8,161.9,1473.7,163.8z"/>
	<path d="M1740,143c2-1.8,3.5-4.4,6.1-5.4c2.9,0.4,4.6,3.2,6.8,4.9c2.3-1.8,4.7-3.5,7.6-4.4c2.1,1.8,3.6,4.1,5.3,6.3
		c2.3-1,4.6-2.3,7.2-2.8c3,0.8,3.3,4.5,4.9,6.8c2.8,0.2,5.7-1.3,8.7-0.9c1.6,2.4,2,5.3,2.9,8c2.6,0,5.3-0.8,7.8,0.2
		c2.2,2.1,1.5,5.5,1.8,8.2c2.8,0.6,5.9,0.8,8.5,2.3c0.4,2.7-0.1,5.4-0.6,8c2.5,1.3,5.6,1.7,7.7,3.8c0.4,2.8-1.1,5.4-1.9,8
		c2.4,1.5,5,2.9,7.1,4.9c-0.5,2.7-2.1,4.9-3.3,7.3c1,2.8,4.8,3.6,5.4,6.8c-0.6,2.8-3.2,4.5-4.7,6.9c1.9,2.2,3.7,4.4,4.7,7.1
		c-1.6,2.2-3.9,3.9-6.1,5.5c1,2.8,3,5.3,3,8.5c-2.2,1.6-4.7,2.9-7,4.3c0.9,2.8,1.9,5.6,1.6,8.5c-2.4,1.2-5,2-7.5,2.7
		c-0.1,2.9,0.4,5.8-0.2,8.6c-2.6,1.2-5.6,1.3-8.4,1.7c-0.6,2.4,0.5,5-0.4,7.2c-2.3,1.5-4.6-0.3-6.9-0.9c-0.5,2.7-1.2,5.4-2.5,7.8
		c-2.8,0.4-5.5-0.5-8.1-1.2c-1.9,2.2-2.2,5.6-4.7,7.2c-2.8,0.3-5-1.7-7.6-2.4c-2.3,1.7-3.4,4.8-6,6.3c-2.6-1-4.9-2.7-7.2-4.3
		c-2.2,1.7-4,4.5-6.9,5c-2.7-0.9-3.9-3.7-6.2-5.2c-2.5,1.3-4.9,2.9-7.6,3.7c-2.2-1.9-3.5-4.4-5.1-6.7c-2.9,0.6-7,4.1-9.3,0.8
		c-1.1-2-1.7-4.1-2.7-6.1c-2.7,0.6-5.4,1-8.2,0.8c-1.9-2.3-1.5-5.6-2.8-8c-2.7-0.3-5.4-0.3-8-0.8c-1.3-2.8-0.8-5.8-1-8.8
		c-2.8-0.5-5.5-1-8-2.3c-0.4-2.7,0.3-5.3,0.9-7.9c-1.7-2.1-5-2.2-7-4.1c-1-3.1,1.3-5.8,2.1-8.6c-2.2-1.6-5-2.8-6.3-5.2
		c0-2.8,2.3-4.7,3.5-7c-1.1-2.7-4.2-4.2-5.3-7c1.3-2.6,3.6-4.4,5.5-6.7c-1.7-2.3-3.5-4.5-4.2-7.3c1.8-2.2,4.2-3.7,6.5-5.3
		c-1.1-2.8-2.7-5.5-2.4-8.6c2.2-1.3,4.6-2.4,7-3.3c0.2-2.9-1.7-5.8-0.5-8.6c2.1-1.9,5.1-1.8,7.7-2.6c0-2.8-0.2-5.7,0.6-8.5
		c2.7-0.9,5.7-0.8,8.5-1.1c0.4-2.8,0.6-5.7,2.3-8.1c2.7-0.3,5.5,0.2,8.2,0.7c1.4-2.6,1.6-6.5,4.8-7.7c2.5,0.3,4.7,1.4,7.1,2.2
		c1.9-2.2,2.8-5.5,5.6-6.7C1735.4,140,1737.6,141.7,1740,143 M1740,146.3c-2.5-0.9-4.7-2.1-6.9-3.6c-1.5,2.5-2.9,6-6.2,6.4
		c-2.2-0.4-4.2-1.3-6.3-2c-1.1,2.4-1.6,5.3-3.8,6.9c-2.5,1.2-5.3-0.1-7.9-0.3c-0.5,2.8-0.3,6.5-3.1,8.2c-2.2,0.8-4.5,0.4-6.7,0.5
		c-0.2,2.9,0.1,6-1.2,8.6c-2.4,0.8-4.8,1.4-7.2,2c0.5,2.8,2.1,6.1,0.1,8.7c-1.8,1.4-4.1,2.2-6.2,3.2c0.9,2.6,3,5.3,2,8.1
		c-1.2,2.2-3.7,3.1-5.6,4.5c1.2,2.5,3.6,4.5,3.5,7.4c-0.6,2.6-3.1,4.1-4.8,6c1.7,1.9,4.2,3.5,4.9,6.1c0.2,2.8-2.1,4.8-3.5,7.1
		c2,1.6,4.5,2.7,5.9,4.9c0.9,2.8-1,5.4-2,7.8c2.2,1.1,4.6,1.8,6.5,3.5c1.8,2.6,0.1,5.7-0.1,8.6c2.4,0.5,5.2,0.7,7.3,2.2
		c1.6,2.4,0.9,5.3,0.9,8c2.4,0.3,5-0.2,7.3,0.8c2.5,1.7,2.3,5.1,2.8,7.8c2.6-0.2,5.4-1.5,7.9-0.4c2.3,1.6,2.8,4.5,3.9,6.9
		c2.3-0.9,4.7-2.3,7.3-2c2.7,1,3.9,3.8,5.2,6.1c2.2-1.4,4.5-2.7,7-3.6c2.7,0.9,4.5,3.2,6.3,5.2c2.1-1.6,3.8-4.2,6.6-4.6
		c2.7,0.2,4.6,2.3,6.8,3.7c1.6-2.3,3.1-5.4,6.2-6c2.3,0.3,4.4,1.5,6.5,2.5c1.6-2.5,2.2-6.2,5.4-7.1c2.3-0.1,4.6,0.8,7,1
		c0.4-2.7,0.6-5.9,3.1-7.5c1.6-0.9,3.4,0.4,5,0.8c-0.1-1.1-0.1-2.3-0.1-3.4c-15.3,4.2-30.6,8.2-45.9,12.4c-5.3,2.3-10.4-4.9-7.6-9.5
		c1.9-3.3,5.1-5.6,7.7-8.4c-16.8-16.9-33.6-33.7-50.4-50.6c-1.9-1.9-3.3-4.6-2.5-7.3c1-3.3,3.9-5.3,6.2-7.7
		c10.2-10.2,20.3-20.4,30.6-30.5c2.7-2.8,7.6-2.9,10.3,0c17.1,17,34,34,51,51c3.7-3,6.4-8.4,11.7-8.5c3.4-0.1,6,2.5,7.1,5.6
		c-4.2,16.4-8.7,32.8-12.6,49.3c0.9-0.1,2.7-0.4,3.6-0.5c-0.1-2.7-1.1-5.7,0.5-8.2c1.9-1.6,4.5-1.9,6.8-2.6
		c-0.3-2.9-2.4-6.1-0.6-8.9c1.7-1.6,4-2.4,6-3.7c-1.2-2.3-3.1-4.6-2.7-7.3c0.8-2.6,3.7-3.8,5.5-5.7c-1.5-2-3.6-3.7-4.1-6.2
		c-0.1-3,2.7-4.8,4.3-6.9c-1.8-1.6-3.9-3-5.1-5.1c-1-3,1.6-5.5,2.8-8c-2.1-1.3-4.6-2.2-6.1-4.3c-1.3-2.7,0.5-5.5,1.4-8
		c-2.1-1-4.5-1.6-6.5-2.8c-2.3-2.3-1-5.8-0.6-8.6c-2.2-0.5-4.4-0.6-6.5-1.4c-3.1-1.7-2.4-5.6-2.6-8.5c-2.5,0-5.2,0.5-7.6-0.4
		c-2.4-1.7-2.5-4.8-3-7.4c-2.3,0.4-4.5,1-6.9,1.2c-3.2-0.7-4.2-4.3-5.3-6.9c-2.2,0.9-4.4,2.1-6.9,2.6c-3.1-0.5-4.5-3.7-6.3-5.8
		c-2,1.6-4,3.5-6.7,3.8c-3,0.1-4.2-3.7-6.8-4.2C1744.3,143.1,1742.6,145.3,1740,146.3 M1729.1,165.1c-9.8,9.8-19.7,19.6-29.4,29.5
		c-2.1,1.7-1.8,4.9,0.3,6.5c17.6,17.6,35.1,35.2,52.7,52.9c-3,3.2-6.4,6-9.1,9.4c-1.8,2.3,0.7,6.7,3.7,5.3c14.9-4,29.8-8,44.7-12
		c1.7-0.5,4.1-1,4.6-3.1c3.9-15.6,8.1-31.1,11.9-46.8c0.6-3.1-3.9-4.3-6-2.6c-3.2,2.8-6.1,6.1-9.2,9c-17.2-17.3-34.5-34.5-51.7-51.8
		c-1.2-1.4-2.8-2.2-4.4-2.9C1733.7,159.9,1731.5,162.7,1729.1,165.1z"/>
	<path d="M1228.5,158.8c18.3-3.2,38.3,4,49.8,18.8c13.9,16.6,15.3,42.1,3.8,60.4c-4.7,7.1-10.7,13.8-18.4,17.7
		c-9.7,5.9-21.4,8-32.6,6.6c-9.7-0.7-18.8-5.2-26.6-10.9c-9-7.5-15.8-17.9-18.3-29.4c-5.3-21.7,5.2-46.2,24.9-56.9
		C1216.4,162,1222.3,159.6,1228.5,158.8 M1229.4,161.6c-16.9,2.6-32,14.7-38.1,30.7c-5.1,12.9-4.3,28,1.9,40.4
		c4.6,8.6,11.4,16.4,20.2,20.9c11.8,6.8,26.4,8,39.3,3.9c17.1-5.4,30.6-20.7,33.4-38.4c4-20.3-6.7-42.6-25.1-52
		C1251.5,161.6,1240.1,160.1,1229.4,161.6z"/>
	<path d="M1458.8,197.2c7-7,14-14,21-21c15.7,15.6,31.3,31.3,47,47c-7,7.1-14,14-21,21.1C1490.1,228.7,1474.4,213,1458.8,197.2
		 M1463.4,197.3c14.1,14.3,28.3,28.4,42.5,42.5c5.2-5.2,10.4-10.3,15.5-15.5c1.5-0.9,0-2.1-0.7-2.8c-13.6-13.5-27.1-27.1-40.7-40.7
		C1474.3,186.2,1468.9,191.8,1463.4,197.3z"/>
	<path d="M1715.5,197.3c7.1-6.9,14-14.1,21.2-21c15.5,15.7,31.2,31.3,46.9,46.9c-7,7.1-14,14.1-21.1,21.1
		C1746.8,228.6,1731,213.1,1715.5,197.3 M1720,197.4c14.1,14.2,28.3,28.3,42.4,42.5c5.6-5.4,11.1-11,16.6-16.6
		c-14.2-14.1-28.3-28.2-42.4-42.4C1730.9,186.3,1725.5,191.9,1720,197.4z"/>
	<path d="M1968.3,224c15.6-15.7,31.3-31.3,46.9-47c7.1,6.9,14.1,14,21.2,21c-15.7,15.7-31.3,31.4-47.1,47
		C1982.4,238,1975.3,231,1968.3,224 M1972.9,224c5.6,5.4,10.8,11.3,16.7,16.4c14.1-14.1,28.2-28.2,42.3-42.3
		c-5.7-5.4-10.8-11.4-16.8-16.4C2001.1,195.8,1986.9,209.9,1972.9,224z"/>
	<path d="M1565.4,289.8c8.8-4.5,17.7-8.8,26.5-13.3c-0.6,10.2-1.5,20.5-2.3,30.7c-2.7-1.8-5.3-3.6-7.9-5.4
		c-11.3,14.8-25.5,28-42.9,35.2c-16.1,6.7-33.6,9-50.9,8.4c-21.4-0.3-43.3-6-60.8-18.7c-9.6-6.6-17.6-15.4-24.4-24.8
		c-2.6,1.8-5.3,3.6-7.9,5.3c-0.9-10.2-1.6-20.5-2.4-30.7c9.1,4.5,18.2,9,27.3,13.6c-2.4,1.8-4.9,3.5-7.3,5.3
		c23.8,32.5,69,46.7,107.5,35.3c20.5-5.8,39.6-17.9,52.1-35.3c-2.3-1.7-4.7-3.3-6.9-5C1565.2,290.2,1565.4,289.9,1565.4,289.8z"/>
	<path d="M1648,276.5c9.1,4.5,18.1,9,27.2,13.5c-2.4,1.9-4.8,3.6-7.2,5.4c23.7,32.4,68.6,46.5,106.9,35.5
		c20.7-5.8,40.2-17.9,52.7-35.5c-2.5-1.7-4.9-3.5-7.3-5.3c9.1-4.5,18.2-9,27.3-13.5c-0.8,10.2-1.6,20.4-2.4,30.7
		c-2.7-1.7-5.3-3.5-7.9-5.3c-10.4,13.8-23.3,25.9-38.9,33.5c-5.4,2.5-11.1,4.4-16.8,6.1c-15.8,4.4-32.4,4.6-48.6,3.5
		c-17.2-2-34.4-7-48.6-17.1c-10.3-6.8-18.8-16-26.1-26c-2.6,1.8-5.2,3.6-7.9,5.4C1649.6,297,1648.7,286.7,1648,276.5z"/>
	<path d="M2070.3,290.3c4.3-4.3,8.6-8.6,12.9-12.9c4.4,4.4,8.8,8.8,13.2,13.2c-4.3,4.3-8.5,8.7-13,12.9
		C2079.1,299,2074.6,294.7,2070.3,290.3z"/>
	<path d="M1909.6,291.6c4.3-4.5,8.8-8.8,13.2-13.3c4.3,4.3,8.6,8.6,12.9,12.9c-4.4,4.4-8.8,8.7-13.1,13.2
		C1918.2,300.2,1914,295.8,1909.6,291.6z"/>
	<path d="M1186.8,315.9c6.7-4.8,16.2-4.8,23.3-1c4.3,2.1,6.2,7,6.5,11.5c-3.1,0-6.2,0-9.3,0c-0.6-6.9-9.9-8.6-14.5-4.8
		c-1.8,1.6-1.8,5,0.4,6.2c7,3.6,16.2,2.8,22,8.8c5.7,6.3,2.3,17.1-5.4,20c-7.3,2.8-16.2,2.7-22.9-1.5c-4.3-2.5-6.2-7.6-6.4-12.3
		c3.1,0,6.2,0,9.3,0c0.4,8.3,11.6,10.4,17.2,6.1c2.3-1.9,1.8-5.8-0.7-7.2c-6.6-3.6-15-3-20.9-8.1
		C1180.3,329,1181.3,319.9,1186.8,315.9z"/>
	<path d="M1223.8,313.2c11.1,0,22.1,0,33.2,0c0,2.7,0,5.5,0,8.2c-7.8,0-15.6,0-23.4,0c0,3.2,0,6.3,0,9.5c7.2,0,14.3,0,21.5,0
		c0,2.5,0,5.1-0.1,7.6c-7.1-0.1-14.3,0-21.4,0c0,3.6,0,7.2,0,10.9c8,0,16,0,23.9,0c0,2.7,0,5.4,0,8.2c-11.2,0-22.5,0.1-33.7,0
		C1223.8,342.8,1223.7,328,1223.8,313.2z"/>
	<path d="M1260.6,313.2c12.1,0,24.2,0,36.3,0c0,2.7,0,5.5,0,8.2c-4.4,0-8.9,0-13.3,0c0,12,0,24.1,0,36.1c-3.2,0-6.5,0-9.7,0
		c-0.2-12.1,0-24.1-0.1-36.2c-4.4,0-8.8,0-13.3,0C1260.6,318.7,1260.6,316,1260.6,313.2z"/>
	<path d="M1876.4,325.5c4.1-1.6,8.9-1.6,13.1-0.2c5.7,2,8.7,9.4,5.7,14.7c-1,2.1-3.1,3.5-5,4.7c9.4,2,10.4,15.6,3.4,20.9
		c-4.9,3.9-11.9,4-17.6,2c-5.1-2-8-7.7-7.8-13c1.7,0,3.5,0,5.2,0c0.2,4.7,3.5,9.7,8.6,9.6c6.2,1.1,12.6-5.2,10.1-11.3
		c-1.7-5-7.6-5.9-12.1-5.5c0-1.4,0-2.8,0-4.2c4,0.2,9.1-0.7,10.5-5.1c1.8-5.1-3.3-10.2-8.4-9.1c-5,0.1-7.4,5.1-7.7,9.5
		c-1.8,0-3.5,0-5.2,0C1869.5,333.3,1871.6,327.7,1876.4,325.5z"/>
	<path d="M2010.3,323.8c1.7,0,3.5,0,5.3,0c0,2.1,0,4.3,0,6.4c-1.8,0-3.5,0-5.3,0C2010.3,328.1,2010.3,325.9,2010.3,323.8z"/>
	<path d="M2093.2,324.1c1.3,0,2.6,0,3.9,0c0,14.7,0,29.4,0,44.1c-1.8,0-3.6,0-5.3,0c0-10.5,0-21.1,0-31.6c-3.8,0-7.6,0-11.4,0
		c0-1.4,0-2.8,0-4.1c3.2-0.3,6.8-0.5,9.5-2.6C2091.7,328.5,2092.4,326.2,2093.2,324.1z"/>
	<path d="M2122.6,324.8c5.2-1.1,12.1-0.6,15.3,4.3c3.8,5.1,3.6,11.9,3.7,18c-0.1,6.6-0.3,14.2-5.6,19c-4,3.1-9.5,3.2-14.2,2
		c-4.8-1.1-7.6-5.8-8.6-10.2c-1.3-7.2-1.3-14.6-0.2-21.9C2113.9,331,2117.1,325.6,2122.6,324.8 M2123.4,329.5
		c-5.4,2.9-5.4,10.1-5.6,15.5c0.1,5.4-0.3,11.2,2.6,15.9c2.7,4.5,10.6,4.4,13.2-0.3c2.6-4.4,2.3-9.7,2.4-14.6
		c-0.1-4.8,0-10-2.8-14.1C2131.2,328.7,2126.6,328.1,2123.4,329.5z"/>
	<path d="M2218.8,323.8c1.7,0,3.5,0,5.3,0c0,2.1,0,4.3,0,6.4c-1.8,0-3.6,0-5.3,0C2218.8,328.1,2218.8,325.9,2218.8,323.8z"/>
	<path d="M1912.1,325.3c4.8-1.5,10.7-1.6,15,1.4c4.4,3.7,5.6,9.7,5.8,15.2c0.2,5.7,0.2,11.4-1.1,17c-1.3,4.1-4.2,8.5-8.8,9.3
		c-5.5,1.3-12.6,0.8-15.8-4.5c-4.2-6.3-3.5-14.4-3.4-21.7C1904,335.7,1905.7,328,1912.1,325.3 M1916.1,329.1c-3.4,0.6-5.1,4-5.9,7
		c-0.9,3.9-0.9,7.9-0.9,11.9c0.1,4.2,0.2,8.8,2.4,12.5c2.6,5,11.1,4.9,13.6-0.2c2.4-4.3,2.2-9.5,2.3-14.3c-0.1-4.7,0-9.8-2.6-13.9
		C1923.1,329.2,1919.2,328.2,1916.1,329.1z"/>
	<path d="M1409.3,333.3c4,0,8-0.1,12,0.1c-0.1,5.5,0,11-0.1,16.6c5.6,0.1,11.1,0,16.7,0c0,4,0,7.9,0,11.9c-5.6,0-11.1-0.1-16.7,0.1
		c0,6,0,12,0,18c-4,0-8,0-12,0c0-6,0-12,0-18c-6,0-12,0-18.1,0c0-4,0-7.9,0-11.9c6-0.1,12,0,18.1,0
		C1409.3,344.4,1409.3,338.9,1409.3,333.3z"/>
	<path d="M1957,336c1.6,0,3.2,0,4.9,0c0.1,1.6,0.2,3.1,0.3,4.7c3.9-6.6,15.6-7.7,19.2-0.3c4.6-6.9,18.1-7.3,20.5,1.6
		c0.4,8.7,0,17.4,0.2,26.1c-1.8,0-3.5,0-5.3,0c0-7.1,0-14.1,0-21.1c0-2.3-0.5-5-2.6-6.3c-4.6-2.1-11,0.2-11.8,5.5
		c-0.4,7.3-0.1,14.6-0.2,21.9c-1.8,0-3.5,0-5.3,0c0-7.1,0-14.1,0-21.2c0.1-2.7-0.9-6.1-3.9-6.7c-5-1.6-10.4,2.5-10.6,7.6
		c-0.2,6.8,0,13.5-0.1,20.2c-1.8,0-3.5,0-5.3,0C1957,357.5,1957,346.8,1957,336z"/>
	<path d="M2010.3,336c1.8,0,3.5,0,5.3,0.1c-0.2,10.7,0.1,21.4-0.2,32.2c-1.8-0.1-3.5-0.1-5.2-0.2
		C2010.3,357.4,2010.3,346.7,2010.3,336z"/>
	<path d="M2023.8,336c1.6,0,3.3,0,5,0c-0.1,1.6-0.1,3.2-0.1,4.9c3.6-5.6,11.1-6.9,16.9-4.3c3.4,1.7,4.7,5.8,4.8,9.4
		c0,7.4,0,14.8,0,22.2c-1.8,0-3.5,0-5.3,0c-0.1-7.8,0.2-15.5-0.1-23.2c-0.9-5.8-8.5-6-12.4-3.2c-2.8,2.2-3.8,5.9-3.5,9.3
		c0,5.7,0,11.4,0,17.1c-1.8,0-3.5,0-5.3,0C2023.8,357.5,2023.8,346.7,2023.8,336z"/>
	<path d="M2165.4,336.1c1.7,0,3.3-0.1,5-0.1c-0.1,1.6-0.1,3.1-0.1,4.7c4.2-6.4,15.8-7.9,19.4-0.3c3-4,8.2-6,13.1-4.8
		c4.2,0.3,7.7,4.1,7.6,8.3c-0.1,8.1,0,16.1-0.1,24.2c-1.8,0-3.5,0-5.2,0c0-7.4,0.1-14.8,0-22.2c-0.1-2.4-1.3-5.3-3.9-5.7
		c-4.6-1.4-10.3,1.6-10.6,6.7c-0.2,7.1,0.1,14.2-0.2,21.2c-1.8-0.1-3.5-0.1-5.2-0.2c0-7.3,0.1-14.7,0-22c-0.1-2.5-1.4-5.5-4.2-5.8
		c-5-1.4-10.2,2.7-10.4,7.8c-0.2,6.7,0,13.5-0.1,20.2c-1.8,0-3.5,0-5.2,0C2165.4,357.5,2165.5,346.8,2165.4,336.1z"/>
	<path d="M2218.8,336c1.7,0,3.5,0,5.3,0c0,10.7,0,21.4,0,32.1c-1.8,0-3.6,0-5.3,0C2218.8,357.5,2218.8,346.7,2218.8,336z"/>
	<path d="M2232.2,336c1.6,0,3.3,0,5,0c-0.1,1.7-0.1,3.4-0.1,5c3.5-5.8,11.3-7.1,17.1-4.3c3.2,1.8,4.5,5.8,4.6,9.2
		c0,7.4,0,14.8,0,22.2c-1.8,0-3.6,0-5.3,0c-0.1-7.6,0.1-15.2-0.1-22.8c-0.3-4.2-5-6.2-8.6-5.1c-4.3,0.3-7.2,4.5-7.3,8.6
		c-0.1,6.4,0,12.9,0,19.3c-1.8,0-3.5,0-5.3,0C2232.2,357.5,2232.2,346.8,2232.2,336z"/>
	<path d="M1546.6,348.2c15.5,0,31.1,0,46.6,0c0.1,4,0.1,8,0.1,12c-15.6,0-31.1,0-46.7,0C1546.6,356.1,1546.6,352.2,1546.6,348.2z"/>
	<path d="M229.8,358c1.6-1.5,3.3-3,5-4.4c15.8,17.7,31.8,35.3,47.6,53c1,1,2,2.3,3.6,2c244.8,0,489.6,0.1,734.4,0
		c0-4.8,0-9.6,0-14.3c14.6,5.8,29.2,11.7,43.8,17.5c-14.3,6.5-29.2,11.8-43.8,17.8c0-4.8-0.1-9.5,0-14.3
		c-246.4-0.2-492.8,0.1-739.2-0.1C264.2,396,246.9,377.1,229.8,358z"/>
	<path d="M1705.3,375.1c1.8-1.8,3.5-3.5,5.4-5.2c1.7,1.8,3.4,3.5,5.2,5.2c0,1.7,0,3.4,0,5.1c-1.8,1.8-3.6,3.6-5.4,5.3
		c-1.7-1.8-3.7-3.4-5.2-5.4C1705.2,378.4,1705.3,376.7,1705.3,375.1z"/>
	<path d="M1782.1,374.7c2.5-1.4,4.7-4.3,7.9-3.4c11.4,0.5,22.8,5.5,30.4,14.2c11.8,12.9,14.9,32.9,7.7,48.8
		c-3.4,7.1-8.7,13.4-15.4,17.6c-7.4,5.1-16.2,7.7-25,9.1c-1.9-1.2-3.8-2.4-5.7-3.7c6.9-8.9,12.5-19,14.6-30.1
		C1800.4,408.5,1793.1,389.5,1782.1,374.7 M1800.2,384.1c1.7,4.2,3.4,8.5,4.6,12.9c4.7,16.5,2.8,34.5-4.3,50.1
		c7.8-4,14.5-10.3,18.2-18.3c4.2-8.3,4.7-18.5,0.4-26.9C1815.4,393.8,1808.2,387.8,1800.2,384.1z"/>
	<path d="M1732.1,386.4c1.3-1.1,2.3-2.6,3.9-3.3c2.3-0.2,4.7-0.1,7.1-0.1c0,2.3,0.1,4.7-0.1,7c-0.6,1.6-2.1,2.6-3.3,3.8
		c-2.5,0.6-5.1,0.1-7.6,0.2C1732,391.5,1732,388.9,1732.1,386.4z"/>
	<path d="M1678.3,391c0-2.5,0-5,0-7.5c2.5,0,5,0,7.6,0.1c1.1,1.2,2.3,2.3,3.5,3.5c0,2.5,0,5,0,7.5c-2.5,0-5,0-7.5,0
		C1680.7,393.3,1679.5,392.1,1678.3,391z"/>
	<path d="M1420.7,416c10.1-10.5,20.1-21.1,30.3-31.6c0.1,6.6,0,13.1,0,19.7c11,0,22,0,33,0c0,8.4,0,16.7,0,25.1c-11,0-22,0-33,0
		c0,5.7,0,11.4,0,17.1C1440.9,436.2,1430.8,426.1,1420.7,416z"/>
	<path d="M1704.5,389.7c5.4-1.3,11.3-1,16.6,1.2c10.2,4.1,17.4,15.1,16.6,26.1c-0.5,13.6-13,25.7-26.8,25.2
		c-13.4,0.4-25.5-11-26.6-24.2C1682.9,405.3,1692.1,392.6,1704.5,389.7 M1706.1,399.2c-6.6,1.9-11.6,8.1-12.2,14.8
		c-1.1,9.2,6.8,18.5,16.2,18.6c9.3,0.9,18-7.3,18.1-16.6c0.3-4.8-2.1-9.4-5.3-12.8C1718.5,399,1711.8,397.6,1706.1,399.2z"/>
	<path d="M1493.3,404.1c9.7,0,19.4,0,29.1,0c0,8.4,0,16.7,0,25.1c-9.7,0-19.3-0.1-28.9,0C1493.2,420.8,1493.4,412.5,1493.3,404.1z"
		/>
	<path d="M1532.9,404.1c7,0,14.1,0,21.2,0c0,8.4,0,16.7,0,25.1c-7.1,0-14.1,0-21.2,0C1532.9,420.8,1532.9,412.4,1532.9,404.1z"/>
	<path d="M1564.6,404.1c4.8,0,9.7,0,14.5,0c0,8.4,0,16.7,0,25.1c-4.9,0-9.7,0-14.5,0C1564.6,420.8,1564.6,412.4,1564.6,404.1z"/>
	<path d="M1746.3,410c2.1,0.2,4.9-0.9,6.4,1.2c1.3,1.3,2.7,2.7,4,4c-1.8,1.8-3.6,3.6-5.4,5.3c-1.7-0.1-3.4-0.1-5.1-0.1
		c-1.7-1.8-3.4-3.5-5.1-5.2C1742.8,413.5,1744.6,411.8,1746.3,410z"/>
	<path d="M1665.2,416c1.9-1.7,3.4-3.9,5.6-5.2c1.6,0,3.3-0.3,4.9,0.2c1.8,1.6,3.4,3.3,5.1,5c-1.7,1.7-3.2,3.4-5.1,5
		c-1.5,0.7-3.3,0.2-4.9,0.3C1668.7,419.8,1667.1,417.7,1665.2,416z"/>
	<path d="M1731.1,436.4c2.8,0,5.7,0,8.5,0c1.1,1.2,2.3,2.3,3.5,3.5c0,2.8,0,5.6,0,8.4c-2.4,0-4.8,0-7.1,0c-1.6-1.6-3.2-3.1-4.8-4.7
		C1731.1,441.3,1731.1,438.8,1731.1,436.4z"/>
	<path d="M1682.3,437.2c2.5-0.1,5.1-0.1,7.6-0.1c0,2.5,0,5.1,0,7.6c-1.3,1.2-2.5,2.3-3.7,3.5c-2.5,0-4.9,0-7.3,0c0-2.5,0-4.9,0-7.3
		C1680,439.6,1681.2,438.4,1682.3,437.2z"/>
	<path d="M1711.3,445.7c1.8,1.7,3.6,3.5,5.3,5.3c0,1.7,0,3.4,0,5c-1.8,1.8-3.6,3.5-5.4,5.3c-1.8-1.8-3.5-3.5-5.2-5.3
		c0-1.7,0-3.3,0-5C1707.8,449.2,1709.6,447.5,1711.3,445.7z"/>
</g>
<g id="_x23_1069c9ff">
	<path class="st1" d="M471.8,52.2c4.1-0.5,8.2-0.8,12.3-1l-0.6,0.7c-0.3,0.2-0.8,0.5-1.1,0.7c2.3,0.2,4.6,0.4,7,0.3l0.1,0.8
		c-6.3,0.3-12.6,0.8-19,1C470.5,53.8,471,52.9,471.8,52.2z"/>
	<path class="st1" d="M175.1,109.2c6.3,0,12.6,0.5,18.9,0.8c-4.7,0.4-9.5,0.4-14.2,0.8l-1.1,1.1c-6.2,0.1-12.5-0.5-18.7-0.7
		c4.8-0.5,9.6-0.6,14.4-0.6L175.1,109.2z"/>
	<path class="st1" d="M204.4,110.2c4.9-0.1,9.8,0.2,14.7,0.7c-3.4,0.9-7,0.5-10.5,0.6l-0.7,1.3c-6.3,0-12.6-0.5-18.9-0.8
		c4.7-0.5,9.5-0.4,14.2-0.8L204.4,110.2z"/>
	<path class="st1" d="M232.1,111.2c6.3-0.1,12.6,0.5,18.9,0.8c-4.7,0.5-9.5,0.4-14.2,0.8l-1.2,1c-5.2,0.1-10.4-0.6-15.5,0.3l0-0.9
		c3.7-0.5,7.5-0.8,11.3-0.8L232.1,111.2z"/>
	<path class="st1" d="M262.3,112.2c5.9-0.1,11.8,0.5,17.7,0.7c-5.1,0.5-10.1,0.4-15.2,0.8l-1.1,1c-5.6,0.1-11.2-0.4-16.8-0.7
		c4.7-0.5,9.5-0.4,14.2-0.8L262.3,112.2z"/>
	<path class="st1" d="M291.4,113.2c5.9-0.1,11.8,0.4,17.7,0.7c-4.7,0.4-9.5,0.4-14.2,0.8l-1.2,1.1c-5.9,0.1-11.8-0.4-17.7-0.7
		c4.7-0.6,9.4-0.4,14.1-0.8L291.4,113.2z"/>
	<path class="st1" d="M319.3,114.2c6.3-0.1,12.5,0.5,18.7,0.8c-4.7,0.4-9.5,0.4-14.2,0.8l-1.1,1.1c-5.9,0.1-11.8-0.4-17.7-0.7
		c4.4-0.5,8.8-0.4,13.2-0.8L319.3,114.2z"/>
	<path class="st1" d="M348.3,115.2c5.9-0.1,11.8,0.5,17.7,0.7c-4.7,0.5-9.5,0.4-14.2,0.8l-1.2,1c-5.9,0.1-11.8-0.4-17.6-0.7
		c4.7-0.5,9.5-0.4,14.2-0.8L348.3,115.2z"/>
	<path class="st1" d="M378.3,116.3c5.6-0.1,11.1,0.4,16.7,0.7c-4.7,0.5-9.5,0.4-14.2,0.8l-1.2,1c-5.9,0.1-11.8-0.4-17.7-0.7
		c5.1-0.6,10.1-0.4,15.2-0.8L378.3,116.3z"/>
	<path class="st1" d="M526.2,117.8c6.4-0.7,12.8-0.6,19.1-1.6c1.6,2.9,5.6,1.2,8.2,2.2c-4.7,0.9-9.5,0.9-14.2,1.2
		c-3.8-1-7.8-1.1-11.7-1.2c0.6,0.4,1.7,1.3,2.2,1.7c-4.2,0.2-8.3,0.7-12.5,0.6l-1.2-1c-5.7-0.5-11.4-0.3-17.1-0.8
		c5.9-0.2,11.8-0.7,17.7-0.7l1.2,0.9c3.5,0.4,7,0.4,10.4,0.4l-1.1-1.4L526.2,117.8z"/>
	<path class="st1" d="M406.3,117.2c5.6-0.1,11.2,0.4,16.8,0.7c-4.4,0.5-8.9,0.4-13.3,0.8l-1.2,1.1c-5.9,0.1-11.8-0.4-17.7-0.7
		c4.7-0.5,9.5-0.4,14.3-0.8L406.3,117.2z"/>
	<path class="st1" d="M435.3,118.2c6.9,0,13.8,0.5,20.6,0.7c-6,0.5-12.1,0.3-18.2,0.8l-1.1,1c-5.9,0.1-11.8-0.5-17.7-0.7
		c5.1-0.5,10.1-0.4,15.2-0.8L435.3,118.2z"/>
	<path class="st1" d="M1229.4,161.6c10.7-1.6,22.1-0.1,31.5,5.4c18.5,9.4,29.1,31.7,25.1,52c-2.9,17.7-16.3,33-33.4,38.4
		c-12.9,4.1-27.5,2.9-39.3-3.9c-8.8-4.5-15.6-12.2-20.2-20.9c-6.2-12.4-7-27.4-1.9-40.4C1197.4,176.4,1212.5,164.2,1229.4,161.6z"/>
</g>
</svg>
