<?xml version="1.0" encoding="utf-8"?>
<!-- Generator: Adobe Illustrator 21.1.0, SVG Export Plug-In . SVG Version: 6.00 Build 0)  -->
<svg version="1.1" id="Laag_1" xmlns="http://www.w3.org/2000/svg" xmlns:xlink="http://www.w3.org/1999/xlink" x="0px" y="0px"
	 viewBox="0 0 784 704" style="enable-background:new 0 0 784 704;" xml:space="preserve">
<style type="text/css">
	.st0{fill:#191818;}
</style>
<path class="st0" d="M677.7,23.7c3.7-1.4,7.3,0.6,10.7,1.9c6.6,2.8,13.4,5.2,19.9,8.1c3.7,1.6,5.7,5.4,6,9.3
	c9.7,102.3,12.9,205.4,6.9,308c-0.7,10.3-1.2,20.6-1.9,30.9c-0.3,5.4-2.9,10.8-7.6,13.6c-68.4,39.9-136.9,79.6-205.3,119.6
	c-0.1,4.6-0.9,9.2-0.5,13.8c1.4,2.9,3.5,5.4,5.1,8.1c5.1,8.2,7,17.8,9.3,27c6.1,27,4.4,55.6-4.3,81.9c-5.2,13.9-18.4,22.6-31.2,28.8
	c-26.5,12.2-56.6,16.2-85.5,11.9c-6-0.7-11.1-3.9-16.5-6.4c-9.6-4.6-19.1-9.4-28.5-14.4c-2.6-1.7-5.8-0.9-8.7-0.5
	c-12.3,1.9-24.9-1.9-35-8.8c-14.9-10.5-28.4-23.2-38.9-38.2c-8.6-12.7-15.2-26.8-17.8-42c-2.3-13.7-4.1-27.5-5.1-41.4
	c-6.6-3.9-13.3-7.5-20-11.2c-15.9,9.1-31.5,18.7-47.6,27.5c-2.7,1.3-5.9,2.8-9,1.7c-3.5-1.3-6.7-3.4-10.1-5
	c-24.8-12.9-49.7-25.7-74.5-38.6c-4.3-2-6.4-6.7-6.6-11.2c-1.2-38.7-2.4-77.5-3.6-116.2c65.1-37.9,130.2-75.8,195.3-113.6
	c6.2,3.7,12.2,7.6,18.5,11.1c-0.2-5.2-0.9-10.3-1.2-15.4c-0.4-6.8,2.2-13.9,7.2-18.6c3.5-3,7.7-5,11.6-7.4
	C428,168.7,547,99.4,666.1,30.1C669.9,28,673.6,25.3,677.7,23.7 M677.9,25.8c-4.3,1.8-8.2,4.6-12.2,6.8
	C545.1,102.8,424.6,173,304,243.1c-4.2,2.1-7.5,5.6-10,9.6c6,3.1,12.1,6,18.2,9c2.4-3.3,5.1-6.7,8.7-8.8
	C447.3,179.4,573.6,105.8,700,32.3c-4.9-1.9-9.7-3.9-14.6-5.8C683,25.7,680.3,24.6,677.9,25.8 M692.9,40.8
	C573,110.6,453.1,180.4,333.2,250.2c-5.1,3.1-11,5.5-14.3,10.7c-3.5,5-4.4,11.3-3.6,17.3c7.4,78,10.8,156.5,9.3,234.9
	c-0.1,24.1-1.8,48.2-2.5,72.3c62.8-36.2,125.3-72.9,188-109.3c68.7-40,137.4-80,206.1-119.9c1.5-0.9,3.1-2,3-3.9
	c3-46,3.5-92.1,2.9-138.2c-0.9-52.4-3.6-104.8-8.5-157c-0.6-5.3-0.5-10.7-1.6-15.9c-0.6-3.3-3.6-6-6.9-6.3
	C700.5,35.8,696.8,38.7,692.9,40.8 M293.9,254.1c-2.3,4.1-2,8.9-1.5,13.4c7,72.3,10,145,9.4,217.6c-0.4,9.2-2.4,18.3-5.5,27
	c-7,20-14,40.1-21,60.2c-2.2,6.1-1.8,12.7-0.7,19c0.1-5.5-0.6-11.2,1.2-16.5c1.5-4.4,5.5-7.9,10.2-8.1c7.2-0.5,13.5,4.2,18.2,9.1
	c8.4,9.3,14.2,21.5,14.3,34.2c0,5.7-2.1,12.3-7.7,14.8c-4.2,2.1-8.8,0.5-13.1-0.3c4.4,2,9.7,3.8,14.2,1.3c3-1.7,6.3-3.4,8.1-6.4
	c2.2-8,0-16.3,0.4-24.5c0.3-4.4-2.1-8.2-3-12.3c-0.4-5.2,0.4-10.5,0.5-15.7c5.2-97.7,1.8-195.7-7.3-293.1c-0.4-3.8,0.3-7.6,1.2-11.2
	C305.9,259.8,300.1,256.5,293.9,254.1 M80.5,382.4c11.2,6.7,22.7,12.7,34,19.1c44.9,25.1,89.9,50.1,134.8,75.1
	c9.8,5.2,19.1,11.3,29.2,15.8c-5.6-5-11.9-9.4-16.9-15.1c-9.9-10.5-17.1-24.4-16.4-39.1c0.4-6.1,0.5-12.2,0.9-18.3
	c0.6-10.3,5.7-19.8,12.2-27.5c9.3-11,21.7-18.7,34.2-25.6c-0.2-19.6,0.1-39.2-0.1-58.8c-0.8-8.6-0.3-17.2-0.6-25.9
	c-6.3-3.9-12.7-7.7-19-11.6C208.6,307.7,144.6,345,80.5,382.4 M294.4,320.2c0.2,63.6-0.1,127.3,0,191c4.9-12.8,5.9-26.6,5.4-40.2
	c-0.2-29-0.3-58-1.6-86.9C297.2,362.8,296.6,341.4,294.4,320.2 M646.7,398.8C539.5,461.2,432.2,523.6,325,586
	c-1.1,0.9-2.7,1.4-3,2.9c-1.5,5.6,0.3,11.4-0.3,17c-0.5,4.9,0.1,9.8-1.3,14.6c5.4-2.4,10.5-5.7,15.6-8.7
	c26.8-15.5,53.5-31.2,80.3-46.7c3.6-2,7.1-4.7,8.2-8.8c1.8-6.3,1.4-12.9,1.8-19.3C474.6,509.3,522.7,481,571,453
	c13.9-7.9,27.4-16.3,41.5-23.9c-0.4,7.8-0.7,15.6-2.7,23.2c33.4-19.1,66.5-38.6,99.7-57.9c4.6-2.3,7.3-7.2,7.6-12.2
	c0.7-8.4,1.3-16.7,1.4-25.1C694.4,370.7,670.7,384.9,646.7,398.8 M255.1,400.1c-6.4,9.4-8.5,21.4-6.8,32.6
	c2.2,8.6,8.1,15.6,14.4,21.5c8.1,8.7,18.6,14.9,29.5,19.4c0.2-34.7,0.3-69.4,0-104.2C277.9,376.7,264.1,386.4,255.1,400.1 M79.7,384
	c0.9,37.4,2.3,74.8,3.3,112.2c0,4.4,1.3,9.3,5.6,11.3c27.4,14.3,54.9,28.5,82.4,42.7c3.3-7.2,7.9-13.6,12.2-20.3
	c3.8-5.7,8.2-11.8,15.1-14c9.5-3.2,19.9,0.1,28.5,4.4c18.1,9.8,36,20.1,54.1,29.9c3.1-8.5,5.9-17,9-25.5c2.9-7.2,2.2-15.1,2.7-22.7
	C221.6,462.5,150.7,423.1,79.7,384 M428.2,538.4c1,7.1,0.5,14.3-2.2,21C484,525.9,541.7,492,599.6,458.5c3.1-1.8,6.2-3.9,7.7-7.2
	c2.7-5.4,1.7-11.8,0.8-17.5C548.1,468.5,488.2,503.6,428.2,538.4 M247.5,436c-1.7,11.8,2.8,23.7,9.7,33.2c9,12.1,21.7,21,35.1,27.7
	c0.2-7.3,0.1-14.7,0.1-22c-10.1-4.9-20.8-9.9-28.4-18.4c-3.1-3.4-6.9-6.3-9.7-10C251.9,443.1,250.1,439.3,247.5,436 M192.7,520.6
	c-6.8,5.7-10.5,14-15.5,21.2c-2,2.9-3.5,6.1-4.4,9.6c3.1-0.1,6.3-0.6,9.1-2.2c15.1-8.3,29.8-17.1,44.6-25.9c-4.2-2-8.4-4.3-12.6-6.3
	C206.8,514.9,198.4,515.7,192.7,520.6 M484.7,544.8c-13.8,12.7-31.2,20.7-48.9,26.2c-11,2.9-22,5.7-33.4,6.7
	c-3.7,0.2-7,1.8-10.1,3.7c-4.3,2.7-9.3,4.6-12.4,8.8c20.4,0.5,40.7-3.1,60.1-9.3c17.9-5.9,35.3-14.7,48.4-28.5
	c9.1-9.5,15.8-22.2,15.7-35.7C499.3,527.1,493.4,537.1,484.7,544.8 M442.3,552.3c-11.6,7-23.6,13.3-34.9,20.7
	c19.3-2.2,38.3-8.1,55.6-17c15.9-8.6,30.7-20.9,38.1-37.8C481.5,529.4,461.9,541,442.3,552.3 M475.2,566.2
	c-24.9,16.8-55.1,23.8-84.6,26.1c2.2,1.5,4.5,3.1,7,4.1c18.7,7.2,39.1,9.9,59,7.9c14.7-1.7,29.5-6.2,41.4-15.3
	c8.5-6.3,15.1-15.8,16.3-26.5c1.5-11.2-2.4-22.9-10.2-31.1C498.5,545.7,487.9,557.7,475.2,566.2 M250.9,536
	c1.3,15.6,3,31.3,6.4,46.6c7.8,30.5,29.9,55.2,55.2,72.8c9.1,6.1,20.3,9.3,31.3,8.1c9.8-0.8,18.8-5.8,26.3-11.9
	c4.7-20.2,7.6-41,7.8-61.8c-21.6,12.3-43.1,25.1-64.6,37.5c-6.6,3.8-14.6,0.7-20.2-3.6c-11.5-8.9-18.9-22.6-21.2-36.8
	c-2.1-12.3,4.9-23.3,8.1-34.8C270.4,546.8,260.7,541.4,250.9,536 M518.1,564.6c-1.5,7.4-4,14.7-8.8,20.6
	c-10.4,13.5-27.2,20.6-43.5,23.6c-23,4.3-46.9,1.4-68.9-6.4c-3.4,4.4-6.7,9-9.4,14c-5.2,9.4-7,20.5-5.9,31.2
	c1.2,10.8,6.1,20.8,12.3,29.6c1.6,2.3,3.2,5.2,6.4,5.3c26.7,4,54.4,0.2,79.3-10c11.1-4.7,22-10.8,29.8-20.2
	c4.8-5.5,6.5-12.7,8.2-19.6C522.9,610.5,523.6,586.8,518.1,564.6 M283.4,569.3c-4.1,1.8-6.4,6.3-6.8,10.7c-1.1,11.1,3,22.1,9.4,31
	c4.2,5.5,9.5,10.8,16.4,12.6c4.5,1.3,10-0.6,12.2-5c3-6.1,2-13.2,0.4-19.5c-2.9-9.8-8.4-19.2-16.4-25.7
	C294.4,570,288.7,567.3,283.4,569.3 M384.2,592c-1,12.8-2.5,25.5-4.2,38.2c1.9-5.6,3.6-11.4,6.7-16.5c2.3-4.2,5.6-7.9,7.9-12.2
	c0.4-2.1-0.4-4.2-1.3-6.1C391.4,592.4,387.5,592.2,384.2,592 M378.5,592.3c-0.4,14-1.8,28-4.2,41.8c-0.7,4.4-2.1,8.8-1.7,13.3
	c2.8-3.2,3.4-7.5,4.2-11.5c2.7-14.3,4.4-28.8,5.3-43.3C381.2,592.5,379.4,592.4,378.5,592.3 M319.7,620.8
	C319.3,621.4,319.3,621.4,319.7,620.8c0.1,0,0.5-0.1,0.6-0.2C320.2,620.6,319.9,620.7,319.7,620.8 M371.5,653.5
	c-5,4.5-11.2,7.4-17.3,10.1c13.9,7.1,27.7,14.4,42,20.5c-6-8.8-12.4-17.8-15-28.4c-2.4-8.1-1.8-16.6-1.3-25
	C378,638.5,377.5,647.5,371.5,653.5 M372.5,647.5C369.2,647.4,373.9,650.6,372.5,647.5z"/>
</svg>
