<?xml version="1.0" encoding="utf-8"?>
<!-- Generator: Adobe Illustrator 21.1.0, SVG Export Plug-In . SVG Version: 6.00 Build 0)  -->
<svg version="1.1" id="Laag_1" xmlns="http://www.w3.org/2000/svg" xmlns:xlink="http://www.w3.org/1999/xlink" x="0px" y="0px"
	 viewBox="0 0 1531 758" style="enable-background:new 0 0 1531 758;" xml:space="preserve">
<style type="text/css">
	.st0{fill:#FEFEFE;}
</style>
<g id="_x23_fefefeff">
	<path class="st0" d="M349.8,27c63-14.1,128.2-14.1,192.3-8.7c42.1,3.9,83.9,11,125.1,20.7c33.5,8.3,66.7,18.1,98.7,31.1
		c32.5,13.1,64.7,27.7,94.2,46.8c23.8,15.5,46.8,33.1,64.5,55.5c10,12.4,18.2,26.3,22.4,41.8c3.9,14.3,2.6,29.2,2.2,43.8
		c-0.4,17.2-1.1,34.4-2.4,51.5c-2.9-6.9-6.3-13.5-10.8-19.4c-5-6.3-8.2-13.8-12.7-20.3c-16.3-25.2-39-45.6-63.8-62.2
		C828,186.9,793,171.9,757,161.1c-36.4-10.4-73.6-18.2-111.3-21.4c-29.8-2.4-59.8-3-89.7-1.2c-47.9,2.2-95.4,11.1-141,25.6
		c-19.2,6.3-38.2,13.5-56.2,22.8c-15.4,7.7-30.5,16-45.5,24.4c-8.6,17.1-16.1,34.8-23.6,52.4c-0.5,1.4-1.9,2.1-3,2.9
		c-52.9,32.8-105.5,65.8-158.3,98.8c-23.7,14.7-47.4,29.6-71,44.5C55.2,395,54,380,52.3,365c-5.2-43.5-7.8-87.2-9.2-131
		c-1.1-40.3-0.6-80.6-0.9-120.9c-0.3-1.7,1.7-1.8,2.8-2.3c57.8-15.8,115.4-32,173.1-47.7C261.8,50.4,305.7,38.2,349.8,27z"/>
	<path class="st0" d="M34.9,137.3c0.5-0.4,1.5-1.2,2-1.6c0.3,32.8-0.2,65.5,0.8,98.2c0.6,23.7,1.9,47.3,3.6,70.9
		c-0.7,0.4-2.1,1.2-2.8,1.6C34.8,250.2,33.4,193.7,34.9,137.3z"/>
	<path class="st0" d="M567,139.3c26-1.3,52.1-0.3,78.1,1.6c38.4,3.2,76.2,11.2,113.1,21.8c36,10.9,70.9,26,102.2,46.8
		c25.8,17.5,49.2,39.3,65.2,66.2c0.3,0.6,0.9,1.9,1.2,2.5c-3.4-2.4-5.3-6.2-7.8-9.4c-19.1-26.2-44.8-46.9-72.4-63.5
		c-25.8-15.1-53.3-27.2-81.8-36.1c-19.3-6.4-39.3-10.8-59.2-15c-23.7-4.6-47.6-7.7-71.7-9.1c-23.2-1-46.5-1.7-69.7-0.8
		c-0.6,0.2-1.8,0.5-2.4,0.7c0.9,12.3,3,24.6,4.1,36.9c0,1.8,0.7,3.4,1.4,5c-1.1-0.5-2.2-0.9-3.2-1.4c-1.6-10.9-3.3-21.8-4.9-32.6
		c-0.5-2.1,0.4-5.2-2-6.4c-1.9-0.9-3.9-1.4-6-1.4c-23.7,1.9-47.3,4.8-70.6,9.3c-58.5,11.9-116.4,32.2-164.9,67.8
		c1.4-3.2,2.9-6.3,4.4-9.4c-0.6-1-1.2-1.9-1.9-2.9c16.9-9.6,34.1-18.7,51.5-27.1c27.9-12.8,57.2-22.1,87-29.1
		C493,145,529.9,140.4,567,139.3z"/>
	<path class="st0" d="M567.5,149.5c17.5-0.5,35-0.3,52.5,0.2c43.4,1.3,86.6,8.5,128.4,20c34.5,9.8,68.1,23.4,98.8,42.1
		c20.2,12.7,39.8,27.2,55.4,45.4c-13.8-9.6-28.4-18-43.6-25.1c-54.6-24.2-114.4-36-174-36.6c-8.4-0.8-17,1.5-25.3-0.4
		c-1.6-0.2-4.2-1.3-4.8,1c1.5,0.2,3.1,0.4,4.6,0.7c-17.3,0.4-34.5,3.2-51.5,6.4c-7.3,2.7-14.2,6.6-21.3,9.6
		c0.4-3.9,1.2-7.8,1.5-11.7c0-1.5-1.7-1.9-2.7-2.6c-4.5-2.6-9.2-4.9-13.1-8.4c1.2-0.6,2.1-2.2,3.6-2c21.7,0.9,43.4,2.8,64.9,5.7
		c4.7,0.5,9.3,1.5,14,1.7c-0.4-0.4-1.3-1.1-1.8-1.4c-12.7-1.5-25.4-3.4-38.2-4.6c-13.2-1.3-26.5-1.9-39.7-2.8c-2-1.3-4-3.1-4-5.7
		C570,170.5,568.8,160,567.5,149.5z"/>
	<path class="st0" d="M474,161.2c25.5-5.5,51.5-8.5,77.5-10.9c0.4,1.7,0.8,3.4,1.3,5.1c0.3-0.9,0.8-2.8,1.1-3.8
		c1.1,11,3.6,21.8,4.6,32.8c-0.3,0.3-0.9,0.9-1.2,1.1c-0.7-1.8,0.5-4.5-1.2-5.7c-0.9,2.6-0.1,5.4-0.5,8.1
		c-5.2,59.9-16.5,119.1-32,177.2c-6.5,22.3-12.8,44.7-19.3,67c-0.9,2.4-1.1,5.2-2.6,7.4c-19,3.5-37.8,8-56.5,12.9
		c-21,5.1-41.6,12-62.2,18.7c-20.6,7-40.7,15.2-60.3,24.7c-15.2,7.6-30,16.7-41.2,29.6c-2.5,2.9-4,6.4-5.7,9.9
		c-13.4-57.4-22.9-115.6-28.6-174.2c-0.5-5.9-1.4-12.1,0.8-17.8c7.6-21.8,19.2-42.4,34.5-59.8c4.2-5.1,9-9.7,13.5-14.5
		c4.8-11.8,8.9-23.9,14.6-35.3c2.1-2.9,5.3-4.7,8-6.9c24.8-18.4,52.4-32.7,81.2-43.7C423.9,173.6,448.9,166.9,474,161.2
		 M553.1,156.3c-0.6,1.2-0.7,4,0.7,4.4C554.4,159.5,554.6,156.7,553.1,156.3 M554,163.2c-0.3,1.6-0.7,4.5,0.8,5.5
		C555.6,167.5,555.4,164.1,554,163.2 M555.2,169.7l-0.7,0.1c0.7,2.6-0.5,6.3,1.4,8.2C556.5,175.5,556.6,172,555.2,169.7z"/>
	<path class="st0" d="M557.2,185.9c3,4.9,9.1,6,13.1,9.8c3.9,2.8,8.3,4.8,12.4,7.3c-10.3,84.7-29.6,168.2-57.9,248.7
		c-7.2-4-14.3-8.1-21.4-12.2c7-22.9,13.1-46,20-68.9c14.5-52.9,25.3-106.9,31.4-161.5C555.8,201.3,556.1,193.6,557.2,185.9z"/>
	<path class="st0" d="M624.3,205.6c18.1-3,36.4-4.2,54.8-5c46,0.1,92.2,6.5,136.1,20.5c31.6,10,62.5,23.6,88.9,43.9
		c16.7,12.9,31.7,29.1,38.8,49.2c0.2,3.4,2.6,6.1,3.3,9.4c20.8,71.6,24.1,148.7,7.5,221.5c-0.6-13.4-3.2-26.7-8.9-38.9
		c-5.5-13.4-14.4-25.2-24.4-35.6c-10.6-11.7-24-20.5-37.5-28.5c-35.3-19.6-75.7-28.4-115.8-31c-27.1-0.9-54.4-0.2-81.1,4.8
		c-24,4-47.8,9.9-70.7,18.2c-21.2-24.3-38.3-53.6-42.3-86c-4.9-36.7,4.7-74.7,24.3-105.9c7.4-12.3,16-23.9,24.7-35.2
		C622.5,206.1,623.3,205.7,624.3,205.6z"/>
	<path class="st0" d="M605.7,209.8c3-1.4,6.3-2.1,9.5-2.7c-14.3,19-28.3,38.7-37,61c3-16.3,5.4-32.7,7.6-49.1
		C592.5,215.9,599.1,212.9,605.7,209.8z"/>
	<path class="st0" d="M26.5,209.6c0.8-0.7,1.7-1.3,2.5-2c0,0.9,0.1,2.6,0.1,3.5c-1,0.5-1.9,1-2.9,1.4
		C26.3,211.8,26.4,210.4,26.5,209.6z"/>
	<path class="st0" d="M27.3,212.9c0.3,0,1-0.1,1.4-0.1c0.4,5.4,1.1,10.9,0.9,16.4C28.2,223.9,28.2,218.4,27.3,212.9z"/>
	<path class="st0" d="M282,270.9c2.6-1.6,5.1-3.4,8-4.4c-0.6,1.7-1.7,3.1-3,4.4c-10.2,10.6-19.4,22.2-27.2,34.7
		c-7,12.8-13.8,25.9-18,39.9c-5.2,17.6-5.9,36.2-4.7,54.4c2,17,7.4,33.4,15.3,48.6c1,1.9,1.8,4,2.1,6.2c4.5,27,9.9,53.8,15.9,80.5
		c-31.3-17.9-62.4-36.1-93.6-54.1c-5.8-4.1-12-7.3-18.1-10.9c-17.1-9.9-34.2-19.9-51.4-29.7c-6.3-2.8-12-6.6-18-9.9
		c-10.8-6.3-21.6-12.4-32.3-18.9c1.9-1.5,3.9-2.8,5.9-4C135.9,362.2,208.9,316.5,282,270.9z"/>
	<path class="st0" d="M38.7,307.9c0.7-0.4,2.1-1.2,2.8-1.7c1.8,31.5,6.3,62.8,9.2,94.2c-0.8,0.3-2.2,1-3,1.4
		C44.4,370.6,40.7,339.3,38.7,307.9z"/>
	<path class="st0" d="M1081.1,312.3c141.4,0,282.9,0,424.3,0c0,145.3,0,290.6,0,435.9c-141.4,0-282.8,0-424.2,0
		C1081.1,602.8,1081.2,457.5,1081.1,312.3 M1302.3,334.3c-4.8,1.2-7.4,6.2-7.8,10.8c-0.6,5.6-0.6,12,2.5,16.9c4.1,6,14.4,5,17.3-1.6
		c2.5-6.3,2.6-13.5,0.3-19.9C1313,335.5,1307.2,332.8,1302.3,334.3 M1303.5,380.1c0,14.6-0.1,29.3,0,43.9
		c35.9-0.4,71.2,15.6,95.3,42.1c23.1,24.9,36,58.7,35.9,92.5c14.3-0.1,28.6,0,42.9,0c0.2-52.2-23.4-104.2-63.5-137.8
		C1383.6,394.8,1343.7,379.9,1303.5,380.1 M1259.6,502.6c-9.7,9.4-17.9,20.6-22.5,33.4c-7.8,20.3-8.4,43.5-0.8,63.9
		c3.7,0.2,9.3-1.9,11.4,2.5c9.2,20.3,27,36.9,48.5,43.2c22,6.8,47.1,2.9,65.9-10.5c12-8.4,21.5-20.3,27.4-33.6
		c2.2-5.3,10.5,0.9,12.2-4.7c6-19.4,5.5-40.7-1.7-59.7c-4.8-13.5-13.4-25.5-23.8-35.2c-16.7-15.3-39.5-23.6-62.1-22.2
		C1293.9,480.3,1274.3,488.9,1259.6,502.6 M1161,656.9c-4.6,2.4-6,9.5-2.1,13.1c3.9,3.6,9.7,3.3,14.3,5.7c1.9,0.9,2.3,3.7,0.8,5.2
		c-4.2,3.2-11.5,1.5-12.3-4.3c-2.1,0-4.2,0-6.3,0.1c0.6,2.9,1.3,6.2,3.8,8.1c4.4,3.4,10.6,3.6,15.7,2c5.3-1.6,8.4-8.4,5.5-13.2
		c-2.6-4.5-8.2-4.8-12.7-6.2c-2-0.5-5.3-1.5-4.5-4.2c1.6-4.1,8.8-3.8,10.3,0.3c1.1,2.9,4.8,1.3,7.1,1.7
		C1180.6,655.4,1168,652.6,1161,656.9 M1401,656.9c-4.6,2.4-6,9.6-2,13.2c3.9,3.6,9.7,3.2,14.2,5.7c1.8,1,2.3,3.6,0.8,5.1
		c-2.4,1.9-5.9,1.9-8.7,0.9c-2.3-0.8-2.9-3.4-3.9-5.2c-2.1,0.1-4.1,0.1-6.1,0.2c0.6,2.7,1.2,5.7,3.3,7.7c4.6,4,11.5,4.2,17,2.1
		c5.4-2.1,7.9-9.6,3.9-14.1c-4-4.4-10.6-3.6-15.5-6.5c-1.8-1.4-0.9-4.2,1-5c2.9-1.3,7.2-0.8,8.5,2.5c1.1,2.8,4.8,1.2,7.1,1.7
		C1420.4,655.5,1408,652.6,1401,656.9 M1098.8,655.7c0,10.5,0,21,0,31.4c2.3,0,4.5,0,6.8,0c0-4.1,0-8.2,0-12.3
		c3.2,0.2,6.8-0.6,9.8,0.8c3.1,2.9,1.8,7.7,2.8,11.4c2.2,0.1,4.4,0.2,6.6,0.2c-1.5-5,0.4-11.8-4.9-15c1.5-1.2,3.4-2.4,3.9-4.5
		c2-4.9-1.4-11.3-6.8-11.8C1110.9,655.4,1104.9,655.8,1098.8,655.7 M1129.8,655.7c0,10.5,0,21,0,31.4c7.8,0,15.5,0,23.3,0
		c0-1.9,0-3.8,0-5.8c-5.5,0-11,0-16.6,0c0-2.6,0-5.2,0-7.7c4.9,0,9.9,0,14.9,0c0-1.8,0-3.6,0-5.3c-4.9,0-9.9,0-14.8,0
		c0-2.3,0-4.5,0-6.8c5.4,0,10.8,0,16.2,0c0-1.9,0-3.9,0-5.8C1145.1,655.6,1137.4,655.7,1129.8,655.7 M1185.4,655.7
		c0.1,10.5,0,20.9,0,31.4c7.7,0,15.5,0.1,23.2,0c0-1.9,0-3.9,0-5.8c-5.5,0-11,0-16.5,0c0-2.6,0-5.1,0-7.7c4.9,0,9.9,0,14.8,0
		c0-1.8,0-3.5,0-5.3c-4.9,0-9.9,0-14.8,0c0-2.3,0-4.5,0-6.8c5.4,0,10.8,0,16.2,0c0-2,0-3.9,0-5.8
		C1200.7,655.7,1193,655.6,1185.4,655.7 M1210.8,655.7c0,1.9,0,3.9,0,5.8c3,0,6.1,0,9.2,0c-0.1,8.5,0,17.1,0,25.6c2.2,0,4.5,0,6.8,0
		c0-8.6-0.1-17.1,0-25.7c3,0.1,6.1,0.1,9.2,0c-0.1-1.9-0.1-3.9-0.1-5.8C1227.5,655.7,1219.1,655.7,1210.8,655.7 M1425.3,655.7
		c0.1,10.5,0,20.9,0,31.4c7.7,0,15.5,0.1,23.2,0c0-1.9,0-3.9,0-5.8c-5.5,0-11,0-16.5,0c0-2.6,0-5.1,0-7.7c4.9,0,9.9,0,14.8,0
		c0-1.8,0-3.6,0-5.3c-4.9,0-9.9,0-14.8,0c0-2.3,0-4.5,0-6.8c5.4,0,10.8,0,16.2,0c0-2,0-3.9,0-5.8
		C1440.6,655.7,1432.9,655.6,1425.3,655.7 M1450.7,655.7c0,1.9,0,3.9,0,5.8c3.1,0,6.1,0,9.2,0c-0.1,8.5-0.1,17.1-0.1,25.6
		c2.2,0,4.5,0,6.8,0c0-8.5,0-17.1,0-25.6c3.1,0,6.1,0,9.2,0c0-1.9-0.1-3.9,0-5.8C1467.4,655.6,1459.1,655.7,1450.7,655.7z"/>
	<path class="st0" d="M1303.5,339.5c2.4-1.1,5.3,0.5,5.8,3.1c1.2,5,1.4,10.5-0.3,15.4c-0.8,3-5.5,3.8-7.1,1c-2.2-3.6-1.6-8-1.6-12.1
		C1300.5,344.3,1300.9,340.9,1303.5,339.5z"/>
	<path class="st0" d="M241.9,393c-0.5-8.7,0.2-17.4,0.6-26.1c2.2,22.1,5.1,44.2,8.3,66.2C245.9,420.2,242.4,406.8,241.9,393z"/>
	<path class="st0" d="M49.8,402.3C53.2,402.5,48.2,405.3,49.8,402.3z"/>
	<path class="st0" d="M497.9,441.6c2.4-0.4,5-1.2,7.2,0.3c6.4,3.7,12.8,7.3,19.2,11c-7.9,5.5-16.6,9.7-25,14.4
		c-32.9,17.6-67.1,33.1-102.8,44.2c-18.5,5.9-37.5,10.3-56.6,14.3c-1.6,0.2-2.8,1.3-4.1,2.2c0.4,1,0.8,2,1.3,3
		c2.3,0.2,4.7-0.1,6.6,1.3c107.5,62.2,215,124.1,322.5,186.3c1.5,0,3-0.4,4.5-0.5c10.2,5.1,19.5,12,30.1,16.5
		c-14.6-1.1-29.3-1.8-43.9-3.9c-19.8-2.5-39.3-7.1-58.6-12c-33.3-8.2-65.8-19.7-97.6-32.5C465.6,672,431.3,655.9,398,638
		c-18.3-10.4-37.1-19.9-54.9-31.1c-16-10.4-32.2-20.7-46.3-33.7c-4.7-4.6-10-8.8-13.5-14.6c-3.3-4.8-4.7-10.6-6-16.2
		c-1.6-6.1,2.4-11.7,5.8-16.3c4.5-4.9,9.4-9.4,14.4-13.6c8.2-5.3,16.7-10,25.2-14.8c9.3-5.7,19.7-8.9,29.6-13.3
		c8.8-3.8,17.9-6.9,26.9-10.2c8-3.4,16.3-5.8,24.5-8.4c11.5-3,22.7-7,34.3-9.9c9.3-2.3,18.6-4.5,27.7-7.3c4.3-1.4,8.8-1.4,13-3
		C485.1,444,491.5,442.9,497.9,441.6z"/>
	<path class="st0" d="M686.8,475.3c10.9-0.3,22.6,2.6,30.7,10.2c4.1,3.7,5.3,9.3,6.5,14.4c-3.4,8.6-12.2,13.7-20.6,16.2
		c3-2.2,6.9-3.6,8.7-7.1c3-5.6,4.3-12.4,2.5-18.6C709.8,479.9,697.5,476.1,686.8,475.3z"/>
	<path class="st0" d="M661.8,484.9c10.5-5.3,23-5.9,34.2-2.7c4.4,1.4,8.6,3.6,11.7,7c3.6,5.5,2.7,13.2-1.1,18.4
		c-5.1,4.1-11.7,5.7-17.8,7.4c-2.8,0.9-6.3,0.7-8.3,3.1c-0.7,2.4,1.9,3.1,3.4,4.2c0,1.3,0,2.6,0,3.9c-2.6-2-4.9-4.4-7.5-6.5
		c-8.7-0.7-17.5-3.6-23.3-10.3c1.6,0.3,3.3,0.6,4.9,0.9c0.6-1.2,1.1-2.4,1.7-3.6c12.1,0.7,24.3,1,36.4,1.6c1.9,0,3.9,0.3,5.7-0.3
		c1.9-1.3,0.3-3.4,0-5.1c-0.3-3-0.6-6.1-1.1-9.1c-13.2-0.8-26.3-1.6-39.5-2.5C661.4,489.1,661.5,487,661.8,484.9z"/>
	<path class="st0" d="M652.6,484.4c3.2-1.1-1.8,4.9-2.5,2.3C650.7,485.6,651.5,484.9,652.6,484.4z"/>
	<path class="st0" d="M1267.7,501.7c16.2-13,37.5-19.4,58.2-17.4c18.1,1.6,35.6,9.6,48.8,22.2c10.3,10,18.6,22.4,22.7,36.3
		c5.5,16.7,5.4,34.8,0.5,51.6c-2,0.1-3.9,0.2-5.9,0.2c6.9-20.7,4.8-44-5.2-63.3c-7.2-13.2-17.9-24.6-31-32
		c-16.5-9.4-36.6-12.3-55.1-7.7c-16.8,3.9-32,13.9-42.5,27.5c-17,20.9-21.8,50.8-13.1,76.2c-1.9-0.1-3.8-0.1-5.7-0.2
		c-5.4-17-5.3-35.7,0.3-52.6C1244.4,526.4,1254.7,512.2,1267.7,501.7z"/>
	<path class="st0" d="M644.6,494.5c3.6-1.6,7.6-1.7,11.4-2.4c-0.1,0.7-0.4,2.2-0.5,2.9c-4.4,1.3-8.7,2.8-13.2,3.7
		C642.8,497.1,642.7,495,644.6,494.5z"/>
	<path class="st0" d="M661.1,492.5c12.8,0.8,25.7,1.6,38.5,2.5c0.2,1.7,0.4,3.4,0.7,5.1c-13.2-0.6-26.5-1.3-39.7-1.9
		C660.8,496.3,660.9,494.4,661.1,492.5z"/>
	<path class="st0" d="M1308.4,495.8c17.9-2.5,36.6,2,51.2,12.6c13.4,9.7,23.7,24,28,40.1c5.3,18.3,3.2,38.6-5.5,55.6
		c-9.1,17.2-25,31-43.8,36.3c-20.1,6.1-42.8,2.4-60.1-9.6c-13.9-9.8-24.7-24.3-29-40.8c-2.6-10.5-3.9-21.5-2.1-32.2
		c2.1-13.5,7.7-26.6,16.8-37C1274.8,507.3,1291.2,498.2,1308.4,495.8 M1283.2,526.2c-15.3,13.4-22.3,35.7-17,55.4
		c3.6,15.3,14.1,29,28.2,36c1.5,0.7,2.6-0.7,3.6-1.6c6.6-6.5,13.5-12.8,20.2-19.2c7.9,6.6,14.7,14.7,22.9,21c7.1-2.6,13-8.1,18-13.7
		c11.8-14.1,16.1-34.2,10.6-51.9c-4.8-17-18.3-31.4-35.2-36.7C1317.2,509.5,1296.9,514,1283.2,526.2z"/>
	<path class="st0" d="M644.9,499.5c3.4-1.1,6.8-2.1,10.3-3.1c0.2,1.7,0.4,3.4,0.7,5.2c-0.5,0.5-1.6,1.4-2.2,1.8
		C650.7,502.1,647.8,500.8,644.9,499.5z"/>
	<path class="st0" d="M658,501.4c1.3-0.6,2.3-2.1,3.8-1.9c10.4,0.4,20.8,1,31.1,1.5c2.7,0.1,5.5,0.1,8.2,0.9
		c-0.5,0.3-1.6,0.9-2.1,1.2C685.4,502.8,671.7,501.8,658,501.4z"/>
	<path class="st0" d="M700.8,518.4c8.8-2.5,17.1-7,22.9-14.2c-3.6,8.7-11.7,14.8-20.2,18.3c-5.7,2.8-12,3.7-18.2,4.5
		c-0.1-2-0.2-3.9-0.2-5.8c5-0.9,10.1-1.6,15.1-2.5c-0.5-0.5-1.6-1.5-2.2-1.9C699,517.4,699.9,517.9,700.8,518.4z"/>
	<path class="st0" d="M1303.7,521.9c14.4-5,31.1-2,43.1,7.4c15.3,11.5,22.3,32.6,17.4,51c-3,12.4-11.2,23.4-22.1,30.1
		c-5.6-5.3-11.2-10.6-16.8-15.9c7.8-2.8,14.8-8.6,17.6-16.6c4.7-11.9-0.3-26.9-11.6-33.1c-9.4-5.8-22.4-4.3-30.4,3.2
		c-10.4,9.1-11.9,26.5-3,37.1c3.3,4.5,8.3,7.3,13.5,9.2c-5.6,5.3-11.2,10.6-16.8,16c-17.8-10.2-27.2-32.6-22.7-52.5
		C1275.3,541.4,1287.6,527,1303.7,521.9z"/>
	<path class="st0" d="M343.2,530.4c6.5-1.4,12.9-2.8,19.4-4.3c3.6,7.1,8.3,13.7,13.8,19.4c5.3,5.2,11.6,9.3,18.1,12.9
		C484.4,610.3,574.2,662.2,664,714c1.2,0.6,2.1,1.6,2.5,3c-14.5-7.8-28.5-16.4-42.9-24.5C530.1,638.4,436.6,584.5,343.2,530.4z"/>
	<path class="st0" d="M1314.3,548.2c5.2-1.2,11,0,15.3,3.2c7.1,4.9,10.3,14.7,7.7,22.9c-2.4,8.7-11.3,15.1-20.3,14.2
		c-9.3-0.5-17.2-8.3-18.4-17.5C1297,560.9,1304.1,550.2,1314.3,548.2z"/>
	<path class="st0" d="M457.1,552.2C457.8,552.8,457.8,552.8,457.1,552.2z"/>
	<path class="st0" d="M456.9,559.9c1-0.9,2.1-1.8,3.2-2.6c4,2.4,8.1,4.9,12.9,5c2.2,0.2,4.5-0.6,6.6,0.1c0.8,1,1.3,2.2,1.9,3.3
		c-3.8,1.8-8.2,2.5-12.1,1C465,564.8,460.6,562.9,456.9,559.9z"/>
	<path class="st0" d="M847.9,570.3c9.3,0.3,18.8,1.2,27.2,5.6c4.8,2.6,9.5,6.3,11.6,11.6c0.8,2.5,1.3,5.2,2.5,7.6
		c-3.7,9.2-13,14.8-22.3,17.2c3.3-2,7.3-3.4,9.6-6.7c3.4-5.4,4.2-12,3.5-18.3c-2-4.1-4.6-8-8.7-10.4
		C864.3,572.3,856,571.1,847.9,570.3z"/>
	<path class="st0" d="M826.5,580.6c10-5.4,22-6.1,32.9-3.2c5.5,1.4,11,4.2,14.4,8.9c2,5.6,1.2,12.3-2.5,17
		c-7.1,5.6-16.5,6.5-24.8,9.4c-3,1.6-0.2,4.7,2.1,5.1c0,1.4,0.1,2.8,0.2,4.1c-2.9-2-5.1-5-8.1-6.6c-8.1-0.8-16.6-3.3-22.1-9.7
		c1.6,0.2,3.1,0.1,4.6-0.3c0.4-1,0.9-2,1.2-3c3.1,0.7,6.3,0.3,9.4,0.5c9.7,0.4,19.4,0.8,29.1,1.2c1.6,0.1,4.1,0,4.4-2
		c-1.2-4.1-1.2-8.4-2-12.6c-13.1-0.9-26.3-1.7-39.4-2.6C826.2,584.7,826.4,582.7,826.5,580.6z"/>
	<path class="st0" d="M808.4,590.5c4-1.7,8.4-2.1,12.6-3c-0.2,1-0.4,2.1-0.6,3.1c-4.4,1.4-8.8,2.9-13.3,3.6
		C807.5,592.9,807.6,591.6,808.4,590.5z"/>
	<path class="st0" d="M826,588c12.8,0.8,25.5,1.6,38.3,2.5c0.3,1.7,0.5,3.5,0.8,5.2c-13.2-0.6-26.5-1.4-39.7-1.9
		C825.6,591.9,825.8,590,826,588z"/>
	<path class="st0" d="M809.8,595.1c3.3-1.1,6.6-2,10-3c0.2,1.6,0.6,3.2,1,4.8c-0.7,0.7-1.4,1.4-2.1,2.1
		C815.7,597.7,812.7,596.5,809.8,595.1z"/>
	<path class="st0" d="M822.7,596.7c1.5-0.9,3.1-2,5-1.6c12.7,0.9,25.5,0.9,38.2,2.3c-0.5,0.3-1.4,1-1.8,1.3
		C850.2,598.2,836.4,597.6,822.7,596.7z"/>
	<path class="st0" d="M881,607c2.6-1.8,4.7-4.3,7.2-6.3c-3.8,8.4-11.7,14.1-20.1,17.5c-5.7,2.7-11.9,3.6-18,4.5
		c-0.1-1.9-0.1-3.8-0.2-5.7C860.6,615.2,872,613.7,881,607z"/>
	<path class="st0" d="M1105.6,661.1c3.3,0.1,6.7-0.3,9.9,0.4c3,1.4,2.9,6.4,0,7.9c-3.2,0.8-6.6,0.3-9.9,0.4
		C1105.6,666.9,1105.6,664,1105.6,661.1z"/>
	<path class="st0" d="M849,680c6.4-4.1,12.7-8.6,19.2-12.5c-11.8,17-27.9,30.8-45.9,40.8c-3.1,0.9-5.4,3.3-8.3,4.6
		c-11.2,5.4-23,9.6-34.8,13.3c20.5-14,41.4-27.3,62-41.1c1.6-1.4,3.6-2,5.7-1.4C847.4,682.3,847.5,680.6,849,680z"/>
	<path class="st0" d="M667.2,716.2C670.1,714.7,667.2,719.5,667.2,716.2z"/>
	<path class="st0" d="M734.7,720.4c1-0.9,2-1.9,3.1-2.7c1.8,1.1,3.7,2.2,5.5,3.4c0,1.4,0,2.9,0,4.4
		C740.2,724,737.3,722.4,734.7,720.4z"/>
	<path class="st0" d="M744.5,721.5c3.5,1,7.1,0.9,10.5-0.5c1.7,1.4,3.2,3,4.6,4.8c-4.6,2.5-10.2,2.3-15,0.4
		C744.5,724.6,744.5,723,744.5,721.5z"/>
</g>
<g id="_x23_000000ff">
	<path d="M362.2,19c29.3-5.4,59-8.6,88.8-9.1C508,8.7,565,13.4,621,24c31.4,5.6,62.4,13.1,92.9,22.4c33.1,9.8,65.2,22.7,96.5,37.3
		c32.3,15.1,63.2,33.5,90.4,56.6c13.5,11.5,25.8,24.6,35.8,39.3c8.8,13,15.5,27.8,17.7,43.4c1.2,6.6,0.8,13.4,0.8,20.1
		c-0.8,23.5-1.3,47-3.1,70.4c-0.2,3.6-1,7.3,0,10.8c7.9,28,13.4,56.6,15.9,85.6c0.8,13.3,2.3,26.7,1.3,40.1
		c-0.3,5.9,1,11.8-0.4,17.6c-1.3,4.1-0.4,8.4-0.2,12.6c-2.2,36.7-10,72.8-21.2,107.8c-2.3,0-4.6,0-6.9,0c1.3-4.3,2.2-8.6,3.1-13
		c0.7,0.9,0.9,2.1,1.5,3.1c3.5-15.8,5.2-32.5,1.5-48.5c-2.8-13.8-8.3-27-16.4-38.6c-6.5-10.5-15.6-19.1-24.9-27
		c-13.5-10.8-28.6-19.8-44.5-26.4c-14.2-6.5-29.5-10.4-44.6-14.4c-12.3-2-24.5-4.9-37-5.4c-30.5-3.5-61.4-1.1-91.8,3.3
		c-20.8,3.6-41.7,8.1-61.5,15.4c-3.9,1.3-7.9,2.8-11.8,4.1c-1,3.6-2.1,7.2-3.1,10.8c19.3-7.9,39.5-13.1,59.7-17.8
		c36.9-7.7,75-10.1,112.5-6.2c36.8,4.1,73.6,14.5,104.8,34.8c22.4,14.4,41.2,34.9,51.2,59.7c3.4,8.7,5.7,17.9,6.5,27.3l-0.7,0
		c-1.3-0.9-0.6-2.9-1.1-4.2c-3.8-28.8-21.2-54.3-43.5-72.3c-26.6-21.4-59.4-33.7-92.6-40.4c-45.4-8.7-92.4-6.9-137.5,2.6
		c-21.4,5-42.8,10.7-63,19.3c-29.7,20.4-59.7,40.3-89.6,60.3c-13.4,9.1-26.8,18-40.5,26.5c-6,4.1-12.3,7.6-18.8,10.8
		c2.9-0.2,5.8-1,8.7-0.7c5.5,0.3,10.1,3.5,14.6,6.3c2,1.6,5.3,4.1,4,7.1c-4,2.6-8.6,5-13.5,4.1c-7.4-1.2-13.2-6.1-19.5-9.6
		c0.2-2.8,2.5-4.5,4.3-6.4c-12.5,5.5-26,9.4-39.8,8.7c-2-0.1-3.9-0.2-5.9-0.1c-0.2-0.4-0.5-1.2-0.7-1.6c5.5,0.5,11.1,1,16.6-0.2
		c14.2-0.8,27.5-6.6,39.8-13.4c32.3-19.7,63.1-41.5,94.7-62.3c16-10.7,31.9-21.5,47.7-32.4c1.4-3.1,2-6.6,3.1-9.8
		c-2.9-1.4-1.8-4.9-3.7-6.9c-19.7-23.5-35.6-51.2-40.3-81.8c-1.3-8.6-1.9-17.2-1.8-25.9c-10,43.2-22.4,85.8-37.1,127.6
		c-0.7,2.1-2.5,3.6-4.4,4.6c-49.3,28.4-101.6,52.6-157.1,65.9c3.2,6,7.2,11.5,11.8,16.5c6.2,6.5,14.3,10.6,21.9,15.1
		c2.5,1.6,5.4,2.3,8.3,2.8c-0.2,0.3-0.6,1-0.8,1.3c31.3,18.6,63.1,36.5,94.5,54.8c64,36.9,128,74,192.1,110.8c11.4,7,25.2,9,38.3,8
		c10.3-0.7,20.2-3.8,29.8-7.3c5.4-2.1,10.8-4.1,15.6-7.4c38-25,76-49.9,113.8-75.2c6.3-2.7,12.3-6,17.3-10.7c2.6-2,4.3-5.3,7.6-6.2
		c1.8-0.4,2.6-2.2,3.7-3.5c4.8-6.6,9.3-13.4,12.7-20.8c2.1-0.1,4.3-0.1,6.4-0.1c-4.7,10.1-11.1,19.3-17.6,28.4
		c-1.3,2.2-4.3,1.5-5.9,3.1c-4,3.7-8.1,7.3-12.8,10.1c-3.6,2.2-7.7,3.5-11.2,5.9c-4.4,2.9-8.8,5.9-13.2,8.8
		c-2.3,1.2-2.7,3.9-4.1,5.9c-14.9,23.6-37.4,41.7-62.4,53.6c-14.9,6.7-30.3,12.5-46.5,15.3c-14,2.4-28,5.8-42.2,5.7
		c-19.6,0.5-39.1-0.8-58.6-2.3c-7.7-1.6-15.6-2.2-23.4-3.6c-17-2.3-33.6-6.7-50.2-10.8c-10.6-2.8-21.4-5.5-31.8-9.1
		c-3.6-2.5-7.5-4.4-11.8-5.2c-3-1.1-6.3-0.5-9.3-1.7c-20.5-7.4-41.1-15-60.9-24.1c-40-17.2-78.8-37-116.7-58.2
		c-2.1-1.1-3.8-2.8-5.7-4.3c-2.4-1.5-5-2.3-7.5-3.6C331,606.1,313,594.9,297,581c-8.5-7.5-17.3-15.6-21.8-26.4
		c-1.8-3.9-2.5-8.1-3.3-12.3c-31.4-18-62.6-36.2-93.9-54.3c-12.1-8.1-25.1-14.8-37.7-22.3c-13.4-7.6-26.5-15.8-40.3-22.8
		c-15-8.7-30-17.4-45-26.1c-2.1-1.1-2.6-3.6-3.4-5.6c-2.4-2.8-6.6-3.2-8.9-6c-0.9-9.8-2.5-19.5-2.8-29.3c0.4-4.2-1.2-8.1-1.6-12.2
		c-4.2-38.1-6.7-76.4-8-114.8c-0.1-3.9-2.3-7.2-3.6-10.7c-1.8-5.9-3.2-12-4-18.2c-1.2-4.1-2.6-8.5-1-12.6c2-4.2,2.4-8.9,4.8-12.9
		c0.9-1.8,2.5-3.4,2.5-5.6c0.1-17.2,0.2-34.4,0.7-51.5c0.3-4,4.1-6,7.2-7.8c0.1-6.2-0.2-12.5,0-18.7c0-1.7,0.8-3.8,2.7-4.1
		c32.7-9.1,65.4-18,98.1-27.1c2.6-0.9,5-2.4,7.9-2.3c19.8-5.3,39.6-10.9,59.4-16.3c12.6-4,25.5-7,38.2-10.8c6.3-2,12.8-3,19-5.3
		c2.9-1.1,6-1,9-1.9c4.2-0.8,8-3,12.1-4.1c7.7-2.1,15.5-4.1,23.1-6.4C325.1,28.3,343.4,22.5,362.2,19 M349.8,27
		c-44.1,11.2-88,23.4-131.7,36.1C160.4,78.8,102.7,95.1,45,110.8c-1.1,0.4-3.2,0.6-2.8,2.3c0.3,40.3-0.2,80.6,0.9,120.9
		c1.4,43.8,4,87.5,9.2,131c1.8,15,2.9,30,5.1,44.9c23.6-14.9,47.3-29.8,71-44.5c52.7-33,105.4-66,158.3-98.8c1.2-0.8,2.5-1.5,3-2.9
		c7.6-17.6,15.1-35.3,23.6-52.4c15-8.4,30.1-16.7,45.5-24.4c18-9.4,37-16.5,56.2-22.8c45.6-14.5,93.1-23.4,141-25.6
		c29.9-1.7,59.9-1.2,89.7,1.2c37.7,3.1,74.9,11,111.3,21.4c36,10.8,71,25.8,102.6,46.4c24.8,16.6,47.4,37,63.8,62.2
		c4.6,6.6,7.7,14,12.7,20.3c4.4,6,7.9,12.6,10.8,19.4c1.3-17.1,1.9-34.3,2.4-51.5c0.5-14.6,1.8-29.6-2.2-43.8
		c-4.1-15.4-12.4-29.4-22.4-41.8c-17.8-22.4-40.7-40-64.5-55.5c-29.6-19-61.7-33.6-94.2-46.8c-32-13-65.2-22.8-98.7-31.1
		c-41.2-9.7-83-16.9-125.1-20.7C478,12.9,412.8,12.9,349.8,27 M34.9,137.3c-1.5,56.4-0.1,112.9,3.6,169.2c0.7-0.4,2.1-1.2,2.8-1.6
		c-1.6-23.6-2.9-47.3-3.6-70.9c-1-32.7-0.6-65.5-0.8-98.2C36.4,136.1,35.4,136.9,34.9,137.3 M567,139.3c-37,1.1-74,5.8-110,14.5
		c-29.8,7-59.2,16.2-87,29.1c-17.5,8.5-34.6,17.6-51.5,27.1c0.6,0.9,1.2,1.9,1.9,2.9c-1.5,3.1-3,6.3-4.4,9.4
		c48.5-35.6,106.4-55.9,164.9-67.8c23.3-4.5,46.9-7.4,70.6-9.3c2.1,0,4.1,0.5,6,1.4c2.4,1.2,1.5,4.3,2,6.4
		c1.5,10.9,3.3,21.8,4.9,32.6c1.1,0.5,2.2,0.9,3.2,1.4c-0.7-1.6-1.4-3.2-1.4-5c-1.2-12.3-3.2-24.6-4.1-36.9c0.6-0.2,1.8-0.5,2.4-0.7
		c23.2-0.9,46.5-0.2,69.7,0.8c24,1.5,48,4.5,71.7,9.1c19.9,4.2,39.9,8.6,59.2,15c28.5,8.9,56.1,21,81.8,36.1
		c27.7,16.6,53.3,37.3,72.4,63.5c2.5,3.2,4.4,7,7.8,9.4c-0.3-0.6-0.9-1.9-1.2-2.5c-16.1-26.9-39.5-48.7-65.2-66.2
		c-31.4-20.8-66.3-35.9-102.2-46.8c-36.9-10.7-74.8-18.6-113.1-21.8C619.1,139,593,138,567,139.3 M567.5,149.5
		c1.3,10.5,2.5,20.9,3.8,31.4c0.1,2.6,2,4.4,4,5.7c13.2,0.9,26.5,1.5,39.7,2.8c12.8,1.2,25.4,3.1,38.2,4.6c0.5,0.4,1.4,1.1,1.8,1.4
		c-4.7-0.2-9.3-1.2-14-1.7c-21.5-3-43.2-4.8-64.9-5.7c-1.5-0.1-2.4,1.4-3.6,2c3.9,3.5,8.6,5.8,13.1,8.4c0.9,0.7,2.6,1.1,2.7,2.6
		c-0.2,3.9-1,7.8-1.5,11.7c7.2-3,14-6.9,21.3-9.6c17-3.2,34.2-6,51.5-6.4c-1.5-0.3-3.1-0.5-4.6-0.7c0.6-2.2,3.2-1.2,4.8-1
		c8.3,1.9,16.9-0.4,25.3,0.4c59.6,0.7,119.4,12.4,174,36.6c15.2,7.1,29.8,15.5,43.6,25.1c-15.6-18.2-35.1-32.7-55.4-45.4
		c-30.7-18.6-64.3-32.3-98.8-42.1c-41.9-11.4-85-18.7-128.4-20C602.5,149.2,585,149,567.5,149.5 M474,161.2
		c-25.1,5.7-50.1,12.4-74.1,21.9c-28.8,11-56.4,25.3-81.2,43.7c-2.7,2.2-5.9,4.1-8,6.9c-5.7,11.4-9.8,23.5-14.6,35.3
		c-4.5,4.9-9.3,9.4-13.5,14.5c-15.3,17.4-26.9,37.9-34.5,59.8c-2.3,5.7-1.3,11.9-0.8,17.8c5.7,58.6,15.2,116.9,28.6,174.2
		c1.7-3.4,3.2-7,5.7-9.9c11.3-12.9,26.1-22,41.2-29.6c19.6-9.5,39.7-17.7,60.3-24.7c20.6-6.7,41.1-13.6,62.2-18.7
		c18.7-4.9,37.5-9.4,56.5-12.9c1.5-2.2,1.7-4.9,2.6-7.4c6.5-22.3,12.8-44.7,19.3-67c15.5-58,26.8-117.3,32-177.2
		c0.4-2.7-0.5-5.5,0.5-8.1c1.7,1.2,0.5,3.9,1.2,5.7c0.3-0.3,0.9-0.9,1.2-1.1c-1-11-3.6-21.8-4.6-32.8c-0.3,0.9-0.8,2.8-1.1,3.8
		c-0.5-1.7-0.9-3.4-1.3-5.1C525.5,152.7,499.6,155.7,474,161.2 M557.2,185.9c-1.2,7.7-1.5,15.5-2.5,23.2
		c-6.1,54.6-16.9,108.6-31.4,161.5c-6.9,22.9-13,46-20,68.9c7.1,4.1,14.3,8.2,21.4,12.2c28.3-80.5,47.6-164,57.9-248.7
		c-4-2.6-8.5-4.6-12.4-7.3C566.3,191.9,560.2,190.8,557.2,185.9 M624.3,205.6c-1,0.1-1.8,0.5-2.3,1.4c-8.8,11.4-17.4,22.9-24.7,35.2
		c-19.6,31.2-29.2,69.2-24.3,105.9c4,32.4,21.2,61.8,42.3,86c22.9-8.3,46.7-14.2,70.7-18.2c26.7-4.9,54-5.6,81.1-4.8
		c40,2.6,80.4,11.4,115.8,31c13.5,8.1,26.9,16.8,37.5,28.5c10,10.4,18.9,22.1,24.4,35.6c5.7,12.2,8.4,25.5,8.9,38.9
		c16.7-72.9,13.3-149.9-7.5-221.5c-0.8-3.3-3.1-6-3.3-9.4c-7.1-20.1-22.1-36.4-38.8-49.2c-26.4-20.3-57.3-33.9-88.9-43.9
		c-43.9-14-90.1-20.4-136.1-20.5C660.7,201.4,642.4,202.6,624.3,205.6 M605.7,209.8c-6.6,3.1-13.2,6.1-19.8,9.2
		c-2.3,16.4-4.6,32.8-7.6,49.1c8.7-22.3,22.6-42.1,37-61C612,207.7,608.7,208.3,605.7,209.8 M26.5,209.6c-0.1,0.7-0.2,2.2-0.3,2.9
		c1-0.5,1.9-1,2.9-1.4c0-0.9-0.1-2.6-0.1-3.5C28.2,208.3,27.3,209,26.5,209.6 M27.3,212.9c0.9,5.4,0.9,11,2.3,16.3
		c0.2-5.5-0.6-11-0.9-16.4C28.3,212.8,27.6,212.9,27.3,212.9 M282,270.9c-73.1,45.5-146,91.2-219,136.9c-2,1.2-4,2.6-5.9,4
		c10.6,6.5,21.5,12.5,32.3,18.9c6,3.3,11.7,7.1,18,9.9c17.2,9.9,34.2,19.8,51.4,29.7c6.1,3.6,12.3,6.9,18.1,10.9
		c31.2,18,62.3,36.2,93.6,54.1c-6-26.7-11.5-53.5-15.9-80.5c-0.3-2.2-1.1-4.2-2.1-6.2c-7.8-15.2-13.3-31.6-15.3-48.6
		c-1.3-18.2-0.6-36.9,4.7-54.4c4.2-14.1,11.1-27.1,18-39.9c7.8-12.5,17-24.1,27.2-34.7c1.3-1.3,2.4-2.7,3-4.4
		C287,267.5,284.5,269.3,282,270.9 M38.7,307.9c2,31.4,5.8,62.7,9,93.9c0.8-0.3,2.2-1,3-1.4c-2.9-31.4-7.4-62.7-9.2-94.2
		C40.8,306.7,39.4,307.5,38.7,307.9 M241.9,393c0.5,13.8,4,27.2,9,40c-3.2-22-6.1-44-8.3-66.2C242,375.6,241.4,384.3,241.9,393
		 M49.8,402.3C48.2,405.3,53.2,402.5,49.8,402.3 M497.9,441.6c-6.4,1.3-12.8,2.4-19.1,4c-4.2,1.6-8.7,1.7-13,3
		c-9.1,2.8-18.5,5-27.7,7.3c-11.5,2.8-22.8,6.8-34.3,9.9c-8.2,2.6-16.6,5-24.5,8.4c-9,3.3-18.1,6.4-26.9,10.2
		c-9.9,4.4-20.4,7.6-29.6,13.3c-8.5,4.8-17,9.5-25.2,14.8c-5.1,4.2-10,8.8-14.4,13.6c-3.4,4.6-7.4,10.2-5.8,16.3
		c1.2,5.6,2.6,11.4,6,16.2c3.4,5.8,8.7,9.9,13.5,14.6c14.1,13,30.3,23.3,46.3,33.7c17.8,11.2,36.6,20.7,54.9,31.1
		c33.4,17.8,67.7,34,102.8,48.2c31.9,12.8,64.3,24.3,97.6,32.5c19.3,4.8,38.8,9.5,58.6,12c14.6,2.1,29.2,2.9,43.9,3.9
		c-10.5-4.5-19.8-11.4-30.1-16.5c-1.5,0-3,0.4-4.5,0.5c-107.4-62.2-215-124.2-322.5-186.3c-1.9-1.5-4.4-1.1-6.6-1.3
		c-0.5-1-0.9-2-1.3-3c1.3-0.9,2.5-2,4.1-2.2c19-4,38-8.4,56.6-14.3c35.7-11.1,69.9-26.6,102.8-44.2c8.4-4.7,17.1-8.9,25-14.4
		c-6.4-3.7-12.8-7.4-19.2-11C502.9,440.4,500.2,441.2,497.9,441.6 M343.2,530.4c93.4,54.1,186.9,108,280.4,162
		c14.3,8.1,28.4,16.7,42.9,24.5c-0.4-1.3-1.2-2.4-2.5-3c-89.8-51.8-179.6-103.7-269.4-155.5c-6.5-3.6-12.8-7.7-18.1-12.9
		c-5.5-5.8-10.2-12.3-13.8-19.4C356.1,527.7,349.7,529.1,343.2,530.4 M457.1,552.2C457.8,552.8,457.8,552.8,457.1,552.2
		 M456.9,559.9c3.7,3,8.1,4.9,12.5,6.7c3.9,1.5,8.4,0.8,12.1-1c-0.6-1.1-1-2.3-1.9-3.3c-2.1-0.7-4.4,0.2-6.6-0.1
		c-4.8-0.1-8.9-2.7-12.9-5C459,558.1,457.9,559,456.9,559.9 M849,680c-1.5,0.6-1.6,2.3-2.1,3.7c-2.1-0.6-4.1,0-5.7,1.4
		c-20.6,13.8-41.6,27.1-62,41.1c11.9-3.7,23.6-8,34.8-13.3c2.9-1.3,5.2-3.7,8.3-4.6c18-10,34.1-23.8,45.9-40.8
		C861.6,671.4,855.4,675.8,849,680 M667.2,716.2C667.2,719.5,670.1,714.7,667.2,716.2z"/>
	<path d="M553.1,156.3c1.5,0.4,1.3,3.2,0.7,4.4C552.4,160.3,552.5,157.5,553.1,156.3z"/>
	<path d="M554,163.2c1.4,0.9,1.6,4.2,0.8,5.5C553.4,167.7,553.7,164.9,554,163.2z"/>
	<path d="M555.2,169.7c1.4,2.3,1.3,5.7,0.7,8.3c-1.8-1.9-0.7-5.6-1.4-8.2L555.2,169.7z"/>
	<path d="M1076.4,307.4c144.6,0,289.2-0.1,433.8,0c0,148.5,0.1,297,0,445.5c-43.4,0.4-86.8,0-130.1,0.2c-55.3,0-110.7,0-166,0
		c-45.9-0.1-91.8,0.3-137.6-0.2c0.1-51.3,0.1-102.6,0-153.8c-27.5-0.1-54.9,0-82.4,0c-33,0-66,0-99,0c0-2.3,0-4.7,0-7
		c33,0,66,0,99,0c27.5,0,55,0.1,82.5-0.1C1076.4,497.1,1076.4,402.2,1076.4,307.4 M1081.1,312.3c0.1,145.3,0,290.6,0.1,435.8
		c141.4,0,282.8,0,424.2,0c0-145.3,0-290.6,0-435.9C1364,312.3,1222.5,312.2,1081.1,312.3z"/>
	<path d="M1302.3,334.3c4.9-1.5,10.7,1.2,12.4,6.1c2.2,6.4,2.2,13.6-0.3,19.9c-2.9,6.7-13.2,7.6-17.3,1.6c-3.2-5-3.1-11.3-2.5-16.9
		C1294.9,340.5,1297.5,335.5,1302.3,334.3 M1303.5,339.5c-2.6,1.4-3,4.8-3.1,7.5c0,4-0.6,8.5,1.6,12.1c1.6,2.8,6.2,2,7.1-1
		c1.7-4.9,1.5-10.4,0.3-15.4C1308.8,340,1305.9,338.4,1303.5,339.5z"/>
	<path d="M1303.5,380.1c40.2-0.2,80,14.7,110.6,40.8c40.2,33.6,63.8,85.5,63.5,137.8c-14.3,0-28.6-0.1-42.9,0
		c0.1-33.9-12.8-67.7-35.9-92.5c-24.1-26.5-59.4-42.5-95.3-42.1C1303.5,409.4,1303.5,394.8,1303.5,380.1z"/>
	<path d="M642.6,486.6c12.6-13.1,31.7-17.9,49.4-16.6c9.6,0.9,19.5,3.7,27.1,9.9c4.9,3.9,8.6,9.7,9.1,16c-2.5,3.8-2.5,8.6-5,12.3
		c-5.7,9.2-15.7,14.8-25.8,17.9c-4.2,1.1-8.5,1.5-12.7,2.6c-2.8-2.8-5.7-5.4-8.9-7.7c-6.6-1.2-13.7-2.3-19-6.8
		c-2.6-1.7-4.1-4.5-6.4-6.6c-4.5-2.2-9.1-4.6-14.2-4.6C635.6,497,638.1,490.8,642.6,486.6 M686.8,475.3c10.7,0.8,23,4.7,27.7,15.2
		c1.8,6.1,0.5,13-2.5,18.6c-1.8,3.5-5.8,4.8-8.7,7.1c8.5-2.5,17.2-7.6,20.6-16.2c-1.1-5.2-2.4-10.7-6.5-14.4
		C709.4,477.9,697.7,474.9,686.8,475.3 M661.8,484.9c-0.2,2.1-0.4,4.2-0.6,6.3c13.2,0.9,26.3,1.7,39.5,2.5c0.5,3,0.8,6.1,1.1,9.1
		c0.3,1.7,1.8,3.8,0,5.1c-1.8,0.6-3.8,0.3-5.7,0.3c-12.1-0.6-24.3-0.8-36.4-1.6c-0.5,1.2-1.1,2.4-1.7,3.6c-1.7-0.3-3.3-0.6-4.9-0.9
		c5.8,6.8,14.6,9.7,23.3,10.3c2.6,2.1,4.9,4.4,7.5,6.5c0-1.3,0-2.6,0-3.9c-1.5-1.1-4.2-1.9-3.4-4.2c2.1-2.4,5.5-2.2,8.3-3.1
		c6.2-1.7,12.8-3.3,17.8-7.4c3.8-5.2,4.7-12.8,1.1-18.4c-3.1-3.5-7.4-5.7-11.7-7C684.8,479,672.3,479.6,661.8,484.9 M652.6,484.4
		c-1.2,0.5-2,1.2-2.5,2.3C650.8,489.4,655.8,483.3,652.6,484.4 M644.6,494.5c-1.9,0.5-1.8,2.7-2.3,4.2c4.5-0.9,8.8-2.4,13.2-3.7
		c0.1-0.7,0.3-2.2,0.5-2.9C652.2,492.8,648.2,492.8,644.6,494.5 M661.1,492.5c-0.2,1.9-0.4,3.8-0.5,5.7c13.2,0.6,26.5,1.3,39.7,1.9
		c-0.2-1.7-0.4-3.4-0.7-5.1C686.8,494.1,674,493.3,661.1,492.5 M644.9,499.5c2.9,1.3,5.8,2.6,8.8,3.8c0.5-0.4,1.6-1.4,2.2-1.8
		c-0.3-1.7-0.5-3.4-0.7-5.2C651.7,497.4,648.3,498.4,644.9,499.5 M658,501.4c13.7,0.4,27.4,1.4,41.1,1.6c0.5-0.3,1.6-0.9,2.1-1.2
		c-2.7-0.8-5.5-0.8-8.2-0.9c-10.4-0.4-20.8-1.1-31.1-1.5C660.3,499.4,659.3,500.8,658,501.4 M700.8,518.4c-0.9-0.5-1.8-1.1-2.8-1.6
		c0.5,0.5,1.6,1.5,2.2,1.9c-5.1,0.8-10.1,1.5-15.1,2.5c0.1,1.9,0.1,3.9,0.2,5.8c6.2-0.9,12.5-1.8,18.2-4.5
		c8.5-3.5,16.6-9.6,20.2-18.3C717.9,511.4,709.6,515.9,700.8,518.4z"/>
	<path d="M1259.6,502.6c14.8-13.7,34.3-22.3,54.5-23.1c22.6-1.4,45.5,7,62.1,22.2c10.4,9.8,19,21.7,23.8,35.2
		c7.2,19,7.7,40.3,1.7,59.7c-1.7,5.6-10-0.6-12.2,4.7c-5.9,13.4-15.4,25.2-27.4,33.6c-18.8,13.4-43.9,17.3-65.9,10.5
		c-21.5-6.3-39.4-22.9-48.5-43.2c-2.1-4.3-7.7-2.3-11.4-2.5c-7.6-20.4-7.1-43.6,0.8-63.9C1241.7,523.2,1249.9,512,1259.6,502.6
		 M1267.7,501.7c-13,10.5-23.2,24.7-28.1,40.8c-5.6,16.9-5.7,35.6-0.3,52.6c1.9,0.1,3.8,0.2,5.7,0.2c-8.7-25.4-3.9-55.3,13.1-76.2
		c10.5-13.6,25.8-23.5,42.5-27.5c18.4-4.6,38.6-1.7,55.1,7.7c13.2,7.3,23.8,18.8,31,32c10,19.3,12.1,42.6,5.2,63.3
		c1.9,0,3.9-0.1,5.9-0.2c4.8-16.8,4.9-35-0.5-51.6c-4.1-13.9-12.4-26.2-22.7-36.3c-13.2-12.5-30.6-20.6-48.8-22.2
		C1305.1,482.3,1283.8,488.6,1267.7,501.7 M1308.4,495.8c-17.3,2.5-33.6,11.5-44.6,25c-9.1,10.4-14.7,23.5-16.8,37
		c-1.8,10.7-0.5,21.7,2.1,32.2c4.3,16.5,15.1,31,29,40.8c17.2,12,40,15.7,60.1,9.6c18.9-5.3,34.8-19.1,43.8-36.3
		c8.7-17,10.9-37.2,5.5-55.6c-4.3-16.1-14.6-30.4-28-40.1C1345,497.8,1326.3,493.3,1308.4,495.8z"/>
	<path d="M1283.2,526.2c13.7-12.2,33.9-16.7,51.3-10.7c16.9,5.3,30.4,19.7,35.2,36.7c5.5,17.6,1.2,37.7-10.6,51.9
		c-5,5.7-10.9,11.1-18,13.7c-8.2-6.3-15-14.4-22.9-21c-6.7,6.4-13.6,12.7-20.2,19.2c-1,0.9-2.2,2.2-3.6,1.6
		c-14.1-7.1-24.5-20.7-28.2-36C1261,561.9,1267.9,539.7,1283.2,526.2 M1303.7,521.9c-16,5.1-28.3,19.5-31.6,35.9
		c-4.5,19.9,4.9,42.3,22.7,52.5c5.5-5.4,11.2-10.6,16.8-16c-5.2-1.9-10.2-4.7-13.5-9.2c-8.9-10.7-7.4-28,3-37.1c8-7.5,21-9,30.4-3.2
		c11.3,6.2,16.2,21.2,11.6,33.1c-2.8,8-9.8,13.8-17.6,16.6c5.6,5.3,11.2,10.6,16.8,15.9c10.9-6.7,19.1-17.6,22.1-30.1
		c4.9-18.4-2.2-39.5-17.4-51C1334.8,519.9,1318,516.8,1303.7,521.9 M1314.3,548.2c-10.2,2-17.3,12.7-15.7,22.9
		c1.1,9.1,9.1,17,18.4,17.5c9,0.8,17.9-5.6,20.3-14.2c2.6-8.2-0.5-18-7.7-22.9C1325.3,548.2,1319.5,547,1314.3,548.2z"/>
	<path d="M945.1,551c0.2,0.1,0.5,0.4,0.7,0.5c0.5,7.4-0.2,14.8-0.7,22.2c-0.4,0.2-1.2,0.6-1.6,0.8c1.1-7.3,1.4-14.7,1.1-22.1
		C944.8,552.1,945,551.4,945.1,551z"/>
	<path d="M808.8,580.8c11.7-11.1,28.3-15.8,44.2-15.4c11.3,0.3,23.1,3.2,31.8,10.8c4.5,3.9,7.9,9.6,8.2,15.6
		c-2.7,3.4-2.3,8-4.7,11.5c-5.7,9.5-15.9,15.3-26.4,18.4c-4.2,1.1-8.6,1.6-12.8,2.4c-3-2.7-5.7-6.1-9.5-7.6
		c-8.3-1.1-17.2-3.8-22.3-10.8c-1.8-3.2-5.6-3.8-8.7-5.3c-2.4-1.3-5.2-1.4-7.8-1.7C800,591.8,804,585.4,808.8,580.8 M847.9,570.3
		c8.1,0.8,16.4,2,23.4,6.5c4,2.3,6.7,6.3,8.7,10.4c0.8,6.3-0.1,12.9-3.5,18.3c-2.3,3.3-6.3,4.7-9.6,6.7c9.2-2.4,18.6-8,22.3-17.2
		c-1.2-2.4-1.7-5-2.5-7.6c-2-5.3-6.7-9-11.6-11.6C866.7,571.5,857.2,570.6,847.9,570.3 M826.5,580.6c-0.2,2-0.3,4.1-0.5,6.2
		c13.1,0.9,26.3,1.7,39.4,2.6c0.8,4.2,0.8,8.5,2,12.6c-0.3,2-2.8,2.1-4.4,2c-9.7-0.4-19.4-0.8-29.1-1.2c-3.2-0.2-6.3,0.2-9.4-0.5
		c-0.4,1-0.8,2-1.2,3c-1.5,0.4-3.1,0.5-4.6,0.3c5.5,6.4,13.9,8.9,22.1,9.7c3,1.6,5.3,4.6,8.1,6.6c-0.1-1.4-0.1-2.8-0.2-4.1
		c-2.3-0.4-5.1-3.4-2.1-5.1c8.3-2.9,17.7-3.8,24.8-9.4c3.7-4.7,4.5-11.4,2.5-17c-3.4-4.8-8.9-7.5-14.4-8.9
		C848.6,574.6,836.5,575.2,826.5,580.6 M808.4,590.5c-0.8,1.1-0.9,2.4-1.3,3.7c4.5-0.8,8.9-2.3,13.3-3.6c0.2-1,0.4-2.1,0.6-3.1
		C816.8,588.4,812.4,588.8,808.4,590.5 M826,588c-0.2,1.9-0.4,3.9-0.6,5.8c13.2,0.5,26.5,1.4,39.7,1.9c-0.2-1.8-0.5-3.5-0.8-5.2
		C851.6,589.7,838.8,588.9,826,588 M809.8,595.1c2.9,1.4,5.9,2.7,8.9,4c0.7-0.7,1.4-1.4,2.1-2.1c-0.4-1.6-0.7-3.2-1-4.8
		C816.4,593,813.1,594,809.8,595.1 M822.7,596.7c13.8,0.9,27.5,1.5,41.3,2c0.5-0.3,1.4-1,1.8-1.3c-12.7-1.3-25.5-1.4-38.2-2.3
		C825.7,594.7,824.2,595.8,822.7,596.7 M881,607c-9,6.7-20.3,8.2-31.1,10c0,1.9,0.1,3.8,0.2,5.7c6.1-0.9,12.4-1.8,18-4.5
		c8.3-3.4,16.3-9.2,20.1-17.5C885.7,602.6,883.6,605.1,881,607z"/>
	<path d="M1161,656.9c7-4.3,19.6-1.5,19.6,8.2c-2.3-0.4-6,1.2-7.1-1.7c-1.6-4-8.7-4.4-10.3-0.3c-0.8,2.8,2.5,3.7,4.5,4.2
		c4.4,1.4,10.1,1.7,12.7,6.2c3,4.9-0.2,11.7-5.5,13.2c-5.2,1.6-11.3,1.4-15.7-2c-2.5-1.9-3.2-5.2-3.8-8.1c2.1-0.1,4.2-0.1,6.3-0.1
		c0.7,5.8,8.1,7.5,12.3,4.3c1.6-1.5,1.1-4.2-0.8-5.2c-4.5-2.4-10.3-2.1-14.3-5.7C1155,666.4,1156.4,659.4,1161,656.9z"/>
	<path d="M1401,656.9c7-4.3,19.5-1.4,19.6,8.2c-2.3-0.4-5.9,1.2-7.1-1.7c-1.3-3.3-5.6-3.8-8.5-2.5c-1.8,0.8-2.7,3.6-1,5
		c4.8,2.8,11.5,2,15.5,6.5c3.9,4.5,1.4,12.1-3.9,14.1c-5.5,2.1-12.4,1.8-17-2.1c-2.1-2-2.7-5-3.3-7.7c2-0.1,4-0.1,6.1-0.2
		c1.1,1.9,1.6,4.5,3.9,5.2c2.8,1.1,6.3,1,8.7-0.9c1.5-1.5,1-4.1-0.8-5.1c-4.5-2.4-10.3-2.1-14.2-5.7
		C1395,666.5,1396.3,659.3,1401,656.9z"/>
	<path d="M1098.8,655.7c6.1,0.1,12.1-0.3,18.2,0.2c5.4,0.5,8.8,6.9,6.8,11.8c-0.5,2-2.3,3.2-3.9,4.5c5.3,3.2,3.4,10,4.9,15
		c-2.2-0.1-4.4-0.1-6.6-0.2c-1-3.7,0.3-8.5-2.8-11.4c-3.1-1.3-6.6-0.6-9.8-0.8c0,4.1,0,8.2,0,12.3c-2.3,0-4.5,0-6.8,0
		C1098.8,676.6,1098.8,666.2,1098.8,655.7 M1105.6,661.1c0,2.9,0,5.8,0,8.7c3.3-0.1,6.7,0.3,9.9-0.4c2.9-1.5,3-6.5,0-7.9
		C1112.2,660.8,1108.9,661.2,1105.6,661.1z"/>
	<path d="M1129.8,655.7c7.6,0,15.3,0,22.9,0c0,1.9,0,3.8,0,5.8c-5.4,0-10.8,0-16.2,0c0,2.2,0,4.5,0,6.8c4.9,0,9.9,0,14.8,0
		c0,1.8,0,3.6,0,5.3c-5,0-9.9,0-14.9,0c0,2.6,0,5.1,0,7.7c5.5,0,11,0,16.6,0c0,1.9,0,3.8,0,5.8c-7.8,0-15.6,0-23.3,0
		C1129.8,676.6,1129.8,666.2,1129.8,655.7z"/>
	<path d="M1185.4,655.7c7.6-0.1,15.3,0,22.9,0c0,1.9,0,3.9,0,5.8c-5.4,0-10.8,0-16.2,0c0,2.2,0,4.5,0,6.8c4.9,0,9.9,0,14.8,0
		c0,1.8,0,3.5,0,5.3c-4.9,0-9.9,0-14.8,0c0,2.6,0,5.1,0,7.7c5.5,0,11,0,16.5,0c0,1.9,0,3.9,0,5.8c-7.7,0.1-15.5,0-23.2,0
		C1185.4,676.6,1185.5,666.2,1185.4,655.7z"/>
	<path d="M1210.8,655.7c8.3,0,16.7,0,25,0c0,1.9,0,3.9,0.1,5.8c-3.1,0.1-6.1,0-9.2,0c-0.1,8.5,0,17.1,0,25.7c-2.3,0-4.5,0-6.8,0
		c0-8.5-0.1-17.1,0-25.6c-3.1,0-6.1,0-9.2,0C1210.8,659.5,1210.8,657.6,1210.8,655.7z"/>
	<path d="M1425.3,655.7c7.6-0.1,15.3,0,22.9,0c0,1.9,0,3.9,0,5.8c-5.4,0-10.8,0-16.2,0c0,2.2,0,4.5,0,6.8c4.9,0,9.9,0,14.8,0
		c0,1.8,0,3.5,0,5.3c-5,0-9.9,0-14.8,0c0,2.6,0,5.1,0,7.7c5.5,0,11,0,16.5,0c0,1.9,0,3.8,0,5.8c-7.7,0.1-15.5,0-23.2,0
		C1425.3,676.6,1425.4,666.2,1425.3,655.7z"/>
	<path d="M1450.7,655.7c8.3,0,16.7,0,25.1,0c0,1.9,0,3.9,0,5.8c-3.1,0-6.2,0-9.2,0c0.1,8.5,0,17.1,0,25.6c-2.3,0-4.5,0-6.8,0
		c0-8.5-0.1-17.1,0.1-25.6c-3.1,0-6.2,0-9.2,0C1450.7,659.5,1450.7,657.6,1450.7,655.7z"/>
	<path d="M737.3,712.2c5.2-1.4,10.9-0.8,15.5,1.9c4.1,2.3,8.9,4.4,10.9,9c-0.1,0.5-0.4,1.5-0.5,2c-3.8,1.9-7.7,4.4-12.2,3.8
		c-7.8-0.8-14.4-5.6-20.5-10C730.5,715.3,734.5,713.6,737.3,712.2 M734.7,720.4c2.6,2,5.5,3.6,8.5,5c0-1.5,0-2.9,0-4.4
		c-1.8-1.2-3.6-2.3-5.5-3.4C736.7,718.5,735.7,719.5,734.7,720.4 M744.5,721.5c0,1.6,0,3.1,0.1,4.7c4.8,1.9,10.3,2.2,15-0.4
		c-1.3-1.8-2.9-3.4-4.6-4.8C751.6,722.4,748,722.5,744.5,721.5z"/>
</g>
</svg>
