<?xml version="1.0" encoding="utf-8"?>
<!-- Generator: Adobe Illustrator 21.1.0, SVG Export Plug-In . SVG Version: 6.00 Build 0)  -->
<svg version="1.1" id="Laag_1" xmlns="http://www.w3.org/2000/svg" xmlns:xlink="http://www.w3.org/1999/xlink" x="0px" y="0px"
	 viewBox="0 0 651 651" style="enable-background:new 0 0 651 651;" xml:space="preserve">
<style type="text/css">
	.st0{stroke:#050404;stroke-miterlimit:10;}
</style>
<g id="_x23_ffffffff">
</g>
<path class="st0" d="M209.2,75.2c46-25.8,94.5-47.3,144.8-63.3c43.3,38.3,86.4,77,129.6,115.4c13.7,12.4,27.7,24.3,41.1,37
	c24.5,22.9,44.7,51.7,52.7,84.7c5.2,19.6,3.5,40.1,2.7,60.1c-0.5,14.4-1.7,28.7-2.6,43c-0.4,6.1-2.5,11.9-2.7,18
	c-0.6,8.9-1.7,17.7-4.1,26.3c4,7.1,6.7,14.8,8.7,22.7c14.1,45.5,14.5,95,1.7,140.8c-2.6,10.3-6.3,20.7-13.1,28.9
	c-10.4,12.7-24.3,22-38.9,29.1c-12.5,6.4-26,10.9-39.5,14.8c-37,10.2-76.4,12.2-114,4.6c-24.2-11.1-48.1-22.8-71.6-35.4
	c-4.3-2.6-9.4-3.2-14.1-4.7c-29.9-9-57.6-26.2-77.5-50.4c-14-16.6-24-36.4-29.9-57.3c-5.2-20.6-10.1-41.3-14-62.2
	c-39.9-20.2-79.9-40.4-119.8-60.5c-2.7-1-2-4.5-2.6-6.8c-5.5-39.4-8.2-79.2-8.3-119c-0.1-14.3,0-28.7,0-43c0-1.5-0.1-3.2,1.2-4.2
	c25.6-21.3,51.8-41.9,79.2-60.9C147.1,111.8,177.7,92.6,209.2,75.2 M241.2,61.3c-41.9,21.6-82.5,45.6-120.7,73.2
	c-27.8,19.2-54.4,40.1-80.4,61.8c1.8,1.8,3.8,3.4,5.7,5c32.8,27.2,65.6,54.3,98.4,81.6c14.5,12.8,29.8,24.9,44.6,37.4
	c16.1,13.4,32.1,26.9,49.7,38.2c13.1,8.4,27,15.7,41.3,21.9c38.4,16.8,80.2,26.1,122.2,26c35.6,0.6,71.7-5.7,103.8-21.4
	c24.1-12,46-30,59.3-53.8c7.7-13.3,13.3-28.5,12.9-44.1c0.3-12.9-0.3-26-3.7-38.5c-7.4-29.4-24.8-55.4-46.1-76.7
	c-13.6-13.4-28.2-25.8-42.4-38.6c-44.1-39.4-88.3-78.7-132.4-118.1C314.8,27.4,277.4,43.2,241.2,61.3 M40.5,248.9
	c0.3,37.4,3,74.7,8.2,111.8c0.4,1.9,0,4.5,2.3,5.2c45.1,22.4,90.3,44.9,135.4,67.3c-4.9-38.8-5.9-78-5.9-117.1
	c-46.7-38.1-93.3-76.3-140-114.4C40.5,217.4,40.5,233.2,40.5,248.9 M538.3,366.4C511,389,476.1,401.1,441,405.8
	c-16.2,2.5-32.7,2.1-49,2.1c-21.7-0.9-43.4-3.8-64.4-9.2c-30.9-7.8-60.8-19.8-87.7-36.5c-14.5-8.8-27.7-19.5-40.8-30.1
	c-0.3,15.4-0.4,30.9,0.2,46.4c0.3,15.2,1.7,30.4,2.5,45.6c6.9,4.1,14.2,7.8,21.4,11.5c40.1,20.9,85.8,30.1,130.9,31.4
	c37.9,1.4,76.1-3.3,112.3-14.4c19.2-5.9,37.8-13.9,54.9-24.5c13.1-8,24.9-18.1,34.6-29.9c9.9-12.3,16.9-27.2,18.7-42.8
	c1.4-16.9,2.4-33.9,3.2-50.9C572,328.5,557.8,350.5,538.3,366.4 M182.3,317.8c0.2,32.7,0.5,65.4,3.7,97.9c0.5,5.8,1.4,11.5,1.6,17.4
	c0.3,0.3,0.9,0.8,1.2,1c3.3-3,6.7-5.8,10.5-8.2c0.4-1,0.9-2,1.3-2.9c-0.7-15.8-2.1-31.6-2.3-47.4c-0.7-14.6-0.1-29.2-0.3-43.7
	C193,326.9,187.4,322.5,182.3,317.8 M571.5,375.6c-5,12.6-12.3,24.3-21.7,34.1c-20.3,21.5-47.1,35.6-74.8,45.3
	c-39.6,13.7-81.8,18.8-123.6,17c0.9,6.1,1.6,12.2,2.5,18.2c20,1.7,40.1,2.1,60,0.2c36.1-3.6,72.2-13,103.1-32.4
	c14.1-9.1,27.2-20.3,36.9-34.1C564.2,409.9,570,392.9,571.5,375.6 M545.1,439.1c-23.8,24.2-55.6,38.7-88.1,46.9
	c-21.8,5.3-44.1,8.3-66.5,8.5c34.2,10.7,71.1,14,106.3,6.6c18.6-4.1,37-11.2,52-23.2c11-8.7,19.8-20.5,23.8-34.1
	c4.1-14.2,2.3-29.5-3.5-42.9C564.2,415.2,555.6,428.1,545.1,439.1 M202.6,427.1c-4.6,2.8-8.8,6.2-13.1,9.4c-1.1,0.9-2.5,0-3.5-0.4
	c-4.9-2.4-9.7-4.9-14.5-7.3c3.7,18.3,7.6,36.5,12.3,54.5c6.4,27.8,21,53.6,41.5,73.3c23.9,23.3,55.6,37.7,88.3,43.1
	c17.3-33.8,28-70.9,31.1-108.7c-0.7-7.3-1.9-14.6-2.7-21.9c-29-1.8-57.9-7.1-85.5-16.6C237.7,446.2,220,436.8,202.6,427.1
	 M580.3,432.6c-0.3,8.1-1.7,16.3-5.1,23.7c-6,13.9-16.7,25.4-29.2,33.8c-16,10.8-34.6,17.2-53.5,20.6c-13.9,2.9-28.3,3-42.5,2.8
	c-23.6-0.8-47-5.6-69.3-13.6c-6.6,8.9-13.6,17.6-18.3,27.7c-9,19-10.6,41.3-4.7,61.4c4.5,15.8,13,30.2,23.4,42.9
	c17.4,3.2,35.2,3.8,52.8,2.9c20.1-1.1,40.1-4.4,59.4-10.2c20.4-5.9,40.2-14.2,57.4-26.8c10.2-7.7,19.9-17.2,24.5-29.5
	C589.6,524.7,591.1,477.2,580.3,432.6 M343.7,469.3c0.6,9.9,3.9,19.8,1.9,29.7c-3.9,34.8-14.2,68.9-30,100.1
	c4.7-3.4,11.8-4.7,14-10.7c16.1-29.4,25.6-62,30.7-95c-2.5-0.2-4.9-0.5-7.4-0.6c-2.2-7.1-2.2-14.7-3.5-21.9c0.5-0.4,1.4-1.1,1.8-1.5
	C348.7,469.5,346.2,469.4,343.7,469.3 M362.1,493.7c-2.8,18.2-6.9,36.3-12.7,53.9c1.1,0.6,2.2,1.2,3.3,1.8
	c2.2-12.9,7.3-25.2,14.6-36c3.1-4.9,7-9.2,10.1-14.1c-0.9-1.6-1.7-3.2-2.4-4.9C370.7,494.1,366.4,494,362.1,493.7 M328.6,594.6
	c-4.9,2.7-9.7,5.5-14.6,8.3c-0.9-0.2-2.7-0.6-3.6-0.8c18.6,9.9,37.5,19.1,56.5,28.1c3.4,1.5,6.7,3.5,10.3,4.6
	c2.5-2.5-1.8-4.9-2.9-7.1c-12.9-17.2-21.9-37.9-22.7-59.6c-0.2-4.5,0.3-9,0.2-13.5c-1.2-0.9-2.6-1.5-3.9-2.2
	C342.7,566.9,336.3,581.1,328.6,594.6z"/>
</svg>
