<?xml version="1.0" encoding="utf-8"?>
<!-- Generator: Adobe Illustrator 21.1.0, SVG Export Plug-In . SVG Version: 6.00 Build 0)  -->
<svg version="1.1" id="Laag_1" xmlns="http://www.w3.org/2000/svg" xmlns:xlink="http://www.w3.org/1999/xlink" x="0px" y="0px"
	 viewBox="0 0 1296 438" style="enable-background:new 0 0 1296 438;" xml:space="preserve">
<style type="text/css">
	.st0{fill:#1C1C1A;}
	.st1{fill:#EF7D00;}
</style>
<g id="_x23_fefefeff">
</g>
<g id="_x23_1c1c1aff">
	<path class="st0" d="M617.2,0h8.6c14.6,1,28.9,6.5,40.2,15.8c14.2,11.5,23.6,28.8,25.5,47.1c1.7,15.9-2.1,32.3-10.8,45.7
		c-7.4,11.5-18.3,20.8-30.9,26.3c-16.8,7.4-36.5,7.9-53.7,1.2c-13.8-5.3-25.8-15.1-33.8-27.5c-8.9-13.7-12.8-30.6-10.7-46.8
		c2-17.6,11.1-34.2,24.7-45.5C587.7,6.7,602.3,0.9,617.2,0 M610.4,18.7c-12.7,2.7-24.3,10.2-31.9,20.9c-7.8,10.7-11.2,24.4-9.5,37.5
		c1.9,15.6,11.2,30.1,24.6,38.2c10.2,6.4,22.6,9,34.4,7.5c15.8-1.9,30.4-11.5,38.5-25.1c6.5-10.6,8.9-23.5,6.9-35.8
		c-2.4-15-11.7-28.8-24.7-36.7C637.5,18.2,623.4,16,610.4,18.7z"/>
	<path class="st0" d="M73.1,69.4c32.4-3.2,64.9,2.4,96.6,8.9c0,25.2,0,50.4,0,75.6c-22.7-2.3-45.7-4.8-68.6-2.2
		c-7.7,0.1-8.4,14.4-0.5,14.6c15.6,1.3,31.5-0.3,46.8,3.4c9.3,2.3,18.3,7,24.3,14.6c5.1,6.7,8.3,14.7,10.9,22.7
		c6.6,22.2,8.2,46.1,4.2,69c-2.9,15.8-9.1,31.7-21,42.9c-7.3,6.9-16.8,10.9-26.4,13.8c-17,4.8-34.9,5.6-52.5,4.8
		C58.7,336,30.6,330.3,3.8,321c-0.4-25.4,0.2-50.7,0-76.1c17.2,3.7,34.6,7.3,52.1,9.5c9.9,1.4,20.1,3,30.1,1.2
		c3-0.6,6.5-2.2,7.1-5.5c0.8-3.7,0.9-8.2-2.2-10.9c-2.4-2.2-5.8-1.8-8.8-1.9c-13.3,0.2-27,1.3-40-2.6c-11.2-3.2-21.3-10.1-27.9-19.8
		c-8.3-12-11.8-26.6-13.2-40.9c0.1-13,0.2-26,0-38.9c1.3-16.9,7.8-34.1,20.6-45.6C35.5,76.6,54.6,71.3,73.1,69.4 M48.8,90.6
		c-10.3,4.7-19.3,12.6-24.5,22.8c-6.2,11.8-7.2,25.5-7,38.6c0.6,14.8,2,29.9,7.7,43.7c3.6,8.8,10,16.8,19,20.4
		c12.7,5.2,26.7,2.6,40,3.6c7.6,0.5,16.1,1.9,21.1,8.2c8.5,10.8,8.2,28.5-2.6,37.7c-8.5,7-20.1,8-30.6,7.9
		c-17.1-0.3-33.7-4.7-50.4-7.6c0.1,14.3-0.1,28.6-0.2,42.9c23.9,6.9,48.8,10.5,73.6,10.8c14.5,0,29.2-1.1,43-5.9
		c6.2-2.2,12.4-5,16.9-10c7.2-7.9,10.7-18.4,12.7-28.8c2.8-14.8,2.7-30.1,0.7-45c-1.4-9.2-3.4-18.4-7.4-26.8
		c-3.5-7.1-9-13.7-16.6-16.3c-13.9-4.9-28.9-2.9-43.2-4.8c-6.6-0.9-13.7-2.6-18.2-7.8c-4.6-5.3-5.1-12.8-4.4-19.4
		c0.6-6,2-12.6,6.8-16.7c5.5-4.5,13.1-4.5,19.9-4.8c15.8,0,31.6,1,47.4,1.8c0.4-15,0.1-30,0.2-45.1c-19.6-4.3-39.6-7.3-59.7-7.5
		C78,82.7,62.6,84.3,48.8,90.6z"/>
	<path class="st0" d="M1244.7,78.7c10.7-10.6,29.4-11.1,40.7-1.1c6.3,5.2,9.2,13.1,10.6,20.8v5.3c-1.5,6.8-3.6,13.7-8.7,18.7
		c-10.5,11.4-30.1,12.1-41.6,1.9C1232.8,113,1232.3,90.5,1244.7,78.7 M1261.2,76.3c-3.5,0.7-6.8,2.2-9.6,4.4
		c-13.6,10.5-12.1,35.4,3.7,43.1c7.8,3.8,17.9,2.9,24.7-2.7c11.8-9.6,11.9-29.9,0.5-39.8C1275.3,76.7,1267.9,74.9,1261.2,76.3z"/>
	<path class="st0" d="M184.2,74.7c58.8,0,117.7-0.1,176.5,0c0,31.4,0,62.9,0,94.3c-12.7,0.1-25.3,0-38,0c0,53.9-0.2,107.9-0.1,161.9
		c-33.3,0.1-66.6,0-99.9,0c0-54,0-107.9,0-161.9c-12.9-0.1-25.8,0-38.7,0C184.1,137.5,184.4,106.1,184.2,74.7 M201.1,91.5
		c0,20.1,0.1,40.3-0.1,60.4c12.9,0.1,25.8-0.2,38.6,0.1c-0.1,54,0,107.9,0,161.9c22,0,43.9,0,65.9,0c0-54.1,0-108.1,0-162.1
		c12.8,0,25.5,0,38.3,0c0-20.1,0-40.2,0-60.3C296.2,91.5,248.7,91.5,201.1,91.5z"/>
	<path class="st0" d="M375.5,74.6c50.7,0,101.3,0,152,0c1.3,24.4,12.5,48,30.5,64.4c0,4.6-0.1,9.1-0.2,13.7c-28.7-0.1-57.5,0-86.2,0
		c0,5.1,0,10.2,0,15.4c28.8,0,57.7,0,86.5,0c-0.1,22.8,0.2,45.6-0.1,68.4c-28.5-0.3-57-0.1-85.5-0.1c0,5.4,0,10.9,0,16.4
		c28.5,0,57.1-0.1,85.6,0.1c0,26,0,52,0,78c-60.9,0-121.7,0-182.6,0C375.5,245.5,375.5,160,375.5,74.6 M392.5,91.6
		c0,74.1,0,148.2,0,222.3c49.5,0,99,0,148.5,0c0-14.7,0-29.4,0-44.1c-28.5,0-57.1,0.1-85.6,0c-0.1-16.8-0.1-33.5,0-50.3
		c28.5,0.1,57,0,85.5,0.1c0.1-11.5,0-23,0.1-34.5c-28.9-0.1-57.7,0.1-86.6-0.1c0.1-16.4,0-32.7,0-49.1c25.5-0.1,51.1,0,76.6-0.1
		c-5.1-7.3-10.4-14.8-13.6-23.2c-2.5-6.8-4.5-13.9-6.1-21C471.7,91.6,432.1,91.6,392.5,91.6z"/>
	<path class="st0" d="M687.4,136.6c17.8-15.5,26.8-38.9,28-62.1c25.8,0.2,51.7-0.2,77.6,0.2c7,16.4,13.3,33,20.5,49.3
		c-0.1-16.5,0-33,0-49.5c31.6,0,63.2,0,94.9,0c0,85.4,0,170.8,0,256.1c-31.8,0-63.6,0-95.4,0c-10-22.6-19.8-45.3-29.6-67.9
		c-0.2,22.6,0,45.3-0.1,67.9c-31.9,0.2-63.8,0.1-95.7,0.1C687.4,266.1,687.3,201.4,687.4,136.6 M704.5,144
		c-0.1,56.6-0.2,113.2-0.2,169.8c20.5,0,41,0,61.5,0c0.1-45.7-0.2-91.4,0.1-137c13.9,30.4,27.1,61.1,40.6,91.7c-2.9,0-5.7,0-8.6,0.1
		c2.9,0.1,5.8,0,8.7,0.1c6.6,15,13.2,30,19.8,45.1c21.5,0,43,0,64.5,0c0.1-74-0.2-148,0.2-222c-20.4,0-40.7,0-61.1,0
		c-0.1,40.3,0.3,80.7-0.2,121c-1.1-1.9-1.9-3.9-2.8-5.9c-16.2-38.4-32.7-76.7-48.4-115.3c-16.4-0.1-32.8,0-49.1-0.1
		C726.3,110.9,717.2,129.1,704.5,144z"/>
	<path class="st0" d="M922.5,194c0-39.8-0.3-79.6-0.1-119.4c60.6,0.1,121.1,0,181.7,0c-0.1,26,0.2,52,0.1,78
		c-28.6,0.1-57.1-0.1-85.6,0.2c0,5.3,0,10.6,0,15.8c28.4,0.1,56.8,0,85.2,0.1c0,22.6,0,45.1,0,67.7c-28.4,0.1-56.8-0.1-85.2,0.1
		c0,5.5,0,10.9,0,16.4c28.4,0,56.7,0,85.1,0c0,26,0,52,0,78c-59.2,0-118.4,0-177.7,0c-1.3-0.2-4.2,0.8-3.6-1.7
		C922.5,284,922.5,239,922.5,194 M939.6,313.8c49,0,98,0,147.1,0c0-14.6,0-29.3,0-43.9c-28.3-0.1-56.7,0-85,0c0-16.9,0-33.8,0-50.7
		c28.3-0.1,56.6,0.2,84.9-0.2c-0.1-11.2,0-22.3,0-33.5c-28.3,0-56.7,0-85.1,0c0-16.7-0.1-33.4,0-50c28.5,0,57,0,85.6,0
		c-0.1-14.7,0.1-29.3-0.1-44c-49.1,0-98.2,0-147.4,0C939.5,165.6,939.5,239.7,939.6,313.8z"/>
	<path class="st0" d="M1120.5,74.6c32.2,0,64.4,0,96.6,0c0,56,0,111.9,0,167.9c20.3,0,40.6,0,60.9,0c0.3,29.4,0.1,58.9,0.1,88.3
		c-52.5,0-105,0-157.6,0C1120.5,245.4,1120.5,160,1120.5,74.6 M1137.3,313.8c41.2,0,82.4,0,123.7,0c0-18.1,0.1-36.2,0-54.3
		c-20.3,0.1-40.5,0-60.8,0c0-56,0-111.9,0-167.9c-20.9,0-41.8,0-62.8,0C1137.3,165.6,1137.4,239.7,1137.3,313.8z"/>
	<path class="st0" d="M1254.1,84.6c5.2,0.1,10.5-0.2,15.8,0.1c3.5,0.2,7.4,1.7,8.7,5.3c1.1,3.4,1.1,7.5-1.2,10.4
		c-1.6,2.1-4.3,2.6-6.6,3.3c3,4.9,6.2,9.7,9.2,14.6c-2.2,0-4.4,0-6.6-0.1c-2.7-4.8-5.7-9.5-8.6-14.3c-1.7,0-3.4,0-5.1,0
		c0,4.8,0,9.6,0,14.4c-1.9,0-3.7,0-5.6,0C1254.1,107.2,1254.2,95.9,1254.1,84.6 M1259.8,89.5c0,3.2,0,6.4,0,9.6
		c3.6-0.1,7.3,0.4,10.8-0.5c3.8-1,4.2-7.3,0.4-8.6C1267.3,89,1263.5,89.7,1259.8,89.5z"/>
	<path class="st0" d="M571.7,149.8c15.1,9.2,32.7,14.3,50.4,14c17.2,0,34.3-5,48.9-14c0,60.4,0,120.8,0,181.1
		c-33.1-0.1-66.2,0.1-99.3-0.1C571.6,270.4,571.6,210.1,571.7,149.8 M588.3,177.7c0,45.4,0,90.9,0,136.3c21.8,0.2,43.6,0,65.5,0.1
		c0-45.4,0-90.8,0-136.2c-14.5,5.4-30.4,7.6-45.8,5C601.3,181.9,594.8,179.9,588.3,177.7z"/>
</g>
<g id="_x23_ef7d00ff">
	<path class="st1" d="M610.4,18.7c13-2.7,27-0.5,38.4,6.5c13.1,7.8,22.4,21.6,24.7,36.7c2,12.2-0.4,25.2-6.9,35.8
		c-8.1,13.7-22.7,23.2-38.5,25.1c-11.9,1.5-24.3-1.1-34.4-7.5c-13.4-8.2-22.8-22.7-24.6-38.2c-1.7-13.1,1.7-26.8,9.5-37.5
		C586.1,28.9,597.7,21.4,610.4,18.7z"/>
	<path class="st1" d="M645.3,360.6c3.2,0,6.5,0.1,9.7,0.1c0,3,0,6.1,0,9.1c-3.2,0-6.5,0-9.7,0C645.2,366.7,645.2,363.6,645.3,360.6z
		"/>
	<path class="st1" d="M464.8,360.6c3.5,0,7,0,10.5,0c0,19.9,0,39.8,0,59.7c-3.5,0-7,0-10.5,0C464.7,400.5,464.8,380.5,464.8,360.6z"
		/>
	<path class="st1" d="M605.8,360.6c3.2,0,6.5,0,9.7,0c0.1,19.9,0,39.8,0,59.8c-3.2,0-6.5,0-9.7,0
		C605.8,400.5,605.7,380.5,605.8,360.6z"/>
	<path class="st1" d="M625.5,360.6c3.2,0,6.4,0,9.6,0c0,19.9,0,39.8,0,59.7c-3.2,0-6.4,0-9.6,0C625.5,400.5,625.5,380.5,625.5,360.6
		z"/>
	<path class="st1" d="M978.1,360.6c3.2,0,6.4,0,9.7,0c0,7.1-0.1,14.3,0,21.4c5.2-6.4,15-8.1,22.2-4c4.2,2.4,6.2,7.3,6.1,11.9
		c0.1,10.1,0,20.2,0,30.3c-3.2,0-6.3,0.1-9.4-0.1c-0.7-10.1,0.4-20.2-0.6-30.2c-0.4-5.7-7.3-7.8-12-5.7c-4.3,1.6-6.5,6.3-6.4,10.7
		c0,8.4,0,16.9,0,25.3c-3.2,0-6.5,0.1-9.7,0C978.1,400.5,978.1,380.5,978.1,360.6z"/>
	<path class="st1" d="M1123.5,420.4c-0.1-19.9-0.1-39.9,0-59.8c3.2,0,6.4,0,9.6,0.1c0,19.9,0,39.8,0,59.7
		C1129.8,420.4,1126.6,420.4,1123.5,420.4z"/>
	<path class="st1" d="M536.2,364.2c3.2,0,6.4,0,9.7,0c0,4.3,0,8.6,0,13c2.9,0,5.8,0,8.7,0.1c-0.1,2.4-0.1,4.8-0.2,7.2
		c-2.8,0-5.6,0-8.4-0.1c-0.1,8.6-0.3,17.2,0,25.7c0.3,4.2,5.6,3,8.4,3c0,2.4,0,4.9,0,7.3c-4.7,0.4-9.7,1.2-14.1-0.9
		c-3.1-1.5-4.1-5.2-4.1-8.4c-0.2-8.9,0.1-17.8-0.1-26.7c-2.4,0-4.8,0-7.2,0c0-2.4,0-4.9,0-7.3c2.4,0,4.8,0,7.2,0
		C536.2,372.8,536.3,368.5,536.2,364.2z"/>
	<path class="st1" d="M811.1,364.1c3.2,0,6.4,0,9.7,0c0,4.3,0,8.6,0,12.9c2.9,0,5.8,0.1,8.7,0.1c0,2.4-0.1,4.8-0.1,7.2
		c-2.8,0-5.7,0-8.5,0c0,8.5-0.4,17.1,0.1,25.6c0.3,4.3,5.6,3.1,8.5,3.1c0,2.4,0,4.7-0.1,7.1c-4.3,0.9-9,1.1-13.2-0.4
		c-3.2-1.1-4.8-4.6-4.8-7.7c-0.4-9.2,0.2-18.5-0.3-27.8c-2.4,0-4.7,0-7.1,0.1c0-2.4,0-4.8,0-7.3c2.4,0,4.8,0,7.2,0
		C811.1,372.8,811.1,368.5,811.1,364.1z"/>
	<path class="st1" d="M862.1,364.1c3.2,0,6.4,0,9.7,0c-0.1,4.3,0,8.6,0,12.9c2.9,0,5.8,0,8.7,0.1c-0.1,2.3,0,4.7-0.3,7
		c-2.8,0.2-5.6,0.1-8.4,0.1c-0.2,7.5-0.1,15.1-0.1,22.6c0.2,1.9-0.2,4.4,1.6,5.6c2.2,1,4.7,0.4,7.1,0.5c0,2.5-0.2,5-0.3,7.4
		c-4.7,0.2-9.9,1.1-14.2-1.3c-3.2-1.8-3.7-5.9-3.8-9.2c-0.1-8.6,0.1-17.1-0.1-25.7c-2.4,0-4.7,0-7.1,0c0-2.4,0-4.8,0.1-7.3
		c2.4,0,4.7,0,7.1,0C862.1,372.8,862.1,368.5,862.1,364.1z"/>
	<path class="st1" d="M495.3,383c2.8-3.1,6.2-6.2,10.5-6.8c5.2-0.7,11.1,0,14.9,4.1c3,3.1,3.6,7.6,3.6,11.7c0,9.5,0,18.9,0,28.4
		c-3.2,0-6.4,0-9.6,0c0-8.8,0-17.5,0-26.3c-0.1-3.3-0.5-7.3-3.4-9.3c-4.4-2.5-10.6-1.1-13.3,3.2c-1.9,2.6-2,5.9-2,9
		c0,7.8,0,15.6,0,23.4c-3.3,0-6.5,0-9.8,0c0-14.4,0-28.8,0-43.2c3.1,0,6.1,0,9.2,0C495.4,379.1,495.3,381.1,495.3,383z"/>
	<path class="st1" d="M562.6,382.6c6.3-7.5,18.3-8.8,26.4-3.5c7.3,4.7,10.2,13.8,9.5,22.1c-10.7,0-21.3,0-32,0
		c0.4,3,0.7,6.1,2.7,8.5c3.3,4.4,9.8,5.3,14.6,3c2.5-1.1,3.5-3.8,5.2-5.8c2.9-0.4,5.9-0.2,8.9-0.1c-1.3,5.2-4.6,10.1-9.5,12.5
		c-9,4.5-21.8,2.7-27.6-6.1C555.1,404,555.5,390.9,562.6,382.6 M569.4,387.4c-1.9,2-2.4,4.8-3,7.5c7.5,0,15,0.1,22.5-0.1
		c-0.9-3.1-1.7-6.4-4.2-8.5C580.5,382.2,573,382.9,569.4,387.4z"/>
	<path class="st1" d="M668.1,382.2c6.7-8.1,21.4-8.8,27.5,0.6c-0.1-1.9-0.2-3.8-0.3-5.6c3.2,0,6.5,0,9.8,0c0,13.6,0,27.2,0,40.8
		c0,5.1-1.2,10.5-4.9,14.2c-3.6,3.6-8.7,4.7-13.5,5.8h-6.2c-4.2-1.3-8.8-2.3-12.2-5.3c-2.5-2.2-3.3-5.5-4.3-8.5
		c3.2-0.1,6.4-0.1,9.6-0.1c1.4,2.3,2.8,5.2,5.8,5.7c4.4,1.1,9.7,1.1,13.3-2.1c3.6-3.7,2.7-9.3,2.8-14c-2.7,2.6-5.5,5.6-9.4,6.4
		c-4.5,0.9-9.3,0.4-13.3-1.8c-4.6-2.4-7.6-7.1-8.8-12C661.8,398.1,662.5,388.7,668.1,382.2 M679.4,384.5c-7.6,4.1-8.3,15-5.1,22.2
		c2.7,6.6,12.5,8.2,17.2,2.9c4.4-5.3,4.8-13.2,2.3-19.5C691.7,384.5,684.7,382.1,679.4,384.5z"/>
	<path class="st1" d="M714.4,388.5c2.9-7.4,10.6-12.8,18.6-12.6c7.5-0.3,14.8,4,18.2,10.7c2.5,4.4,2.9,9.6,2.8,14.5
		c-10.7,0.1-21.4,0-32.1,0c0.4,3.1,0.9,6.4,3,8.8c3.3,4.2,9.5,4.9,14.2,2.8c2.6-1.1,3.9-3.8,5.2-6.1c3,0,6,0,9.1,0
		c-1.3,4.3-3.4,8.6-7.3,11.1c-8.6,5.8-21.9,4.9-28.7-3.3C711.7,407.3,711,396.9,714.4,388.5 M725.2,387.1c-2.1,2-2.6,5-3.3,7.7
		c7.5,0.1,15,0,22.4,0c-0.6-3-1.5-6.1-3.8-8.3C736.5,382.3,729,382.8,725.2,387.1z"/>
	<path class="st1" d="M770.2,383.1c2.7-2.9,5.7-5.9,9.8-6.7c5.2-1,11.2-0.3,15.2,3.4c3,2.9,4,7.2,4,11.2c0,9.8,0,19.6,0,29.4
		c-3.1,0-6.2,0.1-9.3-0.1c-0.8-9.7,0.2-19.5-0.5-29.2c-0.1-3.9-3.2-7.6-7.3-7.5c-6-0.8-11.3,4.6-11.2,10.4c-0.2,8.8,0,17.5,0,26.3
		c-3.2,0.1-6.5,0.1-9.7,0c0.1-14.4,0-28.8,0-43.2c3,0,6.1,0,9.1,0C770.2,379.1,770.2,381.1,770.2,383.1z"/>
	<path class="st1" d="M888.6,382.6c6.2-7.2,17.6-8.7,25.7-3.8c7.7,4.5,10.9,14,10.1,22.5c-10.7,0.1-21.5-0.2-32.2,0.1
		c0.6,2.9,1,6.1,3,8.4c3.3,4.4,9.8,5.2,14.5,2.9c2.5-1.2,3.7-3.8,5.1-6c3,0,5.9,0,8.9,0.1c-1.3,4.7-3.9,9.2-8.2,11.7
		c-8.5,5-20.9,4.1-27.5-3.6C880.9,405.8,881,391.4,888.6,382.6 M895.4,387.4c-2,2-2.4,4.9-3,7.5c7.5,0,15,0.2,22.5-0.1
		c-0.9-3-1.7-6.3-4.2-8.5C906.5,382.2,899,382.9,895.4,387.4z"/>
	<path class="st1" d="M934.8,382.8c3.9-4.8,10.2-7,16.2-6.8c5.8-0.1,11.9,1.7,15.8,6.3c2.3,2.6,3.2,6.1,4,9.4
		c-3.2,0.1-6.4,0.1-9.6,0.1c-1-2.2-1.7-4.7-3.7-6.2c-5.3-4-14.2-1.9-16.6,4.5c-2.4,6-2.4,13.4,0.9,19c3,5.1,10.5,6.4,15,2.7
		c2.4-1.9,3.3-4.9,4.2-7.7c3.2,0,6.4,0,9.6,0.1c-1.2,4.7-2.8,9.6-6.6,12.9c-5.8,5-14.4,5.5-21.4,3.2c-6.7-2.1-11.4-8.5-12.6-15.3
		C928.7,397.5,929.7,388.9,934.8,382.8z"/>
	<path class="st1" d="M1035.1,383.1c2.7-3,5.8-6,9.9-6.8c5.6-1.1,12.4-0.1,16.2,4.7c2.7,3.4,2.9,7.9,2.9,12c0,9.1,0,18.2,0,27.4
		c-3.2,0-6.4,0-9.6,0c-0.2-9.4,0.1-18.9-0.2-28.3c0-3.7-2.2-7.9-6.2-8.3c-5.9-1.4-11.9,3.3-12.2,9.3c-0.4,9.1,0,18.2-0.2,27.4
		c-3.2,0-6.4,0-9.6,0c0-14.4,0-28.8,0-43.2c3,0,6,0,9.1,0C1035.1,379.1,1035.1,381.1,1035.1,383.1z"/>
	<path class="st1" d="M1087.5,376.6c7.2-1.5,15.6-0.5,21.2,4.7c5.8,5.4,7.5,14,6.4,21.7c-0.6,5.5-3.3,10.9-7.7,14.4
		c-5.7,4.5-13.7,5.2-20.5,3.5c-6.8-1.6-12.3-7.2-14-13.8c-1.9-6.8-1.6-14.3,1.7-20.6C1077.1,381.4,1082,377.8,1087.5,376.6
		 M1089.2,384.4c-8.7,4-9.8,16.3-5.5,23.9c3.3,6.4,13.1,7.6,17.9,2.3c5.1-5.8,5.4-15.1,1.5-21.7
		C1100.4,384.2,1094.1,382.4,1089.2,384.4z"/>
	<path class="st1" d="M1156.5,376.7c7.3-1.6,15.7-0.7,21.4,4.5c5.8,5.2,7.5,13.5,6.7,20.9c-0.6,7.1-4.5,14.3-11.2,17.3
		c-9,4.1-21.2,2.8-27.6-5.2c-5-6.5-5.8-15.4-3.8-23.1C1143.8,384.1,1149.4,378.2,1156.5,376.7 M1158.3,384.5
		c-8.6,4.3-9.5,16.6-5,24.1c3.5,6.3,13.3,7.2,17.9,1.7c4.9-6,5.2-15.3,1.1-21.8C1169.5,384,1163.2,382.4,1158.3,384.5z"/>
	<path class="st1" d="M1198,380c7.2-6,19.2-5.6,25,2.1c-0.1-1.7-0.1-3.4-0.2-5c3.2,0,6.4,0,9.7,0c0,13.6,0,27.2,0,40.9
		c0,4.7-0.9,9.8-4.1,13.4c-3.4,4.1-8.9,5.3-13.8,6.6h-6.2c-4.5-1.2-9.4-2.3-12.8-5.6c-2.3-2.2-3.1-5.4-4-8.3
		c3.1-0.1,6.2-0.3,9.3,0.2c1.9,2,3.1,5.1,6.2,5.6c4.6,1,10.5,0.9,13.7-3c2.8-3.8,1.9-8.8,2.2-13.2c-2.7,2.5-5.3,5.4-9,6.3
		c-6.3,1.4-13.6,0-18-4.9c-3.9-4.3-5.4-10.3-5.6-16C1190.1,392,1192.4,384.6,1198,380 M1207.2,384.3c-7.2,3.4-8.2,13-6.4,19.8
		c1.4,5.9,7.7,10.2,13.7,8.2c4.6-1.2,7.3-5.8,8-10.2c0.8-5,0.5-10.7-2.8-14.9C1216.8,383.7,1211.4,382.7,1207.2,384.3z"/>
	<path class="st1" d="M645.2,377.1c3.2,0,6.5,0,9.8,0c0,14.4,0,28.8,0,43.3c-3.3,0-6.5,0-9.8-0.1
		C645.3,405.9,645.2,391.5,645.2,377.1z"/>
	<path class="st1" d="M1237.4,377.1c3.6,0,7.1,0,10.7,0c3.8,10.7,7.3,21.5,11.4,32.1c3.6-10.7,7.3-21.4,10.8-32.1
		c3.4,0,6.7,0,10.1,0c-4.6,12.7-9.3,25.4-14,38.1c-2.2,5.7-3.9,11.7-7.2,16.9c-1.9,3.1-5.4,4.6-8.6,5.9h-6.1c-0.7-0.2-2.2-0.5-3-0.7
		c0-2.7,0-5.4,0-8.1c3,0,6.9,1.2,9.2-1.4c2.1-3,3.8-7,2-10.5C1247.5,403.9,1242.5,390.5,1237.4,377.1z"/>
</g>
</svg>
